<?xml version="1.0" encoding="UTF-8" standalone="no"?>
<!-- Generator: Adobe Illustrator 16.0.0, SVG Export Plug-In . SVG Version: 6.00 Build 0)  -->

<svg
   xmlns:dc="http://purl.org/dc/elements/1.1/"
   xmlns:cc="http://creativecommons.org/ns#"
   xmlns:rdf="http://www.w3.org/1999/02/22-rdf-syntax-ns#"
   xmlns:svg="http://www.w3.org/2000/svg"
   xmlns="http://www.w3.org/2000/svg"
   xmlns:xlink="http://www.w3.org/1999/xlink"
   xmlns:sodipodi="http://sodipodi.sourceforge.net/DTD/sodipodi-0.dtd"
   xmlns:inkscape="http://www.inkscape.org/namespaces/inkscape"
   version="1.1"
   id="Layer_1"
   x="0px"
   y="0px"
   width="990.03491"
   height="727.7569"
   viewBox="0 0 990.03487 727.75688"
   enable-background="new 0 0 595.275 841.89"
   xml:space="preserve"
   inkscape:version="0.91 r13725"
   sodipodi:docname="nlg_nature.svg"><metadata
     id="metadata1033"><rdf:RDF><cc:Work
         rdf:about=""><dc:format>image/svg+xml</dc:format><dc:type
           rdf:resource="http://purl.org/dc/dcmitype/StillImage" /><dc:title></dc:title></cc:Work></rdf:RDF></metadata><defs
     id="defs1031" /><sodipodi:namedview
     pagecolor="#ffffff"
     bordercolor="#666666"
     borderopacity="1"
     objecttolerance="10"
     gridtolerance="10"
     guidetolerance="10"
     inkscape:pageopacity="0"
     inkscape:pageshadow="2"
     inkscape:window-width="1577"
     inkscape:window-height="923"
     id="namedview1029"
     showgrid="false"
     fit-margin-top="0"
     fit-margin-left="0"
     fit-margin-right="0"
     fit-margin-bottom="0"
     inkscape:zoom="0.5606433"
     inkscape:cx="830.48805"
     inkscape:cy="491.38172"
     inkscape:window-x="1440"
     inkscape:window-y="0"
     inkscape:window-maximized="0"
     inkscape:current-layer="layer12" /><g
     inkscape:groupmode="layer"
     id="layer11"
     inkscape:label="color"
     style="display:none"><rect
       style="fill:#7f3f98"
       x="1.4241406"
       y="2.7664137"
       transform="matrix(0.99999608,-0.00279999,0.00279999,0.99999608,0,0)"
       width="986.58099"
       height="723.54993"
       id="rect3" /></g><g
     inkscape:groupmode="layer"
     id="layer12"
     inkscape:label="markers"
     style="display:none"><polygon
       style="fill:none;stroke:#000000;stroke-miterlimit:3.86400008"
       stroke-miterlimit="3.864"
       points="219.658,321.618 196.958,321.681 197.021,344.381 174.322,344.446 174.386,367.145 151.688,367.208 151.751,389.809 174.45,389.744 174.514,412.446 151.815,412.509 151.879,435.21 174.579,435.145 197.279,435.08 197.214,412.381 219.915,412.317 219.979,435.017 265.277,434.889 265.214,412.188 242.513,412.253 242.449,389.553 265.149,389.488 265.085,366.888 242.386,366.951 242.322,344.251 219.722,344.317 "
       id="polygon11"
       transform="matrix(0,-2.9,2.9,0,-339.08251,835.29179)" /><polygon
       style="fill:none;stroke:#000000;stroke-miterlimit:3.86400008"
       stroke-miterlimit="3.864"
       points="219.301,230.917 196.602,230.981 196.666,253.683 173.965,253.747 174.029,276.446 151.33,276.511 151.395,299.109 174.094,299.045 174.158,321.746 151.459,321.81 151.523,344.508 174.223,344.445 196.922,344.381 196.859,321.682 219.558,321.617 219.622,344.317 264.922,344.188 264.858,321.488 242.158,321.554 242.094,298.852 264.793,298.789 264.729,276.189 242.029,276.252 241.965,253.554 219.365,253.619 "
       id="polygon13"
       transform="matrix(0,-2.9,2.9,0,-339.08251,835.29179)" /><polygon
       style="fill:none;stroke:#000000;stroke-miterlimit:3.86400008"
       stroke-miterlimit="3.864"
       points="218.943,140.218 196.245,140.282 196.309,162.982 173.608,163.047 173.671,185.746 150.974,185.811 151.038,208.41 173.736,208.345 173.8,231.047 151.103,231.11 151.167,253.811 173.866,253.746 196.565,253.681 196.501,230.981 219.202,230.917 219.266,253.618 264.564,253.489 264.5,230.79 241.8,230.854 241.736,208.153 264.436,208.09 264.373,185.489 241.671,185.554 241.607,162.854 219.007,162.917 "
       id="polygon15"
       transform="matrix(0,-2.9,2.9,0,-339.08251,835.29179)" /><polygon
       style="fill:none;stroke:#000000;stroke-miterlimit:3.86400008"
       stroke-miterlimit="3.864"
       points="151.559,321.91 128.859,321.974 128.923,344.672 106.223,344.738 106.159,322.039 83.559,322.103 83.623,344.802 83.687,367.4 60.987,367.466 61.052,390.166 83.751,390.103 83.816,412.802 61.116,412.866 61.18,435.565 106.48,435.438 106.416,412.738 129.116,412.674 129.18,435.373 151.88,435.31 151.816,412.608 174.516,412.544 174.451,389.845 151.752,389.909 151.687,367.208 174.387,367.145 174.322,344.545 151.623,344.609 "
       id="polygon17"
       transform="matrix(0,-2.9,2.9,0,-339.08251,835.29179)" /><polygon
       style="fill:none;stroke:#000000;stroke-miterlimit:3.86400008"
       stroke-miterlimit="3.864"
       points="151.302,231.21 128.602,231.275 128.667,253.974 105.967,254.039 105.902,231.338 83.302,231.402 83.366,254.103 60.667,254.168 60.731,276.768 83.43,276.703 83.494,299.402 60.795,299.466 60.859,322.166 106.159,322.038 106.223,344.737 128.923,344.673 128.859,321.974 174.258,321.845 174.194,299.145 151.495,299.209 151.43,276.51 174.129,276.446 174.067,253.847 151.366,253.91 "
       id="polygon19"
       transform="matrix(0,-2.9,2.9,0,-339.08251,835.29179)" /><polygon
       style="fill:none;stroke:#000000;stroke-miterlimit:3.86400008"
       stroke-miterlimit="3.864"
       points="151.045,140.511 128.345,140.575 128.41,163.174 105.708,163.239 105.646,140.639 83.044,140.703 83.108,163.303 60.41,163.368 60.474,186.068 83.172,186.004 83.237,208.703 60.539,208.767 60.667,254.168 83.367,254.103 83.302,231.403 105.902,231.338 105.966,254.039 128.667,253.974 128.603,231.275 174.001,231.146 173.938,208.446 151.237,208.51 151.173,185.81 173.874,185.746 173.809,163.046 151.108,163.111 "
       id="polygon21"
       transform="matrix(0,-2.9,2.9,0,-339.08251,835.29179)" /><rect
       style="fill:none;stroke:#000000;stroke-width:2.9000001;stroke-miterlimit:3.86400008"
       x="-726.30688"
       y="1.4499989"
       stroke-miterlimit="3.864"
       width="723.4021"
       height="986.45532"
       id="rect65"
       transform="matrix(0,-1,1,0,0,0)" /></g><g
     id="g67"
     transform="matrix(0,-2.9,2.9,0,-339.08251,835.29179)"><defs
       id="defs69"><rect
         id="SVGID_1_"
         x="0.001"
         y="-0.001"
         width="595.27399"
         height="841.89001" /></defs><clipPath
       id="SVGID_2_"><use
         height="100%"
         width="100%"
         y="0"
         x="0"
         style="overflow:visible"
         xlink:href="#SVGID_1_"
         overflow="visible"
         id="use73" /></clipPath><path
       style="fill:#ee3124"
       inkscape:connector-curvature="0"
       clip-path="url(#SVGID_2_)"
       d="m 94.454,446.94 2.15,0 0,1.232 c 0,1.198 -0.951,2.15 -2.158,2.15 -0.952,0 -1.607,-0.561 -1.896,-1.088 -0.195,-0.356 -0.263,-0.535 -0.263,-1.988 0,-1.453 0.068,-1.632 0.263,-1.989 0.289,-0.526 0.944,-1.088 1.896,-1.088 1.147,0 1.938,0.808 2.124,1.794 l -0.969,0 c -0.144,-0.468 -0.577,-0.876 -1.155,-0.876 -0.434,0 -0.748,0.204 -0.935,0.442 -0.238,0.307 -0.306,0.476 -0.306,1.717 0,1.24 0.068,1.41 0.306,1.717 0.187,0.237 0.501,0.441 0.935,0.441 0.696,0 1.24,-0.526 1.24,-1.283 l 0,-0.314 -1.232,0 0,-0.867 z"
       id="path75" /><path
       style="fill:#ee3124"
       inkscape:connector-curvature="0"
       clip-path="url(#SVGID_2_)"
       d="m 97.6,445.964 0.867,0 0,0.458 0.017,0 c 0.272,-0.34 0.663,-0.51 1.122,-0.51 0.348,0 0.637,0.128 0.901,0.332 l -0.629,0.748 c -0.204,-0.153 -0.349,-0.213 -0.57,-0.213 -0.425,0 -0.841,0.272 -0.841,0.901 l 0,2.592 -0.867,0 0,-4.308 z"
       id="path77" /><path
       style="fill:#ee3124"
       inkscape:connector-curvature="0"
       clip-path="url(#SVGID_2_)"
       d="m 103.016,449.89 -0.017,0 c -0.178,0.298 -0.476,0.434 -1.063,0.434 -0.96,0 -1.521,-0.569 -1.521,-1.317 0,-0.688 0.476,-1.274 1.403,-1.274 l 1.198,0 0,-0.451 c 0,-0.407 -0.264,-0.552 -0.884,-0.552 -0.45,0 -0.663,0.085 -0.816,0.331 l -0.68,-0.519 c 0.332,-0.459 0.808,-0.629 1.454,-0.629 1.062,0 1.793,0.357 1.793,1.42 l 0,2.94 -0.867,0 0,-0.383 z m 0,-1.445 -1.037,0 c -0.51,0 -0.748,0.204 -0.748,0.519 0,0.289 0.23,0.545 0.816,0.545 0.722,0 0.969,-0.078 0.969,-0.749 l 0,-0.315 z"
       id="path79" /><path
       style="fill:#ee3124"
       inkscape:connector-curvature="0"
       clip-path="url(#SVGID_2_)"
       d="m 105.005,445.964 0.867,0 0,0.45 c 0.271,-0.298 0.671,-0.502 1.113,-0.502 0.527,0 0.909,0.238 1.156,0.562 0.238,0.306 0.306,0.586 0.306,1.648 0,1.054 -0.068,1.334 -0.306,1.641 -0.247,0.323 -0.629,0.561 -1.156,0.561 -0.442,0 -0.79,-0.204 -1.113,-0.51 l 0,2.201 -0.867,0 0,-6.051 z m 2.575,2.158 c 0,-0.671 -0.042,-1.343 -0.858,-1.343 -0.808,0 -0.85,0.714 -0.85,1.343 0,0.62 0.042,1.334 0.85,1.334 0.816,0 0.858,-0.671 0.858,-1.334"
       id="path81" /><path
       style="fill:#ee3124"
       inkscape:connector-curvature="0"
       clip-path="url(#SVGID_2_)"
       d="m 109.417,444.221 0.867,0 0,2.201 0.017,0 c 0.272,-0.34 0.663,-0.51 1.122,-0.51 0.671,0 1.436,0.519 1.436,1.497 l 0,2.863 -0.867,0 0,-2.566 c 0,-0.587 -0.366,-0.927 -0.85,-0.927 -0.493,0 -0.858,0.34 -0.858,0.927 l 0,2.566 -0.867,0 0,-6.051 z"
       id="path83" /><path
       style="fill:#ee3124"
       inkscape:connector-curvature="0"
       clip-path="url(#SVGID_2_)"
       d="m 114.006,444.221 0.867,0 0,0.867 -0.867,0 0,-0.867 z m 0,1.743 0.867,0 0,4.309 -0.867,0 0,-4.309 z"
       id="path85" /><path
       style="fill:#ee3124"
       inkscape:connector-curvature="0"
       clip-path="url(#SVGID_2_)"
       d="m 119.191,449.575 c -0.374,0.434 -0.892,0.748 -1.547,0.748 -0.994,0 -1.954,-0.629 -1.954,-2.201 0,-1.581 0.96,-2.21 1.954,-2.21 0.655,0 1.173,0.314 1.547,0.748 l -0.637,0.569 c -0.213,-0.264 -0.519,-0.45 -0.876,-0.45 -0.705,0 -1.122,0.399 -1.122,1.343 0,0.935 0.417,1.334 1.122,1.334 0.357,0 0.663,-0.187 0.876,-0.45 l 0.637,0.569 z"
       id="path87" /><path
       style="fill:#ee3124"
       inkscape:connector-curvature="0"
       clip-path="url(#SVGID_2_)"
       d="m 119.922,448.955 c 0.374,0.365 0.782,0.553 1.36,0.553 0.493,0 0.85,-0.188 0.85,-0.553 0,-0.306 -0.23,-0.399 -0.527,-0.425 l -0.765,-0.068 c -0.714,-0.06 -1.241,-0.484 -1.241,-1.224 0,-0.875 0.697,-1.326 1.606,-1.326 0.757,0 1.267,0.229 1.692,0.587 l -0.536,0.629 c -0.34,-0.238 -0.688,-0.399 -1.156,-0.399 -0.552,0 -0.739,0.221 -0.739,0.519 0,0.188 0.136,0.374 0.569,0.407 l 0.714,0.052 c 0.893,0.06 1.25,0.604 1.25,1.292 0,0.841 -0.782,1.325 -1.785,1.325 -0.697,0 -1.343,-0.255 -1.896,-0.773 l 0.604,-0.596 z"
       id="path89" /><path
       style="fill:#ee3124"
       inkscape:connector-curvature="0"
       clip-path="url(#SVGID_2_)"
       d="m 128.753,444.17 c 1.7,0 3.077,1.377 3.077,3.077 0,1.699 -1.377,3.076 -3.077,3.076 -1.7,0 -3.077,-1.377 -3.077,-3.076 0,-1.7 1.378,-3.077 3.077,-3.077 m 0,5.542 c 1.386,0 2.414,-1.028 2.414,-2.465 0,-1.437 -1.028,-2.465 -2.414,-2.465 -1.385,0 -2.414,1.028 -2.414,2.465 0,1.437 1.03,2.465 2.414,2.465 m 1.666,-1.93 c -0.153,0.901 -0.756,1.428 -1.555,1.428 -1.156,0 -1.87,-0.842 -1.87,-1.963 0,-1.147 0.671,-1.964 1.844,-1.964 0.825,0 1.471,0.459 1.581,1.386 l -0.612,0 c -0.094,-0.449 -0.476,-0.773 -0.96,-0.773 -0.757,0 -1.19,0.604 -1.19,1.334 0,0.706 0.476,1.368 1.207,1.368 0.484,0 0.867,-0.34 0.943,-0.815 l 0.612,0 z"
       id="path91" /><polygon
       style="fill:#ee3124"
       clip-path="url(#SVGID_2_)"
       points="138.146,446.813 138.146,444.221 139.064,444.221 139.064,450.272 138.146,450.272 138.146,447.629 135.749,447.629 135.749,450.272 134.831,450.272 134.831,444.221 135.749,444.221 135.749,446.813 "
       id="polygon93" /><path
       style="fill:#ee3124"
       inkscape:connector-curvature="0"
       clip-path="url(#SVGID_2_)"
       d="m 142.523,449.89 -0.017,0 c -0.178,0.298 -0.476,0.434 -1.063,0.434 -0.96,0 -1.521,-0.569 -1.521,-1.317 0,-0.688 0.476,-1.274 1.403,-1.274 l 1.198,0 0,-0.451 c 0,-0.407 -0.264,-0.552 -0.884,-0.552 -0.45,0 -0.663,0.085 -0.816,0.331 l -0.68,-0.519 c 0.332,-0.459 0.808,-0.629 1.454,-0.629 1.062,0 1.793,0.357 1.793,1.42 l 0,2.94 -0.867,0 0,-0.383 z m 0,-1.445 -1.037,0 c -0.51,0 -0.748,0.204 -0.748,0.519 0,0.289 0.23,0.545 0.816,0.545 0.722,0 0.969,-0.078 0.969,-0.749 l 0,-0.315 z"
       id="path95" /><path
       style="fill:#ee3124"
       inkscape:connector-curvature="0"
       clip-path="url(#SVGID_2_)"
       d="m 144.513,445.964 0.867,0 0,0.45 c 0.271,-0.298 0.671,-0.502 1.113,-0.502 0.527,0 0.909,0.238 1.156,0.562 0.238,0.306 0.306,0.586 0.306,1.648 0,1.054 -0.068,1.334 -0.306,1.641 -0.247,0.323 -0.629,0.561 -1.156,0.561 -0.442,0 -0.79,-0.204 -1.113,-0.51 l 0,2.201 -0.867,0 0,-6.051 z m 2.575,2.158 c 0,-0.671 -0.042,-1.343 -0.858,-1.343 -0.808,0 -0.85,0.714 -0.85,1.343 0,0.62 0.042,1.334 0.85,1.334 0.816,0 0.858,-0.671 0.858,-1.334"
       id="path97" /><path
       style="fill:#ee3124"
       inkscape:connector-curvature="0"
       clip-path="url(#SVGID_2_)"
       d="m 148.924,445.964 0.867,0 0,0.45 c 0.271,-0.298 0.671,-0.502 1.113,-0.502 0.527,0 0.909,0.238 1.156,0.562 0.238,0.306 0.306,0.586 0.306,1.648 0,1.054 -0.068,1.334 -0.306,1.641 -0.247,0.323 -0.629,0.561 -1.156,0.561 -0.442,0 -0.79,-0.204 -1.113,-0.51 l 0,2.201 -0.867,0 0,-6.051 z m 2.576,2.158 c 0,-0.671 -0.042,-1.343 -0.858,-1.343 -0.808,0 -0.85,0.714 -0.85,1.343 0,0.62 0.042,1.334 0.85,1.334 0.816,0 0.858,-0.671 0.858,-1.334"
       id="path99" /><path
       style="fill:#ee3124"
       inkscape:connector-curvature="0"
       clip-path="url(#SVGID_2_)"
       d="m 152.715,445.964 0.918,0 1.02,3.017 0.017,0 1.02,-3.017 0.918,0 -1.853,5.201 c -0.238,0.663 -0.688,0.85 -1.215,0.85 l -0.289,0 0,-0.815 0.255,0 c 0.221,0 0.433,-0.119 0.518,-0.374 l 0.238,-0.723 -1.547,-4.139 z"
       id="path101" /><path
       style="fill:#ee3124"
       inkscape:connector-curvature="0"
       clip-path="url(#SVGID_2_)"
       d="m 158.861,449.456 2.363,-2.957 c 0.187,-0.238 0.221,-0.425 0.221,-0.604 0,-0.425 -0.315,-0.858 -0.833,-0.858 -0.468,0 -0.842,0.331 -0.884,0.875 l -0.867,0 c 0.008,-0.985 0.773,-1.742 1.683,-1.742 1.011,0 1.768,0.773 1.768,1.734 0,0.399 -0.111,0.747 -0.366,1.062 l -1.946,2.439 2.312,0 0,0.867 -3.451,0 0,-0.816 z"
       id="path103" /><path
       style="fill:#ee3124"
       inkscape:connector-curvature="0"
       clip-path="url(#SVGID_2_)"
       d="m 162.992,445.912 c 0,-1.113 0.825,-1.742 1.717,-1.742 0.892,0 1.717,0.629 1.717,1.742 l 0,2.669 c 0,1.113 -0.825,1.742 -1.717,1.742 -0.892,0 -1.717,-0.629 -1.717,-1.742 l 0,-2.669 z m 2.567,0.052 c 0,-0.587 -0.34,-0.927 -0.85,-0.927 -0.51,0 -0.85,0.34 -0.85,0.927 l 0,2.566 c 0,0.586 0.34,0.926 0.85,0.926 0.51,0 0.85,-0.34 0.85,-0.926 l 0,-2.566 z"
       id="path105" /><polygon
       style="fill:#ee3124"
       clip-path="url(#SVGID_2_)"
       points="168.398,445.139 167.54,445.768 167.54,444.85 168.398,444.221 169.265,444.221 169.265,450.272 168.398,450.272 "
       id="polygon107" /><path
       style="fill:#ee3124"
       inkscape:connector-curvature="0"
       clip-path="url(#SVGID_2_)"
       d="m 171.101,449.456 2.363,-2.957 c 0.187,-0.238 0.221,-0.425 0.221,-0.604 0,-0.425 -0.315,-0.858 -0.833,-0.858 -0.468,0 -0.842,0.331 -0.884,0.875 l -0.867,0 c 0.008,-0.985 0.773,-1.742 1.683,-1.742 1.011,0 1.768,0.773 1.768,1.734 0,0.399 -0.111,0.747 -0.366,1.062 l -1.946,2.439 2.312,0 0,0.867 -3.451,0 0,-0.816 z"
       id="path109" /><rect
       style="fill:#ee3124"
       x="175.496"
       y="449.405"
       clip-path="url(#SVGID_2_)"
       width="0.86699998"
       height="0.86699998"
       id="rect111" /><path
       style="fill:#ee3124"
       inkscape:connector-curvature="0"
       clip-path="url(#SVGID_2_)"
       d="m 182.729,448.921 -2.295,0 -0.468,1.352 -0.969,0 2.202,-6.052 0.765,0 2.201,6.052 -0.969,0 -0.467,-1.352 z m -0.264,-0.816 -0.875,-2.644 -0.018,0 -0.875,2.644 1.768,0 z"
       id="path113" /><path
       style="fill:#ee3124"
       inkscape:connector-curvature="0"
       clip-path="url(#SVGID_2_)"
       d="m 184.735,444.221 0.867,0 0,4.938 c 0,0.195 0.111,0.297 0.323,0.297 l 0.297,0 0,0.816 -0.382,0 c -0.629,0 -1.105,-0.271 -1.105,-1.045 l 0,-5.006 z"
       id="path115" /><path
       style="fill:#ee3124"
       inkscape:connector-curvature="0"
       clip-path="url(#SVGID_2_)"
       d="m 186.928,444.221 0.867,0 0,4.938 c 0,0.195 0.111,0.297 0.323,0.297 l 0.297,0 0,0.816 -0.382,0 c -0.629,0 -1.105,-0.271 -1.105,-1.045 l 0,-5.006 z"
       id="path117" /><path
       style="fill:#ee3124"
       inkscape:connector-curvature="0"
       clip-path="url(#SVGID_2_)"
       d="m 191.161,445.964 0.867,0 0,0.458 0.017,0 c 0.272,-0.34 0.663,-0.51 1.122,-0.51 0.348,0 0.637,0.128 0.901,0.332 l -0.629,0.748 c -0.204,-0.153 -0.349,-0.213 -0.57,-0.213 -0.425,0 -0.841,0.272 -0.841,0.901 l 0,2.592 -0.867,0 0,-4.308 z"
       id="path119" /><path
       style="fill:#ee3124"
       inkscape:connector-curvature="0"
       clip-path="url(#SVGID_2_)"
       d="m 194.493,444.221 0.867,0 0,0.867 -0.867,0 0,-0.867 z m 0,1.743 0.867,0 0,4.309 -0.867,0 0,-4.309 z"
       id="path121" /><path
       style="fill:#ee3124"
       inkscape:connector-curvature="0"
       clip-path="url(#SVGID_2_)"
       d="m 198.931,449.822 c -0.272,0.297 -0.672,0.501 -1.114,0.501 -0.561,0 -0.944,-0.28 -1.139,-0.526 -0.246,-0.323 -0.323,-0.483 -0.323,-1.675 0,-1.198 0.077,-1.359 0.323,-1.683 0.195,-0.247 0.578,-0.527 1.139,-0.527 0.442,0 0.79,0.17 1.114,0.51 l 0,-0.458 0.866,0 0,4.207 c 0,1.3 -0.884,1.895 -1.869,1.895 -0.553,0 -1.114,-0.289 -1.496,-0.722 l 0.671,-0.536 c 0.212,0.213 0.51,0.392 0.841,0.392 0.578,0 0.987,-0.332 0.987,-0.936 l 0,-0.442 z m -1.539,-0.697 c 0.119,0.153 0.34,0.331 0.688,0.331 0.34,0 0.562,-0.178 0.68,-0.331 0.153,-0.195 0.171,-0.314 0.171,-1.003 0,-0.697 -0.018,-0.815 -0.171,-1.012 -0.118,-0.152 -0.34,-0.331 -0.68,-0.331 -0.348,0 -0.569,0.179 -0.688,0.331 -0.153,0.196 -0.17,0.314 -0.17,1.012 0,0.689 0.017,0.808 0.17,1.003"
       id="path123" /><path
       style="fill:#ee3124"
       inkscape:connector-curvature="0"
       clip-path="url(#SVGID_2_)"
       d="m 200.919,444.221 0.867,0 0,2.201 0.017,0 c 0.272,-0.34 0.663,-0.51 1.122,-0.51 0.671,0 1.436,0.519 1.436,1.497 l 0,2.863 -0.867,0 0,-2.566 c 0,-0.587 -0.366,-0.927 -0.85,-0.927 -0.493,0 -0.858,0.34 -0.858,0.927 l 0,2.566 -0.867,0 0,-6.051 z"
       id="path125" /><path
       style="fill:#ee3124"
       inkscape:connector-curvature="0"
       clip-path="url(#SVGID_2_)"
       d="m 205.535,444.654 0.867,0 0,1.31 0.629,0 0,0.662 -0.629,0 0,2.507 c 0,0.238 0.093,0.323 0.306,0.323 l 0.323,0 0,0.816 -0.451,0 c -0.603,0 -1.045,-0.383 -1.045,-1.063 l 0,-2.584 -0.433,0 0,-0.662 0.433,0 0,-1.309 z"
       id="path127" /><path
       style="fill:#ee3124"
       inkscape:connector-curvature="0"
       clip-path="url(#SVGID_2_)"
       d="m 207.974,448.955 c 0.374,0.365 0.782,0.553 1.36,0.553 0.493,0 0.85,-0.188 0.85,-0.553 0,-0.306 -0.23,-0.399 -0.527,-0.425 l -0.765,-0.068 c -0.714,-0.06 -1.241,-0.484 -1.241,-1.224 0,-0.875 0.697,-1.326 1.606,-1.326 0.757,0 1.267,0.229 1.692,0.587 l -0.536,0.629 c -0.34,-0.238 -0.688,-0.399 -1.156,-0.399 -0.552,0 -0.739,0.221 -0.739,0.519 0,0.188 0.136,0.374 0.569,0.407 l 0.714,0.052 c 0.893,0.06 1.25,0.604 1.25,1.292 0,0.841 -0.782,1.325 -1.785,1.325 -0.697,0 -1.343,-0.255 -1.896,-0.773 l 0.604,-0.596 z"
       id="path129" /><path
       style="fill:#ee3124"
       inkscape:connector-curvature="0"
       clip-path="url(#SVGID_2_)"
       d="m 213.967,445.964 0.867,0 0,0.458 0.017,0 c 0.272,-0.34 0.663,-0.51 1.122,-0.51 0.348,0 0.637,0.128 0.901,0.332 l -0.629,0.748 c -0.204,-0.153 -0.349,-0.213 -0.57,-0.213 -0.425,0 -0.841,0.272 -0.841,0.901 l 0,2.592 -0.867,0 0,-4.308 z"
       id="path131" /><path
       style="fill:#ee3124"
       inkscape:connector-curvature="0"
       clip-path="url(#SVGID_2_)"
       d="m 217.776,448.445 c 0,0.705 0.434,1.063 1.028,1.063 0.332,0 0.689,-0.153 0.944,-0.417 l 0.629,0.537 c -0.425,0.491 -0.977,0.695 -1.555,0.695 -0.884,0 -1.913,-0.425 -1.913,-2.192 0,-1.675 0.944,-2.219 1.777,-2.219 0.951,0 1.776,0.706 1.776,1.819 l 0,0.714 -2.686,0 z m 1.819,-0.714 c -0.025,-0.654 -0.399,-1.003 -0.909,-1.003 -0.51,0 -0.893,0.349 -0.91,1.003 l 1.819,0 z"
       id="path133" /><path
       style="fill:#ee3124"
       inkscape:connector-curvature="0"
       clip-path="url(#SVGID_2_)"
       d="m 221.5,448.955 c 0.374,0.365 0.782,0.553 1.36,0.553 0.493,0 0.85,-0.188 0.85,-0.553 0,-0.306 -0.23,-0.399 -0.527,-0.425 l -0.765,-0.068 c -0.714,-0.06 -1.241,-0.484 -1.241,-1.224 0,-0.875 0.697,-1.326 1.606,-1.326 0.757,0 1.267,0.229 1.692,0.587 l -0.536,0.629 c -0.34,-0.238 -0.688,-0.399 -1.156,-0.399 -0.552,0 -0.739,0.221 -0.739,0.519 0,0.188 0.136,0.374 0.569,0.407 l 0.714,0.052 c 0.893,0.06 1.25,0.604 1.25,1.292 0,0.841 -0.782,1.325 -1.785,1.325 -0.697,0 -1.343,-0.255 -1.896,-0.773 l 0.604,-0.596 z"
       id="path135" /><path
       style="fill:#ee3124"
       inkscape:connector-curvature="0"
       clip-path="url(#SVGID_2_)"
       d="m 226.106,448.445 c 0,0.705 0.434,1.063 1.028,1.063 0.332,0 0.689,-0.153 0.944,-0.417 l 0.629,0.537 c -0.425,0.491 -0.977,0.695 -1.555,0.695 -0.884,0 -1.913,-0.425 -1.913,-2.192 0,-1.675 0.944,-2.219 1.777,-2.219 0.951,0 1.776,0.706 1.776,1.819 l 0,0.714 -2.686,0 z m 1.819,-0.714 c -0.025,-0.654 -0.399,-1.003 -0.909,-1.003 -0.51,0 -0.893,0.349 -0.91,1.003 l 1.819,0 z"
       id="path137" /><path
       style="fill:#ee3124"
       inkscape:connector-curvature="0"
       clip-path="url(#SVGID_2_)"
       d="m 229.702,445.964 0.867,0 0,0.458 0.017,0 c 0.272,-0.34 0.663,-0.51 1.122,-0.51 0.348,0 0.637,0.128 0.901,0.332 l -0.629,0.748 c -0.204,-0.153 -0.349,-0.213 -0.57,-0.213 -0.425,0 -0.841,0.272 -0.841,0.901 l 0,2.592 -0.867,0 0,-4.308 z"
       id="path139" /><polygon
       style="fill:#ee3124"
       clip-path="url(#SVGID_2_)"
       points="233.978,450.272 232.397,445.964 233.314,445.964 234.326,448.98 234.343,448.98 235.355,445.964 236.272,445.964 234.691,450.272 "
       id="polygon141" /><path
       style="fill:#ee3124"
       inkscape:connector-curvature="0"
       clip-path="url(#SVGID_2_)"
       d="m 237.387,448.445 c 0,0.705 0.434,1.063 1.028,1.063 0.332,0 0.689,-0.153 0.944,-0.417 l 0.629,0.537 c -0.425,0.491 -0.977,0.695 -1.555,0.695 -0.884,0 -1.913,-0.425 -1.913,-2.192 0,-1.675 0.944,-2.219 1.777,-2.219 0.951,0 1.776,0.706 1.776,1.819 l 0,0.714 -2.686,0 z m 1.819,-0.714 c -0.025,-0.654 -0.399,-1.003 -0.909,-1.003 -0.51,0 -0.893,0.349 -0.91,1.003 l 1.819,0 z"
       id="path143" /><path
       style="fill:#ee3124"
       inkscape:connector-curvature="0"
       clip-path="url(#SVGID_2_)"
       d="m 243.557,449.822 c -0.271,0.297 -0.671,0.501 -1.113,0.501 -0.527,0 -0.909,-0.237 -1.156,-0.561 -0.238,-0.307 -0.306,-0.586 -0.306,-1.649 0,-1.054 0.068,-1.334 0.306,-1.64 0.247,-0.323 0.629,-0.562 1.156,-0.562 0.442,0 0.79,0.204 1.113,0.51 l 0,-2.201 0.867,0 0,6.052 -0.867,0 0,-0.45 z m -1.708,-1.709 c 0,0.672 0.042,1.343 0.858,1.343 0.808,0 0.85,-0.714 0.85,-1.343 0,-0.62 -0.042,-1.334 -0.85,-1.334 -0.816,0 -0.858,0.672 -0.858,1.334"
       id="path145" /><rect
       style="fill:#ee3124"
       x="245.42"
       y="449.405"
       clip-path="url(#SVGID_2_)"
       width="0.86699998"
       height="0.86699998"
       id="rect147" /><path
       style="fill:#ee3124"
       inkscape:connector-curvature="0"
       clip-path="url(#SVGID_2_)"
       d="m 98.462,283.607 c 0.637,1.923 2.002,3.312 3.188,3.33 l 0.007,0.03 c 0.022,-0.009 0.041,-0.024 0.063,-0.031 0.022,-0.002 0.045,0.001 0.068,0 l -0.01,-0.03 c 1,-0.536 1.313,-2.323 0.676,-4.246 -0.638,-1.924 -2.002,-3.313 -3.185,-3.33 l -0.012,-0.03 c -0.022,0.008 -0.039,0.021 -0.059,0.03 -0.023,0.001 -0.047,-10e-4 -0.07,0.001 l 0.01,0.03 c -1.001,0.534 -1.314,2.32 -0.676,4.246"
       id="path149" /><path
       style="fill:#ee3124"
       inkscape:connector-curvature="0"
       clip-path="url(#SVGID_2_)"
       d="m 100.583,271.19 c 1.176,2.067 3.049,3.407 4.393,3.224 l 0.018,0.033 c 0.019,-0.015 0.038,-0.032 0.062,-0.047 0.025,-0.003 0.05,-0.005 0.078,-0.01 l -0.02,-0.033 c 1.005,-0.775 0.934,-2.849 -0.243,-4.915 -1.179,-2.068 -3.051,-3.406 -4.393,-3.224 l -0.018,-0.033 c -0.023,0.014 -0.04,0.03 -0.061,0.044 -0.026,0.006 -0.055,0.008 -0.078,0.013 l 0.017,0.033 c -1.005,0.776 -0.935,2.849 0.245,4.915"
       id="path151" /><path
       style="fill:#ee3124"
       inkscape:connector-curvature="0"
       clip-path="url(#SVGID_2_)"
       d="m 108.587,274.903 c 0.197,1.991 1.227,3.573 2.385,3.777 l 0.004,0.032 c 0.022,-0.007 0.044,-0.015 0.066,-0.02 0.024,0.003 0.045,0.007 0.068,0.01 l -0.002,-0.031 c 1.102,-0.366 1.807,-2.071 1.609,-4.061 -0.196,-1.992 -1.228,-3.573 -2.386,-3.777 l -0.003,-0.033 c -0.022,0.005 -0.044,0.014 -0.065,0.02 -0.024,-0.004 -0.048,-0.009 -0.069,-0.01 l 0.003,0.03 c -1.103,0.367 -1.807,2.07 -1.61,4.063"
       id="path153" /><path
       style="fill:#ee3124"
       inkscape:connector-curvature="0"
       clip-path="url(#SVGID_2_)"
       d="m 115.315,268.637 -0.012,0.03 c 0.024,0.002 0.048,0 0.071,0.003 0.02,0.008 0.038,0.021 0.059,0.03 l 0.011,-0.029 c 1.184,0.014 2.598,-1.341 3.303,-3.246 0.709,-1.907 0.461,-3.7 -0.52,-4.261 l 0.01,-0.029 c -0.024,-0.004 -0.045,-10e-4 -0.068,-0.004 -0.02,-0.009 -0.041,-0.023 -0.061,-0.031 l -0.01,0.03 c -1.183,-0.014 -2.597,1.339 -3.306,3.245 -0.706,1.907 -0.459,3.701 0.523,4.262"
       id="path155" /><path
       style="fill:#ee3124"
       inkscape:connector-curvature="0"
       clip-path="url(#SVGID_2_)"
       d="m 107.208,287.059 c 0.637,1.924 2.001,3.314 3.186,3.331 l 0.009,0.028 c 0.02,-0.008 0.039,-0.021 0.061,-0.029 0.023,-0.002 0.046,10e-4 0.07,0 l -0.012,-0.031 c 1.002,-0.535 1.314,-2.322 0.676,-4.245 -0.636,-1.924 -2.002,-3.313 -3.183,-3.33 l -0.012,-0.031 c -0.022,0.009 -0.039,0.02 -0.059,0.031 -0.023,0 -0.048,-0.001 -0.071,0 l 0.011,0.031 c -1.002,0.535 -1.315,2.321 -0.676,4.245"
       id="path157" /><path
       style="fill:#ee3124"
       inkscape:connector-curvature="0"
       clip-path="url(#SVGID_2_)"
       d="m 111.758,298.534 0.036,-0.006 c -0.009,-0.018 -0.021,-0.036 -0.029,-0.055 0,-0.02 0.004,-0.038 0.006,-0.059 l -0.037,0.006 c -0.529,-0.895 -2.6,-1.338 -4.926,-0.994 -2.326,0.344 -4.098,1.353 -4.236,2.348 l -0.037,0.004 c 0.009,0.019 0.021,0.036 0.031,0.054 -0.002,0.019 -0.006,0.04 -0.008,0.059 l 0.039,-0.005 c 0.527,0.896 2.598,1.338 4.924,0.994 2.328,-0.343 4.098,-1.353 4.237,-2.346"
       id="path159" /><path
       style="fill:#ee3124"
       inkscape:connector-curvature="0"
       clip-path="url(#SVGID_2_)"
       d="m 106.414,293.214 0.036,-0.007 c -0.012,-0.017 -0.026,-0.035 -0.037,-0.052 -10e-4,-0.019 0.001,-0.039 0,-0.06 l -0.035,0.01 c -0.633,-0.848 -2.745,-1.112 -5.019,-0.572 -2.275,0.538 -3.917,1.694 -3.937,2.695 l -0.035,0.009 c 0.009,0.017 0.024,0.033 0.035,0.05 0.001,0.019 -10e-4,0.04 0.001,0.058 l 0.036,-0.008 c 0.632,0.848 2.743,1.112 5.018,0.572 2.275,-0.537 3.917,-1.694 3.937,-2.695"
       id="path161" /><path
       style="fill:#ee3124"
       inkscape:connector-curvature="0"
       clip-path="url(#SVGID_2_)"
       d="m 97.257,289.665 -0.027,0.006 c -0.465,-0.624 -2.023,-0.818 -3.698,-0.421 -1.677,0.398 -2.886,1.248 -2.902,1.985 l -0.025,0.008 c 0.007,0.013 0.017,0.024 0.025,0.035 0.002,0.015 0,0.032 0.002,0.044 l 0.025,-0.005 c 0.466,0.624 2.023,0.818 3.7,0.421 1.674,-0.397 2.884,-1.248 2.9,-1.987 l 0.026,-0.004 c -0.008,-0.012 -0.018,-0.026 -0.026,-0.039 -0.002,-0.014 0,-0.028 0,-0.043"
       id="path163" /><path
       style="fill:#ee3124"
       inkscape:connector-curvature="0"
       clip-path="url(#SVGID_2_)"
       d="m 94.402,272.5 c 1.315,0.962 2.821,1.349 3.558,0.952 l 0.019,0.013 c 0.008,-0.011 0.015,-0.026 0.024,-0.04 0.014,-0.008 0.028,-0.013 0.042,-0.024 l -0.02,-0.014 c 0.358,-0.673 -0.31,-1.88 -1.625,-2.842 -1.316,-0.962 -2.823,-1.348 -3.559,-0.951 l -0.02,-0.015 c -0.01,0.012 -0.014,0.026 -0.023,0.038 -0.013,0.009 -0.029,0.017 -0.042,0.026 l 0.02,0.013 c -0.358,0.676 0.309,1.881 1.626,2.844"
       id="path165" /><path
       style="fill:#ee3124"
       inkscape:connector-curvature="0"
       clip-path="url(#SVGID_2_)"
       d="m 107.192,263.554 c 0.88,1.27 2.161,2.043 3.008,1.867 l 0.013,0.02 c 0.014,-0.011 0.025,-0.021 0.036,-0.033 0.018,-0.003 0.033,-0.006 0.05,-0.01 l -0.013,-0.021 c 0.594,-0.538 0.42,-1.862 -0.461,-3.131 -0.881,-1.27 -2.162,-2.043 -3.01,-1.868 l -0.013,-0.02 c -0.014,0.009 -0.024,0.021 -0.036,0.032 -0.015,0.004 -0.033,0.006 -0.051,0.009 l 0.014,0.022 c -0.594,0.54 -0.419,1.862 0.463,3.133"
       id="path167" /><path
       style="fill:#ee3124"
       inkscape:connector-curvature="0"
       clip-path="url(#SVGID_2_)"
       d="m 118.995,300.564 c -0.101,-0.526 -0.195,-1.058 -0.287,-1.593 1.043,-1.603 2.92,-3.866 6.334,-6.75 2.871,-2.425 11.55,-4.928 11.55,-4.928 l -0.583,-0.833 c 0,0 -6.232,0.626 -12.205,3.985 -3.062,1.722 -4.766,3.355 -5.705,4.541 -0.317,-2.346 -0.569,-4.702 -0.767,-6.967 0.744,-1.536 2.584,-4.29 7.128,-8.128 2.869,-2.423 11.549,-4.927 11.549,-4.927 l -0.582,-0.833 c 0,0 -6.232,0.627 -12.206,3.985 -3.587,2.017 -5.311,3.912 -6.122,5.108 l 0.171,-9.77 c 0.784,-1.223 2.102,-2.871 4.337,-4.919 2.061,-1.887 8.29,-3.838 8.29,-3.838 l -0.419,-0.647 c 0,0 -4.472,0.488 -8.759,3.103 -2.752,1.679 -3.979,3.25 -4.507,4.162 l -0.257,0.055 -0.257,-0.055 c -0.528,-0.912 -1.755,-2.483 -4.506,-4.162 -4.288,-2.615 -8.76,-3.103 -8.76,-3.103 l -0.417,0.647 c 0,0 6.227,1.951 8.287,3.838 2.235,2.048 3.554,3.696 4.338,4.919 l 0.17,9.771 c -0.81,-1.197 -2.533,-3.092 -6.122,-5.109 -5.972,-3.358 -12.204,-3.985 -12.204,-3.985 l -0.583,0.833 c 0,0 8.68,2.504 11.549,4.927 4.544,3.838 6.384,6.592 7.128,8.128 -0.198,2.266 -0.45,4.621 -0.767,6.967 -0.939,-1.186 -2.643,-2.819 -5.705,-4.541 -5.974,-3.359 -12.205,-3.985 -12.205,-3.985 l -0.582,0.833 c 0,0 8.678,2.503 11.549,4.928 3.414,2.883 5.291,5.147 6.334,6.75 -0.092,0.534 -0.186,1.067 -0.287,1.593 -2.49,13.055 -3.072,13.055 -3.072,13.055 l 5.498,0 1.228,0 5.499,0 c 0,10e-4 -0.583,10e-4 -3.073,-13.055"
       id="path169" /><path
       style="fill:#ee3124"
       inkscape:connector-curvature="0"
       clip-path="url(#SVGID_2_)"
       d="m 130.192,286.936 c 0.021,0.007 0.04,0.021 0.061,0.031 l 0.009,-0.03 c 1.184,-0.018 2.549,-1.407 3.186,-3.33 0.638,-1.926 0.326,-3.712 -0.676,-4.246 l 0.01,-0.03 c -0.024,-0.002 -0.047,0 -0.07,-0.001 -0.021,-0.009 -0.038,-0.022 -0.059,-0.03 l -0.012,0.03 c -1.181,0.017 -2.547,1.406 -3.184,3.33 -0.638,1.923 -0.326,3.71 0.674,4.246 l -0.008,0.03 c 0.023,0.001 0.046,-0.002 0.069,0"
       id="path171" /><path
       style="fill:#ee3124"
       inkscape:connector-curvature="0"
       clip-path="url(#SVGID_2_)"
       d="m 127.039,269.442 c -1.176,2.066 -1.248,4.14 -0.243,4.915 l -0.02,0.033 c 0.028,0.005 0.053,0.007 0.079,0.01 0.023,0.015 0.042,0.032 0.062,0.047 l 0.018,-0.033 c 1.344,0.183 3.216,-1.157 4.393,-3.224 1.179,-2.067 1.249,-4.14 0.244,-4.915 l 0.018,-0.033 c -0.025,-0.005 -0.052,-0.007 -0.078,-0.013 -0.021,-0.014 -0.038,-0.03 -0.061,-0.044 l -0.018,0.033 c -1.343,-0.181 -3.215,1.157 -4.394,3.224"
       id="path173" /><path
       style="fill:#ee3124"
       inkscape:connector-curvature="0"
       clip-path="url(#SVGID_2_)"
       d="m 120.867,278.692 c 0.022,0.005 0.046,0.013 0.067,0.02 l 0.003,-0.032 c 1.159,-0.204 2.189,-1.786 2.388,-3.777 0.195,-1.993 -0.508,-3.696 -1.612,-4.063 l 0.003,-0.03 c -0.021,10e-4 -0.045,0.006 -0.069,0.01 -0.021,-0.006 -0.043,-0.015 -0.064,-0.02 l -0.004,0.033 c -1.158,0.204 -2.189,1.785 -2.386,3.776 -0.197,1.991 0.508,3.696 1.609,4.062 l -0.002,0.031 c 0.023,-0.003 0.045,-0.008 0.067,-0.01"
       id="path175" /><path
       style="fill:#ee3124"
       inkscape:connector-curvature="0"
       clip-path="url(#SVGID_2_)"
       d="m 121.446,290.389 c 0.021,0.008 0.041,0.021 0.061,0.029 l 0.009,-0.029 c 1.184,-0.016 2.55,-1.406 3.188,-3.33 0.637,-1.924 0.325,-3.711 -0.678,-4.245 l 0.012,-0.031 c -0.024,-0.001 -0.048,0 -0.072,0 -0.02,-0.011 -0.038,-0.022 -0.059,-0.031 l -0.01,0.031 c -1.183,0.017 -2.549,1.406 -3.185,3.33 -0.637,1.923 -0.326,3.71 0.675,4.245 l -0.01,0.031 c 0.024,0 0.046,-0.002 0.069,0"
       id="path177" /><path
       style="fill:#ee3124"
       inkscape:connector-curvature="0"
       clip-path="url(#SVGID_2_)"
       d="m 129.339,299.773 c -0.139,-0.995 -1.91,-2.004 -4.236,-2.348 -2.327,-0.343 -4.397,0.099 -4.926,0.994 l -0.037,-0.005 c 0.002,0.021 0.006,0.038 0.006,0.058 -0.007,0.019 -0.02,0.037 -0.03,0.055 l 0.036,0.006 c 0.14,0.993 1.91,2.004 4.238,2.346 2.328,0.344 4.396,-0.098 4.926,-0.994 l 0.036,0.006 c -0.001,-0.019 -0.005,-0.04 -0.005,-0.06 0.008,-0.018 0.019,-0.035 0.029,-0.054 l -0.037,-0.004 z"
       id="path179" /><path
       style="fill:#ee3124"
       inkscape:connector-curvature="0"
       clip-path="url(#SVGID_2_)"
       d="m 130.552,292.533 c -2.273,-0.54 -4.386,-0.275 -5.02,0.572 l -0.035,-0.009 c 0,0.02 0.002,0.04 0,0.059 -0.009,0.017 -0.025,0.035 -0.036,0.052 l 0.036,0.007 c 0.02,1.002 1.662,2.157 3.936,2.695 2.275,0.54 4.387,0.276 5.019,-0.572 l 0.036,0.008 c 0.002,-0.018 0,-0.039 0.002,-0.058 0.01,-0.017 0.023,-0.033 0.034,-0.05 l -0.034,-0.009 c -0.022,-1.001 -1.664,-2.156 -3.938,-2.695"
       id="path181" /><path
       style="fill:#ee3124"
       inkscape:connector-curvature="0"
       clip-path="url(#SVGID_2_)"
       d="m 141.28,291.235 c -0.016,-0.737 -1.225,-1.587 -2.902,-1.985 -1.674,-0.397 -3.231,-0.203 -3.698,0.421 l -0.027,-0.006 c 0,0.015 0.002,0.028 0,0.043 -0.008,0.012 -0.018,0.027 -0.025,0.038 l 0.025,0.005 c 0.016,0.739 1.225,1.589 2.901,1.987 1.676,0.397 3.234,0.203 3.699,-0.421 l 0.026,0.005 c 0.001,-0.013 0,-0.029 0.001,-0.044 0.008,-0.012 0.018,-0.022 0.025,-0.036 l -0.025,-0.007 z"
       id="path183" /><path
       style="fill:#ee3124"
       inkscape:connector-curvature="0"
       clip-path="url(#SVGID_2_)"
       d="m 133.865,273.401 c 0.013,0.01 0.028,0.016 0.042,0.023 0.01,0.015 0.016,0.03 0.023,0.041 l 0.02,-0.013 c 0.736,0.396 2.242,0.01 3.559,-0.952 1.317,-0.963 1.984,-2.169 1.625,-2.844 l 0.019,-0.014 c -0.014,-0.009 -0.028,-0.016 -0.043,-0.026 -0.007,-0.011 -0.012,-0.026 -0.021,-0.037 l -0.021,0.014 c -0.736,-0.397 -2.241,-0.011 -3.557,0.952 -1.317,0.962 -1.985,2.169 -1.626,2.842 l -0.02,0.014 z"
       id="path185" /><path
       style="fill:#ee3124"
       inkscape:connector-curvature="0"
       clip-path="url(#SVGID_2_)"
       d="m 121.61,265.398 c 0.018,0.004 0.033,0.007 0.051,0.011 0.012,0.011 0.022,0.022 0.035,0.032 l 0.014,-0.02 c 0.847,0.176 2.128,-0.597 3.007,-1.867 0.883,-1.27 1.057,-2.593 0.463,-3.133 l 0.014,-0.022 c -0.017,-0.003 -0.035,-0.004 -0.051,-0.009 -0.012,-0.011 -0.021,-0.022 -0.037,-0.032 l -0.013,0.02 c -0.846,-0.175 -2.128,0.598 -3.008,1.869 -0.881,1.268 -1.055,2.592 -0.461,3.13 l -0.014,0.021 z"
       id="path187" /><path
       style="clip-rule:evenodd;fill:#ee3124;fill-rule:evenodd"
       inkscape:connector-curvature="0"
       clip-path="url(#SVGID_2_)"
       d="m 103.526,361.759 c 0.388,1.273 2.388,2.58 5.056,3.323 2.663,0.744 5.272,0.72 6.693,-0.06 l 0.018,0.006 c 0,-0.004 -0.003,-0.008 -0.003,-0.012 0.006,-0.003 0.012,-0.006 0.018,-0.008 -0.008,-0.003 -0.015,-0.005 -0.022,-0.008 -0.15,-1.318 -1.986,-2.85 -4.796,-3.628 -2.818,-0.78 -5.644,-0.544 -6.955,0.364 -0.007,-0.002 -0.014,-0.004 -0.022,-0.005 10e-4,0.004 0.005,0.009 0.006,0.014 -0.004,0.003 -0.011,0.005 -0.015,0.009 0.007,10e-4 0.015,0.003 0.022,0.005"
       id="path189" /><path
       style="clip-rule:evenodd;fill:#ee3124;fill-rule:evenodd"
       inkscape:connector-curvature="0"
       clip-path="url(#SVGID_2_)"
       d="m 119.805,365.028 c 0.007,-0.002 0.014,-0.004 0.02,-0.006 1.42,0.779 4.027,0.805 6.691,0.06 2.669,-0.743 4.671,-2.051 5.059,-3.325 0.006,-0.001 0.013,-0.003 0.021,-0.004 -0.005,-0.004 -0.011,-0.006 -0.016,-0.009 10e-4,-0.005 0.005,-0.009 0.006,-0.013 -0.007,0.001 -0.013,0.003 -0.02,0.005 -1.314,-0.908 -4.14,-1.145 -6.956,-0.365 -2.814,0.779 -4.65,2.312 -4.798,3.631 -0.006,0.002 -0.013,0.004 -0.019,0.005 0.005,0.003 0.011,0.005 0.016,0.007 -10e-4,0.006 -0.004,0.01 -0.004,0.014"
       id="path191" /><path
       style="clip-rule:evenodd;fill:#ee3124;fill-rule:evenodd"
       inkscape:connector-curvature="0"
       clip-path="url(#SVGID_2_)"
       d="m 120.447,378.384 c -0.016,-0.749 -0.048,-1.648 -0.111,-2.748 -0.278,-4.347 -2.278,-10.973 -2.84,-12.711 0.961,-1.3 1.378,-3.833 1.062,-6.545 -0.321,-2.751 -1.301,-4.93 -2.498,-5.512 -0.001,-0.008 -0.002,-0.016 -0.002,-0.024 -0.004,0.004 -0.007,0.011 -0.011,0.016 -0.005,-0.003 -0.009,-0.007 -0.014,-0.009 0,0.008 0.001,0.015 0.002,0.023 -1.101,1.156 -1.771,3.91 -1.44,6.812 0.271,2.383 1.152,4.176 2.167,4.943 -0.212,0.053 -0.424,0.107 -0.635,0.158 -0.022,0.01 1.355,3.239 2.205,9.749 0.34,3.232 0.103,4.861 -0.222,5.685 -12.968,0.218 -23.444,19.059 -23.444,21.304 0,2.257 10.597,4.088 23.67,4.088 13.07,0 23.666,-1.831 23.666,-4.088 0,-2.134 -9.475,-19.279 -21.555,-21.141"
       id="path193" /><path
       style="fill:#ee3124"
       inkscape:connector-curvature="0"
       clip-path="url(#SVGID_2_)"
       d="m 214.379,355.447 c 0.079,0.109 0.218,0.23 0.392,0.372 -0.053,-0.23 -0.093,-0.371 -0.093,-0.371 0,0 -0.893,-0.82 -0.299,-10e-4"
       id="path195" /><path
       style="fill:#ee3124"
       inkscape:connector-curvature="0"
       clip-path="url(#SVGID_2_)"
       d="m 228.016,375.663 c 0,0 -0.297,5.193 -2.676,5.193 l -0.262,0.552 c 0,0 -3.267,-0.545 -1.187,-4.644 2.078,-4.099 3.268,-7.651 1.484,-10.657 l -1.781,-3.006 c 0,0 0.594,3.28 -1.783,5.465 -2.377,2.186 -2.889,0.037 -2.971,-3.826 -0.13,-6.159 -2.934,-8.004 -4.069,-8.921 0.234,1.02 0.714,3.829 -0.984,4.275 -2.08,0.546 -2.675,-1.094 -4.755,-4.373 -2.079,-3.279 -4.768,-3.959 -4.768,-3.959 0,0 3.877,9.699 0.625,11.605 -2.156,1.264 -5.646,-3.551 -5.646,-3.551 0,0 3.566,8.471 1.486,10.657 -2.078,2.186 -6.537,-3.008 -6.537,-3.008 0,0 -1.022,2.396 1.187,5.74 3.256,4.924 0.297,7.651 -2.078,7.651 -2.377,0 -2.674,-5.193 -2.674,-5.193 0,0 -3.861,5.193 -1.486,13.937 2.379,8.743 9.51,11.749 9.51,11.749 l 2.279,0 c -0.888,-1.656 -2.072,-4.23 -3.08,-7.69 -1.891,-6.475 -1.891,-9.202 -1.891,-9.202 0,0 1.891,3.408 4.723,3.068 2.832,-0.341 1.889,-7.838 1.889,-7.838 0,0 2.515,4.77 4.091,4.77 1.573,0 2.52,-9.882 2.52,-9.882 l 0.008,0 c 0,0 0.945,9.882 2.517,9.882 1.575,0 4.092,-4.77 4.092,-4.77 0,0 -0.945,7.497 1.889,7.838 2.838,0.34 4.724,-3.068 4.724,-3.068 0,0 0,2.727 -1.886,9.202 -1.011,3.46 -2.198,6.034 -3.087,7.69 l 2.556,0 c 0,0 7.128,-3.006 9.505,-11.749 2.376,-8.745 -1.484,-13.937 -1.484,-13.937"
       id="path197" /><path
       style="fill:#ee3124"
       inkscape:connector-curvature="0"
       clip-path="url(#SVGID_2_)"
       d="m 231.196,280.959 c -2.221,0 -4.182,-1.09 -5.393,-2.76 l -0.037,0 c -1.213,1.67 -3.174,2.76 -5.393,2.76 -2.22,0 -4.182,-1.09 -5.394,-2.76 l -0.039,0 c -1.211,1.67 -3.17,2.76 -5.392,2.76 -2.221,0 -4.18,-1.09 -5.393,-2.76 l -0.036,0 c -1.214,1.67 -3.175,2.76 -5.396,2.76 -2.219,0 -4.179,-1.09 -5.391,-2.76 l -0.037,0 c -1.212,1.67 -3.174,2.76 -5.394,2.76 -2.213,0 -4.17,-1.082 -5.383,-2.743 l 0,2.584 c 1.213,1.661 3.17,2.744 5.383,2.744 2.22,0 4.182,-1.091 5.394,-2.76 l 0.037,0 c 1.212,1.669 3.172,2.76 5.391,2.76 2.221,0 4.182,-1.091 5.396,-2.76 l 0.036,0 c 1.213,1.669 3.172,2.76 5.393,2.76 2.222,0 4.181,-1.091 5.392,-2.76 l 0.039,0 c 1.212,1.669 3.174,2.76 5.394,2.76 2.219,0 4.18,-1.091 5.393,-2.76 l 0.037,0 c 1.211,1.669 3.172,2.76 5.393,2.76 1.955,0 3.707,-0.846 4.928,-2.186 l 0,-2.584 c -1.221,1.339 -2.973,2.185 -4.928,2.185"
       id="path199" /><path
       style="fill:#ee3124"
       inkscape:connector-curvature="0"
       clip-path="url(#SVGID_2_)"
       d="m 198.747,288.53 0.035,0 c 1.212,1.669 3.174,2.761 5.394,2.761 2.219,0 4.18,-1.092 5.394,-2.761 l 0.037,0 c 1.212,1.669 3.173,2.761 5.394,2.761 2.22,0 4.181,-1.092 5.392,-2.761 l 0.038,0 c 1.211,1.669 3.172,2.761 5.394,2.761 2.152,0 4.057,-1.032 5.276,-2.619 l 0,-2.584 c -1.219,1.586 -3.124,2.617 -5.276,2.617 -2.222,0 -4.183,-1.09 -5.394,-2.759 l -0.038,0 c -1.211,1.669 -3.172,2.759 -5.392,2.759 -2.221,0 -4.182,-1.09 -5.394,-2.759 l -0.037,0 c -1.214,1.669 -3.175,2.759 -5.394,2.759 -2.22,0 -4.182,-1.09 -5.394,-2.759 l -0.035,0 c -1.213,1.669 -3.174,2.759 -5.395,2.759 -2.212,0 -4.169,-1.081 -5.382,-2.743 l 0,2.585 c 1.213,1.661 3.17,2.744 5.382,2.744 2.221,0 4.182,-1.092 5.395,-2.761"
       id="path201" /><path
       style="fill:#ee3124"
       inkscape:connector-curvature="0"
       clip-path="url(#SVGID_2_)"
       d="m 225.804,293.69 -0.037,0 c -1.213,1.67 -3.174,2.76 -5.394,2.76 -2.219,0 -4.181,-1.09 -5.393,-2.76 l -0.039,0 c -1.211,1.67 -3.17,2.76 -5.393,2.76 -2.221,0 -4.18,-1.09 -5.392,-2.76 l -0.037,0 c -1.213,1.67 -3.174,2.76 -5.395,2.76 -2.22,0 -4.18,-1.09 -5.392,-2.76 l -0.037,0 c -1.212,1.67 -3.174,2.76 -5.393,2.76 -2.213,0 -4.17,-1.082 -5.383,-2.743 l 0,2.585 c 1.213,1.66 3.17,2.743 5.383,2.743 2.219,0 4.181,-1.091 5.393,-2.76 l 0.037,0 c 1.212,1.669 3.172,2.76 5.392,2.76 2.221,0 4.182,-1.091 5.395,-2.76 l 0.037,0 c 1.212,1.669 3.171,2.76 5.392,2.76 2.223,0 4.182,-1.091 5.393,-2.76 l 0.039,0 c 1.212,1.669 3.174,2.76 5.393,2.76 2.22,0 4.181,-1.091 5.394,-2.76 l 0.037,0 c 1.211,1.669 3.172,2.76 5.393,2.76 1.955,0 3.707,-0.845 4.927,-2.185 l 0,-2.585 c -1.22,1.341 -2.972,2.185 -4.927,2.185 -2.221,0 -4.182,-1.09 -5.393,-2.76"
       id="path203" /><path
       style="fill:#ee3124"
       inkscape:connector-curvature="0"
       clip-path="url(#SVGID_2_)"
       d="m 225.825,304.197 c -2.222,0 -4.184,-1.092 -5.395,-2.761 l -0.037,0 c -1.212,1.669 -3.172,2.761 -5.392,2.761 -2.221,0 -4.182,-1.092 -5.394,-2.761 l -0.037,0 c -1.214,1.669 -3.175,2.761 -5.394,2.761 -2.22,0 -4.182,-1.092 -5.394,-2.761 l -0.035,0 c -1.213,1.669 -3.174,2.761 -5.395,2.761 -2.213,0 -4.17,-1.083 -5.382,-2.744 l 0,2.585 c 1.212,1.66 3.169,2.742 5.382,2.742 2.221,0 4.182,-1.09 5.395,-2.76 l 0.035,0 c 1.212,1.67 3.174,2.76 5.394,2.76 2.219,0 4.18,-1.09 5.394,-2.76 l 0.037,0 c 1.212,1.67 3.173,2.76 5.394,2.76 2.22,0 4.18,-1.09 5.392,-2.76 l 0.037,0 c 1.211,1.67 3.173,2.76 5.395,2.76 2.152,0 4.057,-1.032 5.276,-2.617 l 0,-2.585 c -1.219,1.587 -3.124,2.619 -5.276,2.619"
       id="path205" /><path
       style="fill:#ee3124"
       inkscape:connector-curvature="0"
       clip-path="url(#SVGID_2_)"
       d="m 207.837,191.107 c -3.051,0 -5.523,2.475 -5.523,5.524 0,3.05 2.472,5.521 5.523,5.521 3.051,0 5.521,-2.471 5.521,-5.521 0,-3.049 -2.47,-5.524 -5.521,-5.524"
       id="path207" /><path
       style="fill:#ee3124"
       inkscape:connector-curvature="0"
       clip-path="url(#SVGID_2_)"
       d="m 222.232,196.91 c 6.265,-6.063 9.431,-11.896 7.456,-14.775 -1.772,-2.583 -7.253,-2.155 -14.07,0.6 -1.585,-7.186 -4.336,-11.945 -7.469,-11.945 -3.134,0 -5.885,4.76 -7.469,11.946 -6.82,-2.756 -12.302,-3.184 -14.074,-0.601 -1.973,2.879 1.193,8.712 7.458,14.775 -6.265,6.063 -9.431,11.896 -7.458,14.776 1.772,2.582 7.254,2.153 14.073,-0.603 1.585,7.187 4.336,11.947 7.47,11.947 3.133,0 5.885,-4.759 7.47,-11.946 6.817,2.755 12.297,3.183 14.069,0.602 1.975,-2.88 -1.191,-8.713 -7.456,-14.776 m 5.302,-13.298 c 1.704,2.483 -0.844,7.407 -6.02,12.615 -1.403,-1.313 -2.947,-2.63 -4.612,-3.928 -0.185,-3.057 -0.552,-5.929 -1.065,-8.519 5.682,-2.134 10.188,-2.368 11.697,-0.168 m -14.859,19.9 c -1.518,1.041 -3.033,1.984 -4.527,2.843 -1.495,-0.859 -3.01,-1.802 -4.528,-2.843 -1.171,-0.803 -2.283,-1.627 -3.35,-2.458 -0.082,-1.347 -0.127,-2.73 -0.127,-4.145 0,-1.414 0.045,-2.796 0.127,-4.141 1.067,-0.832 2.179,-1.655 3.35,-2.457 1.518,-1.042 3.033,-1.985 4.528,-2.845 1.494,0.86 3.009,1.803 4.527,2.845 1.171,0.802 2.283,1.625 3.35,2.457 0.081,1.345 0.126,2.727 0.126,4.141 0,1.415 -0.044,2.798 -0.126,4.145 -1.067,0.831 -2.179,1.654 -3.35,2.458 m 3.267,-1.259 c -0.212,2.675 -0.579,5.174 -1.072,7.412 -1.846,-0.746 -3.8,-1.684 -5.808,-2.794 1.364,-0.811 2.74,-1.684 4.117,-2.629 0.952,-0.652 1.871,-1.317 2.763,-1.989 m -8.709,4.619 c -2.007,1.111 -3.96,2.048 -5.806,2.794 -0.494,-2.238 -0.861,-4.736 -1.073,-7.412 0.891,0.671 1.81,1.336 2.762,1.989 1.378,0.945 2.753,1.818 4.117,2.629 m -7.901,-6.563 c -1.394,-1.128 -2.68,-2.267 -3.85,-3.398 1.17,-1.132 2.456,-2.271 3.85,-3.399 -0.049,1.113 -0.077,2.245 -0.077,3.397 0,1.153 0.028,2.286 0.077,3.4 m 1.022,-8.746 c 0.212,-2.674 0.579,-5.172 1.073,-7.41 1.845,0.746 3.797,1.684 5.804,2.794 -1.363,0.811 -2.738,1.683 -4.115,2.627 -0.952,0.654 -1.871,1.319 -2.762,1.989 m 8.711,-4.614 c 2.006,-1.111 3.959,-2.048 5.804,-2.794 0.494,2.237 0.86,4.735 1.072,7.409 -0.891,-0.671 -1.811,-1.336 -2.762,-1.989 -1.377,-0.945 -2.752,-1.816 -4.114,-2.626 m 7.901,6.566 c 1.393,1.127 2.678,2.265 3.847,3.396 -1.169,1.13 -2.454,2.268 -3.846,3.395 0.048,-1.113 0.077,-2.245 0.077,-3.397 0,-1.151 -0.029,-2.283 -0.078,-3.394 m -8.817,-20.114 c 2.67,0 5.033,3.844 6.486,9.746 -2.075,0.89 -4.255,1.983 -6.488,3.267 -2.231,-1.284 -4.411,-2.377 -6.486,-3.267 1.455,-5.901 3.818,-9.746 6.488,-9.746 m -19.386,10.211 c 1.508,-2.201 6.015,-1.967 11.698,0.168 -0.514,2.589 -0.88,5.461 -1.065,8.517 -1.666,1.298 -3.211,2.617 -4.614,3.93 -5.176,-5.207 -7.722,-10.131 -6.019,-12.615 m -0.002,26.595 c -1.702,-2.483 0.845,-7.407 6.022,-12.615 1.403,1.313 2.947,2.631 4.613,3.928 0.185,3.058 0.551,5.93 1.065,8.52 -5.683,2.132 -10.191,2.367 -11.7,0.167 m 19.388,10.21 c -2.67,0 -5.033,-3.844 -6.488,-9.747 2.075,-0.889 4.255,-1.983 6.486,-3.267 2.233,1.284 4.413,2.378 6.489,3.268 -1.454,5.903 -3.817,9.746 -6.487,9.746 m 19.387,-10.21 c -1.51,2.2 -6.016,1.966 -11.699,-0.167 0.514,-2.591 0.881,-5.464 1.066,-8.522 1.664,-1.297 3.207,-2.614 4.61,-3.926 5.177,5.208 7.726,10.133 6.023,12.615"
       id="path209" /><path
       style="fill:#ee3124"
       inkscape:connector-curvature="0"
       clip-path="url(#SVGID_2_)"
       d="m 135.859,209.956 -0.268,-0.133 c -3.029,3.807 -11.492,6.348 -18.679,3.067 -5.658,-2.582 -8.213,-6.086 -8.467,-10.659 -0.188,-3.437 0.877,-5.762 2.319,-7.279 -1.775,2.584 -1.614,6.38 0.167,9.037 0.395,0.592 0.705,1.192 1.262,1.649 0.086,0.076 0.168,0.15 0.252,0.222 6.201,5.381 15.295,5.119 21.605,-2.15 6.09,-7.025 5.452,-18.615 -0.13,-24.121 l -0.178,0.236 c 3.187,3.678 4.133,12.465 -0.41,18.928 -3.577,5.088 -7.489,6.959 -12.028,6.365 -5.079,-0.661 -7.239,-3.594 -7.965,-6.157 0.151,0.354 0.333,0.725 0.59,1.134 2.241,3.578 7.43,3.902 10.791,1.65 0.594,-0.394 1.192,-0.709 1.649,-1.266 0.076,-0.084 0.15,-0.166 0.224,-0.248 5.379,-6.203 5.118,-15.296 -2.152,-21.605 -7.027,-6.094 -18.615,-5.453 -24.121,0.129 l 0.24,0.18 c 3.674,-3.188 12.459,-4.133 18.924,0.41 5.088,3.576 6.959,7.486 6.365,12.029 -0.832,6.407 -5.275,8.161 -8.037,8.255 0.097,-0.026 0.193,-0.053 0.286,-0.087 0.868,-0.096 1.867,-0.491 3.07,-1.598 3.099,-2.854 2.468,-8.019 -0.362,-10.91 -0.496,-0.508 -0.914,-1.039 -1.545,-1.389 -0.095,-0.06 -0.189,-0.115 -0.285,-0.171 -7.082,-4.151 -15.976,-2.229 -20.844,6.074 -4.701,8.021 -1.947,19.299 4.549,23.688 l 0.131,-0.265 c -3.805,-3.03 -6.346,-11.496 -3.064,-18.682 2.58,-5.656 6.084,-8.213 10.656,-8.465 5.23,-0.287 7.887,2.322 9.029,4.757 -0.224,-0.352 -0.506,-0.722 -0.867,-1.114 -2.855,-3.102 -8.02,-2.469 -10.912,0.359 -0.508,0.5 -1.037,0.916 -1.387,1.547 -0.058,0.094 -0.115,0.193 -0.174,0.287 -4.15,7.082 -2.226,15.975 6.077,20.842 8.023,4.704 19.298,1.95 23.689,-4.546"
       id="path211" /><path
       style="fill:#ee3124"
       inkscape:connector-curvature="0"
       clip-path="url(#SVGID_2_)"
       d="m 130.973,182.163 c 2.33,5.146 0.957,11.861 0.957,11.861 0,0 3.254,-3.826 1.627,-9.47 -1.627,-5.645 -6.219,-7.844 -6.219,-7.844 0,0 1.821,1.435 3.635,5.453"
       id="path213" /><path
       style="fill:#ee3124"
       inkscape:connector-curvature="0"
       clip-path="url(#SVGID_2_)"
       d="m 123.313,211.743 c 0,0 4.67,1.85 9.49,-1.504 4.821,-3.355 5.43,-8.41 5.43,-8.41 0,0 -0.777,2.182 -3.996,5.195 -4.124,3.858 -10.924,4.719 -10.924,4.719"
       id="path215" /><path
       style="fill:#ee3124"
       inkscape:connector-curvature="0"
       clip-path="url(#SVGID_2_)"
       d="m 105.654,212.661 c -3.857,-4.127 -4.719,-10.926 -4.719,-10.926 0,0 -1.849,4.67 1.506,9.49 3.354,4.823 8.41,5.43 8.41,5.43 0,0 -2.183,-0.775 -5.197,-3.994"
       id="path217" /><path
       style="fill:#ee3124"
       inkscape:connector-curvature="0"
       clip-path="url(#SVGID_2_)"
       d="m 103.326,182.2 c 5.074,-2.48 11.83,-1.307 11.83,-1.307 0,0 -3.92,-3.138 -9.514,-1.347 -5.593,1.791 -7.66,6.447 -7.66,6.447 0,0 1.383,-1.861 5.344,-3.793"
       id="path219" /><polygon
       style="fill:#ee3124"
       clip-path="url(#SVGID_2_)"
       points="135.617,170.005 135.656,172.999 133.205,174.73 136.07,175.622 136.961,178.482 138.691,176.036 141.689,176.075 139.896,173.67 140.857,170.833 138.019,171.795 "
       id="polygon221" /><polygon
       style="fill:#ee3124"
       clip-path="url(#SVGID_2_)"
       points="92.684,170.831 93.645,173.671 91.854,176.075 94.85,176.036 96.582,178.482 97.471,175.622 100.333,174.73 97.887,172.999 97.926,170.003 95.521,171.796 "
       id="polygon223" /><polygon
       style="fill:#ee3124"
       clip-path="url(#SVGID_2_)"
       points="137.971,220.422 140.625,221.817 140.118,218.862 142.264,216.77 139.297,216.338 137.971,213.649 136.645,216.338 133.676,216.77 135.825,218.862 135.317,221.817 "
       id="polygon225" /><polygon
       style="fill:#ee3124"
       clip-path="url(#SVGID_2_)"
       points="98.225,221.817 97.718,218.861 99.865,216.771 96.898,216.338 95.568,213.649 94.245,216.338 91.277,216.771 93.423,218.861 92.918,221.817 95.568,220.422 "
       id="polygon227" /><path
       style="fill:#ee3124"
       inkscape:connector-curvature="0"
       clip-path="url(#SVGID_2_)"
       d="m 260.115,138.663 c -1.955,0 -3.538,1.585 -3.538,3.539 0,1.953 1.583,3.537 3.538,3.537 1.954,0 3.537,-1.584 3.537,-3.537 0,-1.954 -1.583,-3.539 -3.537,-3.539"
       id="path229" /><path
       style="fill:#ee3124"
       inkscape:connector-curvature="0"
       clip-path="url(#SVGID_2_)"
       d="m 269.328,142.379 c 4.013,-3.883 6.05,-7.619 4.785,-9.463 -1.136,-1.656 -4.648,-1.38 -9.016,0.386 -1.016,-4.601 -2.776,-7.653 -4.781,-7.653 -2.007,0 -3.768,3.052 -4.782,7.654 -4.37,-1.767 -7.883,-2.043 -9.019,-0.387 -1.264,1.844 0.773,5.58 4.786,9.463 -4.013,3.885 -6.05,7.622 -4.786,9.465 1.136,1.655 4.649,1.38 9.019,-0.387 1.014,4.602 2.775,7.654 4.782,7.654 2.005,0 3.766,-3.051 4.781,-7.653 4.368,1.766 7.88,2.041 9.016,0.386 1.265,-1.843 -0.772,-5.579 -4.785,-9.465 m 3.404,-8.517 c 1.091,1.591 -0.541,4.746 -3.858,8.083 -0.899,-0.841 -1.888,-1.684 -2.955,-2.515 -0.119,-1.961 -0.354,-3.799 -0.684,-5.459 3.642,-1.368 6.53,-1.518 7.497,-0.109 m -9.517,12.747 c -0.972,0.667 -1.943,1.271 -2.9,1.822 -0.957,-0.551 -1.928,-1.155 -2.901,-1.822 -0.748,-0.514 -1.46,-1.04 -2.142,-1.572 -0.053,-0.864 -0.085,-1.749 -0.085,-2.658 0,-0.907 0.032,-1.792 0.085,-2.655 0.682,-0.532 1.394,-1.058 2.142,-1.572 0.973,-0.667 1.943,-1.271 2.901,-1.822 0.957,0.551 1.928,1.155 2.9,1.822 0.748,0.514 1.459,1.04 2.142,1.571 0.052,0.864 0.084,1.749 0.084,2.656 0,0.909 -0.031,1.794 -0.084,2.658 -0.682,0.532 -1.394,1.06 -2.142,1.572 m 2.089,-0.809 c -0.136,1.715 -0.37,3.316 -0.686,4.75 -1.182,-0.478 -2.433,-1.078 -3.718,-1.789 0.873,-0.52 1.754,-1.078 2.636,-1.683 0.611,-0.418 1.196,-0.847 1.768,-1.278 m -5.575,2.962 c -1.285,0.711 -2.536,1.311 -3.717,1.789 -0.317,-1.434 -0.551,-3.035 -0.687,-4.75 0.572,0.431 1.157,0.859 1.767,1.278 0.882,0.605 1.764,1.164 2.637,1.683 m -5.057,-4.2 c -0.895,-0.724 -1.72,-1.455 -2.471,-2.181 0.751,-0.726 1.576,-1.457 2.471,-2.18 -0.032,0.715 -0.054,1.439 -0.054,2.179 0,0.742 0.022,1.466 0.054,2.182 m 0.653,-5.603 c 0.136,-1.714 0.37,-3.315 0.686,-4.749 1.182,0.478 2.432,1.078 3.717,1.789 -0.873,0.519 -1.754,1.078 -2.636,1.682 -0.61,0.42 -1.195,0.847 -1.767,1.278 M 260.901,136 c 1.285,-0.711 2.535,-1.311 3.717,-1.789 0.316,1.434 0.55,3.035 0.686,4.749 -0.572,-0.431 -1.157,-0.859 -1.768,-1.278 -0.882,-0.604 -1.762,-1.163 -2.635,-1.682 m 5.058,4.202 c 0.894,0.723 1.719,1.453 2.469,2.179 -0.75,0.726 -1.575,1.456 -2.468,2.179 0.031,-0.715 0.053,-1.439 0.053,-2.18 0,-0.74 -0.022,-1.463 -0.054,-2.178 m -5.643,-12.881 c 1.709,0 3.218,2.468 4.15,6.245 -1.328,0.57 -2.724,1.27 -4.152,2.092 -1.428,-0.822 -2.823,-1.522 -4.151,-2.091 0.932,-3.777 2.443,-6.246 4.153,-6.246 m -12.418,6.541 c 0.966,-1.41 3.855,-1.26 7.498,0.109 -0.33,1.66 -0.565,3.497 -0.684,5.457 -1.067,0.831 -2.058,1.676 -2.957,2.517 -3.317,-3.337 -4.949,-6.491 -3.857,-8.083 m -0.002,17.035 c -1.09,-1.591 0.542,-4.746 3.859,-8.083 0.9,0.842 1.89,1.686 2.957,2.518 0.119,1.959 0.354,3.796 0.683,5.457 -3.642,1.368 -6.532,1.52 -7.499,0.108 m 12.42,6.541 c -1.71,0 -3.221,-2.468 -4.152,-6.245 1.327,-0.57 2.722,-1.27 4.15,-2.091 1.429,0.822 2.824,1.522 4.152,2.091 -0.931,3.779 -2.441,6.245 -4.15,6.245 m 12.417,-6.541 c -0.967,1.411 -3.855,1.26 -7.498,-0.108 0.331,-1.661 0.565,-3.499 0.685,-5.46 1.066,-0.831 2.055,-1.674 2.954,-2.515 3.317,3.337 4.95,6.493 3.859,8.083"
       id="path231" /></g><g
     id="g735"
     transform="translate(332.45846,75.761341)"><g
       id="g737" /></g><g
     inkscape:groupmode="layer"
     id="layer10"
     inkscape:label="Layer 1" /></svg>