<?xml version="1.0" encoding="UTF-8" standalone="no"?>
<!-- Generator: Adobe Illustrator 16.0.0, SVG Export Plug-In . SVG Version: 6.00 Build 0)  -->

<svg
   xmlns:dc="http://purl.org/dc/elements/1.1/"
   xmlns:cc="http://creativecommons.org/ns#"
   xmlns:rdf="http://www.w3.org/1999/02/22-rdf-syntax-ns#"
   xmlns:svg="http://www.w3.org/2000/svg"
   xmlns="http://www.w3.org/2000/svg"
   xmlns:xlink="http://www.w3.org/1999/xlink"
   xmlns:sodipodi="http://sodipodi.sourceforge.net/DTD/sodipodi-0.dtd"
   xmlns:inkscape="http://www.inkscape.org/namespaces/inkscape"
   version="1.1"
   id="Layer_1"
   x="0px"
   y="0px"
   width="989.35535"
   height="726.30212"
   viewBox="0 0 989.35531 726.30211"
   enable-background="new 0 0 595.275 841.89"
   xml:space="preserve"
   inkscape:version="0.91 r13725"
   sodipodi:docname="nlg_sports.svg"><metadata
     id="metadata8958"><rdf:RDF><cc:Work
         rdf:about=""><dc:format>image/svg+xml</dc:format><dc:type
           rdf:resource="http://purl.org/dc/dcmitype/StillImage" /><dc:title></dc:title></cc:Work></rdf:RDF></metadata><defs
     id="defs8956" /><sodipodi:namedview
     pagecolor="#ffffff"
     bordercolor="#666666"
     borderopacity="1"
     objecttolerance="10"
     gridtolerance="10"
     guidetolerance="10"
     inkscape:pageopacity="0"
     inkscape:pageshadow="2"
     inkscape:window-width="1626"
     inkscape:window-height="975"
     id="namedview8954"
     showgrid="false"
     inkscape:zoom="0.79286936"
     inkscape:cx="506.88377"
     inkscape:cy="379.40269"
     inkscape:window-x="1619"
     inkscape:window-y="56"
     inkscape:window-maximized="0"
     inkscape:current-layer="layer6"
     fit-margin-top="0"
     fit-margin-left="0"
     fit-margin-right="0"
     fit-margin-bottom="0" /><g
     inkscape:groupmode="layer"
     id="layer5"
     inkscape:label="color"
     style="display:none"
     transform="translate(334.03673,73.222522)"><rect
       style="fill:#f78e1e"
       x="-332.43729"
       y="-72.071587"
       transform="matrix(0.99999997,2.3250179e-4,-2.3250179e-4,0.99999997,0,0)"
       width="986.57715"
       height="723.55005"
       id="rect8140" /></g><g
     inkscape:groupmode="layer"
     id="layer6"
     inkscape:label="markers"
     transform="translate(334.03673,73.222522)"
     style="display:none"><rect
       style="fill:none;stroke:#000000;stroke-width:2.9000001;stroke-miterlimit:3.86400008"
       x="-724.85211"
       y="1.45"
       stroke-miterlimit="3.864"
       width="723.4021"
       height="986.45532"
       id="rect8148"
       transform="matrix(0,-1,1,0,-334.03673,-73.222522)" /><polygon
       style="fill:none;stroke:#000000;stroke-miterlimit:3.86400008"
       stroke-miterlimit="3.864"
       points="126.727,346.658 149.327,346.663 149.321,369.262 172.021,369.268 172.017,391.967 149.316,391.961 149.311,414.663 149.306,437.362 126.706,437.356 126.711,414.658 104.011,414.652 104.006,437.353 58.606,437.342 58.611,414.642 81.311,414.646 81.316,391.946 58.616,391.941 58.622,369.242 81.321,369.247 81.327,346.646 104.027,346.652 104.032,323.953 126.732,323.958 "
       id="polygon8156"
       transform="matrix(0,-2.9,2.9,0,-679.82113,755.74251)" /><polygon
       style="fill:none;stroke:#000000;stroke-miterlimit:3.86400008"
       stroke-miterlimit="3.864"
       points="104.054,233.251 104.048,255.953 126.748,255.958 126.754,233.256 149.353,233.262 149.348,255.961 172.049,255.968 172.042,278.568 149.343,278.563 149.338,301.262 172.038,301.268 172.027,346.667 126.727,346.658 126.733,323.958 104.033,323.953 104.027,346.652 81.327,346.646 58.626,346.642 58.638,301.242 81.338,301.247 81.343,278.546 58.643,278.542 58.647,255.941 81.348,255.946 81.353,233.247 "
       id="polygon8158"
       transform="matrix(0,-2.9,2.9,0,-679.82113,755.74251)" /><polygon
       style="fill:none;stroke:#000000;stroke-miterlimit:3.86400008"
       stroke-miterlimit="3.864"
       points="149.364,187.762 149.369,165.163 126.77,165.158 126.775,142.458 104.075,142.452 104.069,165.151 81.369,165.146 58.669,165.142 58.664,187.742 81.364,187.747 81.358,210.446 58.659,210.441 58.648,255.84 81.348,255.846 81.353,233.146 104.053,233.152 104.048,255.852 126.749,255.856 126.754,233.158 149.353,233.163 149.358,210.461 172.059,210.468 172.064,187.768 "
       id="polygon8160"
       transform="matrix(0,-2.9,2.9,0,-679.82113,755.74251)" /><polygon
       style="fill:none;stroke:#000000;stroke-miterlimit:3.86400008"
       stroke-miterlimit="3.864"
       points="240.064,187.783 240.07,165.184 217.469,165.179 217.475,142.479 194.776,142.473 194.77,165.173 172.07,165.168 149.369,165.162 149.364,187.762 172.063,187.768 172.059,210.468 149.359,210.462 149.348,255.861 172.049,255.867 172.054,233.168 194.754,233.173 194.748,255.872 217.449,255.878 217.453,233.179 240.054,233.184 240.059,210.483 262.76,210.488 262.764,187.788 "
       id="polygon8162"
       transform="matrix(0,-2.9,2.9,0,-679.82113,755.74251)" /><polygon
       style="fill:none;stroke:#000000;stroke-miterlimit:3.86400008"
       stroke-miterlimit="3.864"
       points="194.732,324.073 172.132,324.068 172.138,301.468 149.438,301.462 149.442,278.762 172.143,278.768 172.148,256.068 172.153,233.367 194.753,233.372 194.749,256.073 217.447,256.079 217.454,233.378 262.854,233.389 262.848,256.09 240.148,256.084 240.143,278.783 262.842,278.789 262.837,301.489 240.138,301.483 240.132,324.084 217.432,324.079 217.426,346.778 194.727,346.772 "
       id="polygon8164"
       transform="matrix(0,-2.9,2.9,0,-679.82113,755.74251)" /><polygon
       style="fill:none;stroke:#000000;stroke-miterlimit:3.86400008"
       stroke-miterlimit="3.864"
       points="194.733,323.972 194.727,346.673 217.427,346.679 217.432,323.978 240.032,323.983 240.027,346.683 262.727,346.688 262.723,369.288 240.022,369.283 240.017,391.983 262.717,391.989 262.706,437.388 217.406,437.378 217.411,414.679 194.711,414.673 194.706,437.372 172.006,437.367 149.306,437.362 149.317,391.962 172.017,391.968 172.022,369.267 149.321,369.262 149.327,346.662 172.027,346.668 172.032,323.968 "
       id="polygon8166"
       transform="matrix(0,-2.9,2.9,0,-679.82113,755.74251)" /></g><g
     id="g8224"
     transform="translate(334.03673,73.222522)"><g
       id="g8226" /></g><g
     id="g8298"
     transform="translate(334.03673,73.222522)"><g
       id="g8300" /></g><g
     id="g8838"
     transform="matrix(0,-2.9,2.9,0,-345.7844,828.96503)"><defs
       id="defs8840"><rect
         id="SVGID_3_"
         x="0.001"
         y="-0.001"
         width="595.27399"
         height="841.89001" /></defs><clipPath
       id="SVGID_4_"><use
         height="100%"
         width="100%"
         y="0"
         x="0"
         style="overflow:visible"
         xlink:href="#SVGID_3_"
         overflow="visible"
         id="use8844" /></clipPath><path
       style="clip-rule:evenodd;fill:#ffd200;fill-rule:evenodd"
       inkscape:connector-curvature="0"
       clip-path="url(#SVGID_4_)"
       d="m 142.298,194.899 c -1.198,-6.791 -4.969,-12.71 -10.619,-16.666 -4.364,-3.057 -9.479,-4.67 -14.789,-4.67 -8.428,0 -16.344,4.116 -21.177,11.014 -8.164,11.664 -5.316,27.797 6.346,35.963 4.362,3.056 9.477,4.671 14.79,4.671 8.428,0 16.343,-4.117 21.174,-11.015 3.956,-5.651 5.474,-12.504 4.275,-19.297 m -5.159,0.992 -3.654,10.702 -7.09,1.011 -4.839,-9.135 2.881,-7.384 9.409,-0.856 3.293,5.662 z m -17.945,-19.787 c 3.979,0.392 7.78,1.782 11.1,4.106 0.917,0.643 1.758,1.36 2.562,2.11 l 0.401,6.896 0.201,0.346 -9.231,0.842 -6.934,-6.193 -0.019,-7.224 1.92,-0.883 z m -5.615,0.118 2.961,1.103 0.036,-0.017 0.018,6.796 -6.981,6.3 -8.893,-0.811 0.48,-7.199 c 0,0 -0.203,-0.009 -0.579,0.151 3.536,-3.407 8.073,-5.627 12.958,-6.323 m -13.152,14.046 8.978,0.817 2.883,7.385 -4.839,9.134 -7.09,-1.01 -3.521,-10.366 3.589,-5.96 z m -1.836,23.737 c -4.208,-5.265 -5.909,-12.097 -4.776,-18.646 l 2.345,1.044 3.875,11.408 0.091,5.076 -1.535,1.118 z m 8.905,6.822 c -1.41,-0.618 -2.77,-1.364 -4.054,-2.263 -1.673,-1.172 -3.145,-2.526 -4.41,-4.015 l 1.392,-1.014 7.229,5.06 -0.157,2.232 z m 9.353,1.97 c -3.001,0 -5.933,-0.569 -8.675,-1.669 l 0.185,-2.619 3.348,-2.84 10.458,0.164 3.321,2.693 0.179,2.539 c -2.765,1.123 -5.751,1.732 -8.816,1.732 m 4.901,-7.668 -9.656,-0.152 -3.947,-7.198 4.772,-9.008 3.731,0.041 -0.001,0.019 0.794,-0.011 1.148,0.013 -0.004,-0.028 2.341,-0.03 4.769,9.003 -3.947,7.351 z m 4.596,5.657 -0.155,-2.193 7.228,-5.059 1.317,0.96 c -2.305,2.725 -5.179,4.868 -8.39,6.292 m 9.698,-7.973 c -0.274,0.392 -0.56,0.773 -0.855,1.146 l -1.473,-1.074 0.09,-5.067 3.944,-11.552 2.167,-0.967 c 0.001,0.007 0.003,0.014 0.004,0.02 1.086,6.159 -0.291,12.371 -3.877,17.494"
       id="path8846" /><path
       style="fill:#ffd200"
       inkscape:connector-curvature="0"
       clip-path="url(#SVGID_4_)"
       d="m 136.442,271.449 c -2.18,-2.183 -5.155,-3.337 -8.598,-3.337 -4.809,0 -9.809,2.246 -13.721,6.158 -4.34,4.34 -6.457,9.887 -6.115,14.748 -0.242,1.235 -1.025,4.616 -3.142,9.812 -0.699,1.717 -1.304,3.01 -1.801,3.982 l -2.106,2.108 -1.017,0.338 -13.234,13.232 2.038,2.038 0.885,0.884 13.163,-13.162 0.071,-0.07 0.339,-1.016 2.113,-2.113 c 0.968,-0.495 2.258,-1.096 3.972,-1.795 6.668,-2.719 10.309,-3.232 10.338,-3.238 l 0.432,-0.049 -0.008,-0.054 c 4.761,-0.046 9.699,-2.276 13.57,-6.149 3.338,-3.336 5.479,-7.488 6.024,-11.687 0.549,-4.241 -0.586,-8.016 -3.203,-10.63 m 0.891,5.755 -2.518,2.518 -3.099,-3.099 3.45,-3.449 c 1.044,1.122 1.773,2.487 2.167,4.03 m -24.402,10.522 2.957,-2.957 3.243,3.241 -2.957,2.957 -3.243,-3.241 z m 2.644,3.841 -3.135,3.134 c -1.071,-1.208 -1.791,-2.683 -2.135,-4.348 l 2.028,-2.029 3.242,3.243 z m 11.093,-11.094 -3.098,3.098 -3.242,-3.242 3.098,-3.098 3.242,3.242 z m -2.643,-3.841 3.251,-3.251 3.242,3.242 -3.25,3.25 -3.243,-3.241 z m -1.054,7.538 -3.242,3.242 -3.242,-3.242 3.242,-3.242 3.242,3.242 z m -7.083,-0.599 -2.957,-2.956 3.243,-3.242 2.957,2.957 -3.243,3.241 z m 3.841,5.038 3.099,3.099 -2.957,2.957 -3.099,-3.099 2.957,-2.957 z m 0.598,-0.599 3.243,-3.242 3.099,3.099 -3.242,3.242 -3.1,-3.099 z m 3.841,-3.84 3.099,-3.099 3.099,3.1 -3.099,3.098 -3.099,-3.099 z m 6.797,0.6 3.25,3.25 -3.099,3.098 -3.25,-3.25 3.099,-3.098 z m -3.098,-4.298 3.25,-3.25 3.099,3.099 -3.25,3.249 -3.099,-3.098 z m 6.694,-7.892 -3.444,3.444 -3.242,-3.242 2.335,-2.336 c 1.674,0.345 3.146,1.065 4.351,2.134 m -6.723,-2.377 c 0.459,0 0.902,0.033 1.339,0.081 l -1.9,1.9 -1.756,-1.755 c 0.779,-0.134 1.555,-0.226 2.317,-0.226 m -5.694,1.201 c 0.785,-0.319 1.577,-0.59 2.372,-0.783 l 2.162,2.162 -3.251,3.25 -2.957,-2.956 1.674,-1.673 z m 0.684,5.228 -3.099,3.099 -2.957,-2.956 3.099,-3.099 2.957,2.956 z m -3.682,-3.681 0.126,0.125 -3.099,3.099 -0.487,-0.487 c 1.065,-1.055 2.236,-1.963 3.46,-2.737 m -4.043,3.352 0.471,0.471 -3.203,3.203 c 0.748,-1.294 1.664,-2.529 2.732,-3.674 m -3.881,6.02 1.111,-1.11 2.957,2.957 -2.957,2.957 -1.966,-1.965 c 0.196,-0.956 0.48,-1.905 0.855,-2.839 m -1.036,3.854 1.548,1.549 -1.59,1.59 c -0.11,-0.998 -0.105,-2.046 0.042,-3.139 m 4.054,13.157 c -0.022,0.033 -0.059,0.068 -0.087,0.102 -1.541,0.489 -3.404,1.148 -5.589,2.039 -0.704,0.286 -1.343,0.559 -1.921,0.816 -0.172,0.021 -0.553,0.022 -0.755,-0.181 -0.095,-0.095 -0.145,-0.229 -0.177,-0.367 0.293,-0.649 0.604,-1.369 0.937,-2.186 0.671,-1.647 1.21,-3.113 1.645,-4.4 0.173,-0.26 0.522,-0.735 0.832,-0.942 0.088,-0.059 0.233,-0.05 0.384,-0.017 0.484,0.866 1.075,1.672 1.793,2.39 0.842,0.842 1.804,1.526 2.862,2.055 0.099,0.237 0.175,0.543 0.076,0.691 m -1.215,-4.022 3.148,-3.148 3.099,3.1 -2.218,2.218 c -1.549,-0.395 -2.91,-1.127 -4.029,-2.17 m 6.883,2.52 c -0.642,0 -1.26,-0.054 -1.858,-0.147 l 1.821,-1.822 1.835,1.835 c -0.604,0.082 -1.205,0.134 -1.798,0.134 m 5.695,-1.2 c -0.952,0.386 -1.914,0.687 -2.878,0.887 l -2.255,-2.255 2.957,-2.957 3.251,3.25 -1.075,1.075 z m -1.577,-4.924 3.242,-3.242 3.251,3.25 -3.242,3.242 -3.251,-3.25 z m 3.888,3.811 3.203,-3.204 0.468,0.467 c -1.14,1.061 -2.373,1.989 -3.671,2.737 m 4.29,-3.313 -0.489,-0.489 3.099,-3.099 0.145,0.146 c -0.772,1.215 -1.696,2.372 -2.755,3.442 m 4.318,-6.493 -1.706,1.706 -3.251,-3.249 3.25,-3.25 2.462,2.462 c -0.187,0.785 -0.447,1.562 -0.755,2.331 m 1.027,-3.748 c -0.02,0.138 -0.055,0.275 -0.078,0.413 l -2.057,-2.058 2.13,-2.128 c 0.185,1.182 0.193,2.448 0.005,3.773"
       id="path8848" /><path
       style="fill:#ffd200"
       inkscape:connector-curvature="0"
       clip-path="url(#SVGID_4_)"
       d="m 125.104,305.303 c -3.131,0 -5.67,2.539 -5.67,5.672 0,3.133 2.539,5.672 5.67,5.672 3.135,0 5.672,-2.539 5.672,-5.672 0,-3.133 -2.537,-5.672 -5.672,-5.672"
       id="path8850" /><path
       style="fill:#ffd200"
       inkscape:connector-curvature="0"
       clip-path="url(#SVGID_4_)"
       d="m 225.257,265.352 c -5.063,-1.568 -11.09,3.35 -13.457,10.986 -1.42,4.582 -1.201,9.096 0.291,12.319 l 10.838,3.361 c 3.057,-1.812 5.793,-5.414 7.211,-9.994 2.367,-7.636 0.181,-15.1 -4.883,-16.672"
       id="path8852" /><path
       style="fill:#ffd200"
       inkscape:connector-curvature="0"
       clip-path="url(#SVGID_4_)"
       d="m 216.872,292.977 -5.049,-1.566 c 0,0 0.998,1.808 1.69,3.449 0.689,1.64 0.605,2.801 0.605,2.801 0,0 -1.041,3.361 -2.435,7.564 -1.395,4.201 -1.293,5.065 -1.293,5.065 l 1.015,0.316 0.498,0.152 1.018,0.317 c 0,0 0.57,-0.657 1.799,-4.91 1.224,-4.254 2.267,-7.614 2.267,-7.614 0,0 0.59,-1.006 2.086,-1.967 1.498,-0.962 3.344,-1.89 3.344,-1.89 l -5.047,-1.565 -0.498,-0.152 z"
       id="path8854" /><path
       style="fill:#ffd200"
       inkscape:connector-curvature="0"
       clip-path="url(#SVGID_4_)"
       d="m 197.075,276.338 c -2.367,-7.637 -8.395,-12.555 -13.457,-10.986 -5.064,1.572 -7.25,9.036 -4.883,16.672 1.419,4.58 4.155,8.181 7.211,9.994 l 10.838,-3.362 c 1.492,-3.222 1.711,-7.736 0.291,-12.318"
       id="path8856" /><path
       style="fill:#ffd200"
       inkscape:connector-curvature="0"
       clip-path="url(#SVGID_4_)"
       d="m 194.755,297.66 c 0,0 -0.082,-1.16 0.607,-2.801 0.692,-1.64 1.69,-3.449 1.69,-3.449 l -5.049,1.566 -0.498,0.153 -5.047,1.564 c 0,0 1.846,0.928 3.344,1.891 1.496,0.961 2.086,1.967 2.086,1.967 0,0 1.043,3.359 2.267,7.613 1.229,4.254 1.799,4.91 1.799,4.91 l 1.018,-0.316 0.498,-0.153 1.015,-0.316 c 0,0 0.102,-0.863 -1.292,-5.065 -1.397,-4.203 -2.438,-7.564 -2.438,-7.564"
       id="path8858" /><path
       style="fill:#ffd200"
       inkscape:connector-curvature="0"
       clip-path="url(#SVGID_4_)"
       d="m 204.685,272.951 c -1.611,0 -2.92,1.309 -2.92,2.92 0,1.613 1.309,2.92 2.92,2.92 1.611,0 2.92,-1.307 2.92,-2.92 -10e-4,-1.611 -1.31,-2.92 -2.92,-2.92"
       id="path8860" /><path
       style="fill:#ffd200"
       inkscape:connector-curvature="0"
       clip-path="url(#SVGID_4_)"
       d="m 99.424,388.848 41.129,0 c -0.004,-0.848 -0.082,-1.707 -0.287,-2.498 -0.842,-3.232 -3.506,-3.848 -9.674,-6.926 -6.169,-3.078 -11.643,-7.153 -13.746,-10.539 -2.102,-3.387 -3.224,-11.236 -3.224,-11.236 l -12.945,3.526 -0.085,4.323 c -0.087,4.323 -0.702,7.696 -2.524,12.929 -1.823,5.233 0.701,8.311 0.701,8.311 l 0.655,2.11 z"
       id="path8862" /><path
       style="fill:#ffd200"
       inkscape:connector-curvature="0"
       clip-path="url(#SVGID_4_)"
       d="m 140.266,394.742 c -0.189,-0.311 -0.338,-0.554 -0.466,-0.769 l 0.044,0 c 0,0 0.405,-1.41 0.603,-3.219 l -40.432,0 0.857,2.757 1.492,0 c 0.173,0.652 0.443,2.202 -0.651,2.925 -1.401,0.923 -6.589,0.769 -6.589,0.769 l 0,1.847 c 0,0 11.777,0.845 26.355,0.692 14.58,-0.156 18.506,-0.231 19.487,-1.462 0.981,-1.231 0.419,-1.694 -0.7,-3.54 m -15.14,-0.033 c 0,1.462 -1.166,2.65 -2.605,2.65 l -15.401,0 c -1.44,0 -2.604,-1.188 -2.604,-2.65 l 0,-1.198 4.346,0 16.264,0.462 0,0.736 z m 12.487,2.65 -8.287,0 c -0.694,0 -1.257,-1.188 -1.257,-2.65 l 0,-0.736 10.029,0 c 2.257,3.135 0.2,3.386 -0.485,3.386"
       id="path8864" /><path
       style="fill:#ffd200"
       inkscape:connector-curvature="0"
       clip-path="url(#SVGID_4_)"
       d="m 196.554,394.694 0.895,1.318 -1.797,1.221 -0.893,-1.312 c -0.611,0.699 -0.848,1.476 -0.514,1.986 0.467,0.709 1.846,0.627 3.079,-0.184 1.236,-0.81 1.861,-2.043 1.398,-2.752 -0.354,-0.537 -1.229,-0.619 -2.168,-0.277"
       id="path8866" /><path
       style="fill:#ffd200"
       inkscape:connector-curvature="0"
       clip-path="url(#SVGID_4_)"
       d="m 220.573,366.555 c -0.467,-0.709 -1.844,-0.627 -3.08,0.184 -1.236,0.81 -1.861,2.043 -1.395,2.752 0.465,0.709 1.846,0.627 3.08,-0.184 1.235,-0.811 1.86,-2.043 1.395,-2.752"
       id="path8868" /><path
       style="fill:#ffd200"
       inkscape:connector-curvature="0"
       clip-path="url(#SVGID_4_)"
       d="m 192.444,385.799 c -0.465,-0.707 -1.842,-0.625 -3.078,0.184 -1.236,0.812 -1.86,2.043 -1.395,2.752 0.466,0.709 1.845,0.627 3.078,-0.184 1.235,-0.811 1.86,-2.041 1.395,-2.752"
       id="path8870" /><path
       style="fill:#ffd200"
       inkscape:connector-curvature="0"
       clip-path="url(#SVGID_4_)"
       d="m 230.056,376.2 -0.274,-0.416 c 3.912,-3.127 4.938,-8.597 2.225,-12.58 -2.856,-4.191 -8.766,-5.14 -13.201,-2.119 l -34.184,23.283 c -3.732,2.541 -5.22,7.083 -3.9,10.958 -2.372,-4.337 -1.111,-9.848 3.059,-12.688 l 34.181,-23.283 c 3.35,-2.282 7.611,-2.186 10.801,-0.096 -3.25,-2.768 -8.067,-3.149 -11.768,-0.629 l -34.18,23.283 c -4.437,3.022 -5.582,9.067 -2.562,13.504 0.326,0.479 0.693,0.912 1.084,1.313 0.131,0.236 0.269,0.471 0.424,0.699 2.334,3.428 6.711,4.683 10.654,3.377 l 0.811,1.236 c 0.002,0.006 0.006,0.01 0.006,0.014 0.931,1.418 3.689,1.254 6.16,-0.367 2.466,-1.622 3.716,-4.084 2.787,-5.504 -0.121,-0.184 -0.276,-0.342 -0.455,-0.475 l -0.348,-0.529 19.684,-13.407 0.498,0.758 c 0.002,0.004 0.004,0.01 0.008,0.012 0.927,1.418 3.685,1.254 6.156,-0.365 2.47,-1.621 3.719,-4.086 2.789,-5.504 -0.121,-0.187 -0.277,-0.344 -0.455,-0.475 m -44.525,14.267 c -0.929,-1.416 0.32,-3.881 2.789,-5.502 2.47,-1.619 5.228,-1.785 6.158,-0.365 0.929,1.416 -0.317,3.881 -2.787,5.502 -2.471,1.622 -5.229,1.786 -6.16,0.365 m 12.433,9.046 c -2.471,1.621 -5.229,1.787 -6.158,0.367 -0.852,-1.297 0.135,-3.463 2.201,-5.064 l -1.49,-2.194 c 0.201,-0.111 0.402,-0.215 0.599,-0.346 0.434,-0.283 0.813,-0.599 1.164,-0.923 l 1.592,2.339 c 2.078,-0.927 4.11,-0.857 4.881,0.319 0.93,1.418 -0.318,3.883 -2.789,5.502 m 15.898,-28.555 c -0.931,-1.416 0.319,-3.881 2.788,-5.502 2.47,-1.621 5.23,-1.785 6.16,-0.367 0.929,1.418 -0.321,3.881 -2.789,5.502 -2.471,1.62 -5.229,1.784 -6.159,0.367 m 12.434,9.044 c -2.473,1.621 -5.229,1.785 -6.158,0.367 -0.809,-1.23 0.029,-3.246 1.879,-4.818 l -1.524,-2.238 c 0.321,-0.161 0.639,-0.342 0.953,-0.547 0.309,-0.202 0.598,-0.418 0.868,-0.643 l 1.511,2.227 c 2.207,-1.118 4.44,-1.098 5.258,0.15 0.932,1.418 -0.316,3.881 -2.787,5.502"
       id="path8872" /><path
       style="fill:#ffd200"
       inkscape:connector-curvature="0"
       clip-path="url(#SVGID_4_)"
       d="m 224.599,375.485 1.182,1.74 -1.795,1.221 -1.157,-1.699 c -0.568,0.679 -0.779,1.422 -0.455,1.914 0.465,0.709 1.844,0.627 3.079,-0.184 1.236,-0.808 1.861,-2.041 1.394,-2.75 -0.361,-0.553 -1.277,-0.619 -2.248,-0.242"
       id="path8874" /><path
       style="fill:#ffd200"
       inkscape:connector-curvature="0"
       clip-path="url(#SVGID_4_)"
       d="m 230.097,177.569 -3.83,1.392 -20.569,20.571 -1.47,-4.329 18.717,-18.716 1.218,-4.003 -3.828,1.393 -17.429,17.43 -1.446,-4.259 0,-14.236 -0.592,0 0.001,12.496 -3.797,-11.185 -0.561,0.189 4.358,12.833 0,6.198 -22.806,22.807 2.609,2.609 20.197,-20.197 0,5.798 -16.873,16.875 2.609,2.608 14.265,-14.264 0,11.388 c -0.818,0.02 -1.567,0.134 -2.186,0.318 l -0.079,-0.035 -0.02,0.067 c -0.939,0.299 -1.552,0.755 -1.552,1.271 0,0.518 0.616,0.974 1.559,1.272 l 0.013,0.045 0.052,-0.023 c 0.623,0.189 1.382,0.306 2.213,0.327 l 0,2.146 0.588,0 0,-2.151 c 2.091,-0.071 3.737,-0.763 3.737,-1.618 0,-0.851 -1.645,-1.543 -3.737,-1.614 l 0.001,-11.982 5.097,-5.097 5.44,16.018 c -0.768,0.281 -1.441,0.63 -1.967,1.003 l -0.088,-0.008 0.003,0.072 c -0.791,0.584 -1.225,1.212 -1.06,1.701 0.166,0.49 0.896,0.723 1.883,0.703 l 0.027,0.039 0.043,-0.039 c 0.652,-0.022 1.408,-0.154 2.201,-0.402 l 0.69,2.031 0.556,-0.188 -0.691,-2.037 c 1.957,-0.74 3.294,-1.924 3.018,-2.733 -0.274,-0.807 -2.055,-0.933 -4.057,-0.328 l -5.533,-16.298 21.855,-21.855 1.221,-4.003 z m -31.571,45.806 c -0.419,-0.22 -0.678,-0.491 -0.679,-0.788 0.001,-0.302 0.27,-0.577 0.703,-0.799 l 1.78,0.789 -1.804,0.798 z m 2.344,0.507 c -0.621,-0.018 -1.192,-0.103 -1.668,-0.241 l 1.668,-0.739 0,0.98 z m 0,-1.63 -1.642,-0.727 c 0.47,-0.133 1.033,-0.214 1.642,-0.232 l 0,0.959 z m 0.588,1.626 0,-0.802 1.386,0.614 c -0.41,0.103 -0.88,0.167 -1.386,0.188 m 2.92,-1.29 c 0,0.354 -0.357,0.675 -0.931,0.91 l 0.027,-0.093 -1.869,-0.828 1.871,-0.827 -0.02,-0.068 c 0.569,0.235 0.922,0.553 0.922,0.906 m -1.566,-1.109 -1.354,0.598 0,-0.78 c 0.493,0.021 0.952,0.083 1.354,0.182 m -1.352,-32.593 0.98,2.887 -0.98,0.981 0,-3.868 z m -0.001,14.885 0,-5.799 2.304,-2.304 1.47,4.329 -3.774,3.774 z m 9.092,19.172 c -0.468,-0.073 -0.801,-0.246 -0.897,-0.526 -0.097,-0.287 0.07,-0.634 0.409,-0.983 l 1.938,0.174 -1.45,1.335 z m 2.937,-0.464 -0.258,-0.759 1.509,0.136 c -0.354,0.227 -0.78,0.439 -1.251,0.623 m 1.185,-2.723 c 0.615,0.039 1.052,0.227 1.166,0.562 0.113,0.335 -0.121,0.753 -0.589,1.16 l -0.005,-0.097 -2.036,-0.182 1.505,-1.385 -0.041,-0.058 z m -0.677,0.015 -1.087,1.001 -0.25,-0.738 c 0.472,-0.138 0.926,-0.226 1.337,-0.263 m -1.378,1.973 0.315,0.927 c -0.594,0.182 -1.162,0.285 -1.656,0.308 l 1.341,-1.235 z m -0.209,-0.617 -1.788,-0.16 c 0.402,-0.278 0.909,-0.535 1.479,-0.748 l 0.309,0.908 z"
       id="path8876" /><path
       style="fill:#ffd200"
       inkscape:connector-curvature="0"
       clip-path="url(#SVGID_4_)"
       d="m 89.309,447.236 2.15,0 0,1.232 c 0,1.198 -0.951,2.15 -2.158,2.15 -0.952,0 -1.607,-0.561 -1.896,-1.088 -0.195,-0.356 -0.263,-0.535 -0.263,-1.988 0,-1.453 0.068,-1.632 0.263,-1.989 0.289,-0.526 0.944,-1.088 1.896,-1.088 1.147,0 1.938,0.808 2.124,1.794 l -0.969,0 c -0.144,-0.468 -0.577,-0.876 -1.155,-0.876 -0.434,0 -0.748,0.205 -0.935,0.442 -0.238,0.307 -0.306,0.476 -0.306,1.717 0,1.24 0.068,1.41 0.306,1.717 0.187,0.237 0.501,0.441 0.935,0.441 0.696,0 1.24,-0.526 1.24,-1.283 l 0,-0.314 -1.232,0 0,-0.867 z"
       id="path8878" /><path
       style="fill:#ffd200"
       inkscape:connector-curvature="0"
       clip-path="url(#SVGID_4_)"
       d="m 92.454,446.26 0.867,0 0,0.458 0.017,0 c 0.272,-0.34 0.663,-0.51 1.122,-0.51 0.348,0 0.637,0.128 0.901,0.332 l -0.629,0.748 c -0.204,-0.153 -0.349,-0.213 -0.57,-0.213 -0.425,0 -0.841,0.272 -0.841,0.901 l 0,2.592 -0.867,0 0,-4.308 z"
       id="path8880" /><path
       style="fill:#ffd200"
       inkscape:connector-curvature="0"
       clip-path="url(#SVGID_4_)"
       d="m 97.87,450.186 -0.017,0 c -0.178,0.298 -0.476,0.434 -1.063,0.434 -0.96,0 -1.521,-0.569 -1.521,-1.317 0,-0.688 0.476,-1.274 1.403,-1.274 l 1.198,0 0,-0.451 c 0,-0.407 -0.264,-0.552 -0.884,-0.552 -0.45,0 -0.663,0.085 -0.816,0.331 l -0.68,-0.519 c 0.332,-0.459 0.808,-0.629 1.454,-0.629 1.062,0 1.793,0.357 1.793,1.42 l 0,2.94 -0.867,0 0,-0.383 z m 0,-1.445 -1.037,0 c -0.51,0 -0.748,0.204 -0.748,0.519 0,0.289 0.23,0.544 0.816,0.544 0.722,0 0.969,-0.077 0.969,-0.748 l 0,-0.315 z"
       id="path8882" /><path
       style="fill:#ffd200"
       inkscape:connector-curvature="0"
       clip-path="url(#SVGID_4_)"
       d="m 99.859,446.26 0.867,0 0,0.45 c 0.271,-0.298 0.671,-0.502 1.113,-0.502 0.527,0 0.909,0.238 1.156,0.562 0.238,0.306 0.306,0.585 0.306,1.648 0,1.054 -0.068,1.334 -0.306,1.641 -0.247,0.323 -0.629,0.561 -1.156,0.561 -0.442,0 -0.79,-0.204 -1.113,-0.51 l 0,2.201 -0.867,0 0,-6.051 z m 2.576,2.158 c 0,-0.671 -0.042,-1.343 -0.858,-1.343 -0.808,0 -0.85,0.714 -0.85,1.343 0,0.62 0.042,1.334 0.85,1.334 0.816,0 0.858,-0.671 0.858,-1.334"
       id="path8884" /><path
       style="fill:#ffd200"
       inkscape:connector-curvature="0"
       clip-path="url(#SVGID_4_)"
       d="m 104.271,444.517 0.867,0 0,2.201 0.017,0 c 0.272,-0.34 0.663,-0.51 1.122,-0.51 0.671,0 1.436,0.519 1.436,1.496 l 0,2.864 -0.867,0 0,-2.566 c 0,-0.587 -0.366,-0.927 -0.85,-0.927 -0.493,0 -0.858,0.34 -0.858,0.927 l 0,2.566 -0.867,0 0,-6.051 z"
       id="path8886" /><path
       style="fill:#ffd200"
       inkscape:connector-curvature="0"
       clip-path="url(#SVGID_4_)"
       d="m 108.861,444.517 0.867,0 0,0.867 -0.867,0 0,-0.867 z m 0,1.743 0.867,0 0,4.309 -0.867,0 0,-4.309 z"
       id="path8888" /><path
       style="fill:#ffd200"
       inkscape:connector-curvature="0"
       clip-path="url(#SVGID_4_)"
       d="m 114.045,449.871 c -0.374,0.434 -0.892,0.748 -1.547,0.748 -0.994,0 -1.954,-0.629 -1.954,-2.201 0,-1.581 0.96,-2.21 1.954,-2.21 0.655,0 1.173,0.314 1.547,0.748 l -0.637,0.569 c -0.213,-0.264 -0.519,-0.45 -0.876,-0.45 -0.705,0 -1.122,0.399 -1.122,1.343 0,0.935 0.417,1.334 1.122,1.334 0.357,0 0.663,-0.187 0.876,-0.45 l 0.637,0.569 z"
       id="path8890" /><path
       style="fill:#ffd200"
       inkscape:connector-curvature="0"
       clip-path="url(#SVGID_4_)"
       d="m 114.777,449.251 c 0.374,0.365 0.782,0.553 1.36,0.553 0.493,0 0.85,-0.188 0.85,-0.553 0,-0.306 -0.23,-0.399 -0.527,-0.425 l -0.765,-0.068 c -0.714,-0.06 -1.241,-0.484 -1.241,-1.224 0,-0.875 0.697,-1.326 1.606,-1.326 0.757,0 1.267,0.23 1.692,0.587 l -0.536,0.629 c -0.34,-0.238 -0.688,-0.399 -1.156,-0.399 -0.552,0 -0.739,0.221 -0.739,0.519 0,0.187 0.136,0.374 0.569,0.407 l 0.714,0.052 c 0.893,0.06 1.25,0.603 1.25,1.292 0,0.841 -0.782,1.325 -1.785,1.325 -0.697,0 -1.343,-0.255 -1.896,-0.773 l 0.604,-0.596 z"
       id="path8892" /><path
       style="fill:#ffd200"
       inkscape:connector-curvature="0"
       clip-path="url(#SVGID_4_)"
       d="m 123.608,444.466 c 1.7,0 3.077,1.377 3.077,3.077 0,1.699 -1.377,3.076 -3.077,3.076 -1.7,0 -3.077,-1.377 -3.077,-3.076 0,-1.7 1.377,-3.077 3.077,-3.077 m 0,5.542 c 1.386,0 2.414,-1.028 2.414,-2.465 0,-1.437 -1.028,-2.465 -2.414,-2.465 -1.385,0 -2.414,1.028 -2.414,2.465 0,1.437 1.029,2.465 2.414,2.465 m 1.666,-1.93 c -0.153,0.901 -0.756,1.428 -1.555,1.428 -1.156,0 -1.87,-0.842 -1.87,-1.963 0,-1.147 0.671,-1.964 1.844,-1.964 0.825,0 1.471,0.459 1.581,1.386 l -0.612,0 c -0.094,-0.449 -0.476,-0.773 -0.96,-0.773 -0.757,0 -1.19,0.604 -1.19,1.334 0,0.706 0.476,1.368 1.207,1.368 0.484,0 0.867,-0.34 0.943,-0.815 l 0.612,0 z"
       id="path8894" /><polygon
       style="fill:#ffd200"
       clip-path="url(#SVGID_4_)"
       points="133,447.109 133,444.517 133.918,444.517 133.918,450.568 133,450.568 133,447.925 130.604,447.925 130.604,450.568 129.686,450.568 129.686,444.517 130.604,444.517 130.604,447.109 "
       id="polygon8896" /><path
       style="fill:#ffd200"
       inkscape:connector-curvature="0"
       clip-path="url(#SVGID_4_)"
       d="m 137.378,450.186 -0.017,0 c -0.178,0.298 -0.476,0.434 -1.063,0.434 -0.96,0 -1.521,-0.569 -1.521,-1.317 0,-0.688 0.476,-1.274 1.403,-1.274 l 1.198,0 0,-0.451 c 0,-0.407 -0.264,-0.552 -0.884,-0.552 -0.45,0 -0.663,0.085 -0.816,0.331 l -0.68,-0.519 c 0.332,-0.459 0.808,-0.629 1.454,-0.629 1.062,0 1.793,0.357 1.793,1.42 l 0,2.94 -0.867,0 0,-0.383 z m 0,-1.445 -1.037,0 c -0.51,0 -0.748,0.204 -0.748,0.519 0,0.289 0.23,0.544 0.816,0.544 0.722,0 0.969,-0.077 0.969,-0.748 l 0,-0.315 z"
       id="path8898" /><path
       style="fill:#ffd200"
       inkscape:connector-curvature="0"
       clip-path="url(#SVGID_4_)"
       d="m 139.367,446.26 0.867,0 0,0.45 c 0.271,-0.298 0.671,-0.502 1.113,-0.502 0.527,0 0.909,0.238 1.156,0.562 0.238,0.306 0.306,0.585 0.306,1.648 0,1.054 -0.068,1.334 -0.306,1.641 -0.247,0.323 -0.629,0.561 -1.156,0.561 -0.442,0 -0.79,-0.204 -1.113,-0.51 l 0,2.201 -0.867,0 0,-6.051 z m 2.575,2.158 c 0,-0.671 -0.042,-1.343 -0.858,-1.343 -0.808,0 -0.85,0.714 -0.85,1.343 0,0.62 0.042,1.334 0.85,1.334 0.816,0 0.858,-0.671 0.858,-1.334"
       id="path8900" /><path
       style="fill:#ffd200"
       inkscape:connector-curvature="0"
       clip-path="url(#SVGID_4_)"
       d="m 143.779,446.26 0.867,0 0,0.45 c 0.271,-0.298 0.671,-0.502 1.113,-0.502 0.527,0 0.909,0.238 1.156,0.562 0.238,0.306 0.306,0.585 0.306,1.648 0,1.054 -0.068,1.334 -0.306,1.641 -0.247,0.323 -0.629,0.561 -1.156,0.561 -0.442,0 -0.79,-0.204 -1.113,-0.51 l 0,2.201 -0.867,0 0,-6.051 z m 2.575,2.158 c 0,-0.671 -0.042,-1.343 -0.858,-1.343 -0.808,0 -0.85,0.714 -0.85,1.343 0,0.62 0.042,1.334 0.85,1.334 0.816,0 0.858,-0.671 0.858,-1.334"
       id="path8902" /><path
       style="fill:#ffd200"
       inkscape:connector-curvature="0"
       clip-path="url(#SVGID_4_)"
       d="m 147.57,446.26 0.918,0 1.02,3.017 0.017,0 1.02,-3.017 0.918,0 -1.853,5.201 c -0.238,0.663 -0.688,0.85 -1.215,0.85 l -0.289,0 0,-0.815 0.255,0 c 0.221,0 0.433,-0.119 0.518,-0.374 l 0.238,-0.723 -1.547,-4.139 z"
       id="path8904" /><path
       style="fill:#ffd200"
       inkscape:connector-curvature="0"
       clip-path="url(#SVGID_4_)"
       d="m 153.715,449.752 2.363,-2.957 c 0.187,-0.238 0.221,-0.425 0.221,-0.604 0,-0.425 -0.315,-0.858 -0.833,-0.858 -0.468,0 -0.842,0.331 -0.884,0.875 l -0.867,0 c 0.008,-0.985 0.773,-1.742 1.683,-1.742 1.011,0 1.768,0.773 1.768,1.734 0,0.399 -0.111,0.747 -0.366,1.062 l -1.946,2.439 2.312,0 0,0.867 -3.451,0 0,-0.816 z"
       id="path8906" /><path
       style="fill:#ffd200"
       inkscape:connector-curvature="0"
       clip-path="url(#SVGID_4_)"
       d="m 157.846,446.208 c 0,-1.113 0.825,-1.742 1.717,-1.742 0.892,0 1.717,0.629 1.717,1.742 l 0,2.669 c 0,1.113 -0.825,1.742 -1.717,1.742 -0.892,0 -1.717,-0.629 -1.717,-1.742 l 0,-2.669 z m 2.567,0.052 c 0,-0.587 -0.34,-0.927 -0.85,-0.927 -0.51,0 -0.85,0.34 -0.85,0.927 l 0,2.566 c 0,0.586 0.34,0.926 0.85,0.926 0.51,0 0.85,-0.34 0.85,-0.926 l 0,-2.566 z"
       id="path8908" /><polygon
       style="fill:#ffd200"
       clip-path="url(#SVGID_4_)"
       points="163.252,445.435 162.395,446.063 162.395,445.146 163.252,444.517 164.12,444.517 164.12,450.568 163.252,450.568 "
       id="polygon8910" /><path
       style="fill:#ffd200"
       inkscape:connector-curvature="0"
       clip-path="url(#SVGID_4_)"
       d="m 165.956,449.752 2.363,-2.957 c 0.187,-0.238 0.221,-0.425 0.221,-0.604 0,-0.425 -0.315,-0.858 -0.833,-0.858 -0.468,0 -0.842,0.331 -0.884,0.875 l -0.867,0 c 0.008,-0.985 0.773,-1.742 1.683,-1.742 1.011,0 1.768,0.773 1.768,1.734 0,0.399 -0.111,0.747 -0.366,1.062 l -1.946,2.439 2.312,0 0,0.867 -3.451,0 0,-0.816 z"
       id="path8912" /><rect
       style="fill:#ffd200"
       x="170.35001"
       y="449.70001"
       clip-path="url(#SVGID_4_)"
       width="0.86699998"
       height="0.86699998"
       id="rect8914" /><path
       style="fill:#ffd200"
       inkscape:connector-curvature="0"
       clip-path="url(#SVGID_4_)"
       d="m 177.584,449.217 -2.295,0 -0.468,1.352 -0.969,0 2.202,-6.052 0.765,0 2.201,6.052 -0.969,0 -0.467,-1.352 z m -0.264,-0.816 -0.875,-2.644 -0.018,0 -0.875,2.644 1.768,0 z"
       id="path8916" /><path
       style="fill:#ffd200"
       inkscape:connector-curvature="0"
       clip-path="url(#SVGID_4_)"
       d="m 179.59,444.517 0.867,0 0,4.938 c 0,0.196 0.111,0.298 0.323,0.298 l 0.297,0 0,0.816 -0.382,0 c -0.629,0 -1.105,-0.271 -1.105,-1.045 l 0,-5.007 z"
       id="path8918" /><path
       style="fill:#ffd200"
       inkscape:connector-curvature="0"
       clip-path="url(#SVGID_4_)"
       d="m 181.783,444.517 0.867,0 0,4.938 c 0,0.196 0.111,0.298 0.323,0.298 l 0.297,0 0,0.816 -0.382,0 c -0.629,0 -1.105,-0.271 -1.105,-1.045 l 0,-5.007 z"
       id="path8920" /><path
       style="fill:#ffd200"
       inkscape:connector-curvature="0"
       clip-path="url(#SVGID_4_)"
       d="m 186.016,446.26 0.867,0 0,0.458 0.017,0 c 0.272,-0.34 0.663,-0.51 1.122,-0.51 0.348,0 0.637,0.128 0.901,0.332 l -0.629,0.748 c -0.204,-0.153 -0.349,-0.213 -0.57,-0.213 -0.425,0 -0.841,0.272 -0.841,0.901 l 0,2.592 -0.867,0 0,-4.308 z"
       id="path8922" /><path
       style="fill:#ffd200"
       inkscape:connector-curvature="0"
       clip-path="url(#SVGID_4_)"
       d="m 189.348,444.517 0.867,0 0,0.867 -0.867,0 0,-0.867 z m 0,1.743 0.867,0 0,4.309 -0.867,0 0,-4.309 z"
       id="path8924" /><path
       style="fill:#ffd200"
       inkscape:connector-curvature="0"
       clip-path="url(#SVGID_4_)"
       d="m 193.785,450.118 c -0.272,0.297 -0.672,0.501 -1.114,0.501 -0.561,0 -0.944,-0.28 -1.139,-0.526 -0.246,-0.323 -0.323,-0.484 -0.323,-1.675 0,-1.198 0.077,-1.359 0.323,-1.683 0.195,-0.247 0.578,-0.527 1.139,-0.527 0.442,0 0.79,0.17 1.114,0.51 l 0,-0.458 0.866,0 0,4.207 c 0,1.3 -0.884,1.895 -1.869,1.895 -0.553,0 -1.114,-0.289 -1.496,-0.722 l 0.671,-0.536 c 0.212,0.214 0.51,0.392 0.841,0.392 0.578,0 0.987,-0.332 0.987,-0.936 l 0,-0.442 z m -1.539,-0.697 c 0.119,0.153 0.34,0.331 0.688,0.331 0.34,0 0.562,-0.178 0.68,-0.331 0.153,-0.195 0.171,-0.314 0.171,-1.003 0,-0.697 -0.018,-0.815 -0.171,-1.012 -0.118,-0.152 -0.34,-0.331 -0.68,-0.331 -0.348,0 -0.569,0.179 -0.688,0.331 -0.153,0.196 -0.17,0.314 -0.17,1.012 0,0.688 0.017,0.808 0.17,1.003"
       id="path8926" /><path
       style="fill:#ffd200"
       inkscape:connector-curvature="0"
       clip-path="url(#SVGID_4_)"
       d="m 195.774,444.517 0.867,0 0,2.201 0.017,0 c 0.272,-0.34 0.663,-0.51 1.122,-0.51 0.671,0 1.436,0.519 1.436,1.496 l 0,2.864 -0.867,0 0,-2.566 c 0,-0.587 -0.366,-0.927 -0.85,-0.927 -0.493,0 -0.858,0.34 -0.858,0.927 l 0,2.566 -0.867,0 0,-6.051 z"
       id="path8928" /><path
       style="fill:#ffd200"
       inkscape:connector-curvature="0"
       clip-path="url(#SVGID_4_)"
       d="m 200.389,444.95 0.867,0 0,1.31 0.629,0 0,0.662 -0.629,0 0,2.507 c 0,0.238 0.093,0.323 0.306,0.323 l 0.323,0 0,0.816 -0.451,0 c -0.603,0 -1.045,-0.383 -1.045,-1.063 l 0,-2.584 -0.433,0 0,-0.662 0.433,0 0,-1.309 z"
       id="path8930" /><path
       style="fill:#ffd200"
       inkscape:connector-curvature="0"
       clip-path="url(#SVGID_4_)"
       d="m 202.829,449.251 c 0.374,0.365 0.782,0.553 1.36,0.553 0.493,0 0.85,-0.188 0.85,-0.553 0,-0.306 -0.23,-0.399 -0.527,-0.425 l -0.765,-0.068 c -0.714,-0.06 -1.241,-0.484 -1.241,-1.224 0,-0.875 0.697,-1.326 1.606,-1.326 0.757,0 1.267,0.23 1.692,0.587 l -0.536,0.629 c -0.34,-0.238 -0.688,-0.399 -1.156,-0.399 -0.552,0 -0.739,0.221 -0.739,0.519 0,0.187 0.136,0.374 0.569,0.407 l 0.714,0.052 c 0.893,0.06 1.25,0.603 1.25,1.292 0,0.841 -0.782,1.325 -1.785,1.325 -0.697,0 -1.343,-0.255 -1.896,-0.773 l 0.604,-0.596 z"
       id="path8932" /><path
       style="fill:#ffd200"
       inkscape:connector-curvature="0"
       clip-path="url(#SVGID_4_)"
       d="m 208.821,446.26 0.867,0 0,0.458 0.017,0 c 0.272,-0.34 0.663,-0.51 1.122,-0.51 0.348,0 0.637,0.128 0.901,0.332 l -0.629,0.748 c -0.204,-0.153 -0.349,-0.213 -0.57,-0.213 -0.425,0 -0.841,0.272 -0.841,0.901 l 0,2.592 -0.867,0 0,-4.308 z"
       id="path8934" /><path
       style="fill:#ffd200"
       inkscape:connector-curvature="0"
       clip-path="url(#SVGID_4_)"
       d="m 212.631,448.741 c 0,0.705 0.434,1.063 1.028,1.063 0.332,0 0.689,-0.153 0.944,-0.417 l 0.629,0.537 c -0.425,0.491 -0.977,0.695 -1.555,0.695 -0.884,0 -1.913,-0.425 -1.913,-2.192 0,-1.675 0.944,-2.219 1.777,-2.219 0.951,0 1.776,0.706 1.776,1.819 l 0,0.714 -2.686,0 z m 1.819,-0.714 c -0.025,-0.654 -0.399,-1.003 -0.909,-1.003 -0.51,0 -0.893,0.349 -0.91,1.003 l 1.819,0 z"
       id="path8936" /><path
       style="fill:#ffd200"
       inkscape:connector-curvature="0"
       clip-path="url(#SVGID_4_)"
       d="m 216.354,449.251 c 0.374,0.365 0.782,0.553 1.36,0.553 0.493,0 0.85,-0.188 0.85,-0.553 0,-0.306 -0.23,-0.399 -0.527,-0.425 l -0.765,-0.068 c -0.714,-0.06 -1.241,-0.484 -1.241,-1.224 0,-0.875 0.697,-1.326 1.606,-1.326 0.757,0 1.267,0.23 1.692,0.587 l -0.536,0.629 c -0.34,-0.238 -0.688,-0.399 -1.156,-0.399 -0.552,0 -0.739,0.221 -0.739,0.519 0,0.187 0.136,0.374 0.569,0.407 l 0.714,0.052 c 0.893,0.06 1.25,0.603 1.25,1.292 0,0.841 -0.782,1.325 -1.785,1.325 -0.697,0 -1.343,-0.255 -1.896,-0.773 l 0.604,-0.596 z"
       id="path8938" /><path
       style="fill:#ffd200"
       inkscape:connector-curvature="0"
       clip-path="url(#SVGID_4_)"
       d="m 220.961,448.741 c 0,0.705 0.434,1.063 1.028,1.063 0.332,0 0.689,-0.153 0.944,-0.417 l 0.629,0.537 c -0.425,0.491 -0.977,0.695 -1.555,0.695 -0.884,0 -1.913,-0.425 -1.913,-2.192 0,-1.675 0.944,-2.219 1.777,-2.219 0.951,0 1.776,0.706 1.776,1.819 l 0,0.714 -2.686,0 z m 1.819,-0.714 c -0.025,-0.654 -0.399,-1.003 -0.909,-1.003 -0.51,0 -0.893,0.349 -0.91,1.003 l 1.819,0 z"
       id="path8940" /><path
       style="fill:#ffd200"
       inkscape:connector-curvature="0"
       clip-path="url(#SVGID_4_)"
       d="m 224.557,446.26 0.867,0 0,0.458 0.017,0 c 0.272,-0.34 0.663,-0.51 1.122,-0.51 0.348,0 0.637,0.128 0.901,0.332 l -0.629,0.748 c -0.204,-0.153 -0.349,-0.213 -0.57,-0.213 -0.425,0 -0.841,0.272 -0.841,0.901 l 0,2.592 -0.867,0 0,-4.308 z"
       id="path8942" /><polygon
       style="fill:#ffd200"
       clip-path="url(#SVGID_4_)"
       points="228.833,450.568 227.251,446.26 228.168,446.26 229.181,449.276 229.197,449.276 230.209,446.26 231.126,446.26 229.545,450.568 "
       id="polygon8944" /><path
       style="fill:#ffd200"
       inkscape:connector-curvature="0"
       clip-path="url(#SVGID_4_)"
       d="m 232.241,448.741 c 0,0.705 0.434,1.063 1.028,1.063 0.332,0 0.689,-0.153 0.944,-0.417 l 0.629,0.537 c -0.425,0.491 -0.977,0.695 -1.555,0.695 -0.884,0 -1.913,-0.425 -1.913,-2.192 0,-1.675 0.944,-2.219 1.777,-2.219 0.951,0 1.776,0.706 1.776,1.819 l 0,0.714 -2.686,0 z m 1.819,-0.714 c -0.025,-0.654 -0.399,-1.003 -0.909,-1.003 -0.51,0 -0.893,0.349 -0.91,1.003 l 1.819,0 z"
       id="path8946" /><path
       style="fill:#ffd200"
       inkscape:connector-curvature="0"
       clip-path="url(#SVGID_4_)"
       d="m 238.412,450.118 c -0.271,0.297 -0.671,0.501 -1.113,0.501 -0.527,0 -0.909,-0.237 -1.156,-0.561 -0.238,-0.307 -0.306,-0.586 -0.306,-1.649 0,-1.054 0.068,-1.334 0.306,-1.64 0.247,-0.323 0.629,-0.562 1.156,-0.562 0.442,0 0.79,0.204 1.113,0.51 l 0,-2.201 0.867,0 0,6.052 -0.867,0 0,-0.45 z m -1.708,-1.709 c 0,0.672 0.042,1.343 0.858,1.343 0.808,0 0.85,-0.714 0.85,-1.343 0,-0.62 -0.042,-1.334 -0.85,-1.334 -0.816,0 -0.858,0.672 -0.858,1.334"
       id="path8948" /><rect
       style="fill:#ffd200"
       x="240.274"
       y="449.70001"
       clip-path="url(#SVGID_4_)"
       width="0.86699998"
       height="0.86699998"
       id="rect8950" /><path
       style="clip-rule:evenodd;fill:#ffd200;fill-rule:evenodd"
       inkscape:connector-curvature="0"
       clip-path="url(#SVGID_4_)"
       d="m 272.602,139.023 c -0.671,-3.801 -2.781,-7.112 -5.943,-9.327 -2.442,-1.71 -5.304,-2.613 -8.276,-2.613 -4.716,0 -9.145,2.304 -11.849,6.164 -4.569,6.527 -2.975,15.554 3.55,20.124 2.441,1.71 5.304,2.614 8.277,2.614 4.716,0 9.145,-2.304 11.848,-6.164 2.213,-3.162 3.062,-6.997 2.393,-10.798 m -4.933,6.543 -3.967,0.565 -2.708,-5.111 1.611,-4.132 5.266,-0.479 1.843,3.168 -2.045,5.989 z m -6.566,4.777 -5.403,-0.085 -2.209,-4.028 2.67,-5.04 2.088,0.022 0,0.011 0.448,-0.006 0.638,0.007 -0.002,-0.015 1.31,-0.017 2.669,5.038 -2.209,4.113 z m -11.971,-4.776 -1.97,-5.801 2.008,-3.336 5.024,0.458 1.613,4.133 -2.708,5.111 -3.967,-0.565 z m 9.055,-16.379 0.021,-0.01 0.01,3.804 -3.906,3.524 -4.977,-0.454 0.269,-4.027 c 0,0 -0.095,-0.006 -0.275,0.063 1.977,-1.889 4.495,-3.126 7.216,-3.512 l 1.642,0.612 z m 9.13,2.796 0.224,3.858 0.113,0.193 -5.166,0.471 -3.88,-3.464 -0.01,-4.043 1.074,-0.494 c 2.227,0.219 4.353,0.998 6.211,2.298 0.513,0.359 0.985,0.761 1.434,1.181 m -21.835,7.301 1.301,0.579 2.168,6.384 0.051,2.841 -0.855,0.623 c -2.354,-2.946 -3.297,-6.763 -2.665,-10.427 m 2.92,10.724 0.766,-0.559 4.046,2.832 -0.088,1.249 c -0.789,-0.346 -1.55,-0.763 -2.269,-1.266 -0.936,-0.656 -1.747,-1.422 -2.455,-2.256 m 5.103,3.691 0.104,-1.465 1.873,-1.589 5.852,0.091 1.859,1.507 0.099,1.41 c -1.548,0.629 -3.216,0.98 -4.932,0.98 -1.678,0 -3.32,-0.319 -4.855,-0.934 m 10.167,-0.215 -0.085,-1.204 4.045,-2.831 0.727,0.53 c -1.287,1.522 -2.894,2.709 -4.687,3.505 m 5.43,-4.438 c -0.154,0.22 -0.332,0.418 -0.498,0.626 l -0.805,-0.585 0.051,-2.836 2.206,-6.464 1.213,-0.541 c 0,0.003 0.002,0.007 0.002,0.01 0.607,3.446 -0.163,6.923 -2.169,9.79"
       id="path8952" /></g><g
     inkscape:groupmode="layer"
     id="layer4"
     inkscape:label="Layer 1"
     transform="translate(334.03673,73.222522)" /></svg>