<?xml version="1.0" encoding="UTF-8" standalone="no"?>
<!-- Generator: Adobe Illustrator 16.0.0, SVG Export Plug-In . SVG Version: 6.00 Build 0)  -->

<svg
   xmlns:dc="http://purl.org/dc/elements/1.1/"
   xmlns:cc="http://creativecommons.org/ns#"
   xmlns:rdf="http://www.w3.org/1999/02/22-rdf-syntax-ns#"
   xmlns:svg="http://www.w3.org/2000/svg"
   xmlns="http://www.w3.org/2000/svg"
   xmlns:xlink="http://www.w3.org/1999/xlink"
   xmlns:sodipodi="http://sodipodi.sourceforge.net/DTD/sodipodi-0.dtd"
   xmlns:inkscape="http://www.inkscape.org/namespaces/inkscape"
   version="1.1"
   id="Layer_1"
   x="0px"
   y="0px"
   width="989.35535"
   height="726.30212"
   viewBox="0 0 989.35531 726.30211"
   enable-background="new 0 0 595.275 841.89"
   xml:space="preserve"
   inkscape:version="0.91 r13725"
   sodipodi:docname="nlg_weather.svg"><metadata
     id="metadata7597"><rdf:RDF><cc:Work
         rdf:about=""><dc:format>image/svg+xml</dc:format><dc:type
           rdf:resource="http://purl.org/dc/dcmitype/StillImage" /><dc:title></dc:title></cc:Work></rdf:RDF></metadata><defs
     id="defs7595"><defs
       id="defs7443"><rect
         height="841.89001"
         width="595.27399"
         y="-0.001"
         x="0.001"
         id="SVGID_3_" /></defs><clipPath
       id="SVGID_4_"><use
         id="use7447"
         overflow="visible"
         xlink:href="#SVGID_3_"
         style="overflow:visible"
         x="0"
         y="0"
         width="100%"
         height="100%" /></clipPath><defs
       id="defs7139"><rect
         height="841.89001"
         width="595.27399"
         y="-0.001"
         x="0.001"
         id="SVGID_1_" /></defs><clipPath
       id="SVGID_2_"><use
         id="use7143"
         overflow="visible"
         xlink:href="#SVGID_1_"
         style="overflow:visible"
         x="0"
         y="0"
         width="100%"
         height="100%" /></clipPath></defs><sodipodi:namedview
     pagecolor="#ffffff"
     bordercolor="#666666"
     borderopacity="1"
     objecttolerance="10"
     gridtolerance="10"
     guidetolerance="10"
     inkscape:pageopacity="0"
     inkscape:pageshadow="2"
     inkscape:window-width="1741"
     inkscape:window-height="1045"
     id="namedview7593"
     showgrid="false"
     inkscape:zoom="0.5606433"
     inkscape:cx="402.83902"
     inkscape:cy="300.46445"
     inkscape:window-x="1440"
     inkscape:window-y="0"
     inkscape:window-maximized="0"
     inkscape:current-layer="layer9"
     fit-margin-top="0"
     fit-margin-left="0"
     fit-margin-right="0"
     fit-margin-bottom="0" /><g
     inkscape:groupmode="layer"
     id="layer8"
     inkscape:label="color"
     style="display:none"><rect
       style="fill:#ee3124"
       x="-724.85211"
       y="1.4500026"
       width="723.54999"
       height="986.58002"
       id="rect6741"
       transform="matrix(0,-1,1,0,0,0)" /></g><g
     inkscape:groupmode="layer"
     id="layer9"
     inkscape:label="markers"
     style="display:none"><rect
       style="fill:none;stroke:#000000;stroke-width:2.9000001;stroke-miterlimit:3.86400008"
       x="-724.85211"
       y="1.4500026"
       stroke-miterlimit="3.864"
       width="723.4021"
       height="986.45532"
       id="rect6743"
       transform="matrix(0,-1,1,0,0,0)" /><polygon
       style="fill:none;stroke:#000000;stroke-miterlimit:3.86400008"
       stroke-miterlimit="3.864"
       points="261.951,362.713 239.25,362.713 239.25,340.013 216.551,340.013 216.551,317.313 193.951,317.313 193.951,340.013 171.25,340.013 148.551,340.013 148.551,362.713 171.25,362.713 171.25,385.413 148.551,385.413 148.351,408.013 171.25,408.013 193.951,408.013 193.951,430.713 216.551,430.713 216.551,408.013 239.25,408.013 239.25,385.413 261.951,385.413 "
       id="polygon6751"
       transform="matrix(0,-2.9,2.9,0,-326.86769,826.21002)" /><polygon
       style="fill:none;stroke:#000000;stroke-miterlimit:3.86400008"
       stroke-miterlimit="3.864"
       points="193.751,226.613 193.751,249.313 148.351,249.313 148.351,272.013 171.051,272.013 171.051,294.713 148.351,294.713 148.351,317.313 171.051,317.313 171.051,340.013 193.751,340.013 193.751,317.313 216.451,317.313 216.451,340.013 239.051,340.013 239.051,317.313 239.051,294.713 261.751,294.713 261.751,272.013 239.051,272.013 239.051,249.313 216.451,249.313 216.451,226.613 "
       id="polygon6753"
       transform="matrix(0,-2.9,2.9,0,-326.86769,826.21002)" /><polygon
       style="fill:none;stroke:#000000;stroke-miterlimit:3.86400008"
       stroke-miterlimit="3.864"
       points="193.751,158.612 171.051,158.612 171.051,181.313 148.351,181.313 148.351,203.913 171.051,203.913 171.051,249.313 193.751,249.313 193.751,226.612 216.451,226.612 216.451,249.313 239.051,249.313 239.051,203.913 261.751,203.913 261.751,181.313 239.051,181.313 239.051,158.612 216.451,158.612 216.451,135.913 193.751,135.913 "
       id="polygon6755"
       transform="matrix(0,-2.9,2.9,0,-326.86769,826.21002)" /><polygon
       style="fill:none;stroke:#000000;stroke-miterlimit:3.86400008"
       stroke-miterlimit="3.864"
       points="171.051,317.313 148.351,317.313 125.651,317.313 125.651,340.013 103.051,340.013 103.051,317.313 57.651,317.313 57.651,362.713 80.351,362.713 80.351,385.413 57.651,385.413 57.651,430.713 103.051,430.713 103.051,408.013 125.651,408.013 125.651,430.713 171.051,430.713 171.051,408.013 148.351,408.013 148.351,385.413 171.051,385.413 171.051,362.713 148.351,362.713 148.351,340.013 171.051,340.013 "
       id="polygon6757"
       transform="matrix(0,-2.9,2.9,0,-326.86769,826.21002)" /><polygon
       style="fill:none;stroke:#000000;stroke-miterlimit:3.86400008"
       stroke-miterlimit="3.864"
       points="171.25,249.212 171.25,226.513 171.25,203.813 148.551,203.813 148.551,181.212 171.25,181.212 171.25,135.813 125.851,135.813 125.851,158.513 103.15,158.513 103.15,135.813 57.851,135.813 57.851,181.212 80.551,181.212 80.551,203.813 57.851,203.813 57.851,249.212 80.551,249.212 80.551,226.513 103.15,226.513 103.15,249.212 125.851,249.212 125.851,226.513 148.551,226.513 148.551,249.212 "
       id="polygon6759"
       transform="matrix(0,-2.9,2.9,0,-326.86769,826.21002)" /><polygon
       style="fill:none;stroke:#000000;stroke-miterlimit:3.86400008"
       stroke-miterlimit="3.864"
       points="125.651,249.313 103.051,249.313 103.051,226.613 80.351,226.613 80.351,249.313 57.651,249.313 57.651,272.013 80.351,272.013 80.351,294.713 57.651,294.713 57.651,317.313 103.051,317.313 103.051,340.013 125.651,340.013 125.651,317.313 148.351,317.313 148.351,294.713 171.051,294.713 171.051,272.013 148.351,272.013 148.351,226.613 125.651,226.613 "
       id="polygon6761"
       transform="matrix(0,-2.9,2.9,0,-326.86769,826.21002)" /></g><g
     id="g6821"
     transform="matrix(0,-2.9,2.9,0,-326.86769,826.21002)"><g
       id="g6823" /></g><path
     style="fill:#7f3f98"
     inkscape:connector-curvature="0"
     id="path7145"
     d="m 78.263,440.97 2.15,0 0,1.232 c 0,1.198 -0.951,2.15 -2.158,2.15 -0.952,0 -1.607,-0.561 -1.896,-1.088 -0.195,-0.356 -0.263,-0.535 -0.263,-1.988 0,-1.453 0.068,-1.632 0.263,-1.989 0.289,-0.526 0.944,-1.088 1.896,-1.088 1.147,0 1.938,0.808 2.124,1.794 l -0.969,0 c -0.144,-0.468 -0.577,-0.876 -1.155,-0.876 -0.434,0 -0.748,0.204 -0.935,0.442 -0.238,0.307 -0.306,0.476 -0.306,1.717 0,1.24 0.068,1.41 0.306,1.717 0.187,0.237 0.501,0.441 0.935,0.441 0.696,0 1.24,-0.526 1.24,-1.283 l 0,-0.314 -1.232,0 0,-0.867 z"
     clip-path="url(#SVGID_2_)"
     transform="matrix(0,-2.9,2.9,0,-326.86769,826.21002)" /><path
     style="fill:#7f3f98"
     inkscape:connector-curvature="0"
     id="path7147"
     d="m 81.408,439.993 0.867,0 0,0.458 0.017,0 c 0.272,-0.34 0.663,-0.51 1.122,-0.51 0.348,0 0.637,0.128 0.901,0.332 l -0.629,0.748 c -0.204,-0.153 -0.349,-0.213 -0.57,-0.213 -0.425,0 -0.841,0.272 -0.841,0.901 l 0,2.592 -0.867,0 0,-4.308 z"
     clip-path="url(#SVGID_2_)"
     transform="matrix(0,-2.9,2.9,0,-326.86769,826.21002)" /><path
     style="fill:#7f3f98"
     inkscape:connector-curvature="0"
     id="path7149"
     d="m 86.824,443.919 -0.017,0 c -0.178,0.298 -0.476,0.434 -1.063,0.434 -0.96,0 -1.521,-0.569 -1.521,-1.317 0,-0.688 0.476,-1.274 1.403,-1.274 l 1.198,0 0,-0.451 c 0,-0.407 -0.264,-0.552 -0.884,-0.552 -0.45,0 -0.663,0.085 -0.816,0.331 l -0.68,-0.519 c 0.332,-0.459 0.808,-0.629 1.454,-0.629 1.062,0 1.793,0.357 1.793,1.42 l 0,2.94 -0.867,0 0,-0.383 z m 0,-1.444 -1.037,0 c -0.51,0 -0.748,0.204 -0.748,0.519 0,0.289 0.23,0.545 0.816,0.545 0.722,0 0.969,-0.078 0.969,-0.749 l 0,-0.315 z"
     clip-path="url(#SVGID_2_)"
     transform="matrix(0,-2.9,2.9,0,-326.86769,826.21002)" /><path
     style="fill:#7f3f98"
     inkscape:connector-curvature="0"
     id="path7151"
     d="m 88.813,439.993 0.867,0 0,0.45 c 0.271,-0.298 0.671,-0.502 1.113,-0.502 0.527,0 0.909,0.238 1.156,0.562 0.238,0.306 0.306,0.586 0.306,1.648 0,1.054 -0.068,1.334 -0.306,1.641 -0.247,0.323 -0.629,0.561 -1.156,0.561 -0.442,0 -0.79,-0.204 -1.113,-0.51 l 0,2.201 -0.867,0 0,-6.051 z m 2.576,2.158 c 0,-0.671 -0.042,-1.343 -0.858,-1.343 -0.808,0 -0.85,0.714 -0.85,1.343 0,0.62 0.042,1.334 0.85,1.334 0.816,0 0.858,-0.671 0.858,-1.334"
     clip-path="url(#SVGID_2_)"
     transform="matrix(0,-2.9,2.9,0,-326.86769,826.21002)" /><path
     style="fill:#7f3f98"
     inkscape:connector-curvature="0"
     id="path7153"
     d="m 93.225,438.25 0.867,0 0,2.201 0.017,0 c 0.272,-0.34 0.663,-0.51 1.122,-0.51 0.671,0 1.436,0.519 1.436,1.497 l 0,2.863 -0.867,0 0,-2.566 c 0,-0.587 -0.366,-0.927 -0.85,-0.927 -0.493,0 -0.858,0.34 -0.858,0.927 l 0,2.566 -0.867,0 0,-6.051 z"
     clip-path="url(#SVGID_2_)"
     transform="matrix(0,-2.9,2.9,0,-326.86769,826.21002)" /><path
     style="fill:#7f3f98"
     inkscape:connector-curvature="0"
     id="path7155"
     d="m 97.815,438.25 0.867,0 0,0.866 -0.867,0 0,-0.866 z m 0,1.743 0.867,0 0,4.309 -0.867,0 0,-4.309 z"
     clip-path="url(#SVGID_2_)"
     transform="matrix(0,-2.9,2.9,0,-326.86769,826.21002)" /><path
     style="fill:#7f3f98"
     inkscape:connector-curvature="0"
     id="path7157"
     d="m 103,443.604 c -0.374,0.434 -0.892,0.748 -1.547,0.748 -0.994,0 -1.954,-0.629 -1.954,-2.201 0,-1.581 0.96,-2.21 1.954,-2.21 0.655,0 1.173,0.314 1.547,0.748 l -0.637,0.569 c -0.213,-0.264 -0.519,-0.45 -0.876,-0.45 -0.705,0 -1.122,0.399 -1.122,1.343 0,0.935 0.417,1.334 1.122,1.334 0.357,0 0.663,-0.187 0.876,-0.45 l 0.637,0.569 z"
     clip-path="url(#SVGID_2_)"
     transform="matrix(0,-2.9,2.9,0,-326.86769,826.21002)" /><path
     style="fill:#7f3f98"
     inkscape:connector-curvature="0"
     id="path7159"
     d="m 103.731,442.984 c 0.374,0.365 0.782,0.553 1.36,0.553 0.493,0 0.85,-0.188 0.85,-0.553 0,-0.306 -0.23,-0.399 -0.527,-0.425 l -0.765,-0.068 c -0.714,-0.06 -1.241,-0.484 -1.241,-1.224 0,-0.875 0.697,-1.326 1.606,-1.326 0.757,0 1.267,0.229 1.692,0.587 l -0.536,0.629 c -0.34,-0.238 -0.688,-0.399 -1.156,-0.399 -0.552,0 -0.739,0.221 -0.739,0.519 0,0.188 0.136,0.374 0.569,0.407 l 0.714,0.052 c 0.893,0.06 1.25,0.604 1.25,1.292 0,0.841 -0.782,1.325 -1.785,1.325 -0.697,0 -1.343,-0.255 -1.896,-0.773 l 0.604,-0.596 z"
     clip-path="url(#SVGID_2_)"
     transform="matrix(0,-2.9,2.9,0,-326.86769,826.21002)" /><path
     style="fill:#7f3f98"
     inkscape:connector-curvature="0"
     id="path7161"
     d="m 112.562,438.199 c 1.7,0 3.077,1.377 3.077,3.077 0,1.699 -1.377,3.076 -3.077,3.076 -1.7,0 -3.077,-1.377 -3.077,-3.076 0,-1.7 1.377,-3.077 3.077,-3.077 m 0,5.542 c 1.386,0 2.414,-1.028 2.414,-2.465 0,-1.437 -1.028,-2.465 -2.414,-2.465 -1.385,0 -2.414,1.028 -2.414,2.465 0,1.437 1.029,2.465 2.414,2.465 m 1.666,-1.929 c -0.153,0.901 -0.756,1.428 -1.555,1.428 -1.156,0 -1.87,-0.842 -1.87,-1.963 0,-1.147 0.671,-1.964 1.844,-1.964 0.825,0 1.471,0.459 1.581,1.386 l -0.612,0 c -0.094,-0.449 -0.476,-0.773 -0.96,-0.773 -0.757,0 -1.19,0.604 -1.19,1.334 0,0.706 0.476,1.368 1.207,1.368 0.484,0 0.867,-0.339 0.943,-0.815 l 0.612,0 z"
     clip-path="url(#SVGID_2_)"
     transform="matrix(0,-2.9,2.9,0,-326.86769,826.21002)" /><polygon
     style="fill:#7f3f98"
     id="polygon7163"
     points="122.873,438.25 122.873,444.302 121.955,444.302 121.955,441.658 119.558,441.658 119.558,444.302 118.64,444.302 118.64,438.25 119.558,438.25 119.558,440.843 121.955,440.843 121.955,438.25 "
     clip-path="url(#SVGID_2_)"
     transform="matrix(0,-2.9,2.9,0,-326.86769,826.21002)" /><path
     style="fill:#7f3f98"
     inkscape:connector-curvature="0"
     id="path7165"
     d="m 126.332,443.919 -0.017,0 c -0.178,0.298 -0.476,0.434 -1.063,0.434 -0.96,0 -1.521,-0.569 -1.521,-1.317 0,-0.688 0.476,-1.274 1.403,-1.274 l 1.198,0 0,-0.451 c 0,-0.407 -0.264,-0.552 -0.884,-0.552 -0.45,0 -0.663,0.085 -0.816,0.331 l -0.68,-0.519 c 0.332,-0.459 0.808,-0.629 1.454,-0.629 1.062,0 1.793,0.357 1.793,1.42 l 0,2.94 -0.867,0 0,-0.383 z m 0,-1.444 -1.037,0 c -0.51,0 -0.748,0.204 -0.748,0.519 0,0.289 0.23,0.545 0.816,0.545 0.722,0 0.969,-0.078 0.969,-0.749 l 0,-0.315 z"
     clip-path="url(#SVGID_2_)"
     transform="matrix(0,-2.9,2.9,0,-326.86769,826.21002)" /><path
     style="fill:#7f3f98"
     inkscape:connector-curvature="0"
     id="path7167"
     d="m 128.321,439.993 0.867,0 0,0.45 c 0.271,-0.298 0.671,-0.502 1.113,-0.502 0.527,0 0.909,0.238 1.156,0.562 0.238,0.306 0.306,0.586 0.306,1.648 0,1.054 -0.068,1.334 -0.306,1.641 -0.247,0.323 -0.629,0.561 -1.156,0.561 -0.442,0 -0.79,-0.204 -1.113,-0.51 l 0,2.201 -0.867,0 0,-6.051 z m 2.575,2.158 c 0,-0.671 -0.042,-1.343 -0.858,-1.343 -0.808,0 -0.85,0.714 -0.85,1.343 0,0.62 0.042,1.334 0.85,1.334 0.816,0 0.858,-0.671 0.858,-1.334"
     clip-path="url(#SVGID_2_)"
     transform="matrix(0,-2.9,2.9,0,-326.86769,826.21002)" /><path
     style="fill:#7f3f98"
     inkscape:connector-curvature="0"
     id="path7169"
     d="m 132.733,439.993 0.867,0 0,0.45 c 0.271,-0.298 0.671,-0.502 1.113,-0.502 0.527,0 0.909,0.238 1.156,0.562 0.238,0.306 0.306,0.586 0.306,1.648 0,1.054 -0.068,1.334 -0.306,1.641 -0.247,0.323 -0.629,0.561 -1.156,0.561 -0.442,0 -0.79,-0.204 -1.113,-0.51 l 0,2.201 -0.867,0 0,-6.051 z m 2.575,2.158 c 0,-0.671 -0.042,-1.343 -0.858,-1.343 -0.808,0 -0.85,0.714 -0.85,1.343 0,0.62 0.042,1.334 0.85,1.334 0.816,0 0.858,-0.671 0.858,-1.334"
     clip-path="url(#SVGID_2_)"
     transform="matrix(0,-2.9,2.9,0,-326.86769,826.21002)" /><path
     style="fill:#7f3f98"
     inkscape:connector-curvature="0"
     id="path7171"
     d="m 136.524,439.993 0.918,0 1.02,3.017 0.017,0 1.02,-3.017 0.918,0 -1.853,5.201 c -0.238,0.663 -0.688,0.85 -1.215,0.85 l -0.289,0 0,-0.815 0.255,0 c 0.221,0 0.433,-0.119 0.518,-0.374 l 0.238,-0.723 -1.547,-4.139 z"
     clip-path="url(#SVGID_2_)"
     transform="matrix(0,-2.9,2.9,0,-326.86769,826.21002)" /><path
     style="fill:#7f3f98"
     inkscape:connector-curvature="0"
     id="path7173"
     d="m 142.669,443.485 2.363,-2.957 c 0.187,-0.238 0.221,-0.425 0.221,-0.604 0,-0.425 -0.315,-0.858 -0.833,-0.858 -0.468,0 -0.842,0.331 -0.884,0.875 l -0.867,0 c 0.008,-0.985 0.773,-1.742 1.683,-1.742 1.011,0 1.768,0.773 1.768,1.734 0,0.399 -0.111,0.747 -0.366,1.062 l -1.946,2.439 2.312,0 0,0.867 -3.451,0 0,-0.816 z"
     clip-path="url(#SVGID_2_)"
     transform="matrix(0,-2.9,2.9,0,-326.86769,826.21002)" /><path
     style="fill:#7f3f98"
     inkscape:connector-curvature="0"
     id="path7175"
     d="m 146.8,439.941 c 0,-1.113 0.825,-1.742 1.717,-1.742 0.892,0 1.717,0.629 1.717,1.742 l 0,2.669 c 0,1.113 -0.825,1.742 -1.717,1.742 -0.892,0 -1.717,-0.629 -1.717,-1.742 l 0,-2.669 z m 2.567,0.052 c 0,-0.587 -0.34,-0.927 -0.85,-0.927 -0.51,0 -0.85,0.34 -0.85,0.927 l 0,2.566 c 0,0.586 0.34,0.926 0.85,0.926 0.51,0 0.85,-0.34 0.85,-0.926 l 0,-2.566 z"
     clip-path="url(#SVGID_2_)"
     transform="matrix(0,-2.9,2.9,0,-326.86769,826.21002)" /><polygon
     style="fill:#7f3f98"
     id="polygon7177"
     points="151.349,438.879 152.207,438.25 153.074,438.25 153.074,444.302 152.207,444.302 152.207,439.168 151.349,439.797 "
     clip-path="url(#SVGID_2_)"
     transform="matrix(0,-2.9,2.9,0,-326.86769,826.21002)" /><path
     style="fill:#7f3f98"
     inkscape:connector-curvature="0"
     id="path7179"
     d="m 154.91,443.485 2.363,-2.957 c 0.187,-0.238 0.221,-0.425 0.221,-0.604 0,-0.425 -0.315,-0.858 -0.833,-0.858 -0.468,0 -0.842,0.331 -0.884,0.875 l -0.867,0 c 0.008,-0.985 0.773,-1.742 1.683,-1.742 1.011,0 1.768,0.773 1.768,1.734 0,0.399 -0.111,0.747 -0.366,1.062 l -1.946,2.439 2.312,0 0,0.867 -3.451,0 0,-0.816 z"
     clip-path="url(#SVGID_2_)"
     transform="matrix(0,-2.9,2.9,0,-326.86769,826.21002)" /><rect
     style="fill:#7f3f98"
     id="rect7181"
     height="0.86699998"
     width="0.86699998"
     clip-path="url(#SVGID_2_)"
     y="443.435"
     x="159.304"
     transform="matrix(0,-2.9,2.9,0,-326.86769,826.21002)" /><path
     style="fill:#7f3f98"
     inkscape:connector-curvature="0"
     id="path7183"
     d="m 166.538,442.95 -2.295,0 -0.468,1.352 -0.969,0 2.202,-6.052 0.765,0 2.201,6.052 -0.969,0 -0.467,-1.352 z m -0.264,-0.815 -0.875,-2.644 -0.018,0 -0.875,2.644 1.768,0 z"
     clip-path="url(#SVGID_2_)"
     transform="matrix(0,-2.9,2.9,0,-326.86769,826.21002)" /><path
     style="fill:#7f3f98"
     inkscape:connector-curvature="0"
     id="path7185"
     d="m 168.544,438.25 0.867,0 0,4.938 c 0,0.195 0.111,0.297 0.323,0.297 l 0.297,0 0,0.816 -0.382,0 c -0.629,0 -1.105,-0.271 -1.105,-1.045 l 0,-5.006 z"
     clip-path="url(#SVGID_2_)"
     transform="matrix(0,-2.9,2.9,0,-326.86769,826.21002)" /><path
     style="fill:#7f3f98"
     inkscape:connector-curvature="0"
     id="path7187"
     d="m 170.737,438.25 0.867,0 0,4.938 c 0,0.195 0.111,0.297 0.323,0.297 l 0.297,0 0,0.816 -0.382,0 c -0.629,0 -1.105,-0.271 -1.105,-1.045 l 0,-5.006 z"
     clip-path="url(#SVGID_2_)"
     transform="matrix(0,-2.9,2.9,0,-326.86769,826.21002)" /><path
     style="fill:#7f3f98"
     inkscape:connector-curvature="0"
     id="path7189"
     d="m 174.97,439.993 0.867,0 0,0.458 0.017,0 c 0.272,-0.34 0.663,-0.51 1.122,-0.51 0.348,0 0.637,0.128 0.901,0.332 l -0.629,0.748 c -0.204,-0.153 -0.349,-0.213 -0.57,-0.213 -0.425,0 -0.841,0.272 -0.841,0.901 l 0,2.592 -0.867,0 0,-4.308 z"
     clip-path="url(#SVGID_2_)"
     transform="matrix(0,-2.9,2.9,0,-326.86769,826.21002)" /><path
     style="fill:#7f3f98"
     inkscape:connector-curvature="0"
     id="path7191"
     d="m 178.302,438.25 0.867,0 0,0.866 -0.867,0 0,-0.866 z m 0,1.743 0.867,0 0,4.309 -0.867,0 0,-4.309 z"
     clip-path="url(#SVGID_2_)"
     transform="matrix(0,-2.9,2.9,0,-326.86769,826.21002)" /><path
     style="fill:#7f3f98"
     inkscape:connector-curvature="0"
     id="path7193"
     d="m 182.739,443.852 c -0.272,0.297 -0.672,0.501 -1.114,0.501 -0.561,0 -0.944,-0.28 -1.139,-0.526 -0.246,-0.323 -0.323,-0.483 -0.323,-1.675 0,-1.198 0.077,-1.359 0.323,-1.683 0.195,-0.247 0.578,-0.527 1.139,-0.527 0.442,0 0.79,0.17 1.114,0.51 l 0,-0.458 0.866,0 0,4.207 c 0,1.3 -0.884,1.895 -1.869,1.895 -0.553,0 -1.114,-0.289 -1.496,-0.722 l 0.671,-0.536 c 0.212,0.213 0.51,0.392 0.841,0.392 0.578,0 0.987,-0.332 0.987,-0.936 l 0,-0.442 z m -1.539,-0.698 c 0.119,0.153 0.34,0.331 0.688,0.331 0.34,0 0.562,-0.178 0.68,-0.331 0.153,-0.195 0.171,-0.314 0.171,-1.003 0,-0.697 -0.018,-0.815 -0.171,-1.012 -0.118,-0.152 -0.34,-0.331 -0.68,-0.331 -0.348,0 -0.569,0.179 -0.688,0.331 -0.153,0.196 -0.17,0.314 -0.17,1.012 0,0.689 0.017,0.808 0.17,1.003"
     clip-path="url(#SVGID_2_)"
     transform="matrix(0,-2.9,2.9,0,-326.86769,826.21002)" /><path
     style="fill:#7f3f98"
     inkscape:connector-curvature="0"
     id="path7195"
     d="m 184.728,438.25 0.867,0 0,2.201 0.017,0 c 0.272,-0.34 0.663,-0.51 1.122,-0.51 0.671,0 1.436,0.519 1.436,1.497 l 0,2.863 -0.867,0 0,-2.566 c 0,-0.587 -0.366,-0.927 -0.85,-0.927 -0.493,0 -0.858,0.34 -0.858,0.927 l 0,2.566 -0.867,0 0,-6.051 z"
     clip-path="url(#SVGID_2_)"
     transform="matrix(0,-2.9,2.9,0,-326.86769,826.21002)" /><path
     style="fill:#7f3f98"
     inkscape:connector-curvature="0"
     id="path7197"
     d="m 189.343,438.684 0.867,0 0,1.31 0.629,0 0,0.662 -0.629,0 0,2.507 c 0,0.238 0.093,0.323 0.306,0.323 l 0.323,0 0,0.816 -0.451,0 c -0.603,0 -1.045,-0.383 -1.045,-1.063 l 0,-2.584 -0.433,0 0,-0.662 0.433,0 0,-1.309 z"
     clip-path="url(#SVGID_2_)"
     transform="matrix(0,-2.9,2.9,0,-326.86769,826.21002)" /><path
     style="fill:#7f3f98"
     inkscape:connector-curvature="0"
     id="path7199"
     d="m 191.783,442.984 c 0.374,0.365 0.782,0.553 1.36,0.553 0.493,0 0.85,-0.188 0.85,-0.553 0,-0.306 -0.23,-0.399 -0.527,-0.425 l -0.765,-0.068 c -0.714,-0.06 -1.241,-0.484 -1.241,-1.224 0,-0.875 0.697,-1.326 1.606,-1.326 0.757,0 1.267,0.229 1.692,0.587 l -0.536,0.629 c -0.34,-0.238 -0.688,-0.399 -1.156,-0.399 -0.552,0 -0.739,0.221 -0.739,0.519 0,0.188 0.136,0.374 0.569,0.407 l 0.714,0.052 c 0.893,0.06 1.25,0.604 1.25,1.292 0,0.841 -0.782,1.325 -1.785,1.325 -0.697,0 -1.343,-0.255 -1.896,-0.773 l 0.604,-0.596 z"
     clip-path="url(#SVGID_2_)"
     transform="matrix(0,-2.9,2.9,0,-326.86769,826.21002)" /><path
     style="fill:#7f3f98"
     inkscape:connector-curvature="0"
     id="path7201"
     d="m 197.775,439.993 0.867,0 0,0.458 0.017,0 c 0.272,-0.34 0.663,-0.51 1.122,-0.51 0.348,0 0.637,0.128 0.901,0.332 l -0.629,0.748 c -0.204,-0.153 -0.349,-0.213 -0.57,-0.213 -0.425,0 -0.841,0.272 -0.841,0.901 l 0,2.592 -0.867,0 0,-4.308 z"
     clip-path="url(#SVGID_2_)"
     transform="matrix(0,-2.9,2.9,0,-326.86769,826.21002)" /><path
     style="fill:#7f3f98"
     inkscape:connector-curvature="0"
     id="path7203"
     d="m 201.585,442.475 c 0,0.705 0.434,1.063 1.028,1.063 0.332,0 0.689,-0.153 0.944,-0.417 l 0.629,0.537 c -0.425,0.491 -0.977,0.695 -1.555,0.695 -0.884,0 -1.913,-0.425 -1.913,-2.192 0,-1.675 0.944,-2.219 1.777,-2.219 0.951,0 1.776,0.706 1.776,1.819 l 0,0.714 -2.686,0 z m 1.819,-0.714 c -0.025,-0.654 -0.399,-1.003 -0.909,-1.003 -0.51,0 -0.893,0.349 -0.91,1.003 l 1.819,0 z"
     clip-path="url(#SVGID_2_)"
     transform="matrix(0,-2.9,2.9,0,-326.86769,826.21002)" /><path
     style="fill:#7f3f98"
     inkscape:connector-curvature="0"
     id="path7205"
     d="m 205.308,442.984 c 0.374,0.365 0.782,0.553 1.36,0.553 0.493,0 0.85,-0.188 0.85,-0.553 0,-0.306 -0.23,-0.399 -0.527,-0.425 l -0.765,-0.068 c -0.714,-0.06 -1.241,-0.484 -1.241,-1.224 0,-0.875 0.697,-1.326 1.606,-1.326 0.757,0 1.267,0.229 1.692,0.587 l -0.536,0.629 c -0.34,-0.238 -0.688,-0.399 -1.156,-0.399 -0.552,0 -0.739,0.221 -0.739,0.519 0,0.188 0.136,0.374 0.569,0.407 l 0.714,0.052 c 0.893,0.06 1.25,0.604 1.25,1.292 0,0.841 -0.782,1.325 -1.785,1.325 -0.697,0 -1.343,-0.255 -1.896,-0.773 l 0.604,-0.596 z"
     clip-path="url(#SVGID_2_)"
     transform="matrix(0,-2.9,2.9,0,-326.86769,826.21002)" /><path
     style="fill:#7f3f98"
     inkscape:connector-curvature="0"
     id="path7207"
     d="m 209.915,442.475 c 0,0.705 0.434,1.063 1.028,1.063 0.332,0 0.689,-0.153 0.944,-0.417 l 0.629,0.537 c -0.425,0.491 -0.977,0.695 -1.555,0.695 -0.884,0 -1.913,-0.425 -1.913,-2.192 0,-1.675 0.944,-2.219 1.777,-2.219 0.951,0 1.776,0.706 1.776,1.819 l 0,0.714 -2.686,0 z m 1.819,-0.714 c -0.025,-0.654 -0.399,-1.003 -0.909,-1.003 -0.51,0 -0.893,0.349 -0.91,1.003 l 1.819,0 z"
     clip-path="url(#SVGID_2_)"
     transform="matrix(0,-2.9,2.9,0,-326.86769,826.21002)" /><path
     style="fill:#7f3f98"
     inkscape:connector-curvature="0"
     id="path7209"
     d="m 213.511,439.993 0.867,0 0,0.458 0.017,0 c 0.272,-0.34 0.663,-0.51 1.122,-0.51 0.348,0 0.637,0.128 0.901,0.332 l -0.629,0.748 c -0.204,-0.153 -0.349,-0.213 -0.57,-0.213 -0.425,0 -0.841,0.272 -0.841,0.901 l 0,2.592 -0.867,0 0,-4.308 z"
     clip-path="url(#SVGID_2_)"
     transform="matrix(0,-2.9,2.9,0,-326.86769,826.21002)" /><polygon
     style="fill:#7f3f98"
     id="polygon7211"
     points="217.123,439.993 218.135,443.01 218.151,443.01 219.164,439.993 220.081,439.993 218.5,444.302 217.787,444.302 216.206,439.993 "
     clip-path="url(#SVGID_2_)"
     transform="matrix(0,-2.9,2.9,0,-326.86769,826.21002)" /><path
     style="fill:#7f3f98"
     inkscape:connector-curvature="0"
     id="path7213"
     d="m 221.195,442.475 c 0,0.705 0.434,1.063 1.028,1.063 0.332,0 0.689,-0.153 0.944,-0.417 l 0.629,0.537 c -0.425,0.491 -0.977,0.695 -1.555,0.695 -0.884,0 -1.913,-0.425 -1.913,-2.192 0,-1.675 0.944,-2.219 1.777,-2.219 0.951,0 1.776,0.706 1.776,1.819 l 0,0.714 -2.686,0 z m 1.819,-0.714 c -0.025,-0.654 -0.399,-1.003 -0.909,-1.003 -0.51,0 -0.893,0.349 -0.91,1.003 l 1.819,0 z"
     clip-path="url(#SVGID_2_)"
     transform="matrix(0,-2.9,2.9,0,-326.86769,826.21002)" /><path
     style="fill:#7f3f98"
     inkscape:connector-curvature="0"
     id="path7215"
     d="m 227.366,443.852 c -0.271,0.297 -0.671,0.501 -1.113,0.501 -0.527,0 -0.909,-0.237 -1.156,-0.561 -0.238,-0.307 -0.306,-0.586 -0.306,-1.649 0,-1.054 0.068,-1.334 0.306,-1.64 0.247,-0.323 0.629,-0.562 1.156,-0.562 0.442,0 0.79,0.204 1.113,0.51 l 0,-2.201 0.867,0 0,6.052 -0.867,0 0,-0.45 z m -1.708,-1.709 c 0,0.672 0.042,1.343 0.858,1.343 0.808,0 0.85,-0.714 0.85,-1.343 0,-0.62 -0.042,-1.334 -0.85,-1.334 -0.816,0 -0.858,0.671 -0.858,1.334"
     clip-path="url(#SVGID_2_)"
     transform="matrix(0,-2.9,2.9,0,-326.86769,826.21002)" /><rect
     style="fill:#7f3f98"
     id="rect7217"
     height="0.86699998"
     width="0.86699998"
     clip-path="url(#SVGID_2_)"
     y="443.435"
     x="229.229"
     transform="matrix(0,-2.9,2.9,0,-326.86769,826.21002)" /><path
     style="fill:#7f3f98"
     inkscape:connector-curvature="0"
     id="path7449"
     d="m 235.246,189.295 c -0.373,0.04 -0.751,0.065 -1.131,0.071 -6.762,0.107 -12.133,-5.138 -11.999,-11.715 0.058,-2.974 1.271,-5.722 3.235,-7.859 -2.269,1.902 -5.202,3.09 -8.389,3.167 -6.656,0.161 -12.154,-4.547 -12.681,-10.659 -0.012,6.455 -5.555,11.796 -12.458,11.96 -2.8,0.066 -5.425,-0.723 -7.586,-2.108 1.606,1.89 2.605,4.245 2.713,6.815 0.27,6.457 -4.984,11.773 -11.737,11.879 -0.61,0.009 -1.211,-0.024 -1.802,-0.098 l 0.102,0.201 c 0.379,-0.041 0.765,-0.065 1.157,-0.072 6.753,-0.105 12.449,5.043 12.725,11.497 0.126,2.928 -0.855,5.609 -2.56,7.668 1.984,-1.756 4.627,-2.833 7.568,-2.852 6.55,-0.043 11.922,5.202 11.998,11.716 0.004,0.358 0.35,-0.076 0.342,-0.699 -0.071,-6.517 5.187,-11.834 11.743,-11.881 2.643,-0.018 5.064,0.831 7.001,2.281 -1.384,-1.958 -2.18,-4.37 -2.129,-6.99 0.129,-6.575 5.709,-11.991 12.467,-12.098 0.522,-0.008 1.033,0.02 1.535,0.074 l -0.114,-0.298 z m -30.668,17.144 c -8.778,0.063 -16.183,-6.881 -16.542,-15.512 -0.36,-8.633 6.878,-15.807 16.167,-16.025 9.288,-0.222 16.693,6.726 16.54,15.512 -0.15,8.787 -7.389,15.961 -16.165,16.025"
     clip-path="url(#SVGID_4_)"
     transform="matrix(0,-2.9,2.9,0,-326.86769,826.21002)" /><path
     style="fill:#7f3f98"
     inkscape:connector-curvature="0"
     id="path7451"
     d="m 209.967,187.375 c 0.552,-0.009 1.024,-0.4 1.421,-1.174 0.377,-0.771 0.569,-1.699 0.575,-2.784 0.002,-1.069 -0.182,-1.982 -0.556,-2.741 -0.395,-0.775 -0.873,-1.155 -1.433,-1.144 -0.558,0.013 -1.037,0.413 -1.436,1.203 -0.393,0.772 -0.591,1.691 -0.589,2.757 0.004,1.084 0.204,2.003 0.599,2.761 0.396,0.757 0.868,1.131 1.419,1.122"
     clip-path="url(#SVGID_4_)"
     transform="matrix(0,-2.9,2.9,0,-326.86769,826.21002)" /><path
     style="fill:#7f3f98"
     inkscape:connector-curvature="0"
     id="path7453"
     d="m 193.244,192.023 c 5.309,8.428 14.336,17.119 22.281,-0.329 -4.743,10.417 -16.399,9.67 -22.281,0.329"
     clip-path="url(#SVGID_4_)"
     transform="matrix(0,-2.9,2.9,0,-326.86769,826.21002)" /><path
     style="fill:#7f3f98"
     inkscape:connector-curvature="0"
     id="path7455"
     d="m 199.52,187.552 c 0.554,-0.009 1.017,-0.397 1.4,-1.167 0.363,-0.767 0.536,-1.69 0.521,-2.771 -0.014,-1.061 -0.217,-1.969 -0.605,-2.722 -0.41,-0.771 -0.895,-1.151 -1.454,-1.138 -0.539,0.012 -1.001,0.409 -1.383,1.194 -0.404,0.771 -0.593,1.682 -0.568,2.743 0.021,1.078 0.247,1.991 0.677,2.744 0.411,0.755 0.881,1.127 1.412,1.117"
     clip-path="url(#SVGID_4_)"
     transform="matrix(0,-2.9,2.9,0,-326.86769,826.21002)" /><path
     style="fill:#7f3f98"
     inkscape:connector-curvature="0"
     id="path7457"
     d="m 275.886,137.374 c -0.237,0.025 -0.477,0.04 -0.717,0.045 -4.287,0.068 -7.691,-3.256 -7.606,-7.426 0.037,-1.885 0.805,-3.627 2.05,-4.981 -1.438,1.206 -3.297,1.958 -5.317,2.007 -4.219,0.104 -7.704,-2.882 -8.038,-6.756 -0.007,4.092 -3.52,7.477 -7.896,7.581 -1.775,0.042 -3.439,-0.458 -4.809,-1.336 1.018,1.197 1.65,2.691 1.72,4.319 0.17,4.093 -3.16,7.463 -7.44,7.53 -0.387,0.007 -0.767,-0.016 -1.142,-0.063 l 0.064,0.129 c 0.241,-0.026 0.486,-0.042 0.734,-0.046 4.28,-0.067 7.891,3.197 8.066,7.286 0.08,1.857 -0.542,3.556 -1.622,4.862 1.257,-1.113 2.933,-1.797 4.796,-1.808 4.152,-0.028 7.557,3.298 7.606,7.426 0.002,0.227 0.221,-0.048 0.216,-0.444 -0.045,-4.13 3.288,-7.5 7.444,-7.529 1.675,-0.012 3.209,0.526 4.436,1.445 -0.877,-1.241 -1.381,-2.77 -1.348,-4.432 0.081,-4.167 3.618,-7.599 7.902,-7.667 0.331,-0.005 0.654,0.013 0.972,0.046 l -0.071,-0.188 z m -19.44,10.867 c -5.563,0.039 -10.258,-4.362 -10.484,-9.833 -0.229,-5.471 4.359,-10.019 10.247,-10.157 5.887,-0.14 10.581,4.263 10.484,9.832 -0.096,5.57 -4.684,10.117 -10.247,10.158"
     clip-path="url(#SVGID_4_)"
     transform="matrix(0,-2.9,2.9,0,-326.86769,826.21002)" /><path
     style="clip-rule:evenodd;fill:#7f3f98;fill-rule:evenodd"
     inkscape:connector-curvature="0"
     id="path7459"
     d="m 253.153,131.326 c 0.355,-0.007 0.662,0.233 0.922,0.722 0.246,0.477 0.375,1.053 0.384,1.725 0.009,0.685 -0.101,1.27 -0.331,1.757 -0.243,0.488 -0.536,0.733 -0.886,0.739 -0.338,0.006 -0.636,-0.229 -0.896,-0.708 -0.272,-0.477 -0.416,-1.056 -0.429,-1.739 -0.016,-0.672 0.104,-1.25 0.36,-1.739 0.241,-0.498 0.534,-0.75 0.876,-0.757 m 6.714,-0.141 c 0.354,-0.006 0.658,0.234 0.909,0.726 0.237,0.481 0.353,1.059 0.352,1.737 -0.003,0.688 -0.125,1.276 -0.365,1.765 -0.251,0.491 -0.55,0.738 -0.9,0.744 -0.349,0.006 -0.649,-0.232 -0.9,-0.711 -0.25,-0.482 -0.377,-1.063 -0.379,-1.751 -0.002,-0.675 0.123,-1.259 0.373,-1.746 0.252,-0.502 0.557,-0.756 0.91,-0.764 m -10.604,7.918 c 3.364,5.342 9.088,10.852 14.123,-0.208 -3.009,6.603 -10.394,6.128 -14.123,0.208"
     clip-path="url(#SVGID_4_)"
     transform="matrix(0,-2.9,2.9,0,-326.86769,826.21002)" /><polygon
     style="clip-rule:evenodd;fill:#7f3f98;fill-rule:evenodd"
     id="polygon7461"
     points="103.512,361.697 106.349,357.962 110.081,358.024 110.515,356.992 107.175,356.874 109.356,354.002 108.465,353.323 106.454,355.973 105.468,353.159 104.364,353.686 105.625,357.061 102.62,361.02 101.002,356.317 103.163,353.474 102.27,352.797 100.45,355.195 99.216,351.84 98.092,352.395 99.352,355.769 96.323,355.186 96.093,356.417 99.877,356.872 101.517,361.546 96.723,361.028 95.266,357.504 94.142,358.057 95.52,360.819 91.929,360.508 91.699,361.74 95.262,362.028 93.244,364.277 94.108,364.935 96.493,362.258 101.286,362.777 98.449,366.514 94.688,366.429 94.646,367.409 97.622,367.603 95.611,370.252 96.502,370.929 98.515,368.28 99.472,371.073 100.627,370.94 99.342,367.191 102.179,363.454 103.966,367.935 102.028,370.947 102.893,371.604 104.491,369.037 105.698,372.02 106.875,371.861 105.668,368.876 109.038,369.014 108.875,367.838 105.06,367.358 103.272,362.881 108.046,363.428 109.702,366.749 110.655,366.419 109.671,363.604 112.87,363.968 113.102,362.736 109.509,362.427 111.723,359.975 110.858,359.319 108.306,362.218 "
     clip-path="url(#SVGID_4_)"
     transform="matrix(0,-2.9,2.9,0,-326.86769,826.21002)" /><polygon
     style="clip-rule:evenodd;fill:#7f3f98;fill-rule:evenodd"
     id="polygon7463"
     points="102.605,380.354 101.183,382.229 100.487,380.238 99.708,380.61 100.601,383 98.474,385.8 97.33,382.474 98.854,380.461 98.226,379.981 96.937,381.679 96.063,379.306 95.271,379.698 96.162,382.086 94.017,381.67 93.853,382.542 96.535,382.866 97.692,386.17 94.3,385.806 93.272,383.313 92.476,383.703 93.449,385.656 90.914,385.438 90.748,386.309 93.267,386.513 91.84,388.104 92.453,388.566 94.138,386.675 97.531,387.042 95.521,389.687 92.863,389.625 92.835,390.319 94.938,390.458 93.515,392.331 94.146,392.81 95.569,390.935 96.25,392.912 97.063,392.816 96.151,390.165 98.162,387.522 99.422,390.69 98.054,392.824 98.666,393.287 99.794,391.47 100.65,393.581 101.482,393.466 100.63,391.357 103.011,391.455 102.896,390.623 100.2,390.285 98.937,387.116 102.313,387.502 103.48,389.853 104.157,389.618 103.463,387.627 105.724,387.882 105.888,387.015 103.347,386.795 104.916,385.06 104.304,384.597 102.495,386.646 99.104,386.281 101.112,383.636 103.755,383.682 104.058,382.95 101.696,382.867 103.237,380.833 "
     clip-path="url(#SVGID_4_)"
     transform="matrix(0,-2.9,2.9,0,-326.86769,826.21002)" /><polygon
     style="clip-rule:evenodd;fill:#7f3f98;fill-rule:evenodd"
     id="polygon7465"
     points="131.483,372.036 134.499,368.068 133.265,367.13 130.486,370.79 129.125,366.903 127.602,367.63 129.344,372.292 125.19,377.763 122.956,371.267 125.94,367.337 124.708,366.403 122.192,369.716 120.486,365.08 118.936,365.847 120.676,370.509 116.49,369.702 116.172,371.404 121.402,372.032 123.668,378.489 117.043,377.775 115.031,372.905 113.48,373.669 115.383,377.486 110.42,377.056 110.104,378.759 115.024,379.155 112.236,382.263 113.434,383.171 116.727,379.474 123.35,380.191 119.428,385.353 114.233,385.236 114.176,386.589 118.288,386.857 115.508,390.517 116.74,391.452 119.521,387.792 120.842,391.652 122.44,391.469 120.663,386.29 124.581,381.126 127.049,387.316 124.374,391.478 125.568,392.386 127.776,388.839 129.443,392.96 131.07,392.739 129.402,388.616 134.059,388.806 133.833,387.181 128.564,386.521 126.094,380.333 132.689,381.089 134.974,385.678 136.292,385.222 134.934,381.333 139.354,381.835 139.672,380.134 134.708,379.706 137.768,376.32 136.572,375.413 133.045,379.417 126.422,378.698 130.344,373.538 135.497,373.626 136.099,372.198 "
     clip-path="url(#SVGID_4_)"
     transform="matrix(0,-2.9,2.9,0,-326.86769,826.21002)" /><path
     style="clip-rule:evenodd;fill:#7f3f98;fill-rule:evenodd"
     inkscape:connector-curvature="0"
     id="path7467"
     d="m 139.942,289.19 c -0.819,0 -1.565,0.283 -2.172,0.741 -0.285,-2.902 -2.735,-5.168 -5.715,-5.168 -1.856,0 -3.505,0.885 -4.552,2.252 -0.699,-1.759 -2.214,-3.093 -4.073,-3.569 2.248,-2.984 6.192,-4.573 10.113,-3.724 0.4,0.087 0.787,0.198 1.16,0.329 l -0.033,-0.247 c -0.295,-0.036 -0.588,-0.085 -0.881,-0.15 -5.194,-1.125 -8.372,-6.098 -7.095,-11.111 0.578,-2.268 2,-4.155 3.882,-5.442 -2.077,1.051 -4.536,1.438 -6.989,0.928 -5.127,-1.068 -8.496,-5.652 -7.807,-10.428 -1.162,4.944 -6.361,8.041 -11.674,6.934 -2.158,-0.449 -4.029,-1.523 -5.433,-2.97 0.892,1.735 1.236,3.714 0.861,5.702 -0.949,4.995 -5.922,8.126 -11.111,7 -0.469,-0.101 -0.924,-0.236 -1.364,-0.396 l 0.045,0.17 c 0.299,0.039 0.596,0.088 0.897,0.154 5.189,1.125 8.633,6.084 7.693,11.077 -0.428,2.265 -1.659,4.14 -3.332,5.412 1.834,-0.991 4.048,-1.341 6.303,-0.831 1.95,0.441 3.617,1.465 4.868,2.84 -0.832,0.594 -1.464,1.453 -1.758,2.461 -1.019,-0.549 -2.185,-0.861 -3.422,-0.861 -0.361,0 -0.71,0.035 -1.057,0.084 -0.782,-0.808 -1.869,-1.312 -3.082,-1.312 -1.838,0 -3.394,1.165 -4.003,2.792 -1.876,0.168 -3.351,1.727 -3.351,3.643 0,2.031 1.647,3.679 3.678,3.679 0.274,0 0.539,-0.035 0.796,-0.093 0.727,3.209 3.589,5.608 7.019,5.608 0.757,0 1.486,-0.118 2.17,-0.333 1.278,3.928 4.968,6.768 9.321,6.768 3.41,0 6.409,-1.737 8.164,-4.375 1.229,0.64 2.621,1.006 4.096,1.006 3.277,0 6.127,-1.777 7.668,-4.412 0.886,0.466 1.894,0.734 2.961,0.734 3.5,0 6.337,-2.838 6.337,-6.338 0,-0.516 -0.068,-1.016 -0.185,-1.5 0.336,0.104 0.687,0.176 1.057,0.176 1.996,0 3.615,-1.617 3.615,-3.614 0.001,-1.997 -1.619,-3.616 -3.615,-3.616 M 97.96,272.129 c 1.269,-6.674 8.09,-10.875 15.242,-9.385 7.152,1.492 11.584,8.135 9.896,14.836 -0.626,2.488 -1.962,4.629 -3.738,6.263 -0.722,0.35 -1.36,0.842 -1.886,1.439 -0.138,0.087 -0.28,0.165 -0.421,0.246 -0.977,-1.12 -2.411,-1.835 -4.015,-1.835 -2.23,0 -4.12,1.374 -4.917,3.313 -0.088,-0.017 -0.175,-0.025 -0.263,-0.045 -6.733,-1.518 -11.162,-8.158 -9.898,-14.832"
     clip-path="url(#SVGID_4_)"
     transform="matrix(0,-2.9,2.9,0,-326.86769,826.21002)" /><path
     style="fill:#7f3f98"
     inkscape:connector-curvature="0"
     id="path7469"
     d="m 229.634,274.481 c -0.271,-0.039 -0.539,-0.042 -0.801,-0.022 -0.26,-3.281 -2.748,-6.066 -6.142,-6.558 -0.748,-0.108 -1.487,-0.096 -2.196,0.017 -0.701,-4.069 -3.943,-7.41 -8.252,-8.035 -3.374,-0.489 -6.59,0.8 -8.708,3.159 -1.123,-0.81 -2.45,-1.373 -3.909,-1.584 -3.243,-0.47 -6.317,0.878 -8.221,3.266 -0.811,-0.589 -1.77,-0.999 -2.826,-1.152 -3.463,-0.502 -6.678,1.898 -7.18,5.362 -0.075,0.513 -0.078,1.017 -0.033,1.512 -0.317,-0.153 -0.656,-0.273 -1.02,-0.326 -1.976,-0.286 -3.811,1.081 -4.098,3.057 -0.286,1.977 1.083,3.812 3.061,4.098 0.808,0.118 1.588,-0.056 2.254,-0.421 -0.133,2.912 1.965,5.507 4.914,5.935 1.838,0.266 3.595,-0.373 4.83,-1.576 0.551,2.311 2.457,4.165 4.951,4.529 1.941,0.281 3.793,-0.407 5.084,-1.695 0.372,0.619 0.873,1.156 1.464,1.581 l -7.853,8.06 5.823,0 -8.511,8.509 4.479,0 -5.875,7.612 13.264,-9.178 -4.701,0 9.966,-9.968 -4.592,0 7.099,-7.36 c 0.206,0.063 0.413,0.124 0.633,0.157 2.067,0.299 3.996,-0.839 4.823,-2.651 0.929,0.691 2.039,1.167 3.263,1.344 0.358,0.052 0.707,0.067 1.058,0.069 0.657,0.911 1.661,1.567 2.86,1.741 1.821,0.264 3.528,-0.666 4.363,-2.188 1.881,0.103 3.565,-1.23 3.84,-3.125 0.291,-2.01 -1.103,-3.877 -3.111,-4.169"
     clip-path="url(#SVGID_4_)"
     transform="matrix(0,-2.9,2.9,0,-326.86769,826.21002)" /><path
     style="fill:#7f3f98"
     inkscape:connector-curvature="0"
     id="path7471"
     d="m 225.339,359.65 c -0.229,-0.033 -0.455,-0.036 -0.676,-0.02 -0.219,-2.764 -2.315,-5.111 -5.176,-5.526 -0.631,-0.091 -1.254,-0.081 -1.85,0.015 -0.591,-3.431 -3.324,-6.245 -6.956,-6.771 -2.843,-0.413 -5.554,0.672 -7.339,2.661 -0.947,-0.683 -2.064,-1.157 -3.294,-1.335 -2.733,-0.397 -5.324,0.741 -6.93,2.753 -0.682,-0.496 -1.49,-0.842 -2.381,-0.972 -2.918,-0.423 -5.629,1.6 -6.051,4.52 -0.063,0.431 -0.066,0.856 -0.027,1.274 -0.267,-0.128 -0.553,-0.231 -0.86,-0.274 -1.665,-0.243 -3.212,0.91 -3.453,2.576 -0.242,1.666 0.913,3.213 2.578,3.453 0.682,0.1 1.339,-0.046 1.901,-0.354 -0.113,2.454 1.656,4.64 4.141,5 1.548,0.226 3.03,-0.314 4.07,-1.326 0.465,1.947 2.072,3.511 4.173,3.816 0.22,0.031 0.438,0.046 0.655,0.049 1.776,1.114 3.615,2.999 3.248,5.966 -0.094,0.758 -0.282,1.467 -0.547,2.142 -5.545,0.244 -9.732,1.342 -9.732,2.659 0,1.019 2.502,1.904 6.195,2.367 -0.212,0.224 -0.423,0.448 -0.644,0.676 -1.195,1.225 -2.116,2.482 -2.385,3.862 -2.939,0.323 -4.969,0.999 -4.969,1.783 0,0.858 2.426,1.587 5.815,1.865 0.262,0.407 0.582,0.827 0.97,1.26 1.356,1.512 2.369,2.763 2.939,3.875 -2.95,0.14 -5.165,0.728 -5.165,1.433 0,0.73 2.379,1.332 5.488,1.443 -0.163,0.411 -0.425,0.817 -0.803,1.226 -2.08,2.26 -2.459,2.26 -2.459,2.26 l 2.648,0 c 0,0 2.661,-1.216 3.589,-3.532 2.65,-0.186 4.572,-0.741 4.572,-1.397 0,-0.63 -1.77,-1.165 -4.251,-1.372 -0.32,-2.131 -1.988,-3.356 -2.791,-5.112 4.065,-0.179 7.132,-0.983 7.132,-1.949 0,-0.938 -2.897,-1.722 -6.789,-1.93 0.985,-1.465 2.811,-2.751 4.622,-4.077 5.874,-0.182 10.402,-1.311 10.402,-2.681 0,-0.875 -1.858,-1.652 -4.727,-2.148 1.837,-1.999 2.596,-3.722 2.429,-5.447 -0.287,-3.003 -2.504,-4.12 -3.58,-4.488 0.227,-0.341 0.423,-0.705 0.551,-1.107 0.398,0.219 0.833,0.382 1.309,0.451 1.741,0.252 3.367,-0.708 4.064,-2.234 0.783,0.581 1.718,0.983 2.75,1.133 0.301,0.042 0.596,0.056 0.892,0.058 0.553,0.768 1.399,1.319 2.41,1.469 1.535,0.221 2.973,-0.563 3.679,-1.846 1.583,0.087 3.003,-1.036 3.235,-2.634 0.246,-1.694 -0.93,-3.268 -2.622,-3.513 m -23.845,8.063 c 0.014,0.023 0.031,0.044 0.045,0.066 l -0.121,10e-4 c 0.024,-0.023 0.052,-0.043 0.076,-0.067 m -8.248,12.243 c 0,-0.996 2.988,-1.831 7.057,-2.085 -0.643,1.367 -1.6,2.62 -2.756,3.891 -2.592,-0.389 -4.301,-1.053 -4.301,-1.806 m -2.444,8.688 c 0,-0.55 1.244,-1.035 3.135,-1.32 -0.072,0.853 0.115,1.756 0.644,2.727 -2.248,-0.266 -3.779,-0.796 -3.779,-1.407 m 4.091,8.433 c 0,-0.554 1.712,-1.015 4.003,-1.138 0.368,0.818 0.474,1.564 0.275,2.287 -2.43,-0.099 -4.278,-0.573 -4.278,-1.149 m 10.426,0 c 0,0.484 -1.301,0.897 -3.156,1.074 0.028,-0.088 0.061,-0.174 0.083,-0.266 0.17,-0.695 0.212,-1.304 0.168,-1.855 1.715,0.192 2.905,0.586 2.905,1.047 m -0.372,-8.433 c 0,0.76 -2.365,1.393 -5.528,1.551 -0.002,-0.007 -0.005,-0.013 -0.008,-0.02 -0.405,-1.135 -0.24,-2.138 0.272,-3.066 3.028,0.18 5.264,0.798 5.264,1.535 m 7.592,-8.688 c 0,1.008 -3.063,1.853 -7.206,2.096 1.776,-1.332 3.206,-2.532 4.313,-3.642 1.784,0.393 2.893,0.94 2.893,1.546"
     clip-path="url(#SVGID_4_)"
     transform="matrix(0,-2.9,2.9,0,-326.86769,826.21002)" /><path
     style="clip-rule:evenodd;fill:#7f3f98;fill-rule:evenodd"
     inkscape:connector-curvature="0"
     id="path7473"
     d="m 101.539,206.222 c 0,1.363 1.103,2.465 2.464,2.465 1.36,0 2.464,-1.102 2.464,-2.465 0,-1.359 -2.464,-8.873 -2.464,-8.873 0.051,0.158 -2.464,7.514 -2.464,8.873"
     clip-path="url(#SVGID_4_)"
     transform="matrix(0,-2.9,2.9,0,-326.86769,826.21002)" /><path
     style="clip-rule:evenodd;fill:#7f3f98;fill-rule:evenodd"
     inkscape:connector-curvature="0"
     id="path7475"
     d="m 113.02,206.222 c 0,1.363 1.104,2.465 2.463,2.465 1.361,0 2.465,-1.102 2.465,-2.465 0,-1.359 -2.465,-8.873 -2.465,-8.873 0.051,0.158 -2.463,7.514 -2.463,8.873"
     clip-path="url(#SVGID_4_)"
     transform="matrix(0,-2.9,2.9,0,-326.86769,826.21002)" /><path
     style="clip-rule:evenodd;fill:#7f3f98;fill-rule:evenodd"
     inkscape:connector-curvature="0"
     id="path7477"
     d="m 124.5,206.222 c 0,1.363 1.103,2.465 2.465,2.465 1.359,0 2.463,-1.102 2.463,-2.465 0,-1.359 -2.463,-8.873 -2.463,-8.873 0.051,0.158 -2.465,7.514 -2.465,8.873"
     clip-path="url(#SVGID_4_)"
     transform="matrix(0,-2.9,2.9,0,-326.86769,826.21002)" /><path
     style="clip-rule:evenodd;fill:#7f3f98;fill-rule:evenodd"
     inkscape:connector-curvature="0"
     id="path7479"
     d="m 107.665,215.4 c 0,1.361 1.104,2.463 2.466,2.463 1.36,0 2.463,-1.102 2.463,-2.463 0,-1.361 -2.463,-8.875 -2.463,-8.875 0.049,0.158 -2.466,7.514 -2.466,8.875"
     clip-path="url(#SVGID_4_)"
     transform="matrix(0,-2.9,2.9,0,-326.86769,826.21002)" /><path
     style="clip-rule:evenodd;fill:#7f3f98;fill-rule:evenodd"
     inkscape:connector-curvature="0"
     id="path7481"
     d="m 119.147,215.4 c 0,1.361 1.104,2.463 2.462,2.463 1.361,0 2.465,-1.102 2.465,-2.463 0,-1.361 -2.465,-8.875 -2.465,-8.875 0.054,0.158 -2.462,7.514 -2.462,8.875"
     clip-path="url(#SVGID_4_)"
     transform="matrix(0,-2.9,2.9,0,-326.86769,826.21002)" /><path
     style="clip-rule:evenodd;fill:#7f3f98;fill-rule:evenodd"
     inkscape:connector-curvature="0"
     id="path7483"
     d="m 140.283,184.173 c -0.271,-0.039 -0.539,-0.041 -0.801,-0.021 -0.26,-3.282 -2.748,-6.067 -6.142,-6.559 -0.748,-0.108 -1.487,-0.096 -2.196,0.017 -0.701,-4.068 -3.943,-7.41 -8.252,-8.035 -3.375,-0.488 -6.591,0.801 -8.708,3.159 -1.123,-0.809 -2.449,-1.372 -3.908,-1.584 -3.243,-0.469 -6.319,0.879 -8.222,3.267 -0.81,-0.59 -1.769,-1 -2.825,-1.152 -3.464,-0.502 -6.68,1.898 -7.182,5.361 -0.074,0.514 -0.077,1.018 -0.032,1.512 -0.317,-0.153 -0.655,-0.272 -1.02,-0.326 -1.976,-0.285 -3.81,1.082 -4.097,3.058 -0.287,1.977 1.083,3.811 3.059,4.098 0.81,0.117 1.588,-0.057 2.255,-0.422 -0.134,2.912 1.966,5.508 4.914,5.936 1.837,0.265 3.595,-0.373 4.831,-1.577 0.549,2.311 2.457,4.166 4.951,4.53 1.94,0.281 3.793,-0.408 5.084,-1.696 0.795,1.323 2.155,2.291 3.801,2.53 2.619,0.381 5.062,-1.213 5.842,-3.651 0.472,0.258 0.988,0.451 1.552,0.534 2.067,0.3 3.996,-0.838 4.823,-2.651 0.929,0.692 2.039,1.168 3.263,1.344 0.358,0.053 0.707,0.068 1.058,0.07 0.657,0.91 1.661,1.567 2.86,1.74 1.821,0.264 3.528,-0.666 4.363,-2.187 1.881,0.103 3.565,-1.229 3.84,-3.125 0.291,-2.011 -1.104,-3.877 -3.111,-4.17"
     clip-path="url(#SVGID_4_)"
     transform="matrix(0,-2.9,2.9,0,-326.86769,826.21002)" /><g
     inkscape:groupmode="layer"
     id="layer7"
     inkscape:label="Layer 1" /></svg>