<?xml version="1.0" encoding="UTF-8" standalone="no"?>
<!-- Generator: Adobe Illustrator 16.0.0, SVG Export Plug-In . SVG Version: 6.00 Build 0)  -->

<svg
   xmlns:dc="http://purl.org/dc/elements/1.1/"
   xmlns:cc="http://creativecommons.org/ns#"
   xmlns:rdf="http://www.w3.org/1999/02/22-rdf-syntax-ns#"
   xmlns:svg="http://www.w3.org/2000/svg"
   xmlns="http://www.w3.org/2000/svg"
   xmlns:xlink="http://www.w3.org/1999/xlink"
   xmlns:sodipodi="http://sodipodi.sourceforge.net/DTD/sodipodi-0.dtd"
   xmlns:inkscape="http://www.inkscape.org/namespaces/inkscape"
   version="1.1"
   id="Layer_1"
   x="0px"
   y="0px"
   width="990.47876"
   height="728.34845"
   viewBox="0 0 990.47872 728.34844"
   enable-background="new 0 0 595.275 841.89"
   xml:space="preserve"
   inkscape:version="0.91 r13725"
   sodipodi:docname="nlg_vehicles.svg"><metadata
     id="metadata10255"><rdf:RDF><cc:Work
         rdf:about=""><dc:format>image/svg+xml</dc:format><dc:type
           rdf:resource="http://purl.org/dc/dcmitype/StillImage" /><dc:title></dc:title></cc:Work></rdf:RDF></metadata><defs
     id="defs10253"><defs
       id="defs9559"><rect
         height="841.89001"
         width="595.27399"
         y="-0.001"
         x="0.001"
         id="SVGID_1_" /></defs><clipPath
       id="SVGID_2_"><use
         id="use9563"
         overflow="visible"
         xlink:href="#SVGID_1_"
         style="overflow:visible"
         x="0"
         y="0"
         width="100%"
         height="100%" /></clipPath></defs><sodipodi:namedview
     pagecolor="#ffffff"
     bordercolor="#666666"
     borderopacity="1"
     objecttolerance="10"
     gridtolerance="10"
     guidetolerance="10"
     inkscape:pageopacity="0"
     inkscape:pageshadow="2"
     inkscape:window-width="1292"
     inkscape:window-height="967"
     id="namedview10251"
     showgrid="false"
     fit-margin-top="0"
     fit-margin-left="0"
     fit-margin-right="0"
     fit-margin-bottom="0"
     inkscape:zoom="0.79286936"
     inkscape:cx="466.57669"
     inkscape:cy="391.16955"
     inkscape:window-x="1440"
     inkscape:window-y="0"
     inkscape:window-maximized="0"
     inkscape:current-layer="layer3" /><path
     style="fill:#f78e1e"
     inkscape:connector-curvature="0"
     id="path9565"
     d="m 120.425,188.602 c -1.206,0 -2.364,0.197 -3.453,0.553 l -2.096,-5.346 c 1.061,-0.618 2.702,-1.931 3.03,-4.279 0.296,-2.109 -0.477,-3.338 -1.324,-3.984 -0.127,-1.102 -0.986,-1.96 -2.034,-1.96 l -3.937,0 0,0.23 c -0.687,0.363 -1.166,1.123 -1.166,2.007 0,0.884 0.479,1.643 1.166,2.006 l 0,0.232 3.937,0 c 0.144,0 0.283,-0.017 0.419,-0.047 0.057,0.203 0.092,0.571 -0.041,1.21 -0.224,1.083 -0.767,1.646 -1.212,1.945 -0.262,-0.266 -0.612,-0.44 -1.012,-0.44 -0.79,0 -1.433,0.643 -1.426,1.466 l -0.028,0.226 0.465,1.186 -13.655,3.13 -0.149,-0.468 -0.208,0 c 0.26,-0.149 0.469,-0.296 0.62,-0.42 l 1.044,0.006 c 0.232,0 0.602,-0.048 1.05,-0.272 0.772,-0.384 0.948,-1.194 0.725,-1.795 l -0.217,-0.582 -10.095,0 0.111,0.993 c 0.11,0.983 0.995,2.842 3.561,2.842 0.242,0 0.469,-0.012 0.688,-0.031 l 0.486,1.52 -1.711,1.947 c -1.771,-1.183 -3.896,-1.875 -6.181,-1.875 -6.153,0 -11.158,5.005 -11.158,11.157 0,6.153 5.005,11.159 11.158,11.159 4.976,0 9.198,-3.274 10.633,-7.78 0.737,0.824 1.797,1.353 2.987,1.353 2.217,0 4.022,-1.803 4.022,-4.021 0,-0.858 -0.275,-1.65 -0.735,-2.304 l 8.742,-10.179 0.945,2.41 c -3.071,1.989 -5.111,5.44 -5.111,9.362 0,6.153 5.007,11.159 11.16,11.159 6.153,0 11.159,-5.006 11.159,-11.159 0,-6.153 -5.006,-11.157 -11.159,-11.157 m -32.643,19.276 c -4.478,0 -8.12,-3.643 -8.12,-8.12 0,-4.477 3.642,-8.119 8.12,-8.119 1.516,0 2.931,0.425 4.146,1.151 l -3.899,4.435 c -0.217,-0.056 -0.44,-0.095 -0.673,-0.095 -1.497,0 -2.715,1.218 -2.715,2.714 0,1.496 1.218,2.713 2.715,2.713 0.98,0 1.832,-0.527 2.309,-1.308 l 6.093,0 c -0.702,3.768 -4.008,6.629 -7.976,6.629 m 3.035,-9.497 3.274,-3.724 c 0.855,1.055 1.445,2.33 1.685,3.724 l -4.959,0 z m 5.294,-6.023 0.578,-0.657 0.849,2.654 c -0.401,-0.72 -0.884,-1.386 -1.427,-1.997 m 5.726,4.132 c -0.145,-0.015 -0.287,-0.044 -0.435,-0.044 -0.079,0 -0.153,0.019 -0.23,0.024 l -2.263,-7.071 11.237,-2.58 -8.309,9.671 z m 18.588,11.388 c -4.479,0 -8.122,-3.643 -8.122,-8.12 0,-2.632 1.266,-4.969 3.214,-6.454 l 2.167,5.525 0.065,0.127 c 0.1,0.188 0.287,0.481 0.548,0.781 -0.004,0.053 -0.016,0.102 -0.016,0.156 0,1.285 1.044,2.33 2.329,2.33 1.285,0 2.33,-1.045 2.33,-2.33 0,-1.285 -1.045,-2.33 -2.33,-2.33 -0.112,0 -0.22,0.017 -0.327,0.033 l -2.2,-5.61 c 0.742,-0.224 1.528,-0.347 2.342,-0.347 4.477,0 8.119,3.642 8.119,8.119 0,4.477 -3.642,8.12 -8.119,8.12"
     clip-path="url(#SVGID_2_)"
     transform="matrix(0,-2.9,2.9,0,-338.16031,799.28243)" /><path
     style="fill:#f78e1e"
     inkscape:connector-curvature="0"
     id="path9567"
     d="m 207.137,387.548 c -2.737,0 -4.957,2.218 -4.957,4.954 0,2.737 2.22,4.957 4.957,4.957 2.738,0 4.957,-2.22 4.957,-4.957 0,-2.735 -2.219,-4.954 -4.957,-4.954 m 0,7.433 c -1.37,0 -2.48,-1.109 -2.48,-2.479 0,-1.368 1.11,-2.476 2.48,-2.476 1.369,0 2.479,1.108 2.479,2.476 0,1.371 -1.11,2.479 -2.479,2.479"
     clip-path="url(#SVGID_2_)"
     transform="matrix(0,-2.9,2.9,0,-338.16031,799.28243)" /><path
     style="fill:#f78e1e"
     inkscape:connector-curvature="0"
     id="path9569"
     d="m 221.394,388.439 c -0.495,-1.932 -1.343,-4.023 -2.815,-5.497 -3.092,-3.091 -4.59,-3.498 -4.59,-3.498 l -10.057,-11.148 c 0,0 -8.745,-2.406 -18.582,0.436 -9.836,2.842 -13.991,10.712 -13.991,10.712 l 0,8.964 -1.051,0 c -1.512,0 -2.736,1.602 -2.736,3.579 0,1.977 1.224,3.581 2.736,3.581 l 3.183,0 c 0.845,0 1.598,-0.505 2.098,-1.292 -0.146,-0.568 -0.233,-1.161 -0.233,-1.773 0,-3.912 3.171,-7.082 7.083,-7.082 3.912,0 7.08,3.17 7.08,7.082 0,0.318 -0.026,0.63 -0.069,0.936 l 10.673,0 c -0.04,-0.306 -0.069,-0.618 -0.069,-0.936 0,-3.912 3.171,-7.082 7.083,-7.082 3.912,0 7.081,3.17 7.081,7.082 0,1.055 -0.237,2.054 -0.651,2.953 0.574,0.437 1.269,0.699 2.026,0.699 l 5.532,0 c 1.977,0 3.58,-1.734 3.58,-3.873 0,-2.038 -1.461,-3.692 -3.311,-3.843 m -31.413,-8.337 -16.659,0 c 0,0 4.73,-6.826 13.057,-9.508 1.214,-0.391 2.422,-0.676 3.602,-0.882 l 0,10.39 z m 1.801,0 0,-10.648 c 6.111,-0.678 11.029,0.653 11.029,0.653 l 8.991,9.995 -20.02,0 z m 24.174,7.431 0,-4.809 c 0,0 1.567,1.05 2.84,2.624 l 0.876,2.185 -3.716,0 z"
     clip-path="url(#SVGID_2_)"
     transform="matrix(0,-2.9,2.9,0,-338.16031,799.28243)" /><path
     style="fill:#f78e1e"
     inkscape:connector-curvature="0"
     id="path9571"
     d="m 182.438,387.548 c -2.738,0 -4.958,2.218 -4.958,4.954 0,2.737 2.22,4.957 4.958,4.957 2.737,0 4.957,-2.22 4.957,-4.957 10e-4,-2.735 -2.22,-4.954 -4.957,-4.954 m 0,7.433 c -1.369,0 -2.48,-1.109 -2.48,-2.479 0,-1.368 1.111,-2.476 2.48,-2.476 1.369,0 2.479,1.108 2.479,2.476 0,1.371 -1.109,2.479 -2.479,2.479"
     clip-path="url(#SVGID_2_)"
     transform="matrix(0,-2.9,2.9,0,-338.16031,799.28243)" /><path
     style="fill:#f78e1e"
     inkscape:connector-curvature="0"
     id="path9573"
     d="m 114.378,283.686 c -3.701,-9.478 -3.764,-14.936 -3.764,-14.936 l 0,33.725 19.383,0 c 10e-4,0 -10.854,-6.589 -15.619,-18.789"
     clip-path="url(#SVGID_2_)"
     transform="matrix(0,-2.9,2.9,0,-338.16031,799.28243)" /><polygon
     style="fill:#f78e1e"
     id="polygon9575"
     points="104.412,262.159 79.988,302.087 104.412,302.087 "
     clip-path="url(#SVGID_2_)"
     transform="matrix(0,-2.9,2.9,0,-338.16031,799.28243)" /><path
     style="fill:#f78e1e"
     inkscape:connector-curvature="0"
     id="path9577"
     d="m 108.289,305.964 0,-45.742 -1.938,0 0,45.742 -28.686,0 4.649,4.892 39.928,0 c 0,0 2.129,-0.388 4.453,-0.777 2.328,-0.386 4.463,-4.115 4.463,-4.115 l -22.869,0 z"
     clip-path="url(#SVGID_2_)"
     transform="matrix(0,-2.9,2.9,0,-338.16031,799.28243)" /><path
     style="fill:#f78e1e"
     inkscape:connector-curvature="0"
     id="path9579"
     d="m 223.416,307.649 -9.867,-11.305 0.047,-0.047 -0.92,-0.956 -3.049,-3.492 0.186,0.185 1.693,-1.693 -0.953,-0.953 -1.64,1.642 -0.741,-0.849 -1.959,-4.605 0.146,-0.921 c 0.809,-0.807 1.597,-1.59 2.448,-2.414 2.828,-2.741 4.142,-4.554 4.498,-5.078 l 0.576,-0.539 c 0.687,0.693 5.131,5.152 5.621,4.664 0.37,-0.371 -5.031,-5.875 -5.031,-5.875 l -0.102,0.166 c 0.15,-0.316 0.283,-0.674 0.368,-1.066 0.318,-1.483 -0.158,-1.853 -0.158,-1.853 l -0.405,1.501 0.191,-1.599 0.059,-0.057 c 0,0 -0.373,-0.475 -1.852,-0.158 l -1.926,1.024 c -1.609,-1.538 -4.582,-4.31 -4.85,-4.041 -0.382,0.381 2.253,3.174 3.76,4.709 -0.781,0.569 -2.412,1.861 -4.716,4.237 -0.824,0.852 -1.605,1.639 -2.412,2.448 l -0.92,0.146 -4.606,-1.959 -0.849,-0.74 1.644,-1.643 -0.954,-0.951 -1.696,1.694 0.193,0.188 -3.5,-3.054 -0.954,-0.918 -0.046,0.047 -11.306,-9.869 c 0,0 -0.854,-1.107 -2.276,0.477 -2.806,3.124 -2.699,4.076 -2.699,4.076 0,0 -0.371,0.265 0.632,1.801 0.402,0.609 2.831,4.236 5.608,8.382 l -0.048,0.034 0.226,0.231 c 4.166,6.22 9.038,13.48 9.038,13.48 l 0,1.661 c -3.151,3.569 -5.612,6.698 -6.913,8.401 l -1.093,1.199 c -0.388,-0.281 -0.925,-0.666 -1.653,-1.179 -1.799,-1.272 -6.063,-4.525 -6.063,-4.525 0,0 -0.899,-0.688 -1.958,0.476 -1.059,1.166 -1.748,2.172 -1.377,2.647 0.162,0.206 1.43,1.8 2.814,3.538 l -0.008,0.009 2.859,3.705 0.061,-0.061 c 0.541,0.675 0.898,1.123 0.904,1.132 -1.706,1.802 -2.818,3.112 -2.703,3.227 0.115,0.115 1.429,-1 3.236,-2.712 0.163,0.13 0.543,0.435 1.047,0.836 l -0.062,0.062 3.705,2.858 0.008,-0.009 c 1.74,1.385 3.332,2.654 3.537,2.815 0.478,0.371 1.484,-0.319 2.649,-1.377 1.165,-1.058 0.474,-1.958 0.474,-1.958 0,0 -3.252,-4.263 -4.522,-6.064 -0.575,-0.813 -0.985,-1.385 -1.271,-1.777 0.609,-0.447 4.736,-3.508 9.693,-7.881 l 1.66,0 c 0,0 7.262,4.873 13.483,9.041 l 0.227,0.223 0.033,-0.049 c 4.145,2.779 7.774,5.207 8.384,5.607 1.534,1.006 1.8,0.635 1.8,0.635 0,0 0.952,0.105 4.076,-2.7 1.584,-1.423 0.474,-2.277 0.474,-2.277 M 176.915,301.5 c -0.002,-0.004 -0.005,-0.008 -0.007,-0.01 l 0.158,-0.149 -0.151,0.159 z"
     clip-path="url(#SVGID_2_)"
     transform="matrix(0,-2.9,2.9,0,-338.16031,799.28243)" /><path
     style="fill:#f78e1e"
     inkscape:connector-curvature="0"
     id="path9581"
     d="m 89.715,388.665 c -2.391,0 -4.329,1.938 -4.329,4.326 0,2.391 1.938,4.33 4.329,4.33 2.39,0 4.328,-1.939 4.328,-4.33 0,-2.388 -1.938,-4.326 -4.328,-4.326 m 0,6.49 c -1.196,0 -2.165,-0.967 -2.165,-2.164 0,-1.193 0.969,-2.162 2.165,-2.162 1.194,0 2.164,0.969 2.164,2.162 0,1.197 -0.97,2.164 -2.164,2.164"
     clip-path="url(#SVGID_2_)"
     transform="matrix(0,-2.9,2.9,0,-338.16031,799.28243)" /><path
     style="fill:#f78e1e"
     inkscape:connector-curvature="0"
     id="path9583"
     d="m 130.675,386.488 -0.254,0 0,-5.09 -4.25,-7.729 -7.344,0 0,-8.855 c 0,0.115 -0.666,-0.418 -1.486,-0.418 l -37.476,0 c -0.82,0 -1.486,0.533 -1.486,1.193 l 0,20.279 -0.229,0 c -0.969,0 -1.754,0.819 -1.754,1.83 l 0,3.461 c 0,1.014 0.785,1.832 1.754,1.832 l 3.614,0 c 0.472,0 0.9,-0.197 1.216,-0.513 l 0.577,0 c 0.262,-3.174 2.917,-5.668 6.158,-5.668 3.241,0 5.893,2.494 6.157,5.668 l 14.758,0 c 0.262,-3.174 2.916,-5.668 6.158,-5.668 2.973,0 5.453,2.099 6.047,4.894 l 2.486,0 0,0.059 c 0,1.008 0.786,1.826 1.752,1.826 l 3.602,0 c 0.967,0 1.75,-0.818 1.75,-1.826 l 0,-3.451 c 0,-1.008 -0.782,-1.824 -1.75,-1.824 m -11.588,-5.604 0.127,-5.156 6.055,0 2.834,5.156 -9.016,0 z"
     clip-path="url(#SVGID_2_)"
     transform="matrix(0,-2.9,2.9,0,-338.16031,799.28243)" /><path
     style="fill:#f78e1e"
     inkscape:connector-curvature="0"
     id="path9585"
     d="m 116.789,388.665 c -2.393,0 -4.33,1.938 -4.33,4.326 0,2.391 1.937,4.33 4.33,4.33 2.391,0 4.326,-1.939 4.326,-4.33 0,-2.388 -1.935,-4.326 -4.326,-4.326 m 0,6.49 c -1.197,0 -2.166,-0.967 -2.166,-2.164 0,-1.193 0.969,-2.162 2.166,-2.162 1.195,0 2.162,0.969 2.162,2.162 0,1.197 -0.968,2.164 -2.162,2.164"
     clip-path="url(#SVGID_2_)"
     transform="matrix(0,-2.9,2.9,0,-338.16031,799.28243)" /><path
     style="fill:#f78e1e"
     inkscape:connector-curvature="0"
     id="path9587"
     d="m 213.114,221.985 -2.171,-3.09 -4.998,0 -1.781,-2.985 3.347,0 -1.648,-2.345 -3.099,0 -1.428,-2.393 1.645,0 c 2.396,0 4.339,-1.944 4.339,-4.339 l -1.089,-24.385 c 0,-2.396 -1.939,-4.339 -4.337,-4.339 l -6.558,0 c 0.288,-0.942 0.895,-2.495 1.951,-3.375 1.107,-0.922 2.342,-1.717 3.114,-2.185 l 6.299,0 0,-2.473 -28.735,0 0,2.473 6.106,0 c 0.772,0.468 2.007,1.263 3.113,2.185 1.057,0.881 1.665,2.434 1.953,3.375 l -6.623,0 c -2.397,0 -4.336,1.943 -4.336,4.339 l -1.447,24.385 c 0,2.395 1.941,4.339 4.336,4.339 l 1.882,0 -1.515,2.393 -4.016,0 -1.648,2.345 4.179,0 -1.89,2.985 -4.293,0 -2.172,3.09 4.509,0 -2.042,3.223 3.815,0 1.768,-3.223 24.487,0 1.768,3.223 3.815,0 -1.924,-3.223 5.324,0 z m -8.505,-19.839 c 0,1.62 -1.314,2.935 -2.936,2.935 -1.623,0 -2.937,-1.315 -2.937,-2.935 0,-1.622 1.314,-2.934 2.937,-2.934 1.622,-10e-4 2.936,1.311 2.936,2.934 M 188.34,173.347 c -0.337,-0.282 -0.682,-0.545 -1.023,-0.797 l 9.837,0 c -0.341,0.252 -0.685,0.515 -1.023,0.797 -1.656,1.38 -2.419,3.777 -2.677,4.763 l -2.437,0 c -0.258,-0.986 -1.021,-3.383 -2.677,-4.763 m -7.029,9.164 c 0,-1.064 0.847,-1.928 1.892,-1.928 l 17.781,0 c 1.047,0 1.896,0.864 1.896,1.928 l 0,8.501 c 0,1.066 -0.849,1.929 -1.896,1.929 l -17.781,0 c -1.045,0 -1.892,-0.863 -1.892,-1.929 l 0,-8.501 z m -2.112,19.635 c 0,-1.622 1.316,-2.934 2.938,-2.934 1.62,0 2.936,1.312 2.936,2.934 0,1.62 -1.316,2.935 -2.936,2.935 -1.622,0 -2.938,-1.315 -2.938,-2.935 m 6.376,9.026 12.624,0 1.313,2.393 -15.25,0 1.313,-2.393 z m -4.236,7.724 1.637,-2.985 17.822,0 1.638,2.985 -21.097,0 z"
     clip-path="url(#SVGID_2_)"
     transform="matrix(0,-2.9,2.9,0,-338.16031,799.28243)" /><path
     style="fill:#f78e1e"
     inkscape:connector-curvature="0"
     id="path9589"
     d="m 77.298,445.825 2.15,0 0,1.232 c 0,1.198 -0.951,2.15 -2.158,2.15 -0.952,0 -1.607,-0.561 -1.896,-1.088 -0.195,-0.357 -0.263,-0.535 -0.263,-1.988 0,-1.454 0.068,-1.632 0.263,-1.989 0.289,-0.526 0.944,-1.089 1.896,-1.089 1.147,0 1.938,0.809 2.124,1.795 l -0.969,0 c -0.144,-0.468 -0.577,-0.877 -1.155,-0.877 -0.434,0 -0.748,0.205 -0.935,0.443 -0.238,0.307 -0.306,0.476 -0.306,1.717 0,1.24 0.068,1.41 0.306,1.717 0.187,0.237 0.501,0.441 0.935,0.441 0.696,0 1.24,-0.527 1.24,-1.283 l 0,-0.314 -1.232,0 0,-0.867 z"
     clip-path="url(#SVGID_2_)"
     transform="matrix(0,-2.9,2.9,0,-338.16031,799.28243)" /><path
     style="fill:#f78e1e"
     inkscape:connector-curvature="0"
     id="path9591"
     d="m 80.444,444.849 0.867,0 0,0.458 0.017,0 c 0.272,-0.34 0.663,-0.51 1.122,-0.51 0.348,0 0.637,0.128 0.901,0.332 l -0.629,0.748 c -0.204,-0.153 -0.349,-0.213 -0.57,-0.213 -0.425,0 -0.841,0.272 -0.841,0.901 l 0,2.592 -0.867,0 0,-4.308 z"
     clip-path="url(#SVGID_2_)"
     transform="matrix(0,-2.9,2.9,0,-338.16031,799.28243)" /><path
     style="fill:#f78e1e"
     inkscape:connector-curvature="0"
     id="path9593"
     d="m 85.86,448.774 -0.017,0 c -0.178,0.298 -0.476,0.434 -1.063,0.434 -0.96,0 -1.521,-0.569 -1.521,-1.317 0,-0.688 0.476,-1.274 1.403,-1.274 l 1.198,0 0,-0.451 c 0,-0.407 -0.264,-0.552 -0.884,-0.552 -0.45,0 -0.663,0.085 -0.816,0.331 l -0.68,-0.519 c 0.332,-0.459 0.808,-0.629 1.454,-0.629 1.062,0 1.793,0.357 1.793,1.42 l 0,2.94 -0.867,0 0,-0.383 z m 0,-1.444 -1.037,0 c -0.51,0 -0.748,0.204 -0.748,0.519 0,0.289 0.23,0.545 0.816,0.545 0.722,0 0.969,-0.078 0.969,-0.749 l 0,-0.315 z"
     clip-path="url(#SVGID_2_)"
     transform="matrix(0,-2.9,2.9,0,-338.16031,799.28243)" /><path
     style="fill:#f78e1e"
     inkscape:connector-curvature="0"
     id="path9595"
     d="m 87.849,444.849 0.867,0 0,0.45 c 0.271,-0.298 0.671,-0.502 1.113,-0.502 0.527,0 0.909,0.238 1.156,0.562 0.238,0.306 0.306,0.586 0.306,1.648 0,1.054 -0.068,1.334 -0.306,1.641 -0.247,0.323 -0.629,0.561 -1.156,0.561 -0.442,0 -0.79,-0.204 -1.113,-0.51 l 0,2.201 -0.867,0 0,-6.051 z m 2.575,2.158 c 0,-0.671 -0.042,-1.343 -0.858,-1.343 -0.808,0 -0.85,0.714 -0.85,1.343 0,0.62 0.042,1.334 0.85,1.334 0.816,0 0.858,-0.671 0.858,-1.334"
     clip-path="url(#SVGID_2_)"
     transform="matrix(0,-2.9,2.9,0,-338.16031,799.28243)" /><path
     style="fill:#f78e1e"
     inkscape:connector-curvature="0"
     id="path9597"
     d="m 92.261,443.105 0.867,0 0,2.201 0.017,0 c 0.272,-0.34 0.663,-0.51 1.122,-0.51 0.671,0 1.436,0.519 1.436,1.497 l 0,2.863 -0.867,0 0,-2.566 c 0,-0.587 -0.366,-0.927 -0.85,-0.927 -0.493,0 -0.858,0.34 -0.858,0.927 l 0,2.566 -0.867,0 0,-6.051 z"
     clip-path="url(#SVGID_2_)"
     transform="matrix(0,-2.9,2.9,0,-338.16031,799.28243)" /><path
     style="fill:#f78e1e"
     inkscape:connector-curvature="0"
     id="path9599"
     d="m 96.851,443.105 0.867,0 0,0.867 -0.867,0 0,-0.867 z m 0,1.744 0.867,0 0,4.309 -0.867,0 0,-4.309 z"
     clip-path="url(#SVGID_2_)"
     transform="matrix(0,-2.9,2.9,0,-338.16031,799.28243)" /><path
     style="fill:#f78e1e"
     inkscape:connector-curvature="0"
     id="path9601"
     d="m 102.035,448.46 c -0.374,0.434 -0.892,0.748 -1.547,0.748 -0.994,0 -1.954,-0.629 -1.954,-2.201 0,-1.581 0.96,-2.21 1.954,-2.21 0.655,0 1.173,0.314 1.547,0.748 l -0.637,0.569 c -0.213,-0.264 -0.519,-0.45 -0.876,-0.45 -0.705,0 -1.122,0.399 -1.122,1.343 0,0.935 0.417,1.334 1.122,1.334 0.357,0 0.663,-0.187 0.876,-0.45 l 0.637,0.569 z"
     clip-path="url(#SVGID_2_)"
     transform="matrix(0,-2.9,2.9,0,-338.16031,799.28243)" /><path
     style="fill:#f78e1e"
     inkscape:connector-curvature="0"
     id="path9603"
     d="m 102.767,447.84 c 0.374,0.365 0.782,0.553 1.36,0.553 0.493,0 0.85,-0.188 0.85,-0.553 0,-0.306 -0.23,-0.399 -0.527,-0.425 l -0.765,-0.068 c -0.714,-0.06 -1.241,-0.484 -1.241,-1.224 0,-0.875 0.697,-1.326 1.606,-1.326 0.757,0 1.267,0.23 1.692,0.587 l -0.536,0.629 c -0.34,-0.238 -0.688,-0.399 -1.156,-0.399 -0.552,0 -0.739,0.221 -0.739,0.519 0,0.188 0.136,0.374 0.569,0.407 l 0.714,0.052 c 0.893,0.061 1.25,0.604 1.25,1.292 0,0.841 -0.782,1.325 -1.785,1.325 -0.697,0 -1.343,-0.255 -1.896,-0.773 l 0.604,-0.596 z"
     clip-path="url(#SVGID_2_)"
     transform="matrix(0,-2.9,2.9,0,-338.16031,799.28243)" /><path
     style="fill:#f78e1e"
     inkscape:connector-curvature="0"
     id="path9605"
     d="m 111.598,443.055 c 1.7,0 3.077,1.377 3.077,3.077 0,1.699 -1.377,3.076 -3.077,3.076 -1.7,0 -3.077,-1.377 -3.077,-3.076 0,-1.7 1.376,-3.077 3.077,-3.077 m 0,5.542 c 1.386,0 2.414,-1.028 2.414,-2.465 0,-1.437 -1.028,-2.465 -2.414,-2.465 -1.385,0 -2.414,1.028 -2.414,2.465 0,1.437 1.029,2.465 2.414,2.465 m 1.666,-1.93 c -0.153,0.901 -0.756,1.428 -1.555,1.428 -1.156,0 -1.87,-0.842 -1.87,-1.963 0,-1.147 0.671,-1.964 1.844,-1.964 0.825,0 1.471,0.459 1.581,1.386 l -0.612,0 c -0.094,-0.45 -0.476,-0.773 -0.96,-0.773 -0.757,0 -1.19,0.604 -1.19,1.334 0,0.706 0.476,1.368 1.207,1.368 0.484,0 0.867,-0.34 0.943,-0.815 l 0.612,0 z"
     clip-path="url(#SVGID_2_)"
     transform="matrix(0,-2.9,2.9,0,-338.16031,799.28243)" /><polygon
     style="fill:#f78e1e"
     id="polygon9607"
     points="120.99,446.514 118.593,446.514 118.593,449.157 117.675,449.157 117.675,443.105 118.593,443.105 118.593,445.698 120.99,445.698 120.99,443.105 121.908,443.105 121.908,449.157 120.99,449.157 "
     clip-path="url(#SVGID_2_)"
     transform="matrix(0,-2.9,2.9,0,-338.16031,799.28243)" /><path
     style="fill:#f78e1e"
     inkscape:connector-curvature="0"
     id="path9609"
     d="m 125.368,448.774 -0.017,0 c -0.178,0.298 -0.476,0.434 -1.063,0.434 -0.96,0 -1.521,-0.569 -1.521,-1.317 0,-0.688 0.476,-1.274 1.403,-1.274 l 1.198,0 0,-0.451 c 0,-0.407 -0.264,-0.552 -0.884,-0.552 -0.45,0 -0.663,0.085 -0.816,0.331 l -0.68,-0.519 c 0.332,-0.459 0.808,-0.629 1.454,-0.629 1.062,0 1.793,0.357 1.793,1.42 l 0,2.94 -0.867,0 0,-0.383 z m 0,-1.444 -1.037,0 c -0.51,0 -0.748,0.204 -0.748,0.519 0,0.289 0.23,0.545 0.816,0.545 0.722,0 0.969,-0.078 0.969,-0.749 l 0,-0.315 z"
     clip-path="url(#SVGID_2_)"
     transform="matrix(0,-2.9,2.9,0,-338.16031,799.28243)" /><path
     style="fill:#f78e1e"
     inkscape:connector-curvature="0"
     id="path9611"
     d="m 127.357,444.849 0.867,0 0,0.45 c 0.271,-0.298 0.671,-0.502 1.113,-0.502 0.527,0 0.909,0.238 1.156,0.562 0.238,0.306 0.306,0.586 0.306,1.648 0,1.054 -0.068,1.334 -0.306,1.641 -0.247,0.323 -0.629,0.561 -1.156,0.561 -0.442,0 -0.79,-0.204 -1.113,-0.51 l 0,2.201 -0.867,0 0,-6.051 z m 2.575,2.158 c 0,-0.671 -0.042,-1.343 -0.858,-1.343 -0.808,0 -0.85,0.714 -0.85,1.343 0,0.62 0.042,1.334 0.85,1.334 0.816,0 0.858,-0.671 0.858,-1.334"
     clip-path="url(#SVGID_2_)"
     transform="matrix(0,-2.9,2.9,0,-338.16031,799.28243)" /><path
     style="fill:#f78e1e"
     inkscape:connector-curvature="0"
     id="path9613"
     d="m 131.769,444.849 0.867,0 0,0.45 c 0.271,-0.298 0.671,-0.502 1.113,-0.502 0.527,0 0.909,0.238 1.156,0.562 0.238,0.306 0.306,0.586 0.306,1.648 0,1.054 -0.068,1.334 -0.306,1.641 -0.247,0.323 -0.629,0.561 -1.156,0.561 -0.442,0 -0.79,-0.204 -1.113,-0.51 l 0,2.201 -0.867,0 0,-6.051 z m 2.575,2.158 c 0,-0.671 -0.042,-1.343 -0.858,-1.343 -0.808,0 -0.85,0.714 -0.85,1.343 0,0.62 0.042,1.334 0.85,1.334 0.816,0 0.858,-0.671 0.858,-1.334"
     clip-path="url(#SVGID_2_)"
     transform="matrix(0,-2.9,2.9,0,-338.16031,799.28243)" /><path
     style="fill:#f78e1e"
     inkscape:connector-curvature="0"
     id="path9615"
     d="m 135.56,444.849 0.918,0 1.02,3.017 0.017,0 1.02,-3.017 0.918,0 -1.853,5.201 c -0.238,0.663 -0.688,0.85 -1.215,0.85 l -0.289,0 0,-0.815 0.255,0 c 0.221,0 0.433,-0.119 0.518,-0.374 l 0.238,-0.723 -1.547,-4.139 z"
     clip-path="url(#SVGID_2_)"
     transform="matrix(0,-2.9,2.9,0,-338.16031,799.28243)" /><path
     style="fill:#f78e1e"
     inkscape:connector-curvature="0"
     id="path9617"
     d="m 141.705,448.341 2.363,-2.957 c 0.187,-0.238 0.221,-0.425 0.221,-0.604 0,-0.425 -0.315,-0.858 -0.833,-0.858 -0.468,0 -0.842,0.331 -0.884,0.875 l -0.867,0 c 0.008,-0.985 0.773,-1.742 1.683,-1.742 1.011,0 1.768,0.773 1.768,1.734 0,0.399 -0.111,0.747 -0.366,1.062 l -1.946,2.439 2.312,0 0,0.867 -3.451,0 0,-0.816 z"
     clip-path="url(#SVGID_2_)"
     transform="matrix(0,-2.9,2.9,0,-338.16031,799.28243)" /><path
     style="fill:#f78e1e"
     inkscape:connector-curvature="0"
     id="path9619"
     d="m 145.836,444.797 c 0,-1.113 0.825,-1.742 1.717,-1.742 0.892,0 1.717,0.629 1.717,1.742 l 0,2.669 c 0,1.113 -0.825,1.742 -1.717,1.742 -0.892,0 -1.717,-0.629 -1.717,-1.742 l 0,-2.669 z m 2.567,0.052 c 0,-0.587 -0.34,-0.927 -0.85,-0.927 -0.51,0 -0.85,0.34 -0.85,0.927 l 0,2.566 c 0,0.586 0.34,0.926 0.85,0.926 0.51,0 0.85,-0.34 0.85,-0.926 l 0,-2.566 z"
     clip-path="url(#SVGID_2_)"
     transform="matrix(0,-2.9,2.9,0,-338.16031,799.28243)" /><polygon
     style="fill:#f78e1e"
     id="polygon9621"
     points="152.109,449.157 151.242,449.157 151.242,444.023 150.384,444.652 150.384,443.734 151.242,443.105 152.109,443.105 "
     clip-path="url(#SVGID_2_)"
     transform="matrix(0,-2.9,2.9,0,-338.16031,799.28243)" /><path
     style="fill:#f78e1e"
     inkscape:connector-curvature="0"
     id="path9623"
     d="m 153.945,448.341 2.363,-2.957 c 0.187,-0.238 0.221,-0.425 0.221,-0.604 0,-0.425 -0.315,-0.858 -0.833,-0.858 -0.468,0 -0.842,0.331 -0.884,0.875 l -0.867,0 c 0.008,-0.985 0.773,-1.742 1.683,-1.742 1.011,0 1.768,0.773 1.768,1.734 0,0.399 -0.111,0.747 -0.366,1.062 l -1.946,2.439 2.312,0 0,0.867 -3.451,0 0,-0.816 z"
     clip-path="url(#SVGID_2_)"
     transform="matrix(0,-2.9,2.9,0,-338.16031,799.28243)" /><path
     style="fill:#f78e1e"
     inkscape:connector-curvature="0"
     id="path9627"
     d="m 165.574,447.806 -2.295,0 -0.468,1.352 -0.969,0 2.202,-6.052 0.765,0 2.201,6.052 -0.969,0 -0.467,-1.352 z m -0.264,-0.816 -0.875,-2.644 -0.018,0 -0.875,2.644 1.768,0 z"
     clip-path="url(#SVGID_2_)"
     transform="matrix(0,-2.9,2.9,0,-338.16031,799.28243)" /><path
     style="fill:#f78e1e"
     inkscape:connector-curvature="0"
     id="path9629"
     d="m 167.58,443.105 0.867,0 0,4.938 c 0,0.195 0.111,0.297 0.323,0.297 l 0.297,0 0,0.816 -0.382,0 c -0.629,0 -1.105,-0.271 -1.105,-1.045 l 0,-5.006 z"
     clip-path="url(#SVGID_2_)"
     transform="matrix(0,-2.9,2.9,0,-338.16031,799.28243)" /><path
     style="fill:#f78e1e"
     inkscape:connector-curvature="0"
     id="path9631"
     d="m 169.772,443.105 0.867,0 0,4.938 c 0,0.195 0.111,0.297 0.323,0.297 l 0.297,0 0,0.816 -0.382,0 c -0.629,0 -1.105,-0.271 -1.105,-1.045 l 0,-5.006 z"
     clip-path="url(#SVGID_2_)"
     transform="matrix(0,-2.9,2.9,0,-338.16031,799.28243)" /><path
     style="fill:#f78e1e"
     inkscape:connector-curvature="0"
     id="path9633"
     d="m 174.005,444.849 0.867,0 0,0.458 0.017,0 c 0.272,-0.34 0.663,-0.51 1.122,-0.51 0.348,0 0.637,0.128 0.901,0.332 l -0.629,0.748 c -0.204,-0.153 -0.349,-0.213 -0.57,-0.213 -0.425,0 -0.841,0.272 -0.841,0.901 l 0,2.592 -0.867,0 0,-4.308 z"
     clip-path="url(#SVGID_2_)"
     transform="matrix(0,-2.9,2.9,0,-338.16031,799.28243)" /><path
     style="fill:#f78e1e"
     inkscape:connector-curvature="0"
     id="path9635"
     d="m 177.337,443.105 0.867,0 0,0.867 -0.867,0 0,-0.867 z m 0,1.744 0.867,0 0,4.309 -0.867,0 0,-4.309 z"
     clip-path="url(#SVGID_2_)"
     transform="matrix(0,-2.9,2.9,0,-338.16031,799.28243)" /><path
     style="fill:#f78e1e"
     inkscape:connector-curvature="0"
     id="path9637"
     d="m 181.775,448.707 c -0.272,0.297 -0.672,0.501 -1.114,0.501 -0.561,0 -0.944,-0.28 -1.139,-0.526 -0.246,-0.323 -0.323,-0.483 -0.323,-1.675 0,-1.198 0.077,-1.359 0.323,-1.683 0.195,-0.247 0.578,-0.527 1.139,-0.527 0.442,0 0.79,0.17 1.114,0.51 l 0,-0.458 0.866,0 0,4.207 c 0,1.3 -0.884,1.895 -1.869,1.895 -0.553,0 -1.114,-0.289 -1.496,-0.722 l 0.671,-0.536 c 0.212,0.214 0.51,0.392 0.841,0.392 0.578,0 0.987,-0.332 0.987,-0.936 l 0,-0.442 z m -1.539,-0.697 c 0.119,0.153 0.34,0.331 0.688,0.331 0.34,0 0.562,-0.178 0.68,-0.331 0.153,-0.195 0.171,-0.314 0.171,-1.003 0,-0.697 -0.018,-0.815 -0.171,-1.012 -0.118,-0.152 -0.34,-0.331 -0.68,-0.331 -0.348,0 -0.569,0.179 -0.688,0.331 -0.153,0.196 -0.17,0.314 -0.17,1.012 0,0.688 0.017,0.807 0.17,1.003"
     clip-path="url(#SVGID_2_)"
     transform="matrix(0,-2.9,2.9,0,-338.16031,799.28243)" /><path
     style="fill:#f78e1e"
     inkscape:connector-curvature="0"
     id="path9639"
     d="m 183.764,443.105 0.867,0 0,2.201 0.017,0 c 0.272,-0.34 0.663,-0.51 1.122,-0.51 0.671,0 1.436,0.519 1.436,1.497 l 0,2.863 -0.867,0 0,-2.566 c 0,-0.587 -0.366,-0.927 -0.85,-0.927 -0.493,0 -0.858,0.34 -0.858,0.927 l 0,2.566 -0.867,0 0,-6.051 z"
     clip-path="url(#SVGID_2_)"
     transform="matrix(0,-2.9,2.9,0,-338.16031,799.28243)" /><path
     style="fill:#f78e1e"
     inkscape:connector-curvature="0"
     id="path9641"
     d="m 188.379,443.539 0.867,0 0,1.31 0.629,0 0,0.662 -0.629,0 0,2.508 c 0,0.237 0.093,0.322 0.306,0.322 l 0.323,0 0,0.816 -0.451,0 c -0.603,0 -1.045,-0.383 -1.045,-1.063 l 0,-2.584 -0.433,0 0,-0.662 0.433,0 0,-1.309 z"
     clip-path="url(#SVGID_2_)"
     transform="matrix(0,-2.9,2.9,0,-338.16031,799.28243)" /><path
     style="fill:#f78e1e"
     inkscape:connector-curvature="0"
     id="path9643"
     d="m 190.818,447.84 c 0.374,0.365 0.782,0.553 1.36,0.553 0.493,0 0.85,-0.188 0.85,-0.553 0,-0.306 -0.23,-0.399 -0.527,-0.425 l -0.765,-0.068 c -0.714,-0.06 -1.241,-0.484 -1.241,-1.224 0,-0.875 0.697,-1.326 1.606,-1.326 0.757,0 1.267,0.23 1.692,0.587 l -0.536,0.629 c -0.34,-0.238 -0.688,-0.399 -1.156,-0.399 -0.552,0 -0.739,0.221 -0.739,0.519 0,0.188 0.136,0.374 0.569,0.407 l 0.714,0.052 c 0.893,0.061 1.25,0.604 1.25,1.292 0,0.841 -0.782,1.325 -1.785,1.325 -0.697,0 -1.343,-0.255 -1.896,-0.773 l 0.604,-0.596 z"
     clip-path="url(#SVGID_2_)"
     transform="matrix(0,-2.9,2.9,0,-338.16031,799.28243)" /><path
     style="fill:#f78e1e"
     inkscape:connector-curvature="0"
     id="path9645"
     d="m 196.811,444.849 0.867,0 0,0.458 0.017,0 c 0.272,-0.34 0.663,-0.51 1.122,-0.51 0.348,0 0.637,0.128 0.901,0.332 l -0.629,0.748 c -0.204,-0.153 -0.349,-0.213 -0.57,-0.213 -0.425,0 -0.841,0.272 -0.841,0.901 l 0,2.592 -0.867,0 0,-4.308 z"
     clip-path="url(#SVGID_2_)"
     transform="matrix(0,-2.9,2.9,0,-338.16031,799.28243)" /><path
     style="fill:#f78e1e"
     inkscape:connector-curvature="0"
     id="path9647"
     d="m 200.621,447.33 c 0,0.705 0.434,1.063 1.028,1.063 0.332,0 0.689,-0.153 0.944,-0.417 l 0.629,0.537 c -0.425,0.491 -0.977,0.695 -1.555,0.695 -0.884,0 -1.913,-0.425 -1.913,-2.192 0,-1.675 0.944,-2.219 1.777,-2.219 0.951,0 1.776,0.706 1.776,1.819 l 0,0.714 -2.686,0 z m 1.818,-0.714 c -0.025,-0.654 -0.399,-1.003 -0.909,-1.003 -0.51,0 -0.893,0.349 -0.91,1.003 l 1.819,0 z"
     clip-path="url(#SVGID_2_)"
     transform="matrix(0,-2.9,2.9,0,-338.16031,799.28243)" /><path
     style="fill:#f78e1e"
     inkscape:connector-curvature="0"
     id="path9649"
     d="m 204.344,447.84 c 0.374,0.365 0.782,0.553 1.36,0.553 0.493,0 0.85,-0.188 0.85,-0.553 0,-0.306 -0.23,-0.399 -0.527,-0.425 l -0.765,-0.068 c -0.714,-0.06 -1.241,-0.484 -1.241,-1.224 0,-0.875 0.697,-1.326 1.606,-1.326 0.757,0 1.267,0.23 1.692,0.587 l -0.536,0.629 c -0.34,-0.238 -0.688,-0.399 -1.156,-0.399 -0.552,0 -0.739,0.221 -0.739,0.519 0,0.188 0.136,0.374 0.569,0.407 l 0.714,0.052 c 0.893,0.061 1.25,0.604 1.25,1.292 0,0.841 -0.782,1.325 -1.785,1.325 -0.697,0 -1.343,-0.255 -1.896,-0.773 l 0.604,-0.596 z"
     clip-path="url(#SVGID_2_)"
     transform="matrix(0,-2.9,2.9,0,-338.16031,799.28243)" /><path
     style="fill:#f78e1e"
     inkscape:connector-curvature="0"
     id="path9651"
     d="m 208.951,447.33 c 0,0.705 0.434,1.063 1.028,1.063 0.332,0 0.689,-0.153 0.944,-0.417 l 0.629,0.537 c -0.425,0.491 -0.977,0.695 -1.555,0.695 -0.884,0 -1.913,-0.425 -1.913,-2.192 0,-1.675 0.944,-2.219 1.777,-2.219 0.951,0 1.776,0.706 1.776,1.819 l 0,0.714 -2.686,0 z m 1.819,-0.714 c -0.025,-0.654 -0.399,-1.003 -0.909,-1.003 -0.51,0 -0.893,0.349 -0.91,1.003 l 1.819,0 z"
     clip-path="url(#SVGID_2_)"
     transform="matrix(0,-2.9,2.9,0,-338.16031,799.28243)" /><path
     style="fill:#f78e1e"
     inkscape:connector-curvature="0"
     id="path9653"
     d="m 212.546,444.849 0.867,0 0,0.458 0.017,0 c 0.272,-0.34 0.663,-0.51 1.122,-0.51 0.348,0 0.637,0.128 0.901,0.332 l -0.629,0.748 c -0.204,-0.153 -0.349,-0.213 -0.57,-0.213 -0.425,0 -0.841,0.272 -0.841,0.901 l 0,2.592 -0.867,0 0,-4.308 z"
     clip-path="url(#SVGID_2_)"
     transform="matrix(0,-2.9,2.9,0,-338.16031,799.28243)" /><polygon
     style="fill:#f78e1e"
     id="polygon9655"
     points="218.199,444.849 219.116,444.849 217.535,449.157 216.822,449.157 215.241,444.849 216.158,444.849 217.17,447.865 217.187,447.865 "
     clip-path="url(#SVGID_2_)"
     transform="matrix(0,-2.9,2.9,0,-338.16031,799.28243)" /><path
     style="fill:#f78e1e"
     inkscape:connector-curvature="0"
     id="path9657"
     d="m 220.231,447.33 c 0,0.705 0.434,1.063 1.028,1.063 0.332,0 0.689,-0.153 0.944,-0.417 l 0.629,0.537 c -0.425,0.491 -0.977,0.695 -1.555,0.695 -0.884,0 -1.913,-0.425 -1.913,-2.192 0,-1.675 0.944,-2.219 1.777,-2.219 0.951,0 1.776,0.706 1.776,1.819 l 0,0.714 -2.686,0 z m 1.819,-0.714 c -0.025,-0.654 -0.399,-1.003 -0.909,-1.003 -0.51,0 -0.893,0.349 -0.91,1.003 l 1.819,0 z"
     clip-path="url(#SVGID_2_)"
     transform="matrix(0,-2.9,2.9,0,-338.16031,799.28243)" /><path
     style="fill:#f78e1e"
     inkscape:connector-curvature="0"
     id="path9659"
     d="m 226.401,448.707 c -0.271,0.297 -0.671,0.501 -1.113,0.501 -0.527,0 -0.909,-0.237 -1.156,-0.561 -0.238,-0.307 -0.306,-0.586 -0.306,-1.649 0,-1.054 0.068,-1.334 0.306,-1.64 0.247,-0.323 0.629,-0.562 1.156,-0.562 0.442,0 0.79,0.204 1.113,0.51 l 0,-2.201 0.867,0 0,6.052 -0.867,0 0,-0.45 z m -1.708,-1.709 c 0,0.672 0.042,1.343 0.858,1.343 0.808,0 0.85,-0.714 0.85,-1.343 0,-0.62 -0.042,-1.334 -0.85,-1.334 -0.816,0 -0.858,0.672 -0.858,1.334"
     clip-path="url(#SVGID_2_)"
     transform="matrix(0,-2.9,2.9,0,-338.16031,799.28243)" /><path
     style="fill:#f78e1e"
     inkscape:connector-curvature="0"
     id="path9663"
     d="m 251.939,143.58 c -1.834,0 -3.32,1.485 -3.32,3.318 0,1.833 1.486,3.32 3.32,3.32 1.833,0 3.319,-1.487 3.319,-3.32 0,-1.833 -1.486,-3.318 -3.319,-3.318 m 0,4.978 c -0.917,0 -1.661,-0.743 -1.661,-1.66 0,-0.916 0.744,-1.659 1.661,-1.659 0.917,0 1.661,0.743 1.661,1.659 0.001,0.917 -0.744,1.66 -1.661,1.66"
     clip-path="url(#SVGID_2_)"
     transform="matrix(0,-2.9,2.9,0,-338.16031,799.28243)" /><path
     style="fill:#f78e1e"
     inkscape:connector-curvature="0"
     id="path9665"
     d="m 261.488,144.177 c -0.331,-1.294 -0.899,-2.693 -1.886,-3.68 -2.07,-2.071 -3.073,-2.344 -3.073,-2.344 l -6.737,-7.464 c 0,0 -5.855,-1.611 -12.446,0.291 -6.587,1.904 -9.37,7.173 -9.37,7.173 l 0,6.003 -0.705,0 c -1.012,0 -1.833,1.073 -1.833,2.398 0,1.323 0.821,2.398 1.833,2.398 l 2.132,0 c 0.567,0 1.07,-0.339 1.406,-0.866 -0.099,-0.38 -0.156,-0.778 -0.156,-1.186 0,-2.621 2.124,-4.744 4.743,-4.744 2.62,0 4.743,2.123 4.743,4.744 0,0.212 -0.018,0.42 -0.047,0.625 l 7.15,0 c -0.027,-0.205 -0.047,-0.413 -0.047,-0.625 0,-2.621 2.124,-4.744 4.745,-4.744 2.619,0 4.742,2.123 4.742,4.744 0,0.705 -0.159,1.375 -0.437,1.976 0.385,0.294 0.851,0.468 1.359,0.468 l 3.704,0 c 1.325,0 2.398,-1.16 2.398,-2.593 0,-1.365 -0.979,-2.473 -2.218,-2.574 m -21.04,-5.583 -11.157,0 c 0,0 3.168,-4.572 8.746,-6.368 0.812,-0.261 1.621,-0.452 2.411,-0.59 l 0,6.958 z m 1.206,0 0,-7.13 c 4.093,-0.454 7.388,0.437 7.388,0.437 l 6.022,6.693 -13.41,0 z m 16.192,4.976 0,-3.219 c 0,0 1.05,0.701 1.902,1.755 l 0.587,1.464 -2.489,0 z"
     clip-path="url(#SVGID_2_)"
     transform="matrix(0,-2.9,2.9,0,-338.16031,799.28243)" /><path
     style="fill:#f78e1e"
     inkscape:connector-curvature="0"
     id="path9667"
     d="m 235.396,143.58 c -1.833,0 -3.32,1.485 -3.32,3.318 0,1.833 1.487,3.32 3.32,3.32 1.834,0 3.32,-1.487 3.32,-3.32 0,-1.833 -1.486,-3.318 -3.32,-3.318 m 0,4.978 c -0.917,0 -1.661,-0.743 -1.661,-1.66 0,-0.916 0.744,-1.659 1.661,-1.659 0.917,0 1.66,0.743 1.66,1.659 0,0.917 -0.743,1.66 -1.66,1.66"
     clip-path="url(#SVGID_2_)"
     transform="matrix(0,-2.9,2.9,0,-338.16031,799.28243)" /><g
     id="g10009"
     transform="matrix(0,-2.9,2.9,0,-338.16031,799.28243)"><g
       id="g10011" /></g><g
     inkscape:groupmode="layer"
     id="layer2"
     inkscape:label="color"
     style="display:none"><rect
       style="fill:#ffd200"
       x="1.4359756"
       y="3.359246"
       transform="matrix(0.99999422,-0.00339998,0.00339998,0.99999422,0,0)"
       width="986.57697"
       height="723.5542"
       id="rect9501" /></g><g
     inkscape:groupmode="layer"
     id="layer3"
     inkscape:label="markers"
     style="display:none"><rect
       style="fill:none;stroke:#000000;stroke-width:2.9000001;stroke-miterlimit:3.86400008"
       x="-726.89844"
       y="1.4499966"
       stroke-miterlimit="3.864"
       width="723.4021"
       height="986.45819"
       id="rect9981"
       transform="matrix(0,-1,1,0,0,0)" /><polygon
       style="fill:none;stroke:#000000;stroke-miterlimit:3.86400008"
       stroke-miterlimit="3.864"
       points="139.212,367.073 161.914,366.994 161.992,389.594 139.291,389.673 139.445,435.07 184.844,434.914 184.768,412.217 207.467,412.139 207.544,434.838 230.146,434.76 230.067,412.061 229.989,389.362 252.689,389.283 252.612,366.683 229.914,366.762 229.835,344.061 207.235,344.139 207.158,321.438 184.458,321.517 184.536,344.216 161.835,344.295 161.757,321.595 139.058,321.673 139.135,344.371 "
       id="polygon9509"
       transform="matrix(0,-2.9,2.9,0,-338.16031,799.28243)" /><polygon
       style="fill:none;stroke:#000000;stroke-miterlimit:3.86400008"
       stroke-miterlimit="3.864"
       points="48.591,390.081 71.291,390.005 71.213,367.406 48.514,367.482 48.358,322.082 93.758,321.927 93.835,344.627 116.536,344.548 116.458,321.85 139.058,321.772 139.135,344.47 139.213,367.172 161.913,367.093 161.991,389.693 139.29,389.772 139.368,412.471 116.768,412.549 116.846,435.248 94.146,435.326 94.069,412.625 71.369,412.704 71.447,435.402 48.746,435.482 48.669,412.781 "
       id="polygon9511"
       transform="matrix(0,-2.9,2.9,0,-338.16031,799.28243)" /><polygon
       style="fill:none;stroke:#000000;stroke-miterlimit:3.86400008"
       stroke-miterlimit="3.864"
       points="252.202,275.884 229.502,275.962 229.58,298.562 252.278,298.484 252.435,343.884 207.034,344.039 206.957,321.341 184.256,321.418 184.335,344.117 161.735,344.192 161.657,321.495 161.58,298.795 138.879,298.873 138.802,276.271 161.503,276.193 161.424,253.495 184.024,253.418 183.946,230.719 206.646,230.642 206.723,253.34 229.423,253.264 229.346,230.562 252.046,230.485 252.125,253.185 "
       id="polygon9513"
       transform="matrix(0,-2.9,2.9,0,-338.16031,799.28243)" /><polygon
       style="fill:none;stroke:#000000;stroke-miterlimit:3.86400008"
       stroke-miterlimit="3.864"
       points="138.591,185.672 161.292,185.594 161.371,208.194 138.669,208.273 138.824,253.672 184.223,253.518 184.146,230.817 206.846,230.739 206.924,253.438 229.524,253.362 229.446,230.661 229.369,207.962 252.068,207.883 251.991,185.283 229.292,185.362 229.214,162.661 206.614,162.739 206.536,140.041 183.837,140.117 183.915,162.816 161.214,162.896 161.137,140.196 138.437,140.273 138.514,162.971 "
       id="polygon9515"
       transform="matrix(0,-2.9,2.9,0,-338.16031,799.28243)" /><polygon
       style="fill:none;stroke:#000000;stroke-miterlimit:3.86400008"
       stroke-miterlimit="3.864"
       points="48.125,253.983 48.203,276.682 70.903,276.604 70.98,299.304 48.281,299.384 48.358,321.983 93.758,321.828 93.835,344.526 116.436,344.45 116.358,321.75 161.758,321.595 161.681,298.995 138.98,299.073 138.902,276.372 161.603,276.295 161.524,253.594 116.125,253.749 116.047,231.051 93.447,231.129 93.525,253.827 "
       id="polygon9517"
       transform="matrix(0,-2.9,2.9,0,-338.16031,799.28243)" /><polygon
       style="fill:none;stroke:#000000;stroke-miterlimit:3.86400008"
       stroke-miterlimit="3.864"
       points="138.436,140.173 115.737,140.253 115.814,162.951 93.114,163.027 93.036,140.329 70.436,140.407 70.592,185.805 47.892,185.883 47.969,208.483 70.669,208.407 70.824,253.804 93.424,253.728 93.346,231.028 116.047,230.951 116.125,253.649 138.824,253.573 138.669,208.173 161.369,208.094 161.292,185.495 138.591,185.573 "
       id="polygon9519"
       transform="matrix(0,-2.9,2.9,0,-338.16031,799.28243)" /></g><g
     inkscape:groupmode="layer"
     id="layer1"
     inkscape:label="Layer 1" /></svg>