<?xml version="1.0" encoding="UTF-8" standalone="no"?>
<!-- Generator: Adobe Illustrator 16.0.0, SVG Export Plug-In . SVG Version: 6.00 Build 0)  -->

<svg
   xmlns:dc="http://purl.org/dc/elements/1.1/"
   xmlns:cc="http://creativecommons.org/ns#"
   xmlns:rdf="http://www.w3.org/1999/02/22-rdf-syntax-ns#"
   xmlns:svg="http://www.w3.org/2000/svg"
   xmlns="http://www.w3.org/2000/svg"
   xmlns:xlink="http://www.w3.org/1999/xlink"
   xmlns:sodipodi="http://sodipodi.sourceforge.net/DTD/sodipodi-0.dtd"
   xmlns:inkscape="http://www.inkscape.org/namespaces/inkscape"
   version="1.1"
   id="Layer_1"
   x="0px"
   y="0px"
   width="989.35571"
   height="726.30237"
   viewBox="0 0 989.35567 726.30234"
   enable-background="new 0 0 595.275 841.89"
   xml:space="preserve"
   inkscape:version="0.91 r13725"
   sodipodi:docname="nlg_animals.svg"><metadata
     id="metadata6836"><rdf:RDF><cc:Work
         rdf:about=""><dc:format>image/svg+xml</dc:format><dc:type
           rdf:resource="http://purl.org/dc/dcmitype/StillImage" /><dc:title></dc:title></cc:Work></rdf:RDF></metadata><defs
     id="defs6834" /><sodipodi:namedview
     pagecolor="#ffffff"
     bordercolor="#666666"
     borderopacity="1"
     objecttolerance="10"
     gridtolerance="10"
     guidetolerance="10"
     inkscape:pageopacity="0"
     inkscape:pageshadow="2"
     inkscape:window-width="1750"
     inkscape:window-height="989"
     id="namedview6832"
     showgrid="false"
     fit-margin-top="0"
     fit-margin-left="0"
     fit-margin-right="0"
     fit-margin-bottom="0"
     inkscape:zoom="0.5606433"
     inkscape:cx="164.21763"
     inkscape:cy="385.41582"
     inkscape:window-x="1448"
     inkscape:window-y="6"
     inkscape:window-maximized="0"
     inkscape:current-layer="layer5" /><g
     inkscape:groupmode="layer"
     id="layer5"
     inkscape:label="color"
     style="display:none"
     transform="translate(324.21535,237.26735)"><rect
       style="fill:#c1d82f"
       x="-321.62985"
       y="-237.50862"
       transform="matrix(0.99999748,0.00229999,-0.00229999,0.99999748,0,0)"
       width="986.57996"
       height="723.55499"
       id="rect6086" /></g><g
     inkscape:groupmode="layer"
     id="layer4"
     inkscape:label="Layer 1"
     transform="translate(324.21535,237.26735)"
     style="display:inline"><g
       id="g6142"
       transform="matrix(0,-2.9000006,2.9000006,0,-639.90362,558.97714)"><defs
         id="defs6144"><rect
           id="SVGID_1_"
           x="0.001"
           y="-0.001"
           width="595.27399"
           height="841.89001" /></defs><clipPath
         id="SVGID_2_"><use
           height="100%"
           width="100%"
           y="0"
           x="0"
           style="overflow:visible"
           xlink:href="#SVGID_1_"
           overflow="visible"
           id="use6148" /></clipPath><path
         style="fill:#008fc5"
         inkscape:connector-curvature="0"
         clip-path="url(#SVGID_2_)"
         d="m 221.436,283.021 c 0.018,-0.034 0.039,-0.064 0.057,-0.097 l -0.119,0.003 c -3.408,-5.36 -9.487,-9.36 -16.773,-10.869 -1.401,-3.088 -3.683,-5.801 -7.302,-8.444 -6.722,-4.912 -11.403,-3.665 -11.403,-3.665 0,0 7.69,-0.113 11.102,6.115 1.021,1.869 1.634,3.713 2.011,5.345 -0.61,-0.015 -1.224,-0.019 -1.844,-10e-4 -8.037,0.235 -15.146,3.374 -19.876,8.135 0,0 -0.867,-1.977 -1.73,-2.72 -3.482,-2.994 -6.585,-3.92 -7.926,-4.023 0.072,0.041 0.141,0.084 0.208,0.128 0.835,0.217 2.224,0.746 3.638,2.027 -1.707,-1.272 -3.177,-1.782 -3.177,-1.782 0,0 0.035,0.045 0.096,0.13 2.961,2.164 5.028,6.26 5.181,11.016 l -0.03,10e-4 c 0.01,0.016 0.023,0.03 0.033,0.045 0.001,0.037 -0.003,0.071 -0.002,0.105 -0.008,0.015 -0.017,0.028 -0.025,0.04 l 0.024,-10e-4 c 0.092,4.458 -1.528,8.427 -4.08,10.803 -0.272,0.417 -0.449,0.652 -0.454,0.662 -0.249,0.101 -0.468,0.174 -0.656,0.23 -0.057,0.041 -0.119,0.078 -0.176,0.115 1.25,-0.152 4.721,-0.894 7.781,-4.491 0.732,-0.859 1.229,-1.806 1.573,-2.732 l -0.001,-0.035 c 4.868,4.36 11.904,7.042 19.692,6.963 -3.334,5.394 -10.146,5.695 -10.146,5.695 0,0 4.748,0.973 11.171,-4.322 0.607,-0.502 1.173,-1.003 1.701,-1.505 9.568,-0.895 17.577,-5.919 21.395,-12.775 l 0.119,-0.004 c -0.019,-0.03 -0.042,-0.061 -0.062,-0.092 m -9.949,0.194 c -1.458,0.042 -2.681,-1.337 -2.731,-3.081 -0.051,-1.743 1.089,-3.19 2.547,-3.233 1.458,-0.042 2.681,1.337 2.732,3.079 0.051,1.745 -1.089,3.193 -2.548,3.235"
         id="path6150" /><path
         style="clip-rule:evenodd;fill:#008fc5;fill-rule:evenodd"
         inkscape:connector-curvature="0"
         clip-path="url(#SVGID_2_)"
         d="m 124.67,367.657 c -1.85,-2.498 -1.081,-4.433 -0.729,-5.232 0.325,-0.746 -0.943,-2.024 -4.763,-4.219 1.084,-1.499 2.474,-3.702 3.76,-6.566 3.134,-6.75 -0.243,-9.847 -2.596,-8.248 -2.355,1.639 -5.596,6.539 -6.199,12.514 -0.014,0.147 -0.025,0.281 -0.038,0.421 -3.075,-0.412 -5.673,0.307 -5.673,0.307 l -0.275,0.035 c -0.172,-1.696 -0.542,-3.74 -1.284,-6.022 -2.511,-7.88 -8.82,-7.973 -9.931,-4.756 -1.11,3.256 -0.504,9.837 3.775,14.88 0.624,0.706 1.179,1.282 1.671,1.755 -0.064,0.147 -0.128,0.286 -0.189,0.442 -0.87,2.31 -1.287,4.945 -0.974,7.472 -1.255,-0.719 -2.781,-1.509 -4.79,-1.872 -3.221,-0.578 -10.283,-0.274 -13.766,7.317 -2.199,4.789 -2.174,8.77 -1.167,11.646 -0.378,-0.27 -0.777,-0.492 -1.154,-0.562 -1.286,-0.237 -1.429,0.583 -1,1.814 0.717,2.045 2.298,3.442 4.225,4.17 2.338,0.887 5.437,0.063 7.094,-0.515 0.522,-0.163 0.966,-0.349 1.312,-0.517 -0.421,1.121 -0.053,1.555 -0.053,1.555 l 13.701,-0.205 c 0,0 0.015,-0.065 0.027,-0.17 l 4.679,-0.07 c 0,0 0.162,-0.687 -0.704,-1.36 -0.868,-0.672 -2.239,-0.824 -2.239,-0.824 0,0 -0.192,-0.187 -0.509,-0.972 4.866,-2.485 7.999,-7.952 8.988,-9.889 3.182,-0.603 5.914,-2.102 7.483,-3.592 2.931,-2.713 3.168,-6.296 1.318,-8.737 m -11.768,3.31 c -1.277,0.208 -2.334,-1.043 -2.361,-2.797 -0.026,-1.753 0.99,-3.31 2.268,-3.476 1.28,-0.167 2.335,1.085 2.361,2.795 0.026,1.711 -0.988,3.267 -2.268,3.478 m 11.041,1.461 c -0.454,0.605 -1.199,1.005 -1.972,0.517 -0.303,-0.193 -0.439,-0.242 -0.648,-0.381 -0.195,-0.133 -0.449,-0.355 -0.506,-0.606 -0.104,-0.421 0.402,-1.037 1.561,-1.348 0.563,-0.149 1.01,-0.252 1.375,-0.328 1.314,-0.269 1.183,0.42 1.051,0.753 -0.132,0.326 -0.425,0.812 -0.861,1.393"
         id="path6152" /><path
         style="fill:#008fc5"
         inkscape:connector-curvature="0"
         clip-path="url(#SVGID_2_)"
         d="m 117.188,191.248 c 2.138,-0.84 4.302,-2.193 6.262,-4.047 5.805,-5.476 7.668,-13.148 4.17,-17.13 -3.497,-3.984 -11.035,-2.772 -16.834,2.702 -2.361,2.232 -4.057,4.826 -5.017,7.387 -0.337,-1.042 -0.731,-1.815 -1.165,-2.238 1.292,-0.3 2.268,-1.481 2.283,-2.914 0.008,-0.708 -0.229,-1.353 -0.619,-1.874 l 3.94,-7.185 -1.097,-0.644 -3.83,6.983 c -0.385,-0.2 -0.815,-0.325 -1.276,-0.331 -0.483,-0.004 -0.935,0.125 -1.342,0.338 l -3.699,-7.098 -1.111,0.622 3.817,7.33 c -0.371,0.499 -0.603,1.119 -0.611,1.797 -0.015,1.369 0.857,2.52 2.053,2.906 -0.423,0.368 -0.821,1.059 -1.173,2.004 -0.919,-2.496 -2.51,-5.024 -4.743,-7.228 -5.688,-5.596 -13.196,-6.968 -16.779,-3.059 -3.582,3.907 -1.878,11.616 3.804,17.216 1.925,1.895 4.059,3.294 6.178,4.179 -1.171,0.792 -2.302,1.804 -3.321,3.021 -4.012,4.796 -4.782,10.917 -1.719,13.67 3.061,2.758 8.798,1.104 12.808,-3.69 1.409,-1.684 2.402,-3.527 2.984,-5.331 0.569,2.72 1.429,4.455 2.413,4.465 1.032,0.011 1.969,-1.874 2.595,-4.817 0.517,1.944 1.513,3.958 2.986,5.799 3.909,4.88 9.608,6.653 12.726,3.964 3.123,-2.69 2.481,-8.825 -1.426,-13.704 -0.995,-1.24 -2.104,-2.275 -3.257,-3.093 m -16.74,-0.964 c -0.026,2.535 0.138,4.895 0.44,6.887 -0.37,0.719 -0.831,1.428 -1.395,2.102 -2.808,3.356 -6.821,4.512 -8.964,2.584 -2.144,-1.928 -1.607,-6.213 1.202,-9.569 0.714,-0.854 1.507,-1.562 2.325,-2.116 -1.483,-0.619 -2.977,-1.6 -4.323,-2.926 -3.98,-3.921 -5.17,-9.315 -2.663,-12.05 2.505,-2.736 7.764,-1.779 11.74,2.143 1.168,1.15 2.079,2.429 2.741,3.729 -0.643,2.319 -1.065,5.584 -1.103,9.216 m 16.167,11.85 c -2.184,1.883 -6.172,0.642 -8.909,-2.774 -0.55,-0.685 -0.987,-1.405 -1.345,-2.135 0.346,-1.983 0.561,-4.337 0.587,-6.872 0.038,-3.638 -0.313,-6.918 -0.908,-9.254 0.688,-1.279 1.627,-2.531 2.815,-3.653 4.06,-3.836 9.337,-4.683 11.785,-1.893 2.446,2.788 1.142,8.156 -2.919,11.99 -1.374,1.299 -2.887,2.248 -4.387,2.833 0.81,0.573 1.584,1.297 2.282,2.166 2.735,3.415 3.183,7.711 0.999,9.592"
         id="path6154" /><path
         style="fill:#008fc5"
         inkscape:connector-curvature="0"
         clip-path="url(#SVGID_2_)"
         d="m 227.165,193.753 c -0.357,-0.517 -1.124,-1.24 -1.124,-1.24 0,0 -0.121,2.977 -2.541,4.196 -2.421,1.218 -4.57,0.383 -5.056,-4.395 -0.01,-0.096 -0.017,-0.191 -0.027,-0.289 l 0.039,-0.078 c 0,0 -0.013,-0.004 -0.046,-0.002 -0.039,-0.452 -0.065,-0.911 -0.083,-1.372 l 0.031,-0.06 c 0,0 -0.009,-0.002 -0.035,-0.002 -0.009,-0.338 -0.017,-0.678 -0.019,-1.016 l 0.055,-0.107 c 0,0 -0.015,-0.004 -0.054,-0.002 0,-0.309 0.003,-0.615 0.007,-0.922 l 0.054,-0.104 c 0,0 -0.014,-0.003 -0.051,-0.002 0.083,-3.56 0.609,-6.82 0.764,-7.645 0.212,-1.127 -0.187,-2.874 -2.078,-4.426 -0.042,-0.035 -0.087,-0.073 -0.134,-0.112 0.045,-0.004 0.053,-0.006 0.053,-0.006 l -4.44,-4.288 c 0,0 -0.021,0.029 -0.07,0.08 -1.585,-1.486 -3.26,-2.952 -4.653,-3.79 -3.018,-1.815 -4.572,0.537 -8.449,4.827 -0.112,0.121 -0.218,0.244 -0.326,0.363 -0.033,0.038 -0.066,0.076 -0.097,0.113 -0.071,0.083 -0.143,0.165 -0.212,0.247 l -0.112,0.131 c -0.065,0.076 -0.128,0.151 -0.19,0.227 -0.037,0.045 -0.073,0.09 -0.106,0.132 -0.075,0.087 -0.145,0.176 -0.216,0.264 -0.059,0.073 -0.116,0.147 -0.175,0.221 -0.041,0.053 -0.081,0.103 -0.12,0.156 -0.053,0.068 -0.107,0.136 -0.158,0.203 l -0.077,0.105 c -0.057,0.076 -0.112,0.149 -0.169,0.223 -0.01,0.016 -0.021,0.031 -0.031,0.046 -0.457,0.622 -0.846,1.203 -1.173,1.732 -0.357,-0.004 -3.718,-0.066 -5.952,-0.84 -2.362,-0.819 -4.104,-1.272 -4.216,-1.219 -3.616,-0.772 -8.009,0.027 -10.42,2.835 -1.925,2.242 -4.861,6.954 -4.769,11.699 l -0.002,0 -0.057,9.276 0.972,0.006 0.031,-5.222 c 0.47,0.976 1.123,1.923 2.018,2.813 3.238,3.223 4.811,4.778 5.584,5.534 l -0.029,4.736 5.612,0.034 0.025,-4.024 1.529,0.009 -0.025,4.024 5.611,0.034 0.025,-4.023 1.529,0.008 -0.024,4.024 5.611,0.034 0.025,-4.024 1.529,0.009 -0.025,4.025 5.609,0.034 0.041,-6.84 c 0,0 -0.093,-1.698 0.064,-2.665 0.266,-0.869 0.967,-3.603 1.139,-4.114 l 0.14,-0.414 c 0.162,-0.473 0.284,-0.799 0.373,-1.025 0.076,-0.017 0.148,-0.037 0.222,-0.056 0.01,-0.002 0.022,-0.004 0.032,-0.006 0.125,-0.031 0.249,-0.066 0.37,-0.102 0.026,-0.008 0.051,-0.013 0.076,-0.021 0.119,-0.036 0.239,-0.072 0.356,-0.112 0.016,-0.006 0.035,-0.012 0.051,-0.018 0.114,-0.036 0.222,-0.075 0.33,-0.113 0.013,-0.004 0.029,-0.01 0.043,-0.016 0.113,-0.042 0.225,-0.086 0.338,-0.129 0.021,-0.01 0.043,-0.018 0.064,-0.028 0.11,-0.043 0.218,-0.091 0.325,-0.137 0.012,-0.004 0.024,-0.01 0.035,-0.016 0.102,-0.044 0.2,-0.09 0.298,-0.135 0.015,-0.008 0.031,-0.014 0.047,-0.022 0.103,-0.048 0.202,-0.097 0.298,-0.146 0.022,-0.011 0.039,-0.021 0.059,-0.03 0.099,-0.05 0.194,-0.101 0.291,-0.151 0.005,-0.003 0.009,-0.006 0.013,-0.008 0.094,-0.051 0.182,-0.099 0.27,-0.152 0.016,-0.009 0.031,-0.016 0.047,-0.026 0.088,-0.05 0.174,-0.102 0.258,-0.152 0.016,-0.008 0.03,-0.019 0.048,-0.027 0.17,-0.105 0.333,-0.21 0.489,-0.312 0.014,-0.01 0.027,-0.018 0.041,-0.027 0.074,-0.051 0.147,-0.099 0.215,-0.147 0.012,-0.007 0.022,-0.015 0.034,-0.023 0.068,-0.047 0.137,-0.096 0.201,-0.141 0.002,-0.003 0.004,-0.006 0.008,-0.007 0.067,-0.049 0.129,-0.095 0.19,-0.142 0.012,-0.007 0.022,-0.017 0.034,-0.025 0.058,-0.045 0.116,-0.086 0.171,-0.129 0.008,-0.006 0.014,-0.012 0.022,-0.018 0.05,-0.04 0.099,-0.079 0.148,-0.116 0.004,-0.006 0.01,-0.009 0.014,-0.013 0.052,-0.041 0.097,-0.078 0.14,-0.115 0.008,-0.006 0.016,-0.013 0.026,-0.02 0.041,-0.035 0.082,-0.069 0.117,-0.102 0.006,-0.003 0.01,-0.008 0.014,-0.011 0.035,-0.03 0.066,-0.059 0.098,-0.085 0.004,-0.004 0.009,-0.007 0.013,-0.013 0.032,-0.027 0.059,-0.053 0.085,-0.076 0.004,-0.004 0.01,-0.008 0.015,-0.012 0.024,-0.023 0.045,-0.043 0.065,-0.061 0.002,-0.002 0.004,-0.003 0.006,-0.005 0.018,-0.016 0.031,-0.032 0.045,-0.043 0.002,-0.005 0.006,-0.006 0.008,-0.007 0.012,-0.012 0.021,-0.021 0.027,-0.029 l 0.006,-0.006 0.008,-0.006 c 0,0 -0.418,1.435 0.539,4.417 0.956,2.985 2.684,5.974 6.434,5.842 4.237,-0.148 6.339,-4.224 6.339,-4.224 0,0 0.002,-0.358 -0.352,-0.873 m -14.94,-12.271 c -1.033,-0.007 -1.866,-1.141 -1.858,-2.535 0.009,-1.396 0.856,-2.519 1.889,-2.513 1.035,0.006 1.866,1.14 1.857,2.534 -0.008,1.395 -0.853,2.52 -1.888,2.514"
         id="path6156" /><path
         style="fill:#008fc5"
         inkscape:connector-curvature="0"
         clip-path="url(#SVGID_2_)"
         d="m 184.932,349.94 c 0.353,-0.447 1.923,-2.291 5.772,-5.075 0.036,-0.025 0.065,-0.046 0.099,-0.071 -1.572,-0.624 -3.524,-1.015 -5.66,-1.044 -2.211,-0.031 -4.234,0.328 -5.852,0.944 0.004,0.004 0.01,0.006 0.014,0.01 3.765,2.892 5.285,4.778 5.627,5.236"
         id="path6158" /><path
         style="fill:#008fc5"
         inkscape:connector-curvature="0"
         clip-path="url(#SVGID_2_)"
         d="m 218.24,389.525 c 0,0 -2.102,-9.291 -11.344,-22.235 -3.597,-5.038 -6.819,-7.926 -9.033,-9.529 2.548,-4.589 -0.545,-8.802 -1.593,-9.8 l -1.109,-1.051 1.517,-3.603 c 0,0 -0.272,0.103 -0.911,0.454 l -0.009,0.006 c -0.32,0.176 -0.73,0.414 -1.242,0.732 -0.008,0.003 -0.016,0.009 -0.022,0.013 -0.25,0.155 -0.526,0.331 -0.826,0.526 -0.01,0.007 -0.017,0.013 -0.029,0.019 -0.31,0.203 -0.646,0.426 -1.009,0.676 l -0.002,-0.002 c -0.579,0.395 -1.227,0.848 -1.956,1.376 -3.849,2.783 -5.419,4.628 -5.771,5.075 -0.343,-0.457 -1.862,-2.347 -5.628,-5.236 -0.664,-0.51 -1.258,-0.952 -1.797,-1.343 -2.987,-2.168 -4.102,-2.625 -4.102,-2.625 l 1.417,3.646 -1.138,1.018 c -1.135,1.02 -4.65,5.544 -1.443,10.506 1.823,2.819 5.637,4.077 8.597,4.639 -0.186,2.986 0.409,6.767 3.015,10.956 4.265,6.858 8.825,9.322 13.073,10.76 l -0.078,5.452 -3.082,5.956 1.028,0.531 3.229,-6.24 -0.112,-0.057 0.091,0 0.075,-5.272 c 1.335,0.407 2.63,0.744 3.871,1.114 l -0.057,4.04 -3.084,5.955 1.028,0.532 3.233,-6.241 -0.113,-0.058 0.092,0.001 0.055,-3.883 c 2.122,0.635 3.602,0.905 4.593,0.998 0.845,1.154 1.667,2.252 2.379,3.152 3.166,4.013 6.802,4.23 6.802,4.23 l -3.459,-7.526 c 2.925,1.568 4.854,2.338 4.854,2.338 m -39.541,-35.511 c -1.406,-0.021 -2.53,-1.177 -2.509,-2.582 0.02,-1.406 1.174,-2.53 2.581,-2.51 1.405,0.02 2.528,1.177 2.507,2.582 -0.019,1.405 -1.173,2.529 -2.579,2.51 m 8.21,2.963 c -0.348,0.166 -1.137,1.018 -1.671,2.219 -0.162,0.366 -0.277,0.651 -0.356,0.873 l -0.021,0.673 c 0,0 -10e-4,-0.099 -0.076,-0.375 -0.083,0.274 -0.084,0.373 -0.084,0.373 l -0.006,-0.673 c -0.074,-0.224 -0.18,-0.512 -0.332,-0.884 -0.501,-1.214 -1.265,-2.088 -1.608,-2.265 -0.342,-0.179 -0.153,-1.298 0.731,-2.923 0.441,-0.808 0.854,-1.169 1.159,-1.329 l -0.003,-0.122 c 0,0 0.094,-0.018 0.254,0.026 0.156,-0.04 0.252,-0.018 0.252,-0.018 l -0.005,0.121 c 0.299,0.168 0.7,0.54 1.116,1.361 0.84,1.65 0.999,2.773 0.65,2.943 m 4.138,-2.79 c -1.406,-0.021 -2.529,-1.176 -2.509,-2.581 0.02,-1.405 1.175,-2.53 2.581,-2.51 1.407,0.02 2.528,1.176 2.508,2.582 -0.019,1.405 -1.174,2.53 -2.58,2.509"
         id="path6160" /><path
         style="fill:#008fc5"
         inkscape:connector-curvature="0"
         clip-path="url(#SVGID_2_)"
         d="m 102.926,265.746 c -0.175,0.001 -0.448,1.187 -0.434,2.646 0.015,1.459 0.342,2.609 0.486,2.607 0.147,-0.001 0.45,-1.156 0.436,-2.615 -0.014,-1.461 -0.313,-2.639 -0.488,-2.638"
         id="path6162" /><path
         style="fill:#008fc5"
         inkscape:connector-curvature="0"
         clip-path="url(#SVGID_2_)"
         d="m 132.134,275.915 c -0.004,0 -0.141,-0.013 -0.384,-0.047 -0.341,-0.092 -1.082,-0.37 -2.341,-1.233 -0.807,-0.554 -1.282,-0.981 -1.547,-1.27 1.417,0.511 2.442,0.743 2.485,0.752 l 0.283,-0.785 c -0.032,-0.017 -3.307,-1.748 -5.83,-7.783 -2.498,-5.983 2.544,-10.902 2.595,-10.952 l -0.42,-0.706 c -0.21,0.068 -5.198,1.661 -7.441,2.784 l -2.1,1.051 c -0.535,-0.135 -2.348,-0.589 -3.331,-0.804 -1.183,-0.261 -2.93,-0.412 -4.559,-0.396 -0.936,0.009 -2.65,0.087 -3.594,0.499 -0.897,0.391 -2.724,0.758 -3.228,0.855 l -2.139,-1.016 c -2.264,-1.078 -7.283,-2.573 -7.496,-2.636 l -0.403,0.714 c 0.051,0.049 5.191,4.866 2.809,10.898 -2.401,6.084 -5.639,7.879 -5.672,7.897 l 0.298,0.78 c 0.043,-0.01 1.062,-0.262 2.467,-0.799 -0.258,0.291 -0.725,0.729 -1.519,1.298 -1.241,0.888 -1.978,1.181 -2.316,1.279 -0.244,0.04 -0.381,0.055 -0.384,0.055 l -0.013,0.836 0.113,0.007 c 0.09,-10e-4 0.242,-0.014 0.464,-0.074 0.582,-0.096 1.757,-0.32 3.233,-0.755 0.541,-0.16 1.029,-0.281 1.419,-0.355 -0.602,0.414 -1.22,0.867 -1.22,0.867 l 0.376,0.741 c 0.009,-0.003 0.88,-0.272 2.351,-0.287 1.393,-0.013 2.849,0.197 4.324,0.629 3.818,1.114 5.897,2.536 7.273,3.479 0.07,0.046 0.128,0.086 0.194,0.13 -0.096,0.097 -0.19,0.196 -0.291,0.286 -1.796,1.604 -4.24,2.398 -7.472,2.43 -1.756,0.018 -3.475,-0.182 -4.992,-0.359 -1.753,-0.204 -3.187,-0.346 -4.041,-0.15 -1.082,-0.162 -3.036,-0.639 -4.539,-2.041 -3.329,-3.1 -4.717,-6.126 -5.304,-11.56 -0.324,-2.988 -0.045,-5.977 0.785,-8.424 0.094,-0.157 0.152,-0.391 0.212,-0.717 0.111,-0.586 -0.13,-1.148 -0.561,-1.306 l -0.248,-0.043 c -0.379,0.004 -0.702,0.304 -0.827,0.763 -0.442,0.595 -3.364,4.774 -2.817,10.225 0.631,6.324 3.063,9.085 6.177,12.036 1.472,1.398 3.402,2.19 4.946,2.631 -1.52,2.047 -1.968,5.592 -1.044,8.767 0.304,1.048 0.61,1.81 0.878,2.482 0.487,1.218 0.84,2.099 0.928,3.928 0.138,2.89 -0.043,6.618 -0.045,6.657 l -0.023,0.446 2.555,-0.026 -0.01,-0.427 c -10e-4,-0.049 -0.123,-4.871 0.384,-7.291 0.105,-2.12 0.718,-3.189 1.032,-3.193 0.141,-0.001 0.447,0.289 0.751,1.172 0.201,0.345 0.409,0.796 0.445,1.501 0.137,2.895 -0.033,7.861 -0.035,7.912 l 0.006,0.44 2.53,-0.026 -0.012,-0.426 c 0,-0.033 -0.081,-3.37 0.115,-6.071 -0.014,-0.213 -0.023,-0.432 -0.026,-0.655 -0.024,-2.41 0.666,-3.891 1.049,-3.895 0.215,-0.002 0.724,0.638 1.001,2.269 0.083,0.215 0.13,0.483 0.147,0.821 0.139,2.896 -0.035,7.448 -0.036,7.494 l 0.012,0.441 2.093,-0.021 0.428,-0.004 -0.012,-0.427 c 0,-0.046 -0.107,-4.63 0.249,-7.353 0.075,-2.16 0.596,-3.199 0.777,-3.268 0.064,0.021 0.352,0.299 0.628,1.379 0.142,0.286 0.214,0.505 0.221,0.673 0.144,3.461 0.124,8.478 0.123,8.53 l -0.003,0.427 2.536,-0.026 -0.009,-0.426 c -0.001,-0.077 -0.164,-7.744 0.479,-10.22 0.219,-0.843 0.505,-1.577 0.853,-2.18 2.616,-2.383 4.394,-6.815 4.986,-12.224 0.053,-0.016 0.11,-0.033 0.156,-0.044 0.591,-0.169 1.166,-0.565 1.961,-1.114 1.364,-0.939 3.424,-2.359 7.155,-3.621 1.518,-0.514 2.964,-0.78 4.298,-0.794 1.497,-0.014 2.313,0.306 2.321,0.309 l 0.401,-0.735 c 0,0 -0.628,-0.44 -1.238,-0.842 0.394,0.066 0.881,0.178 1.426,0.327 1.483,0.405 2.662,0.606 3.245,0.69 0.223,0.055 0.376,0.065 0.467,0.064 l 0.112,-0.008 -0.03,-0.836 z m -35.825,-7.207 c -0.021,-2.075 2.813,-3.791 6.315,-3.826 3.504,-0.034 6.371,1.625 6.392,3.7 0.021,2.074 -2.813,3.79 -6.316,3.825 -3.502,0.034 -6.371,-1.625 -6.391,-3.699 m 19.775,7.478 c -0.348,0.861 -1.267,1.569 -1.995,1.822 -0.578,0.205 -0.847,0.29 -0.969,0.324 l -2.756,-0.981 c 0.76,-0.761 1.691,-3.602 1.691,-3.602 0,0 -0.593,-0.496 -1.97,-0.483 -1.375,0.014 -2.257,0.398 -2.257,0.398 0,0 1.036,2.835 1.827,3.652 l -2.545,1.073 c -0.125,-0.032 -0.396,-0.112 -0.97,-0.301 -0.691,-0.227 -1.61,-0.867 -1.998,-1.74 -0.216,-0.487 -0.223,-0.966 -0.017,-1.423 0.657,-1.477 3.158,-2.528 6.08,-2.558 2.216,-0.022 4.916,0.609 5.845,2.45 0.215,0.43 0.228,0.89 0.034,1.369 m 1.867,-3.931 c -3.502,0.035 -6.371,-1.625 -6.391,-3.699 -0.021,-2.074 2.814,-3.79 6.315,-3.825 3.504,-0.035 6.373,1.624 6.394,3.699 0.02,2.075 -2.814,3.79 -6.318,3.825"
         id="path6164" /><path
         style="fill:#008fc5"
         inkscape:connector-curvature="0"
         clip-path="url(#SVGID_2_)"
         d="m 118.177,265.595 c -0.176,10e-4 -0.448,1.187 -0.434,2.646 0.015,1.459 0.342,2.608 0.486,2.607 0.145,-0.001 0.45,-1.157 0.436,-2.616 -0.014,-1.46 -0.312,-2.639 -0.488,-2.637"
         id="path6166" /><path
         style="fill:#008fc5"
         inkscape:connector-curvature="0"
         clip-path="url(#SVGID_2_)"
         d="m 78.318,437.184 2.15,0 0,1.232 c 0,1.199 -0.951,2.15 -2.158,2.15 -0.952,0 -1.607,-0.561 -1.896,-1.088 -0.195,-0.356 -0.263,-0.535 -0.263,-1.988 0,-1.453 0.068,-1.633 0.263,-1.989 0.289,-0.526 0.944,-1.089 1.896,-1.089 1.147,0 1.938,0.809 2.124,1.795 l -0.969,0 c -0.144,-0.468 -0.577,-0.876 -1.155,-0.876 -0.434,0 -0.748,0.204 -0.935,0.442 -0.238,0.306 -0.306,0.476 -0.306,1.717 0,1.24 0.068,1.41 0.306,1.717 0.187,0.238 0.501,0.441 0.935,0.441 0.696,0 1.24,-0.526 1.24,-1.283 l 0,-0.314 -1.232,0 0,-0.867 z"
         id="path6168" /><path
         style="fill:#008fc5"
         inkscape:connector-curvature="0"
         clip-path="url(#SVGID_2_)"
         d="m 81.464,436.207 0.867,0 0,0.459 0.017,0 c 0.272,-0.34 0.663,-0.51 1.122,-0.51 0.348,0 0.637,0.127 0.901,0.33 l -0.629,0.748 c -0.204,-0.152 -0.349,-0.212 -0.57,-0.212 -0.425,0 -0.841,0.272 -0.841,0.901 l 0,2.592 -0.867,0 0,-4.308 z"
         id="path6170" /><path
         style="fill:#008fc5"
         inkscape:connector-curvature="0"
         clip-path="url(#SVGID_2_)"
         d="m 86.88,440.133 -0.017,0 c -0.178,0.298 -0.476,0.434 -1.063,0.434 -0.96,0 -1.521,-0.569 -1.521,-1.317 0,-0.688 0.476,-1.274 1.403,-1.274 l 1.198,0 0,-0.451 c 0,-0.407 -0.264,-0.552 -0.884,-0.552 -0.45,0 -0.663,0.085 -0.816,0.331 l -0.68,-0.518 c 0.332,-0.459 0.808,-0.629 1.454,-0.629 1.062,0 1.793,0.356 1.793,1.418 l 0,2.941 -0.867,0 0,-0.383 z m 0,-1.445 -1.037,0 c -0.51,0 -0.748,0.204 -0.748,0.519 0,0.289 0.23,0.544 0.816,0.544 0.722,0 0.969,-0.077 0.969,-0.748 l 0,-0.315 z"
         id="path6172" /><path
         style="fill:#008fc5"
         inkscape:connector-curvature="0"
         clip-path="url(#SVGID_2_)"
         d="m 88.869,436.207 0.867,0 0,0.45 c 0.271,-0.298 0.671,-0.501 1.113,-0.501 0.527,0 0.909,0.237 1.156,0.562 0.238,0.305 0.306,0.585 0.306,1.647 0,1.055 -0.068,1.334 -0.306,1.641 -0.247,0.322 -0.629,0.561 -1.156,0.561 -0.442,0 -0.79,-0.203 -1.113,-0.51 l 0,2.201 -0.867,0 0,-6.051 z m 2.575,2.158 c 0,-0.672 -0.042,-1.343 -0.858,-1.343 -0.808,0 -0.85,0.714 -0.85,1.343 0,0.621 0.042,1.334 0.85,1.334 0.816,0 0.858,-0.671 0.858,-1.334"
         id="path6174" /><path
         style="fill:#008fc5"
         inkscape:connector-curvature="0"
         clip-path="url(#SVGID_2_)"
         d="m 93.281,434.465 0.867,0 0,2.201 0.017,0 c 0.272,-0.34 0.663,-0.51 1.122,-0.51 0.671,0 1.436,0.518 1.436,1.496 l 0,2.863 -0.867,0 0,-2.566 c 0,-0.587 -0.366,-0.927 -0.85,-0.927 -0.493,0 -0.858,0.34 -0.858,0.927 l 0,2.566 -0.867,0 0,-6.05 z"
         id="path6176" /><path
         style="fill:#008fc5"
         inkscape:connector-curvature="0"
         clip-path="url(#SVGID_2_)"
         d="m 97.871,434.465 0.867,0 0,0.866 -0.867,0 0,-0.866 z m 0,1.742 0.867,0 0,4.309 -0.867,0 0,-4.309 z"
         id="path6178" /><path
         style="fill:#008fc5"
         inkscape:connector-curvature="0"
         clip-path="url(#SVGID_2_)"
         d="m 103.055,439.818 c -0.374,0.434 -0.892,0.748 -1.547,0.748 -0.994,0 -1.954,-0.629 -1.954,-2.201 0,-1.58 0.96,-2.209 1.954,-2.209 0.655,0 1.173,0.314 1.547,0.747 l -0.637,0.569 c -0.213,-0.264 -0.519,-0.45 -0.876,-0.45 -0.705,0 -1.122,0.4 -1.122,1.343 0,0.936 0.417,1.334 1.122,1.334 0.357,0 0.663,-0.187 0.876,-0.45 l 0.637,0.569 z"
         id="path6180" /><path
         style="fill:#008fc5"
         inkscape:connector-curvature="0"
         clip-path="url(#SVGID_2_)"
         d="m 103.787,439.198 c 0.374,0.365 0.782,0.552 1.36,0.552 0.493,0 0.85,-0.187 0.85,-0.552 0,-0.306 -0.23,-0.399 -0.527,-0.425 l -0.765,-0.068 c -0.714,-0.059 -1.241,-0.484 -1.241,-1.224 0,-0.876 0.697,-1.325 1.606,-1.325 0.757,0 1.267,0.229 1.692,0.586 l -0.536,0.629 c -0.34,-0.237 -0.688,-0.399 -1.156,-0.399 -0.552,0 -0.739,0.221 -0.739,0.519 0,0.188 0.136,0.373 0.569,0.408 l 0.714,0.051 c 0.893,0.06 1.25,0.604 1.25,1.291 0,0.842 -0.782,1.326 -1.785,1.326 -0.697,0 -1.343,-0.255 -1.896,-0.773 l 0.604,-0.596 z"
         id="path6182" /><path
         style="fill:#008fc5"
         inkscape:connector-curvature="0"
         clip-path="url(#SVGID_2_)"
         d="m 112.618,434.413 c 1.7,0 3.077,1.377 3.077,3.077 0,1.699 -1.377,3.076 -3.077,3.076 -1.7,0 -3.077,-1.377 -3.077,-3.076 0,-1.7 1.376,-3.077 3.077,-3.077 m 0,5.542 c 1.386,0 2.414,-1.029 2.414,-2.465 0,-1.437 -1.028,-2.465 -2.414,-2.465 -1.385,0 -2.414,1.028 -2.414,2.465 0,1.436 1.029,2.465 2.414,2.465 m 1.666,-1.93 c -0.153,0.9 -0.756,1.428 -1.555,1.428 -1.156,0 -1.87,-0.842 -1.87,-1.963 0,-1.147 0.671,-1.963 1.844,-1.963 0.825,0 1.471,0.458 1.581,1.385 l -0.612,0 c -0.094,-0.451 -0.476,-0.773 -0.96,-0.773 -0.757,0 -1.19,0.604 -1.19,1.334 0,0.705 0.476,1.369 1.207,1.369 0.484,0 0.867,-0.34 0.943,-0.816 l 0.612,0 z"
         id="path6184" /><polygon
         style="fill:#008fc5"
         clip-path="url(#SVGID_2_)"
         points="119.613,437.057 122.01,437.057 122.01,434.465 122.928,434.465 122.928,440.516 122.01,440.516 122.01,437.873 119.613,437.873 119.613,440.516 118.695,440.516 118.695,434.465 119.613,434.465 "
         id="polygon6186" /><path
         style="fill:#008fc5"
         inkscape:connector-curvature="0"
         clip-path="url(#SVGID_2_)"
         d="m 126.388,440.133 -0.017,0 c -0.178,0.298 -0.476,0.434 -1.063,0.434 -0.96,0 -1.521,-0.569 -1.521,-1.317 0,-0.688 0.476,-1.274 1.403,-1.274 l 1.198,0 0,-0.451 c 0,-0.407 -0.264,-0.552 -0.884,-0.552 -0.45,0 -0.663,0.085 -0.816,0.331 l -0.68,-0.518 c 0.332,-0.459 0.808,-0.629 1.454,-0.629 1.062,0 1.793,0.356 1.793,1.418 l 0,2.941 -0.867,0 0,-0.383 z m 0,-1.445 -1.037,0 c -0.51,0 -0.748,0.204 -0.748,0.519 0,0.289 0.23,0.544 0.816,0.544 0.722,0 0.969,-0.077 0.969,-0.748 l 0,-0.315 z"
         id="path6188" /><path
         style="fill:#008fc5"
         inkscape:connector-curvature="0"
         clip-path="url(#SVGID_2_)"
         d="m 128.377,436.207 0.867,0 0,0.45 c 0.271,-0.298 0.671,-0.501 1.113,-0.501 0.527,0 0.909,0.237 1.156,0.562 0.238,0.305 0.306,0.585 0.306,1.647 0,1.055 -0.068,1.334 -0.306,1.641 -0.247,0.322 -0.629,0.561 -1.156,0.561 -0.442,0 -0.79,-0.203 -1.113,-0.51 l 0,2.201 -0.867,0 0,-6.051 z m 2.575,2.158 c 0,-0.672 -0.042,-1.343 -0.858,-1.343 -0.808,0 -0.85,0.714 -0.85,1.343 0,0.621 0.042,1.334 0.85,1.334 0.816,0 0.858,-0.671 0.858,-1.334"
         id="path6190" /><path
         style="fill:#008fc5"
         inkscape:connector-curvature="0"
         clip-path="url(#SVGID_2_)"
         d="m 132.789,436.207 0.867,0 0,0.45 c 0.271,-0.298 0.671,-0.501 1.113,-0.501 0.527,0 0.909,0.237 1.156,0.562 0.238,0.305 0.306,0.585 0.306,1.647 0,1.055 -0.068,1.334 -0.306,1.641 -0.247,0.322 -0.629,0.561 -1.156,0.561 -0.442,0 -0.79,-0.203 -1.113,-0.51 l 0,2.201 -0.867,0 0,-6.051 z m 2.575,2.158 c 0,-0.672 -0.042,-1.343 -0.858,-1.343 -0.808,0 -0.85,0.714 -0.85,1.343 0,0.621 0.042,1.334 0.85,1.334 0.816,0 0.858,-0.671 0.858,-1.334"
         id="path6192" /><path
         style="fill:#008fc5"
         inkscape:connector-curvature="0"
         clip-path="url(#SVGID_2_)"
         d="m 136.58,436.207 0.918,0 1.02,3.017 0.017,0 1.02,-3.017 0.918,0 -1.853,5.201 c -0.238,0.662 -0.688,0.85 -1.215,0.85 l -0.289,0 0,-0.816 0.255,0 c 0.221,0 0.433,-0.118 0.518,-0.373 l 0.238,-0.723 -1.547,-4.139 z"
         id="path6194" /><path
         style="fill:#008fc5"
         inkscape:connector-curvature="0"
         clip-path="url(#SVGID_2_)"
         d="m 142.725,439.699 2.363,-2.957 c 0.187,-0.238 0.221,-0.426 0.221,-0.604 0,-0.425 -0.315,-0.857 -0.833,-0.857 -0.468,0 -0.842,0.331 -0.884,0.876 l -0.867,0 c 0.008,-0.986 0.773,-1.743 1.683,-1.743 1.011,0 1.768,0.773 1.768,1.733 0,0.4 -0.111,0.748 -0.366,1.063 l -1.946,2.439 2.312,0 0,0.867 -3.451,0 0,-0.817 z"
         id="path6196" /><path
         style="fill:#008fc5"
         inkscape:connector-curvature="0"
         clip-path="url(#SVGID_2_)"
         d="m 146.856,436.156 c 0,-1.114 0.825,-1.743 1.717,-1.743 0.892,0 1.717,0.629 1.717,1.743 l 0,2.668 c 0,1.113 -0.825,1.742 -1.717,1.742 -0.892,0 -1.717,-0.629 -1.717,-1.742 l 0,-2.668 z m 2.567,0.051 c 0,-0.587 -0.34,-0.927 -0.85,-0.927 -0.51,0 -0.85,0.34 -0.85,0.927 l 0,2.566 c 0,0.586 0.34,0.926 0.85,0.926 0.51,0 0.85,-0.34 0.85,-0.926 l 0,-2.566 z"
         id="path6198" /><polygon
         style="fill:#008fc5"
         clip-path="url(#SVGID_2_)"
         points="153.129,434.465 153.129,440.516 152.262,440.516 152.262,435.383 151.404,436.012 151.404,435.094 152.262,434.465 "
         id="polygon6200" /><path
         style="fill:#008fc5"
         inkscape:connector-curvature="0"
         clip-path="url(#SVGID_2_)"
         d="m 154.965,439.699 2.363,-2.957 c 0.187,-0.238 0.221,-0.426 0.221,-0.604 0,-0.425 -0.315,-0.857 -0.833,-0.857 -0.468,0 -0.842,0.331 -0.884,0.876 l -0.867,0 c 0.008,-0.986 0.773,-1.743 1.683,-1.743 1.011,0 1.768,0.773 1.768,1.733 0,0.4 -0.111,0.748 -0.366,1.063 l -1.946,2.439 2.312,0 0,0.867 -3.451,0 0,-0.817 z"
         id="path6202" /><rect
         style="fill:#008fc5"
         x="159.36"
         y="439.64801"
         clip-path="url(#SVGID_2_)"
         width="0.86699998"
         height="0.86699998"
         id="rect6204" /><path
         style="fill:#008fc5"
         inkscape:connector-curvature="0"
         clip-path="url(#SVGID_2_)"
         d="m 166.594,439.164 -2.295,0 -0.468,1.352 -0.969,0 2.202,-6.051 0.765,0 2.201,6.051 -0.969,0 -0.467,-1.352 z m -0.264,-0.816 -0.875,-2.643 -0.018,0 -0.875,2.643 1.768,0 z"
         id="path6206" /><path
         style="fill:#008fc5"
         inkscape:connector-curvature="0"
         clip-path="url(#SVGID_2_)"
         d="m 168.6,434.465 0.867,0 0,4.938 c 0,0.194 0.111,0.296 0.323,0.296 l 0.297,0 0,0.816 -0.382,0 c -0.629,0 -1.105,-0.271 -1.105,-1.045 l 0,-5.005 z"
         id="path6208" /><path
         style="fill:#008fc5"
         inkscape:connector-curvature="0"
         clip-path="url(#SVGID_2_)"
         d="m 170.792,434.465 0.867,0 0,4.938 c 0,0.194 0.111,0.296 0.323,0.296 l 0.297,0 0,0.816 -0.382,0 c -0.629,0 -1.105,-0.271 -1.105,-1.045 l 0,-5.005 z"
         id="path6210" /><path
         style="fill:#008fc5"
         inkscape:connector-curvature="0"
         clip-path="url(#SVGID_2_)"
         d="m 175.025,436.207 0.867,0 0,0.459 0.017,0 c 0.272,-0.34 0.663,-0.51 1.122,-0.51 0.348,0 0.637,0.127 0.901,0.33 l -0.629,0.748 c -0.204,-0.152 -0.349,-0.212 -0.57,-0.212 -0.425,0 -0.841,0.272 -0.841,0.901 l 0,2.592 -0.867,0 0,-4.308 z"
         id="path6212" /><path
         style="fill:#008fc5"
         inkscape:connector-curvature="0"
         clip-path="url(#SVGID_2_)"
         d="m 178.357,434.465 0.867,0 0,0.866 -0.867,0 0,-0.866 z m 0,1.742 0.867,0 0,4.309 -0.867,0 0,-4.309 z"
         id="path6214" /><path
         style="fill:#008fc5"
         inkscape:connector-curvature="0"
         clip-path="url(#SVGID_2_)"
         d="m 182.795,440.064 c -0.272,0.299 -0.672,0.502 -1.114,0.502 -0.561,0 -0.944,-0.28 -1.139,-0.527 -0.246,-0.322 -0.323,-0.483 -0.323,-1.674 0,-1.198 0.077,-1.359 0.323,-1.683 0.195,-0.247 0.578,-0.526 1.139,-0.526 0.442,0 0.79,0.17 1.114,0.51 l 0,-0.459 0.866,0 0,4.207 c 0,1.3 -0.884,1.895 -1.869,1.895 -0.553,0 -1.114,-0.289 -1.496,-0.723 l 0.671,-0.535 c 0.212,0.214 0.51,0.391 0.841,0.391 0.578,0 0.987,-0.331 0.987,-0.934 l 0,-0.444 z m -1.539,-0.696 c 0.119,0.153 0.34,0.331 0.688,0.331 0.34,0 0.562,-0.178 0.68,-0.331 0.153,-0.195 0.171,-0.314 0.171,-1.003 0,-0.697 -0.018,-0.816 -0.171,-1.012 -0.118,-0.152 -0.34,-0.331 -0.68,-0.331 -0.348,0 -0.569,0.179 -0.688,0.331 -0.153,0.195 -0.17,0.314 -0.17,1.012 0,0.689 0.017,0.808 0.17,1.003"
         id="path6216" /><path
         style="fill:#008fc5"
         inkscape:connector-curvature="0"
         clip-path="url(#SVGID_2_)"
         d="m 184.784,434.465 0.867,0 0,2.201 0.017,0 c 0.272,-0.34 0.663,-0.51 1.122,-0.51 0.671,0 1.436,0.518 1.436,1.496 l 0,2.863 -0.867,0 0,-2.566 c 0,-0.587 -0.366,-0.927 -0.85,-0.927 -0.493,0 -0.858,0.34 -0.858,0.927 l 0,2.566 -0.867,0 0,-6.05 z"
         id="path6218" /><path
         style="fill:#008fc5"
         inkscape:connector-curvature="0"
         clip-path="url(#SVGID_2_)"
         d="m 189.399,434.897 0.867,0 0,1.31 0.629,0 0,0.662 -0.629,0 0,2.507 c 0,0.239 0.093,0.323 0.306,0.323 l 0.323,0 0,0.816 -0.451,0 c -0.603,0 -1.045,-0.383 -1.045,-1.063 l 0,-2.584 -0.433,0 0,-0.662 0.433,0 0,-1.309 z"
         id="path6220" /><path
         style="fill:#008fc5"
         inkscape:connector-curvature="0"
         clip-path="url(#SVGID_2_)"
         d="m 191.838,439.198 c 0.374,0.365 0.782,0.552 1.36,0.552 0.493,0 0.85,-0.187 0.85,-0.552 0,-0.306 -0.23,-0.399 -0.527,-0.425 l -0.765,-0.068 c -0.714,-0.059 -1.241,-0.484 -1.241,-1.224 0,-0.876 0.697,-1.325 1.606,-1.325 0.757,0 1.267,0.229 1.692,0.586 l -0.536,0.629 c -0.34,-0.237 -0.688,-0.399 -1.156,-0.399 -0.552,0 -0.739,0.221 -0.739,0.519 0,0.188 0.136,0.373 0.569,0.408 l 0.714,0.051 c 0.893,0.06 1.25,0.604 1.25,1.291 0,0.842 -0.782,1.326 -1.785,1.326 -0.697,0 -1.343,-0.255 -1.896,-0.773 l 0.604,-0.596 z"
         id="path6222" /><path
         style="fill:#008fc5"
         inkscape:connector-curvature="0"
         clip-path="url(#SVGID_2_)"
         d="m 197.831,436.207 0.867,0 0,0.459 0.017,0 c 0.272,-0.34 0.663,-0.51 1.122,-0.51 0.348,0 0.637,0.127 0.901,0.33 l -0.629,0.748 c -0.204,-0.152 -0.349,-0.212 -0.57,-0.212 -0.425,0 -0.841,0.272 -0.841,0.901 l 0,2.592 -0.867,0 0,-4.308 z"
         id="path6224" /><path
         style="fill:#008fc5"
         inkscape:connector-curvature="0"
         clip-path="url(#SVGID_2_)"
         d="m 201.641,438.688 c 0,0.705 0.434,1.062 1.028,1.062 0.332,0 0.689,-0.152 0.944,-0.416 l 0.629,0.535 c -0.425,0.494 -0.977,0.697 -1.555,0.697 -0.884,0 -1.913,-0.425 -1.913,-2.192 0,-1.675 0.944,-2.218 1.777,-2.218 0.951,0 1.776,0.705 1.776,1.818 l 0,0.714 -2.686,0 z m 1.818,-0.713 c -0.025,-0.654 -0.399,-1.003 -0.909,-1.003 -0.51,0 -0.893,0.349 -0.91,1.003 l 1.819,0 z"
         id="path6226" /><path
         style="fill:#008fc5"
         inkscape:connector-curvature="0"
         clip-path="url(#SVGID_2_)"
         d="m 205.364,439.198 c 0.374,0.365 0.782,0.552 1.36,0.552 0.493,0 0.85,-0.187 0.85,-0.552 0,-0.306 -0.23,-0.399 -0.527,-0.425 l -0.765,-0.068 c -0.714,-0.059 -1.241,-0.484 -1.241,-1.224 0,-0.876 0.697,-1.325 1.606,-1.325 0.757,0 1.267,0.229 1.692,0.586 l -0.536,0.629 c -0.34,-0.237 -0.688,-0.399 -1.156,-0.399 -0.552,0 -0.739,0.221 -0.739,0.519 0,0.188 0.136,0.373 0.569,0.408 l 0.714,0.051 c 0.893,0.06 1.25,0.604 1.25,1.291 0,0.842 -0.782,1.326 -1.785,1.326 -0.697,0 -1.343,-0.255 -1.896,-0.773 l 0.604,-0.596 z"
         id="path6228" /><path
         style="fill:#008fc5"
         inkscape:connector-curvature="0"
         clip-path="url(#SVGID_2_)"
         d="m 209.971,438.688 c 0,0.705 0.434,1.062 1.028,1.062 0.332,0 0.689,-0.152 0.944,-0.416 l 0.629,0.535 c -0.425,0.494 -0.977,0.697 -1.555,0.697 -0.884,0 -1.913,-0.425 -1.913,-2.192 0,-1.675 0.944,-2.218 1.777,-2.218 0.951,0 1.776,0.705 1.776,1.818 l 0,0.714 -2.686,0 z m 1.819,-0.713 c -0.025,-0.654 -0.399,-1.003 -0.909,-1.003 -0.51,0 -0.893,0.349 -0.91,1.003 l 1.819,0 z"
         id="path6230" /><path
         style="fill:#008fc5"
         inkscape:connector-curvature="0"
         clip-path="url(#SVGID_2_)"
         d="m 213.566,436.207 0.867,0 0,0.459 0.017,0 c 0.272,-0.34 0.663,-0.51 1.122,-0.51 0.348,0 0.637,0.127 0.901,0.33 l -0.629,0.748 c -0.204,-0.152 -0.349,-0.212 -0.57,-0.212 -0.425,0 -0.841,0.272 -0.841,0.901 l 0,2.592 -0.867,0 0,-4.308 z"
         id="path6232" /><polygon
         style="fill:#008fc5"
         clip-path="url(#SVGID_2_)"
         points="218.19,439.224 218.208,439.224 219.219,436.207 220.136,436.207 218.555,440.516 217.842,440.516 216.261,436.207 217.178,436.207 "
         id="polygon6234" /><path
         style="fill:#008fc5"
         inkscape:connector-curvature="0"
         clip-path="url(#SVGID_2_)"
         d="m 221.251,438.688 c 0,0.705 0.434,1.062 1.028,1.062 0.332,0 0.689,-0.152 0.944,-0.416 l 0.629,0.535 c -0.425,0.494 -0.977,0.697 -1.555,0.697 -0.884,0 -1.913,-0.425 -1.913,-2.192 0,-1.675 0.944,-2.218 1.777,-2.218 0.951,0 1.776,0.705 1.776,1.818 l 0,0.714 -2.686,0 z m 1.819,-0.713 c -0.025,-0.654 -0.399,-1.003 -0.909,-1.003 -0.51,0 -0.893,0.349 -0.91,1.003 l 1.819,0 z"
         id="path6236" /><path
         style="fill:#008fc5"
         inkscape:connector-curvature="0"
         clip-path="url(#SVGID_2_)"
         d="m 227.421,440.064 c -0.271,0.299 -0.671,0.502 -1.113,0.502 -0.527,0 -0.909,-0.238 -1.156,-0.562 -0.238,-0.306 -0.306,-0.585 -0.306,-1.647 0,-1.055 0.068,-1.335 0.306,-1.641 0.247,-0.323 0.629,-0.561 1.156,-0.561 0.442,0 0.79,0.203 1.113,0.51 l 0,-2.201 0.867,0 0,6.051 -0.867,0 0,-0.451 z m -1.708,-1.707 c 0,0.671 0.042,1.342 0.858,1.342 0.808,0 0.85,-0.713 0.85,-1.342 0,-0.621 -0.042,-1.335 -0.85,-1.335 -0.816,0 -0.858,0.671 -0.858,1.335"
         id="path6238" /><rect
         style="fill:#008fc5"
         x="229.284"
         y="439.64801"
         clip-path="url(#SVGID_2_)"
         width="0.86699998"
         height="0.86699998"
         id="rect6240" /><path
         style="fill:#008fc5"
         inkscape:connector-curvature="0"
         clip-path="url(#SVGID_2_)"
         d="m 255.712,135.445 c 1.374,-0.539 2.765,-1.408 4.025,-2.601 3.732,-3.521 4.93,-8.453 2.681,-11.013 -2.248,-2.562 -7.094,-1.782 -10.822,1.738 -1.518,1.434 -2.608,3.102 -3.226,4.748 -0.216,-0.669 -0.469,-1.166 -0.749,-1.439 0.831,-0.192 1.458,-0.952 1.469,-1.873 0.004,-0.455 -0.149,-0.869 -0.398,-1.205 l 2.531,-4.618 -0.704,-0.415 -2.463,4.489 c -0.247,-0.129 -0.523,-0.209 -0.819,-0.212 -0.311,-0.003 -0.602,0.081 -0.863,0.217 l -2.379,-4.563 -0.714,0.4 2.455,4.712 c -0.239,0.321 -0.388,0.719 -0.393,1.155 -0.011,0.881 0.55,1.62 1.319,1.869 -0.271,0.236 -0.527,0.68 -0.754,1.287 -0.59,-1.604 -1.614,-3.23 -3.049,-4.646 -3.657,-3.597 -8.483,-4.479 -10.787,-1.967 -2.303,2.513 -1.207,7.468 2.446,11.069 1.237,1.218 2.609,2.117 3.971,2.686 -0.752,0.51 -1.479,1.16 -2.135,1.942 -2.579,3.084 -3.074,7.019 -1.106,8.789 1.97,1.771 5.657,0.709 8.235,-2.373 0.906,-1.082 1.545,-2.267 1.918,-3.427 0.366,1.75 0.92,2.864 1.552,2.871 0.663,0.006 1.266,-1.205 1.668,-3.097 0.332,1.25 0.973,2.545 1.92,3.728 2.512,3.138 6.177,4.277 8.181,2.548 2.009,-1.729 1.596,-5.673 -0.916,-8.81 -0.639,-0.797 -1.353,-1.462 -2.094,-1.989 m -10.762,-0.619 c -0.017,1.63 0.089,3.147 0.283,4.428 -0.238,0.462 -0.535,0.918 -0.896,1.35 -1.806,2.158 -4.386,2.903 -5.764,1.662 -1.378,-1.239 -1.034,-3.993 0.772,-6.152 0.46,-0.548 0.969,-1.003 1.496,-1.359 -0.954,-0.399 -1.914,-1.03 -2.78,-1.882 -2.559,-2.52 -3.323,-5.989 -1.712,-7.747 1.611,-1.758 4.992,-1.143 7.548,1.378 0.751,0.739 1.336,1.561 1.762,2.397 -0.413,1.491 -0.685,3.589 -0.709,5.925 m 10.394,7.618 c -1.404,1.21 -3.969,0.413 -5.727,-1.784 -0.354,-0.44 -0.635,-0.903 -0.866,-1.372 0.223,-1.274 0.361,-2.788 0.378,-4.418 0.025,-2.339 -0.201,-4.447 -0.584,-5.949 0.443,-0.822 1.046,-1.627 1.81,-2.349 2.61,-2.466 6.003,-3.01 7.576,-1.216 1.574,1.792 0.735,5.242 -1.876,7.708 -0.883,0.835 -1.857,1.444 -2.821,1.82 0.521,0.37 1.018,0.834 1.467,1.393 1.759,2.196 2.046,4.958 0.643,6.167"
         id="path6242" /></g><g
       id="g6564"
       transform="matrix(0,-2.9000006,2.9000006,0,-639.90362,558.97714)"><g
         id="g6566" /></g></g><g
     inkscape:groupmode="layer"
     id="layer6"
     inkscape:label="markers"
     style="display:none"><polygon
       style="fill:none;stroke:#000000;stroke-miterlimit:3.86400008"
       stroke-miterlimit="3.864"
       points="47.271,426.911 92.671,427.017 92.723,404.315 115.423,404.369 115.372,427.068 160.671,427.173 160.722,404.472 138.023,404.419 138.076,381.72 160.775,381.772 160.829,359.172 138.128,359.121 138.18,336.419 115.581,336.369 115.632,313.668 92.932,313.615 92.88,336.315 70.18,336.262 70.233,313.563 47.532,313.509 47.48,336.209 47.428,358.911 70.128,358.962 70.076,381.563 47.376,381.509 "
       id="polygon6096"
       transform="matrix(0,-2.9000006,2.9000006,0,-315.68827,796.24449)" /><polygon
       style="fill:none;stroke:#000000;stroke-miterlimit:3.86400008"
       stroke-miterlimit="3.864"
       points="138.542,223.02 161.242,223.072 161.19,245.772 183.891,245.826 183.942,223.125 206.642,223.178 206.59,245.878 229.189,245.93 229.242,223.23 229.295,200.53 251.995,200.582 252.048,177.983 229.348,177.931 229.4,155.231 206.8,155.179 206.851,132.479 184.152,132.427 184.099,155.126 161.4,155.073 161.453,132.373 138.752,132.321 138.7,155.021 138.647,177.721 161.348,177.773 161.295,200.372 138.595,200.32 "
       id="polygon6098"
       transform="matrix(0,-2.9000006,2.9000006,0,-315.68827,796.24449)" /><polygon
       style="fill:none;stroke:#000000;stroke-miterlimit:3.86400008"
       stroke-miterlimit="3.864"
       points="47.843,222.81 70.543,222.862 70.49,245.562 93.191,245.616 93.243,222.915 115.943,222.968 115.891,245.668 138.49,245.72 138.543,223.02 138.595,200.32 161.295,200.372 161.348,177.773 138.648,177.721 138.7,155.021 116.101,154.969 116.153,132.269 93.453,132.217 93.4,154.916 70.7,154.863 70.753,132.163 48.053,132.111 48.001,154.811 47.948,177.511 70.648,177.563 70.595,200.162 47.896,200.11 "
       id="polygon6100"
       transform="matrix(0,-2.9000006,2.9000006,0,-315.68827,796.24449)" /><polygon
       style="fill:none;stroke:#000000;stroke-miterlimit:3.86400008"
       stroke-miterlimit="3.864"
       points="70.281,336.262 70.333,313.562 47.633,313.51 47.686,290.811 70.386,290.862 70.438,268.162 47.739,268.11 47.791,245.51 70.491,245.562 93.191,245.616 93.243,222.915 115.843,222.968 115.791,245.668 138.491,245.72 138.438,268.32 161.139,268.372 161.085,291.072 138.386,291.02 138.333,313.72 161.034,313.772 160.98,336.472 138.281,336.42 115.581,336.368 115.633,313.668 93.033,313.616 92.98,336.315 "
       id="polygon6102"
       transform="matrix(0,-2.9000006,2.9000006,0,-315.68827,796.24449)" /><polygon
       style="fill:none;stroke:#000000;stroke-miterlimit:3.86400008"
       stroke-miterlimit="3.864"
       points="160.771,427.173 160.823,404.472 138.124,404.42 138.175,381.72 160.876,381.772 160.928,359.072 138.229,359.02 138.28,336.42 160.98,336.472 183.679,336.525 183.732,313.826 206.333,313.878 206.279,336.578 228.98,336.63 228.927,359.23 251.628,359.282 251.576,381.982 228.875,381.93 228.822,404.63 251.523,404.681 251.47,427.383 228.771,427.33 206.07,427.278 206.124,404.578 183.523,404.525 183.47,427.226 "
       id="polygon6104"
       transform="matrix(0,-2.9000006,2.9000006,0,-315.68827,796.24449)" /><rect
       style="fill:none;stroke:#000000;stroke-width:2.90000057;stroke-miterlimit:3.86400008"
       x="-487.58493"
       y="-322.76535"
       stroke-miterlimit="3.864"
       width="723.40228"
       height="986.45557"
       id="rect6534"
       transform="matrix(0,-1,1,0,324.21535,237.26735)" /><polygon
       style="fill:none;stroke:#000000;stroke-miterlimit:3.86400008"
       stroke-miterlimit="3.864"
       points="161.086,291.072 138.385,291.021 138.332,313.72 161.033,313.772 160.98,336.471 183.68,336.525 183.732,313.826 206.431,313.878 206.38,336.578 228.98,336.63 229.032,313.929 229.085,291.23 251.785,291.282 251.838,268.681 229.137,268.63 229.189,245.929 206.59,245.878 206.642,223.178 183.942,223.125 183.89,245.826 161.19,245.772 161.242,223.072 138.542,223.021 138.49,245.719 138.437,268.42 161.138,268.471 "
       id="polygon6094"
       transform="matrix(0,-2.9000006,2.9000006,0,-315.68827,796.24449)" /></g></svg>