<?xml version="1.0" encoding="UTF-8" standalone="no"?>
<!-- Generator: Adobe Illustrator 16.0.0, SVG Export Plug-In . SVG Version: 6.00 Build 0)  -->

<svg
   xmlns:dc="http://purl.org/dc/elements/1.1/"
   xmlns:cc="http://creativecommons.org/ns#"
   xmlns:rdf="http://www.w3.org/1999/02/22-rdf-syntax-ns#"
   xmlns:svg="http://www.w3.org/2000/svg"
   xmlns="http://www.w3.org/2000/svg"
   xmlns:xlink="http://www.w3.org/1999/xlink"
   xmlns:sodipodi="http://sodipodi.sourceforge.net/DTD/sodipodi-0.dtd"
   xmlns:inkscape="http://www.inkscape.org/namespaces/inkscape"
   version="1.1"
   id="Layer_1"
   x="0px"
   y="0px"
   width="989.35535"
   height="726.30212"
   viewBox="0 0 989.35531 726.30211"
   enable-background="new 0 0 595.275 841.89"
   xml:space="preserve"
   inkscape:version="0.91 r13725"
   sodipodi:docname="nlg_fruit.svg"><metadata
     id="metadata1391"><rdf:RDF><cc:Work
         rdf:about=""><dc:format>image/svg+xml</dc:format><dc:type
           rdf:resource="http://purl.org/dc/dcmitype/StillImage" /><dc:title></dc:title></cc:Work></rdf:RDF></metadata><defs
     id="defs1389"><defs
       id="defs637"><rect
         height="841.89001"
         width="595.27399"
         y="-0.001"
         x="0.001"
         id="SVGID_9_" /></defs><clipPath
       id="SVGID_10_"><use
         id="use641"
         overflow="visible"
         xlink:href="#SVGID_9_"
         style="overflow:visible"
         x="0"
         y="0"
         width="100%"
         height="100%" /></clipPath><defs
       id="defs389"><rect
         height="841.89001"
         width="595.27399"
         y="-0.001"
         x="0.001"
         id="SVGID_1_" /></defs><clipPath
       id="SVGID_2_"><use
         id="use393"
         overflow="visible"
         xlink:href="#SVGID_1_"
         style="overflow:visible"
         x="0"
         y="0"
         width="100%"
         height="100%" /></clipPath></defs><sodipodi:namedview
     pagecolor="#ffffff"
     bordercolor="#666666"
     borderopacity="1"
     objecttolerance="10"
     gridtolerance="10"
     guidetolerance="10"
     inkscape:pageopacity="0"
     inkscape:pageshadow="2"
     inkscape:window-width="1870"
     inkscape:window-height="1008"
     id="namedview1387"
     showgrid="false"
     inkscape:zoom="1.1212866"
     inkscape:cx="613.78961"
     inkscape:cy="378.67658"
     inkscape:window-x="1440"
     inkscape:window-y="0"
     inkscape:window-maximized="0"
     inkscape:current-layer="layer2"
     fit-margin-top="0"
     fit-margin-left="0"
     fit-margin-right="0"
     fit-margin-bottom="0" /><g
     inkscape:groupmode="layer"
     id="layer2"
     inkscape:label="color"
     style="display:none"
     transform="translate(75.445461,65.292163)"><rect
       style="display:inline;fill:#008fc5"
       x="250.26027"
       y="172.0601"
       transform="matrix(0.99999856,0.0017,-0.0017,0.99999856,0,0)"
       width="340.20148"
       height="249.49936"
       id="rect5" /></g><g
     inkscape:groupmode="layer"
     id="layer3"
     inkscape:label="markers"
     style="display:none"
     transform="translate(75.445461,65.292163)"><polygon
       style="display:inline;fill:none;stroke:#000000;stroke-miterlimit:3.86400008"
       stroke-miterlimit="3.864"
       points="408.424,399.513 431.123,399.551 431.086,422.252 408.387,422.214 408.349,444.914 453.648,444.988 453.687,422.289 476.387,422.326 476.349,445.025 498.648,444.863 521.348,444.9 521.387,422.199 499.086,422.363 499.123,399.664 521.824,399.7 521.461,376.9 498.76,376.862 498.799,354.163 521.498,354.2 521.535,331.5 499.233,331.664 476.535,331.625 476.498,354.324 453.797,354.289 453.836,331.588 431.233,331.551 431.197,354.25 431.16,376.852 408.461,376.813 "
       id="polygon37"
       transform="matrix(0,-2.9,2.9,0,-442.37377,1513.9347)" /><polygon
       style="display:inline;fill:none;stroke:#000000;stroke-miterlimit:3.86400008"
       stroke-miterlimit="3.864"
       points="430.76,376.751 408.062,376.712 408.023,399.413 430.724,399.451 430.687,422.15 407.986,422.113 385.285,422.076 385.248,444.775 362.549,444.738 362.586,422.039 317.286,421.963 317.324,399.263 340.023,399.3 340.062,376.6 317.361,376.563 317.398,353.963 340.099,354 362.697,354.039 362.736,331.338 385.437,331.375 385.398,354.076 408.099,354.113 408.137,331.413 430.836,331.451 "
       id="polygon29"
       transform="matrix(0,-2.9,2.9,0,-442.37377,1513.9347)" /><polygon
       style="display:inline;fill:none;stroke:#000000;stroke-miterlimit:3.86400008"
       stroke-miterlimit="3.864"
       points="362.898,354.039 362.937,331.338 385.637,331.376 385.599,354.076 408.299,354.114 408.336,331.412 408.373,308.713 431.072,308.75 431.111,286.051 408.41,286.013 408.483,240.713 385.785,240.675 385.748,263.376 363.049,263.338 363.086,240.639 340.483,240.601 340.447,263.302 340.41,285.901 317.711,285.864 317.674,308.564 340.373,308.6 340.336,331.301 317.637,331.263 317.599,353.964 "
       id="polygon33"
       transform="matrix(0,-2.9,2.9,0,-442.37377,1513.9347)" /><polygon
       style="display:inline;fill:none;stroke:#000000;stroke-miterlimit:3.86400008"
       stroke-miterlimit="3.864"
       points="431.062,195.251 408.361,195.213 408.322,217.913 431.023,217.951 430.984,240.651 408.286,240.613 385.586,240.576 385.549,263.275 362.848,263.239 362.885,240.539 317.586,240.463 317.623,217.763 340.322,217.8 340.361,195.1 317.661,195.064 317.697,172.464 340.398,172.501 362.998,172.54 363.036,149.838 385.734,149.876 385.697,172.576 408.398,172.614 408.437,149.913 431.135,149.952 "
       id="polygon27"
       transform="matrix(0,-2.9,2.9,0,-442.37377,1513.9347)" /><polygon
       style="display:inline;fill:none;stroke:#000000;stroke-miterlimit:3.86400008"
       stroke-miterlimit="3.864"
       points="521.611,286.2 498.91,286.162 498.873,308.863 521.572,308.9 521.535,331.6 498.836,331.563 476.137,331.525 476.099,354.225 453.398,354.188 453.437,331.488 408.137,331.412 408.174,308.712 430.873,308.75 430.91,286.051 408.211,286.012 408.248,263.412 430.947,263.45 453.549,263.488 453.586,240.787 476.285,240.824 476.248,263.525 498.947,263.563 498.983,240.863 521.686,240.9 "
       id="polygon31"
       transform="matrix(0,-2.9,2.9,0,-442.37377,1513.9347)" /><polygon
       style="display:inline;fill:none;stroke:#000000;stroke-miterlimit:3.86400008"
       stroke-miterlimit="3.864"
       points="453.848,263.487 453.885,240.789 476.586,240.824 476.549,263.526 499.249,263.563 499.286,240.863 499.322,218.164 522.023,218.2 522.061,195.5 499.358,195.463 499.436,150.165 476.733,150.125 476.697,172.826 453.996,172.789 454.036,150.089 431.436,150.051 431.396,172.752 431.358,195.352 408.661,195.313 408.624,218.013 431.322,218.051 431.286,240.75 408.586,240.713 408.549,263.412 "
       id="polygon35"
       transform="matrix(0,-2.9,2.9,0,-442.37377,1513.9347)" /><rect
       style="display:inline;fill:none;stroke:#000000;stroke-width:2.9000001;stroke-miterlimit:3.86400008"
       x="-659.55994"
       y="-73.995461"
       stroke-miterlimit="3.864"
       width="723.4021"
       height="986.45532"
       id="rect43"
       transform="matrix(0,-1,1,0,0,0)" /></g><g
     inkscape:groupmode="layer"
     id="layer1"
     inkscape:label="Layer 1"
     style="display:inline"
     transform="translate(75.445461,65.292163)"><path
       style="fill:none;stroke:#000000;stroke-width:2.9000001;stroke-miterlimit:3.86400008"
       inkscape:connector-curvature="0"
       stroke-miterlimit="3.864"
       d="M 57.771834,592.61342"
       id="path25" /><path
       style="fill:none;stroke:#000000;stroke-width:2.9000001;stroke-miterlimit:3.86400008"
       inkscape:connector-curvature="0"
       stroke-miterlimit="3.864"
       d="M 58.963734,592.46262"
       id="path39" /><g
       id="g97"
       transform="matrix(0,-2.9,2.9,0,-442.37377,1513.9347)"><g
         id="g99" /></g><path
       style="clip-rule:evenodd;fill:#c1d82f;fill-rule:evenodd"
       inkscape:connector-curvature="0"
       id="path469"
       d="m 487.236,374.269 c -5.796,-5.626 -18.354,0.22 -18.748,0.529 -0.64,-0.012 -1.294,-0.012 -1.946,-0.018 0.319,-1.058 0.938,-2.629 2.138,-4.694 2.278,-3.578 3.832,-2.879 3.895,-3.12 -1.201,-0.344 -2.358,-0.496 -3.43,-0.447 -0.05,0.162 -0.453,-0.476 -2.168,0.734 -1.354,0.662 -2.58,5.285 -3.07,7.52 -0.957,0.005 -1.914,0.009 -2.854,0.025 -0.396,-0.309 -12.947,-6.155 -18.75,-0.529 -3.124,3.474 -4.221,8.426 -4.4,14.326 0.234,5.83 1.379,12.608 5.283,18.084 8.182,9.867 16.468,4.977 21.037,5.689 0.185,-10e-4 0.457,-0.092 0.756,-0.211 0.061,0.119 0.156,0.21 0.344,0.211 4.568,-0.712 12.849,4.178 21.035,-5.689 3.904,-5.476 5.047,-12.254 5.285,-18.084 -0.186,-5.9 -1.28,-10.852 -4.407,-14.326 m -28.183,36.736 c -4.274,-0.262 -9.803,-0.988 -15.256,-9.607 -4.537,-9.121 -3.6,-21.536 1.244,-25.921 1.979,-1.493 4.285,-1.712 6.561,-1.358 -1.205,0.172 -2.391,0.542 -3.518,1.201 -6.556,3.938 -6.932,17.662 -1.053,26.747 4.438,6.28 8.758,8.096 12.182,8.938 -0.055,0 -0.106,0.002 -0.16,0"
       clip-path="url(#SVGID_2_)"
       transform="matrix(0,-2.9,2.9,0,-442.37377,1513.9347)" /><path
       style="clip-rule:evenodd;fill:#c1d82f;fill-rule:evenodd"
       inkscape:connector-curvature="0"
       id="path471"
       d="m 375.558,287.755 c 3.083,-1.136 5.308,-4.436 5.308,-8.327 0,-3.894 -2.225,-7.192 -5.308,-8.329 -3.075,1.137 -5.305,4.435 -5.305,8.329 0,3.891 2.229,7.191 5.305,8.327"
       clip-path="url(#SVGID_2_)"
       transform="matrix(0,-2.9,2.9,0,-442.37377,1513.9347)" /><path
       style="clip-rule:evenodd;fill:#c1d82f;fill-rule:evenodd"
       inkscape:connector-curvature="0"
       id="path473"
       d="m 367.732,295.138 c 0,-3.079 -2.496,-5.576 -5.571,-5.576 -3.083,0 -5.582,2.497 -5.582,5.576 0,3.078 2.499,5.573 5.582,5.573 3.075,0 5.571,-2.495 5.571,-5.573"
       clip-path="url(#SVGID_2_)"
       transform="matrix(0,-2.9,2.9,0,-442.37377,1513.9347)" /><path
       style="clip-rule:evenodd;fill:#c1d82f;fill-rule:evenodd"
       inkscape:connector-curvature="0"
       id="path475"
       d="m 374.995,289.563 c -3.079,0 -5.577,2.497 -5.577,5.576 0,3.078 2.498,5.572 5.577,5.572 3.079,0 5.573,-2.494 5.573,-5.572 0,-3.079 -2.494,-5.576 -5.573,-5.576"
       clip-path="url(#SVGID_2_)"
       transform="matrix(0,-2.9,2.9,0,-442.37377,1513.9347)" /><path
       style="clip-rule:evenodd;fill:#c1d82f;fill-rule:evenodd"
       inkscape:connector-curvature="0"
       id="path477"
       d="m 373.697,306.291 c 0,-3.079 -2.496,-5.579 -5.576,-5.579 -3.078,0 -5.576,2.5 -5.576,5.579 0,3.076 2.498,5.574 5.576,5.574 3.08,0 5.576,-2.498 5.576,-5.574"
       clip-path="url(#SVGID_2_)"
       transform="matrix(0,-2.9,2.9,0,-442.37377,1513.9347)" /><path
       style="clip-rule:evenodd;fill:#c1d82f;fill-rule:evenodd"
       inkscape:connector-curvature="0"
       id="path479"
       d="m 380.957,300.712 c -3.079,0 -5.572,2.5 -5.572,5.579 0,3.076 2.493,5.574 5.572,5.574 3.082,0 5.575,-2.498 5.575,-5.574 0,-3.079 -2.493,-5.579 -5.575,-5.579"
       clip-path="url(#SVGID_2_)"
       transform="matrix(0,-2.9,2.9,0,-442.37377,1513.9347)" /><path
       style="clip-rule:evenodd;fill:#c1d82f;fill-rule:evenodd"
       inkscape:connector-curvature="0"
       id="path481"
       d="m 374.736,311.996 c -3.079,0 -5.578,2.496 -5.578,5.574 0,3.078 2.499,5.576 5.578,5.576 3.078,0 5.574,-2.498 5.574,-5.576 10e-4,-3.078 -2.496,-5.574 -5.574,-5.574"
       clip-path="url(#SVGID_2_)"
       transform="matrix(0,-2.9,2.9,0,-442.37377,1513.9347)" /><path
       style="clip-rule:evenodd;fill:#c1d82f;fill-rule:evenodd"
       inkscape:connector-curvature="0"
       id="path483"
       d="m 387.832,289.563 c -3.082,0 -5.576,2.497 -5.576,5.576 0,3.078 2.494,5.572 5.576,5.572 3.078,0 5.572,-2.494 5.572,-5.572 0,-3.079 -2.494,-5.576 -5.572,-5.576"
       clip-path="url(#SVGID_2_)"
       transform="matrix(0,-2.9,2.9,0,-442.37377,1513.9347)" /><path
       style="clip-rule:evenodd;fill:#c1d82f;fill-rule:evenodd"
       inkscape:connector-curvature="0"
       id="path485"
       d="m 378.137,287.752 c 2.386,0.551 5.137,0.017 7.442,-1.674 3.136,-2.306 4.479,-6.053 3.568,-9.208 -1.985,-1.309 -4.615,-1.58 -7.112,-0.759 0.343,1.031 0.537,2.145 0.537,3.311 0,3.623 -1.801,6.767 -4.435,8.33"
       clip-path="url(#SVGID_2_)"
       transform="matrix(0,-2.9,2.9,0,-442.37377,1513.9347)" /><path
       style="clip-rule:evenodd;fill:#c1d82f;fill-rule:evenodd"
       inkscape:connector-curvature="0"
       id="path487"
       d="m 365.263,286.078 c 2.304,1.691 5.057,2.225 7.441,1.674 -2.632,-1.563 -4.435,-4.706 -4.435,-8.33 0,-1.166 0.191,-2.28 0.533,-3.311 -2.494,-0.821 -5.125,-0.55 -7.108,0.759 -0.908,3.156 0.43,6.901 3.569,9.208"
       clip-path="url(#SVGID_2_)"
       transform="matrix(0,-2.9,2.9,0,-442.37377,1513.9347)" /><path
       style="fill:#c1d82f"
       inkscape:connector-curvature="0"
       id="path489"
       d="m 487.582,272.285 -0.987,-0.193 -1.121,-0.993 c 0,0 -7.666,1.065 -18.767,10.573 -6.875,5.889 -10.846,10.539 -12.99,13.448 -0.605,-1.248 -2.178,-3.369 -5.902,-3.438 -3.354,-0.061 -8.994,5.844 -7.061,11.645 1.484,4.463 4.061,5.948 5.174,6.397 0.931,0.751 3.484,2.275 8.104,1.395 6.007,-1.144 8.411,-8.947 6.721,-11.844 -1.94,-3.329 -4.681,-3.577 -6.022,-3.468 1.727,-2.319 4.411,-5.395 8.61,-9.194 8.775,-7.941 16.455,-11.582 20.554,-13.119 -2.127,2.38 -5.971,7.599 -9.212,17.001 -2.95,8.56 -4.021,14.579 -4.397,18.174 -1.153,-0.769 -3.582,-1.803 -6.828,0.022 -2.926,1.645 -4.801,9.591 -0.199,13.618 3.539,3.097 6.512,3.073 7.696,2.897 1.188,0.176 4.158,0.2 7.698,-2.897 4.604,-4.027 2.727,-11.973 -0.198,-13.618 -3.355,-1.888 -5.846,-0.716 -6.946,0.057 0.314,-2.874 1.071,-6.885 2.771,-12.286 5.284,-16.807 13.302,-24.177 13.302,-24.177"
       clip-path="url(#SVGID_2_)"
       transform="matrix(0,-2.9,2.9,0,-442.37377,1513.9347)" /><path
       style="fill:#c1d82f"
       inkscape:connector-curvature="0"
       id="path491"
       d="m 398.064,187.016 c 0.005,-0.008 0.01,-0.015 0.014,-0.024 -0.013,0.001 -0.025,0.002 -0.037,0.002 -2.13,-2.142 -7.309,-3.551 -12.821,-3.075 -2.896,0.252 -5.356,0.99 -7.149,1.981 3.066,-3.507 4.577,-3.96 4.558,-3.965 -0.054,-1.3 -0.112,-2.6 -0.173,-3.9 0.014,0.006 -0.906,0.51 -4.162,4.255 -2.06,2.402 -4.34,6.322 -5.721,8.861 -1.96,0.145 -4.342,0.259 -6.577,3.383 -2.229,3.229 -2.262,9.451 -4.254,13.199 -1.93,3.766 -4.854,6.428 -5.481,12.75 -0.503,6.316 5.609,11.922 10.261,12.402 3.077,0.295 4.512,0.45 5.15,0.494 0,0.008 0,0.018 -0.001,0.028 0,0 0.096,-0.001 0.291,-0.008 0.121,0.008 0.171,0.009 0.171,0.009 l 0,-0.015 c 0.79,-0.027 2.646,-0.157 6.055,-0.435 4.677,-0.412 11.046,-5.686 10.825,-11.742 -0.342,-6.087 -3.145,-8.834 -4.906,-12.621 -1.824,-3.808 -1.581,-9.906 -3.665,-13.297 -2.082,-3.307 -4.44,-3.687 -6.383,-4.057 0.364,-0.548 0.801,-1.182 1.333,-1.923 2.477,1.765 7.119,2.61 12.1,2.164 5.221,-0.466 9.398,-2.205 10.559,-4.442 0.013,0 0.026,-0.001 0.039,-0.002 -0.01,-0.007 -0.018,-0.014 -0.026,-0.022 m -22.953,44.512 c -0.054,0.002 -0.112,0.004 -0.158,0.006 l 0,0.014 c 0,0 -0.049,0 -0.171,-0.009 -0.195,0.005 -0.29,0.005 -0.29,0.005 0,-0.008 0,-0.017 0.002,-0.026 -0.643,-0.045 -2.076,-0.199 -5.153,-0.489 -4.654,-0.476 -10.787,-5.812 -10.309,-11.793 0.507,-5.058 2.663,-7.635 4.475,-10.459 -0.699,1.954 -1.258,4.215 -1.53,7.067 -0.636,7.945 5.371,14.86 10.021,15.367 1.324,0.131 2.33,0.236 3.113,0.317"
       clip-path="url(#SVGID_2_)"
       transform="matrix(0,-2.9,2.9,0,-442.37377,1513.9347)" /><path
       style="clip-rule:evenodd;fill:#c1d82f;fill-rule:evenodd"
       inkscape:connector-curvature="0"
       id="path493"
       d="m 398.944,401.159 c 0,0 -1.054,-3.056 -3.399,-4.523 -2.711,-1.7 -13.098,-1.587 -20.861,-4.971 -2.431,-1.061 -4.098,-2 -7.905,-5.785 -6.901,-6.856 -9.78,-17.151 -12.272,-19.254 -2.153,-1.821 -4.965,-1.593 -4.965,-1.593 l -2.029,-2.762 -1.381,2.157 1.289,2.928 c 0,0 -1.554,22.569 16.121,36.405 18.375,12.526 34.547,0.649 34.547,0.649 l 2.383,0.882 1.053,-2.395 -2.581,-1.738 z m -3.432,2.924 c 0,0 -12.809,7.717 -29.611,-3.147 -16.321,-11.797 -17.368,-27.888 -17.368,-27.888 l 0.6,-1.157 c 0,0 1.349,15.513 17.668,27.309 16.806,10.862 29.313,3.728 29.313,3.728 l -0.602,1.155 z"
       clip-path="url(#SVGID_2_)"
       transform="matrix(0,-2.9,2.9,0,-442.37377,1513.9347)" /><polygon
       style="fill:#c1d82f"
       id="polygon495"
       points="468.42,192.867 475.785,186.644 468.091,190.609 474.15,180.86 466.32,188.689 468.979,178.201 464.77,186.275 460.562,178.201 463.221,188.689 455.393,180.86 461.449,190.609 453.757,186.644 461.123,192.867 461.449,193.121 464.77,193.013 468.091,193.121 "
       clip-path="url(#SVGID_2_)"
       transform="matrix(0,-2.9,2.9,0,-442.37377,1513.9347)" /><g
       id="g497"
       transform="matrix(0,-2.9,2.9,0,-442.37377,1513.9347)"><defs
         id="defs499"><path
           inkscape:connector-curvature="0"
           id="SVGID_3_"
           d="m 461.249,193.121 c -6.236,0 -11.292,5.46 -11.292,12.196 l 0,16.423 c 0,6.736 5.056,12.197 11.292,12.197 l 7.051,0 c 6.235,0 11.287,-5.461 11.287,-12.197 l 0,-16.423 c 0,-6.736 -5.052,-12.196 -11.287,-12.196 l -7.051,0 z" /></defs><clipPath
         id="SVGID_4_"><use
           height="100%"
           width="100%"
           y="0"
           x="0"
           style="overflow:visible"
           xlink:href="#SVGID_3_"
           overflow="visible"
           id="use503" /></clipPath><rect
         style="fill:#c1d82f"
         x="447.32999"
         y="200.522"
         transform="matrix(0.7072,0.7071,-0.7071,0.7072,275.4791,-258.6851)"
         clip-path="url(#SVGID_4_)"
         width="5.3969998"
         height="5.3969998"
         id="rect505" /><rect
         style="fill:#c1d82f"
         x="457.056"
         y="200.521"
         transform="matrix(0.7069,0.7073,-0.7073,0.7069,278.5071,-265.631)"
         clip-path="url(#SVGID_4_)"
         width="5.395"
         height="5.3979998"
         id="rect507" /><rect
         style="fill:#c1d82f"
         x="467.133"
         y="200.522"
         transform="matrix(0.7072,0.7071,-0.7071,0.7072,281.2783,-272.6868)"
         clip-path="url(#SVGID_4_)"
         width="5.3969998"
         height="5.395"
         id="rect509" /><rect
         style="fill:#c1d82f"
         x="476.92599"
         y="200.521"
         transform="matrix(0.7071,0.7072,-0.7072,0.7071,284.2079,-279.636)"
         clip-path="url(#SVGID_4_)"
         width="5.3959999"
         height="5.3979998"
         id="rect511" /><rect
         style="fill:#c1d82f"
         x="452.20499"
         y="205.745"
         transform="matrix(0.7069,0.7073,-0.7073,0.7069,280.7791,-260.6681)"
         clip-path="url(#SVGID_4_)"
         width="5.3930001"
         height="5.3959999"
         id="rect513" /><rect
         style="fill:#c1d82f"
         x="461.931"
         y="205.746"
         transform="matrix(0.7072,0.707,-0.707,0.7072,283.3868,-267.4563)"
         clip-path="url(#SVGID_4_)"
         width="5.3959999"
         height="5.3940001"
         id="rect515" /><rect
         style="fill:#c1d82f"
         x="472.00601"
         y="205.745"
         transform="matrix(0.7072,0.7071,-0.7071,0.7072,286.3979,-274.6026)"
         clip-path="url(#SVGID_4_)"
         width="5.395"
         height="5.3959999"
         id="rect517" /><rect
         style="fill:#c1d82f"
         x="447.32999"
         y="210.776"
         transform="matrix(0.7072,0.7071,-0.7071,0.7072,282.7292,-255.6823)"
         clip-path="url(#SVGID_4_)"
         width="5.3969998"
         height="5.3969998"
         id="rect519" /><rect
         style="fill:#c1d82f"
         x="457.056"
         y="210.77499"
         transform="matrix(0.7069,0.7073,-0.7073,0.7069,285.76,-262.6254)"
         clip-path="url(#SVGID_4_)"
         width="5.395"
         height="5.3979998"
         id="rect521" /><rect
         style="fill:#c1d82f"
         x="467.133"
         y="210.776"
         transform="matrix(0.7072,0.7071,-0.7071,0.7072,288.5284,-269.684)"
         clip-path="url(#SVGID_4_)"
         width="5.3969998"
         height="5.395"
         id="rect523" /><rect
         style="fill:#c1d82f"
         x="476.92599"
         y="210.77499"
         transform="matrix(0.7071,0.7072,-0.7072,0.7071,291.459,-276.6323)"
         clip-path="url(#SVGID_4_)"
         width="5.3959999"
         height="5.3979998"
         id="rect525" /><rect
         style="fill:#c1d82f"
         x="452.20401"
         y="215.998"
         transform="matrix(0.7068,0.7074,-0.7074,0.7068,288.093,-257.6838)"
         clip-path="url(#SVGID_4_)"
         width="5.3940001"
         height="5.3969998"
         id="rect527" /><rect
         style="fill:#c1d82f"
         x="462.07901"
         y="215.998"
         transform="matrix(0.7068,0.7074,-0.7074,0.7068,290.9883,-264.6693)"
         clip-path="url(#SVGID_4_)"
         width="5.3940001"
         height="5.3979998"
         id="rect529" /><rect
         style="fill:#c1d82f"
         x="472.00601"
         y="215.998"
         transform="matrix(0.7071,0.7072,-0.7072,0.7071,293.7108,-271.6229)"
         clip-path="url(#SVGID_4_)"
         width="5.3959999"
         height="5.3969998"
         id="rect531" /><rect
         style="fill:#c1d82f"
         x="447.32999"
         y="221.021"
         transform="matrix(0.7072,0.707,-0.707,0.7072,289.9122,-252.6615)"
         clip-path="url(#SVGID_4_)"
         width="5.3959999"
         height="5.3959999"
         id="rect533" /><rect
         style="fill:#c1d82f"
         x="457.056"
         y="220.87199"
         transform="matrix(0.707,0.7072,-0.7072,0.707,292.8399,-259.6444)"
         clip-path="url(#SVGID_4_)"
         width="5.3940001"
         height="5.3979998"
         id="rect535" /><rect
         style="fill:#c1d82f"
         x="467.133"
         y="220.873"
         transform="matrix(0.7072,0.707,-0.707,0.7072,295.6047,-266.7049)"
         clip-path="url(#SVGID_4_)"
         width="5.3959999"
         height="5.395"
         id="rect537" /><rect
         style="fill:#c1d82f"
         x="476.92599"
         y="220.87199"
         transform="matrix(0.7072,0.7071,-0.7071,0.7072,298.5352,-273.6514)"
         clip-path="url(#SVGID_4_)"
         width="5.395"
         height="5.3969998"
         id="rect539" /><rect
         style="fill:#c1d82f"
         x="452.20499"
         y="225.946"
         transform="matrix(0.707,0.7072,-0.7072,0.707,295.0061,-254.7263)"
         clip-path="url(#SVGID_4_)"
         width="5.3930001"
         height="5.395"
         id="rect541" /><rect
         style="fill:#c1d82f"
         x="461.931"
         y="226.095"
         transform="matrix(0.7072,0.707,-0.707,0.7072,297.7734,-261.4988)"
         clip-path="url(#SVGID_4_)"
         width="5.3959999"
         height="5.3940001"
         id="rect543" /><rect
         style="fill:#c1d82f"
         x="472.00601"
         y="226.09399"
         transform="matrix(0.7072,0.7071,-0.7071,0.7072,300.7863,-268.6432)"
         clip-path="url(#SVGID_4_)"
         width="5.395"
         height="5.3959999"
         id="rect545" /><rect
         style="fill:#c1d82f"
         x="456.94199"
         y="231.201"
         transform="matrix(0.7069,0.7073,-0.7073,0.7069,300.1735,-256.5573)"
         clip-path="url(#SVGID_4_)"
         width="5.3930001"
         height="5.3959999"
         id="rect547" /><polygon
         style="fill:#c1d82f"
         clip-path="url(#SVGID_4_)"
         points="473.382,233.899 469.568,230.084 465.749,233.899 469.568,237.714 "
         id="polygon549" /><rect
         style="fill:#c1d82f"
         x="457.056"
         y="190.349"
         transform="matrix(0.7069,0.7073,-0.7073,0.7069,271.3122,-268.6125)"
         clip-path="url(#SVGID_4_)"
         width="5.395"
         height="5.3979998"
         id="rect551" /><rect
         style="fill:#c1d82f"
         x="466.98401"
         y="190.49899"
         transform="matrix(0.7069,0.7073,-0.7073,0.7069,274.3271,-275.5909)"
         clip-path="url(#SVGID_4_)"
         width="5.3930001"
         height="5.3959999"
         id="rect553" /><rect
         style="fill:#c1d82f"
         x="452.20401"
         y="195.573"
         transform="matrix(0.7068,0.7074,-0.7074,0.7068,273.6432,-263.6729)"
         clip-path="url(#SVGID_4_)"
         width="5.3940001"
         height="5.3969998"
         id="rect555" /><rect
         style="fill:#c1d82f"
         x="461.931"
         y="195.57401"
         transform="matrix(0.7072,0.7071,-0.7071,0.7072,276.2556,-270.4583)"
         clip-path="url(#SVGID_4_)"
         width="5.3969998"
         height="5.395"
         id="rect557" /><rect
         style="fill:#c1d82f"
         x="472.00601"
         y="195.573"
         transform="matrix(0.7071,0.7072,-0.7072,0.7071,279.2667,-277.6064)"
         clip-path="url(#SVGID_4_)"
         width="5.3959999"
         height="5.3969998"
         id="rect559" /></g><g
       id="g561"
       transform="matrix(0,-2.9,2.9,0,-442.37377,1513.9347)"><defs
         id="defs563"><rect
           id="SVGID_5_"
           x="0.001"
           y="-0.001"
           width="595.27399"
           height="841.89001" /></defs><clipPath
         id="SVGID_6_"><use
           height="100%"
           width="100%"
           y="0"
           x="0"
           style="overflow:visible"
           xlink:href="#SVGID_5_"
           overflow="visible"
           id="use567" /></clipPath><polygon
         style="fill:#c1d82f"
         clip-path="url(#SVGID_6_)"
         points="523.209,145.014 525.531,145.088 525.762,144.912 530.91,140.563 525.531,143.333 529.766,136.518 524.293,141.992 526.152,134.659 523.209,140.303 520.266,134.659 522.127,141.992 516.653,136.518 520.887,143.333 515.51,140.563 520.66,144.912 520.887,145.088 "
         id="polygon569" /></g><g
       id="g571"
       transform="matrix(0,-2.9,2.9,0,-442.37377,1513.9347)"><defs
         id="defs573"><path
           inkscape:connector-curvature="0"
           id="SVGID_7_"
           d="m 520.748,145.089 c -4.359,0 -7.895,3.818 -7.895,8.527 l 0,11.481 c 0,4.71 3.535,8.527 7.895,8.527 l 4.93,0 c 4.357,0 7.891,-3.817 7.891,-8.527 l 0,-11.481 c 0,-4.709 -3.533,-8.527 -7.891,-8.527 l -4.93,0 z" /></defs><clipPath
         id="SVGID_8_"><use
           height="100%"
           width="100%"
           y="0"
           x="0"
           style="overflow:visible"
           xlink:href="#SVGID_7_"
           overflow="visible"
           id="use577" /></clipPath><rect
         style="fill:#c1d82f"
         x="511.017"
         y="150.26401"
         transform="matrix(0.707,0.7072,-0.7072,0.707,257.8981,-318.1601)"
         clip-path="url(#SVGID_8_)"
         width="3.7720001"
         height="3.7720001"
         id="rect579" /><rect
         style="fill:#c1d82f"
         x="517.81598"
         y="150.263"
         transform="matrix(0.707,0.7072,-0.7072,0.707,259.8906,-322.9691)"
         clip-path="url(#SVGID_8_)"
         width="3.7720001"
         height="3.773"
         id="rect581" /><rect
         style="fill:#c1d82f"
         x="524.85999"
         y="150.26401"
         transform="matrix(0.7072,0.707,-0.707,0.7072,261.779,-327.8542)"
         clip-path="url(#SVGID_8_)"
         width="3.7739999"
         height="3.7709999"
         id="rect583" /><rect
         style="fill:#c1d82f"
         x="531.70898"
         y="150.26401"
         transform="matrix(0.707,0.7072,-0.7072,0.707,263.9613,-332.7942)"
         clip-path="url(#SVGID_8_)"
         width="3.7720001"
         height="3.7720001"
         id="rect585" /><rect
         style="fill:#c1d82f"
         x="514.42499"
         y="153.91499"
         transform="matrix(0.7071,0.7071,-0.7071,0.7071,261.3919,-319.4544)"
         clip-path="url(#SVGID_8_)"
         width="3.773"
         height="3.7720001"
         id="rect587" /><rect
         style="fill:#c1d82f"
         x="521.224"
         y="153.91499"
         transform="matrix(0.7072,0.707,-0.707,0.7072,263.2955,-324.2147)"
         clip-path="url(#SVGID_8_)"
         width="3.7739999"
         height="3.7720001"
         id="rect589" /><rect
         style="fill:#c1d82f"
         x="528.26703"
         y="153.91499"
         transform="matrix(0.7068,0.7074,-0.7074,0.7068,265.6236,-329.3386)"
         clip-path="url(#SVGID_8_)"
         width="3.7720001"
         height="3.7720001"
         id="rect591" /><rect
         style="fill:#c1d82f"
         x="511.017"
         y="157.433"
         transform="matrix(0.7071,0.7071,-0.7071,0.7071,262.8809,-316.0138)"
         clip-path="url(#SVGID_8_)"
         width="3.7720001"
         height="3.7709999"
         id="rect593" /><rect
         style="fill:#c1d82f"
         x="517.81702"
         y="157.43201"
         transform="matrix(0.7071,0.7071,-0.7071,0.7071,264.8725,-320.822)"
         clip-path="url(#SVGID_8_)"
         width="3.7720001"
         height="3.7720001"
         id="rect595" /><rect
         style="fill:#c1d82f"
         x="524.86102"
         y="157.433"
         transform="matrix(0.7074,0.7068,-0.7068,0.7074,266.7582,-325.708)"
         clip-path="url(#SVGID_8_)"
         width="3.773"
         height="3.77"
         id="rect597" /><rect
         style="fill:#c1d82f"
         x="531.70898"
         y="157.433"
         transform="matrix(0.7071,0.7071,-0.7071,0.7071,268.9414,-330.6452)"
         clip-path="url(#SVGID_8_)"
         width="3.7720001"
         height="3.7720001"
         id="rect599" /><rect
         style="fill:#c1d82f"
         x="514.42499"
         y="161.08299"
         transform="matrix(0.7072,0.707,-0.707,0.7072,266.3726,-317.3092)"
         clip-path="url(#SVGID_8_)"
         width="3.7720001"
         height="3.7709999"
         id="rect601" /><rect
         style="fill:#c1d82f"
         x="521.32703"
         y="161.082"
         transform="matrix(0.707,0.7072,-0.7072,0.707,268.5707,-322.2816)"
         clip-path="url(#SVGID_8_)"
         width="3.7709999"
         height="3.7739999"
         id="rect603" /><rect
         style="fill:#c1d82f"
         x="528.26703"
         y="161.08299"
         transform="matrix(0.707,0.7072,-0.7072,0.707,270.6042,-327.1898)"
         clip-path="url(#SVGID_8_)"
         width="3.7709999"
         height="3.7720001"
         id="rect605" /><rect
         style="fill:#c1d82f"
         x="511.017"
         y="164.595"
         transform="matrix(0.7071,0.7071,-0.7071,0.7071,267.9453,-313.9161)"
         clip-path="url(#SVGID_8_)"
         width="3.7720001"
         height="3.7709999"
         id="rect607" /><rect
         style="fill:#c1d82f"
         x="517.81702"
         y="164.491"
         transform="matrix(0.7071,0.7071,-0.7071,0.7071,269.8636,-318.7546)"
         clip-path="url(#SVGID_8_)"
         width="3.7720001"
         height="3.7720001"
         id="rect609" /><rect
         style="fill:#c1d82f"
         x="524.86102"
         y="164.492"
         transform="matrix(0.7074,0.7068,-0.7068,0.7074,271.7476,-323.6425)"
         clip-path="url(#SVGID_8_)"
         width="3.773"
         height="3.77"
         id="rect611" /><rect
         style="fill:#c1d82f"
         x="531.70898"
         y="164.491"
         transform="matrix(0.7071,0.7071,-0.7071,0.7071,273.9326,-328.5778)"
         clip-path="url(#SVGID_8_)"
         width="3.7720001"
         height="3.7720001"
         id="rect613" /><rect
         style="fill:#c1d82f"
         x="514.42499"
         y="168.03799"
         transform="matrix(0.7072,0.707,-0.707,0.7072,271.2893,-315.2732)"
         clip-path="url(#SVGID_8_)"
         width="3.7720001"
         height="3.7709999"
         id="rect615" /><rect
         style="fill:#c1d82f"
         x="521.224"
         y="168.14101"
         transform="matrix(0.7072,0.707,-0.707,0.7072,273.3534,-320.0497)"
         clip-path="url(#SVGID_8_)"
         width="3.7739999"
         height="3.7720001"
         id="rect617" /><rect
         style="fill:#c1d82f"
         x="528.26703"
         y="168.14101"
         transform="matrix(0.7068,0.7074,-0.7074,0.7068,275.687,-325.168)"
         clip-path="url(#SVGID_8_)"
         width="3.7720001"
         height="3.7720001"
         id="rect619" /><rect
         style="fill:#c1d82f"
         x="517.73798"
         y="171.71201"
         transform="matrix(0.707,0.7072,-0.7072,0.707,275.0356,-316.6283)"
         clip-path="url(#SVGID_8_)"
         width="3.7709999"
         height="3.7709999"
         id="rect621" /><rect
         style="fill:#c1d82f"
         x="524.67603"
         y="171.711"
         transform="matrix(0.7072,0.707,-0.707,0.7072,276.8877,-321.4448)"
         clip-path="url(#SVGID_8_)"
         width="3.7720001"
         height="3.7720001"
         id="rect623" /><rect
         style="fill:#c1d82f"
         x="517.81598"
         y="143.15199"
         transform="matrix(0.707,0.7072,-0.7072,0.707,254.8612,-325.0529)"
         clip-path="url(#SVGID_8_)"
         width="3.7720001"
         height="3.773"
         id="rect625" /><rect
         style="fill:#c1d82f"
         x="524.75702"
         y="143.257"
         transform="matrix(0.7072,0.707,-0.707,0.7072,256.7944,-329.8327)"
         clip-path="url(#SVGID_8_)"
         width="3.7720001"
         height="3.7709999"
         id="rect627" /><rect
         style="fill:#c1d82f"
         x="514.42499"
         y="146.804"
         transform="matrix(0.7071,0.7071,-0.7071,0.7071,256.3635,-321.5372)"
         clip-path="url(#SVGID_8_)"
         width="3.773"
         height="3.7720001"
         id="rect629" /><rect
         style="fill:#c1d82f"
         x="521.224"
         y="146.804"
         transform="matrix(0.7072,0.707,-0.707,0.7072,258.268,-326.2966)"
         clip-path="url(#SVGID_8_)"
         width="3.7739999"
         height="3.7720001"
         id="rect631" /><rect
         style="fill:#c1d82f"
         x="528.26703"
         y="146.80299"
         transform="matrix(0.7068,0.7074,-0.7074,0.7068,260.5933,-331.4232)"
         clip-path="url(#SVGID_8_)"
         width="3.7720001"
         height="3.7720001"
         id="rect633" /></g><path
       style="fill:#c1d82f"
       inkscape:connector-curvature="0"
       id="path643"
       d="m 349.381,455.006 2.148,0 0,1.232 c 0,1.199 -0.951,2.15 -2.159,2.15 -0.95,0 -1.604,-0.561 -1.893,-1.088 -0.196,-0.356 -0.266,-0.535 -0.266,-1.988 0,-1.452 0.069,-1.633 0.266,-1.989 0.288,-0.526 0.942,-1.088 1.893,-1.088 1.149,0 1.94,0.808 2.125,1.794 l -0.968,0 c -0.145,-0.468 -0.578,-0.876 -1.157,-0.876 -0.433,0 -0.747,0.204 -0.934,0.442 -0.237,0.307 -0.306,0.476 -0.306,1.717 0,1.24 0.068,1.41 0.306,1.717 0.187,0.238 0.501,0.441 0.934,0.441 0.698,0 1.241,-0.526 1.241,-1.283 l 0,-0.314 -1.23,0 0,-0.867 z"
       clip-path="url(#SVGID_10_)"
       transform="matrix(0,-2.9,2.9,0,-442.37377,1513.9347)" /><path
       style="fill:#c1d82f"
       inkscape:connector-curvature="0"
       id="path645"
       d="m 352.524,454.029 0.867,0 0,0.459 0.019,0 c 0.271,-0.34 0.662,-0.51 1.122,-0.51 0.347,0 0.636,0.127 0.899,0.33 l -0.629,0.748 c -0.204,-0.152 -0.348,-0.212 -0.57,-0.212 -0.425,0 -0.841,0.272 -0.841,0.901 l 0,2.592 -0.867,0 0,-4.308 z"
       clip-path="url(#SVGID_10_)"
       transform="matrix(0,-2.9,2.9,0,-442.37377,1513.9347)" /><path
       style="fill:#c1d82f"
       inkscape:connector-curvature="0"
       id="path647"
       d="m 357.94,457.955 -0.017,0 c -0.178,0.298 -0.475,0.434 -1.063,0.434 -0.959,0 -1.521,-0.569 -1.521,-1.317 0,-0.688 0.475,-1.274 1.403,-1.274 l 1.196,0 0,-0.451 c 0,-0.407 -0.263,-0.552 -0.883,-0.552 -0.45,0 -0.663,0.085 -0.815,0.331 l -0.681,-0.518 c 0.33,-0.459 0.809,-0.629 1.454,-0.629 1.063,0 1.792,0.356 1.792,1.418 l 0,2.941 -0.867,0 0,-0.383 z m 0,-1.444 -1.036,0 c -0.51,0 -0.747,0.204 -0.747,0.52 0,0.288 0.229,0.543 0.815,0.543 0.723,0 0.968,-0.077 0.968,-0.748 l 0,-0.315 z"
       clip-path="url(#SVGID_10_)"
       transform="matrix(0,-2.9,2.9,0,-442.37377,1513.9347)" /><path
       style="fill:#c1d82f"
       inkscape:connector-curvature="0"
       id="path649"
       d="m 359.932,454.029 0.864,0 0,0.45 c 0.273,-0.298 0.674,-0.501 1.114,-0.501 0.527,0 0.909,0.237 1.156,0.561 0.238,0.306 0.307,0.585 0.307,1.648 0,1.055 -0.068,1.334 -0.307,1.641 -0.247,0.322 -0.629,0.561 -1.156,0.561 -0.44,0 -0.79,-0.203 -1.114,-0.51 l 0,2.201 -0.864,0 0,-6.051 z m 2.575,2.159 c 0,-0.672 -0.045,-1.343 -0.858,-1.343 -0.808,0 -0.853,0.714 -0.853,1.343 0,0.621 0.045,1.334 0.853,1.334 0.813,-10e-4 0.858,-0.671 0.858,-1.334"
       clip-path="url(#SVGID_10_)"
       transform="matrix(0,-2.9,2.9,0,-442.37377,1513.9347)" /><path
       style="fill:#c1d82f"
       inkscape:connector-curvature="0"
       id="path651"
       d="m 364.341,452.287 0.867,0 0,2.201 0.02,0 c 0.271,-0.34 0.661,-0.51 1.121,-0.51 0.671,0 1.435,0.518 1.435,1.495 l 0,2.864 -0.865,0 0,-2.566 c 0,-0.587 -0.365,-0.927 -0.85,-0.927 -0.494,0 -0.86,0.34 -0.86,0.927 l 0,2.566 -0.867,0 0,-6.05 z"
       clip-path="url(#SVGID_10_)"
       transform="matrix(0,-2.9,2.9,0,-442.37377,1513.9347)" /><path
       style="fill:#c1d82f"
       inkscape:connector-curvature="0"
       id="path653"
       d="m 368.933,452.287 0.866,0 0,0.865 -0.866,0 0,-0.865 z m 0,1.742 0.866,0 0,4.31 -0.866,0 0,-4.31 z"
       clip-path="url(#SVGID_10_)"
       transform="matrix(0,-2.9,2.9,0,-442.37377,1513.9347)" /><path
       style="fill:#c1d82f"
       inkscape:connector-curvature="0"
       id="path655"
       d="m 374.116,457.641 c -0.375,0.435 -0.893,0.748 -1.547,0.748 -0.994,0 -1.954,-0.629 -1.954,-2.201 0,-1.58 0.96,-2.209 1.954,-2.209 0.654,0 1.172,0.314 1.547,0.747 l -0.638,0.569 c -0.212,-0.264 -0.518,-0.45 -0.875,-0.45 -0.705,0 -1.121,0.4 -1.121,1.343 0,0.936 0.416,1.334 1.121,1.334 0.357,0 0.663,-0.187 0.875,-0.45 l 0.638,0.569 z"
       clip-path="url(#SVGID_10_)"
       transform="matrix(0,-2.9,2.9,0,-442.37377,1513.9347)" /><path
       style="fill:#c1d82f"
       inkscape:connector-curvature="0"
       id="path657"
       d="m 374.849,457.021 c 0.375,0.365 0.78,0.552 1.358,0.552 0.494,0 0.852,-0.187 0.852,-0.552 0,-0.306 -0.23,-0.399 -0.526,-0.425 l -0.767,-0.068 c -0.713,-0.059 -1.24,-0.485 -1.24,-1.224 0,-0.876 0.698,-1.325 1.605,-1.325 0.756,0 1.268,0.229 1.691,0.586 l -0.536,0.629 c -0.339,-0.238 -0.687,-0.399 -1.155,-0.399 -0.553,0 -0.738,0.221 -0.738,0.519 0,0.187 0.136,0.373 0.568,0.408 l 0.714,0.051 c 0.895,0.059 1.249,0.603 1.249,1.291 0,0.842 -0.781,1.326 -1.783,1.326 -0.696,0 -1.345,-0.255 -1.896,-0.773 l 0.604,-0.596 z"
       clip-path="url(#SVGID_10_)"
       transform="matrix(0,-2.9,2.9,0,-442.37377,1513.9347)" /><path
       style="fill:#c1d82f"
       inkscape:connector-curvature="0"
       id="path659"
       d="m 383.679,452.235 c 1.699,0 3.077,1.377 3.077,3.077 0,1.699 -1.378,3.076 -3.077,3.076 -1.698,0 -3.075,-1.377 -3.075,-3.076 0,-1.7 1.376,-3.077 3.075,-3.077 m 0,5.542 c 1.387,0 2.415,-1.029 2.415,-2.465 0,-1.437 -1.028,-2.465 -2.415,-2.465 -1.386,0 -2.413,1.028 -2.413,2.465 0,1.436 1.027,2.465 2.413,2.465 m 1.666,-1.929 c -0.151,0.9 -0.757,1.428 -1.555,1.428 -1.155,0 -1.87,-0.842 -1.87,-1.963 0,-1.147 0.671,-1.963 1.846,-1.963 0.822,0 1.469,0.458 1.579,1.385 l -0.611,0 c -0.093,-0.45 -0.477,-0.773 -0.96,-0.773 -0.757,0 -1.191,0.604 -1.191,1.334 0,0.705 0.477,1.369 1.208,1.369 0.484,0 0.867,-0.339 0.943,-0.816 l 0.611,0 z"
       clip-path="url(#SVGID_10_)"
       transform="matrix(0,-2.9,2.9,0,-442.37377,1513.9347)" /><polygon
       style="fill:#c1d82f"
       id="polygon661"
       points="390.675,458.338 389.757,458.338 389.757,452.287 390.675,452.287 390.675,454.879 393.072,454.879 393.072,452.287 393.99,452.287 393.99,458.338 393.072,458.338 393.072,455.695 390.675,455.695 "
       clip-path="url(#SVGID_10_)"
       transform="matrix(0,-2.9,2.9,0,-442.37377,1513.9347)" /><path
       style="fill:#c1d82f"
       inkscape:connector-curvature="0"
       id="path663"
       d="m 397.449,457.955 -0.018,0 c -0.178,0.298 -0.475,0.434 -1.062,0.434 -0.96,0 -1.521,-0.569 -1.521,-1.317 0,-0.688 0.476,-1.274 1.403,-1.274 l 1.197,0 0,-0.451 c 0,-0.407 -0.264,-0.552 -0.884,-0.552 -0.45,0 -0.663,0.085 -0.815,0.331 l -0.681,-0.518 c 0.33,-0.459 0.809,-0.629 1.454,-0.629 1.063,0 1.792,0.356 1.792,1.418 l 0,2.941 -0.866,0 0,-0.383 z m 0,-1.444 -1.037,0 c -0.51,0 -0.747,0.204 -0.747,0.52 0,0.288 0.229,0.543 0.815,0.543 0.723,0 0.969,-0.077 0.969,-0.748 l 0,-0.315 z"
       clip-path="url(#SVGID_10_)"
       transform="matrix(0,-2.9,2.9,0,-442.37377,1513.9347)" /><path
       style="fill:#c1d82f"
       inkscape:connector-curvature="0"
       id="path665"
       d="m 399.439,454.029 0.864,0 0,0.45 c 0.272,-0.298 0.674,-0.501 1.114,-0.501 0.527,0 0.91,0.237 1.156,0.561 0.238,0.306 0.307,0.585 0.307,1.648 0,1.055 -0.068,1.334 -0.307,1.641 -0.246,0.322 -0.629,0.561 -1.156,0.561 -0.44,0 -0.79,-0.203 -1.114,-0.51 l 0,2.201 -0.864,0 0,-6.051 z m 2.574,2.159 c 0,-0.672 -0.043,-1.343 -0.856,-1.343 -0.809,0 -0.853,0.714 -0.853,1.343 0,0.621 0.044,1.334 0.853,1.334 0.813,-10e-4 0.856,-0.671 0.856,-1.334"
       clip-path="url(#SVGID_10_)"
       transform="matrix(0,-2.9,2.9,0,-442.37377,1513.9347)" /><path
       style="fill:#c1d82f"
       inkscape:connector-curvature="0"
       id="path667"
       d="m 403.85,454.029 0.866,0 0,0.45 c 0.271,-0.298 0.673,-0.501 1.113,-0.501 0.528,0 0.911,0.237 1.157,0.561 0.238,0.306 0.305,0.585 0.305,1.648 0,1.055 -0.066,1.334 -0.305,1.641 -0.246,0.322 -0.629,0.561 -1.157,0.561 -0.44,0 -0.789,-0.203 -1.113,-0.51 l 0,2.201 -0.866,0 0,-6.051 z m 2.575,2.159 c 0,-0.672 -0.043,-1.343 -0.858,-1.343 -0.807,0 -0.851,0.714 -0.851,1.343 0,0.621 0.044,1.334 0.851,1.334 0.815,-10e-4 0.858,-0.671 0.858,-1.334"
       clip-path="url(#SVGID_10_)"
       transform="matrix(0,-2.9,2.9,0,-442.37377,1513.9347)" /><path
       style="fill:#c1d82f"
       inkscape:connector-curvature="0"
       id="path669"
       d="m 407.641,454.029 0.917,0 1.021,3.017 0.017,0 1.021,-3.017 0.918,0 -1.852,5.201 c -0.237,0.662 -0.689,0.85 -1.216,0.85 l -0.29,0 0,-0.816 0.256,0 c 0.222,0 0.434,-0.118 0.519,-0.373 l 0.237,-0.723 -1.548,-4.139 z"
       clip-path="url(#SVGID_10_)"
       transform="matrix(0,-2.9,2.9,0,-442.37377,1513.9347)" /><path
       style="fill:#c1d82f"
       inkscape:connector-curvature="0"
       id="path671"
       d="m 413.786,457.521 2.362,-2.957 c 0.188,-0.238 0.222,-0.426 0.222,-0.604 0,-0.426 -0.313,-0.858 -0.834,-0.858 -0.467,0 -0.842,0.331 -0.883,0.876 l -0.867,0 c 0.009,-0.986 0.774,-1.743 1.684,-1.743 1.011,0 1.767,0.773 1.767,1.733 0,0.4 -0.108,0.748 -0.366,1.063 l -1.944,2.439 2.311,0 0,0.867 -3.45,0 0,-0.816 z"
       clip-path="url(#SVGID_10_)"
       transform="matrix(0,-2.9,2.9,0,-442.37377,1513.9347)" /><path
       style="fill:#c1d82f"
       inkscape:connector-curvature="0"
       id="path673"
       d="m 417.918,453.979 c 0,-1.114 0.824,-1.743 1.717,-1.743 0.894,0 1.717,0.629 1.717,1.743 l 0,2.668 c 0,1.112 -0.823,1.742 -1.717,1.742 -0.893,0 -1.717,-0.63 -1.717,-1.742 l 0,-2.668 z m 2.565,0.05 c 0,-0.587 -0.339,-0.927 -0.849,-0.927 -0.51,0 -0.849,0.34 -0.849,0.927 l 0,2.566 c 0,0.586 0.339,0.926 0.849,0.926 0.51,0 0.849,-0.34 0.849,-0.926 l 0,-2.566 z"
       clip-path="url(#SVGID_10_)"
       transform="matrix(0,-2.9,2.9,0,-442.37377,1513.9347)" /><polygon
       style="fill:#c1d82f"
       id="polygon675"
       points="423.324,453.205 422.466,453.834 422.466,452.916 423.324,452.287 424.19,452.287 424.19,458.338 423.324,458.338 "
       clip-path="url(#SVGID_10_)"
       transform="matrix(0,-2.9,2.9,0,-442.37377,1513.9347)" /><path
       style="fill:#c1d82f"
       inkscape:connector-curvature="0"
       id="path677"
       d="m 426.028,457.521 2.36,-2.957 c 0.188,-0.238 0.223,-0.426 0.223,-0.604 0,-0.426 -0.315,-0.858 -0.833,-0.858 -0.468,0 -0.843,0.331 -0.886,0.876 l -0.864,0 c 0.008,-0.986 0.771,-1.743 1.681,-1.743 1.011,0 1.768,0.773 1.768,1.733 0,0.4 -0.109,0.748 -0.365,1.063 l -1.945,2.439 2.311,0 0,0.867 -3.448,0 0,-0.816 z"
       clip-path="url(#SVGID_10_)"
       transform="matrix(0,-2.9,2.9,0,-442.37377,1513.9347)" /><rect
       style="fill:#c1d82f"
       id="rect679"
       height="0.86699998"
       width="0.86500001"
       clip-path="url(#SVGID_10_)"
       y="457.47101"
       x="430.422"
       transform="matrix(0,-2.9,2.9,0,-442.37377,1513.9347)" /><path
       style="fill:#c1d82f"
       inkscape:connector-curvature="0"
       id="path681"
       d="m 437.654,456.986 -2.295,0 -0.468,1.352 -0.968,0 2.2,-6.051 0.765,0 2.202,6.051 -0.97,0 -0.466,-1.352 z m -0.263,-0.816 -0.875,-2.643 -0.017,0 -0.876,2.643 1.768,0 z"
       clip-path="url(#SVGID_10_)"
       transform="matrix(0,-2.9,2.9,0,-442.37377,1513.9347)" /><path
       style="fill:#c1d82f"
       inkscape:connector-curvature="0"
       id="path683"
       d="m 439.661,452.287 0.866,0 0,4.938 c 0,0.194 0.111,0.296 0.324,0.296 l 0.297,0 0,0.816 -0.383,0 c -0.629,0 -1.104,-0.271 -1.104,-1.045 l 0,-5.005 z"
       clip-path="url(#SVGID_10_)"
       transform="matrix(0,-2.9,2.9,0,-442.37377,1513.9347)" /><path
       style="fill:#c1d82f"
       inkscape:connector-curvature="0"
       id="path685"
       d="m 441.854,452.287 0.866,0 0,4.938 c 0,0.194 0.112,0.296 0.323,0.296 l 0.298,0 0,0.816 -0.383,0 c -0.628,0 -1.104,-0.271 -1.104,-1.045 l 0,-5.005 z"
       clip-path="url(#SVGID_10_)"
       transform="matrix(0,-2.9,2.9,0,-442.37377,1513.9347)" /><path
       style="fill:#c1d82f"
       inkscape:connector-curvature="0"
       id="path687"
       d="m 446.086,454.029 0.867,0 0,0.459 0.018,0 c 0.271,-0.34 0.664,-0.51 1.123,-0.51 0.347,0 0.637,0.127 0.9,0.33 l -0.629,0.748 c -0.205,-0.152 -0.35,-0.212 -0.57,-0.212 -0.425,0 -0.842,0.272 -0.842,0.901 l 0,2.592 -0.867,0 0,-4.308 z"
       clip-path="url(#SVGID_10_)"
       transform="matrix(0,-2.9,2.9,0,-442.37377,1513.9347)" /><path
       style="fill:#c1d82f"
       inkscape:connector-curvature="0"
       id="path689"
       d="m 449.42,452.287 0.865,0 0,0.865 -0.865,0 0,-0.865 z m 0,1.742 0.865,0 0,4.31 -0.865,0 0,-4.31 z"
       clip-path="url(#SVGID_10_)"
       transform="matrix(0,-2.9,2.9,0,-442.37377,1513.9347)" /><path
       style="fill:#c1d82f"
       inkscape:connector-curvature="0"
       id="path691"
       d="m 453.855,457.887 c -0.271,0.299 -0.672,0.502 -1.113,0.502 -0.561,0 -0.943,-0.28 -1.139,-0.527 -0.246,-0.322 -0.322,-0.483 -0.322,-1.674 0,-1.198 0.076,-1.359 0.322,-1.683 0.195,-0.247 0.578,-0.526 1.139,-0.526 0.441,0 0.791,0.17 1.113,0.51 l 0,-0.459 0.867,0 0,4.207 c 0,1.3 -0.885,1.895 -1.869,1.895 -0.554,0 -1.113,-0.289 -1.496,-0.723 l 0.671,-0.535 c 0.212,0.214 0.511,0.391 0.842,0.391 0.577,0 0.985,-0.331 0.985,-0.934 l 0,-0.444 z m -1.537,-0.697 c 0.118,0.153 0.339,0.331 0.688,0.331 0.339,0 0.56,-0.178 0.68,-0.331 0.152,-0.195 0.17,-0.314 0.17,-1.003 0,-0.697 -0.018,-0.816 -0.17,-1.012 -0.12,-0.152 -0.341,-0.331 -0.68,-0.331 -0.349,0 -0.569,0.179 -0.688,0.331 -0.154,0.195 -0.171,0.314 -0.171,1.012 0,0.689 0.017,0.808 0.171,1.003"
       clip-path="url(#SVGID_10_)"
       transform="matrix(0,-2.9,2.9,0,-442.37377,1513.9347)" /><path
       style="fill:#c1d82f"
       inkscape:connector-curvature="0"
       id="path693"
       d="m 455.845,452.287 0.866,0 0,2.201 0.018,0 c 0.271,-0.34 0.664,-0.51 1.123,-0.51 0.672,0 1.435,0.518 1.435,1.495 l 0,2.864 -0.866,0 0,-2.566 c 0,-0.587 -0.366,-0.927 -0.85,-0.927 -0.492,0 -0.859,0.34 -0.859,0.927 l 0,2.566 -0.866,0 0,-6.05 z"
       clip-path="url(#SVGID_10_)"
       transform="matrix(0,-2.9,2.9,0,-442.37377,1513.9347)" /><path
       style="fill:#c1d82f"
       inkscape:connector-curvature="0"
       id="path695"
       d="m 460.461,452.72 0.867,0 0,1.311 0.629,0 0,0.661 -0.629,0 0,2.508 c 0,0.238 0.093,0.322 0.305,0.322 l 0.324,0 0,0.816 -0.45,0 c -0.604,0 -1.046,-0.383 -1.046,-1.063 l 0,-2.584 -0.434,0 0,-0.661 0.434,0 0,-1.31 z"
       clip-path="url(#SVGID_10_)"
       transform="matrix(0,-2.9,2.9,0,-442.37377,1513.9347)" /><path
       style="fill:#c1d82f"
       inkscape:connector-curvature="0"
       id="path697"
       d="m 462.899,457.021 c 0.374,0.365 0.782,0.552 1.36,0.552 0.493,0 0.849,-0.187 0.849,-0.552 0,-0.306 -0.228,-0.399 -0.526,-0.425 l -0.763,-0.068 c -0.716,-0.059 -1.243,-0.485 -1.243,-1.224 0,-0.876 0.697,-1.325 1.606,-1.325 0.757,0 1.267,0.229 1.692,0.586 l -0.537,0.629 c -0.339,-0.238 -0.688,-0.399 -1.155,-0.399 -0.552,0 -0.738,0.221 -0.738,0.519 0,0.187 0.136,0.373 0.568,0.408 l 0.714,0.051 c 0.894,0.059 1.25,0.603 1.25,1.291 0,0.842 -0.781,1.326 -1.786,1.326 -0.695,0 -1.342,-0.255 -1.895,-0.773 l 0.604,-0.596 z"
       clip-path="url(#SVGID_10_)"
       transform="matrix(0,-2.9,2.9,0,-442.37377,1513.9347)" /><path
       style="fill:#c1d82f"
       inkscape:connector-curvature="0"
       id="path699"
       d="m 468.892,454.029 0.868,0 0,0.459 0.018,0 c 0.271,-0.34 0.663,-0.51 1.121,-0.51 0.348,0 0.638,0.127 0.9,0.33 l -0.629,0.748 c -0.204,-0.152 -0.348,-0.212 -0.57,-0.212 -0.425,0 -0.84,0.272 -0.84,0.901 l 0,2.592 -0.868,0 0,-4.308 z"
       clip-path="url(#SVGID_10_)"
       transform="matrix(0,-2.9,2.9,0,-442.37377,1513.9347)" /><path
       style="fill:#c1d82f"
       inkscape:connector-curvature="0"
       id="path701"
       d="m 472.701,456.511 c 0,0.705 0.434,1.062 1.029,1.062 0.331,0 0.687,-0.152 0.943,-0.416 l 0.629,0.536 c -0.426,0.493 -0.978,0.696 -1.555,0.696 -0.885,0 -1.914,-0.425 -1.914,-2.192 0,-1.675 0.944,-2.218 1.777,-2.218 0.951,0 1.775,0.705 1.775,1.818 l 0,0.714 -2.684,0 z m 1.819,-0.714 c -0.024,-0.654 -0.398,-1.003 -0.908,-1.003 -0.51,0 -0.893,0.349 -0.91,1.003 l 1.818,0 z"
       clip-path="url(#SVGID_10_)"
       transform="matrix(0,-2.9,2.9,0,-442.37377,1513.9347)" /><path
       style="fill:#c1d82f"
       inkscape:connector-curvature="0"
       id="path703"
       d="m 476.424,457.021 c 0.375,0.365 0.783,0.552 1.361,0.552 0.493,0 0.85,-0.187 0.85,-0.552 0,-0.306 -0.23,-0.399 -0.527,-0.425 l -0.764,-0.068 c -0.716,-0.059 -1.242,-0.485 -1.242,-1.224 0,-0.876 0.697,-1.325 1.605,-1.325 0.758,0 1.268,0.229 1.692,0.586 l -0.536,0.629 c -0.34,-0.238 -0.688,-0.399 -1.156,-0.399 -0.551,0 -0.738,0.221 -0.738,0.519 0,0.187 0.137,0.373 0.568,0.408 l 0.715,0.051 c 0.893,0.059 1.25,0.603 1.25,1.291 0,0.842 -0.782,1.326 -1.786,1.326 -0.696,0 -1.343,-0.255 -1.896,-0.773 l 0.604,-0.596 z"
       clip-path="url(#SVGID_10_)"
       transform="matrix(0,-2.9,2.9,0,-442.37377,1513.9347)" /><path
       style="fill:#c1d82f"
       inkscape:connector-curvature="0"
       id="path705"
       d="m 481.032,456.511 c 0,0.705 0.433,1.062 1.029,1.062 0.329,0 0.687,-0.152 0.941,-0.416 l 0.629,0.536 c -0.425,0.493 -0.976,0.696 -1.554,0.696 -0.884,0 -1.914,-0.425 -1.914,-2.192 0,-1.675 0.944,-2.218 1.777,-2.218 0.95,0 1.774,0.705 1.774,1.818 l 0,0.714 -2.682,0 z m 1.82,-0.714 c -0.026,-0.654 -0.4,-1.003 -0.91,-1.003 -0.51,0 -0.893,0.349 -0.909,1.003 l 1.819,0 z"
       clip-path="url(#SVGID_10_)"
       transform="matrix(0,-2.9,2.9,0,-442.37377,1513.9347)" /><path
       style="fill:#c1d82f"
       inkscape:connector-curvature="0"
       id="path707"
       d="m 484.628,454.029 0.866,0 0,0.459 0.018,0 c 0.271,-0.34 0.662,-0.51 1.121,-0.51 0.348,0 0.638,0.127 0.9,0.33 l -0.629,0.748 c -0.204,-0.152 -0.347,-0.212 -0.568,-0.212 -0.426,0 -0.842,0.272 -0.842,0.901 l 0,2.592 -0.866,0 0,-4.308 z"
       clip-path="url(#SVGID_10_)"
       transform="matrix(0,-2.9,2.9,0,-442.37377,1513.9347)" /><polygon
       style="fill:#c1d82f"
       id="polygon709"
       points="489.617,458.338 488.902,458.338 487.322,454.029 488.24,454.029 489.253,457.046 489.268,457.046 490.278,454.029 491.197,454.029 "
       clip-path="url(#SVGID_10_)"
       transform="matrix(0,-2.9,2.9,0,-442.37377,1513.9347)" /><path
       style="fill:#c1d82f"
       inkscape:connector-curvature="0"
       id="path711"
       d="m 492.313,456.511 c 0,0.705 0.433,1.062 1.029,1.062 0.332,0 0.687,-0.152 0.943,-0.416 l 0.629,0.536 c -0.427,0.493 -0.977,0.696 -1.556,0.696 -0.884,0 -1.913,-0.425 -1.913,-2.192 0,-1.675 0.945,-2.218 1.778,-2.218 0.95,0 1.774,0.705 1.774,1.818 l 0,0.714 -2.684,0 z m 1.819,-0.714 c -0.024,-0.654 -0.399,-1.003 -0.908,-1.003 -0.512,0 -0.895,0.349 -0.911,1.003 l 1.819,0 z"
       clip-path="url(#SVGID_10_)"
       transform="matrix(0,-2.9,2.9,0,-442.37377,1513.9347)" /><path
       style="fill:#c1d82f"
       inkscape:connector-curvature="0"
       id="path713"
       d="m 498.483,457.887 c -0.271,0.299 -0.671,0.502 -1.112,0.502 -0.527,0 -0.91,-0.238 -1.156,-0.561 -0.238,-0.307 -0.307,-0.585 -0.307,-1.648 0,-1.055 0.068,-1.335 0.307,-1.641 0.246,-0.323 0.629,-0.561 1.156,-0.561 0.441,0 0.79,0.203 1.112,0.51 l 0,-2.201 0.866,0 0,6.051 -0.866,0 0,-0.451 z m -1.709,-1.707 c 0,0.671 0.045,1.342 0.858,1.342 0.808,0 0.851,-0.713 0.851,-1.342 0,-0.621 -0.043,-1.335 -0.851,-1.335 -0.813,0 -0.858,0.671 -0.858,1.335"
       clip-path="url(#SVGID_10_)"
       transform="matrix(0,-2.9,2.9,0,-442.37377,1513.9347)" /><rect
       style="fill:#c1d82f"
       id="rect715"
       height="0.86699998"
       width="0.866"
       clip-path="url(#SVGID_10_)"
       y="457.47101"
       x="500.34601"
       transform="matrix(0,-2.9,2.9,0,-442.37377,1513.9347)" /></g></svg>