<?xml version="1.0" encoding="UTF-8" standalone="no"?>
<!-- Created with Inkscape (http://www.inkscape.org/) -->

<svg
   xmlns:dc="http://purl.org/dc/elements/1.1/"
   xmlns:cc="http://creativecommons.org/ns#"
   xmlns:rdf="http://www.w3.org/1999/02/22-rdf-syntax-ns#"
   xmlns:svg="http://www.w3.org/2000/svg"
   xmlns="http://www.w3.org/2000/svg"
   xmlns:sodipodi="http://sodipodi.sourceforge.net/DTD/sodipodi-0.dtd"
   xmlns:inkscape="http://www.inkscape.org/namespaces/inkscape"
   width="999.63849"
   height="735.28699"
   viewBox="0 0 3542.0262 2605.3476"
   id="svg2"
   version="1.1"
   inkscape:version="0.91 r13725"
   sodipodi:docname="symbols.svg">
  <defs
     id="defs4" />
  <sodipodi:namedview
     id="base"
     pagecolor="#ffffff"
     bordercolor="#666666"
     borderopacity="1.0"
     inkscape:pageopacity="0.0"
     inkscape:pageshadow="2"
     inkscape:zoom="0.24748737"
     inkscape:cx="2058.3978"
     inkscape:cy="1184.0977"
     inkscape:document-units="px"
     inkscape:current-layer="layer3"
     showgrid="false"
     inkscape:window-width="1920"
     inkscape:window-height="1028"
     inkscape:window-x="1432"
     inkscape:window-y="-8"
     inkscape:window-maximized="1"
     fit-margin-top="0"
     fit-margin-left="0"
     fit-margin-right="0"
     fit-margin-bottom="0" />
  <metadata
     id="metadata7">
    <rdf:RDF>
      <cc:Work
         rdf:about="">
        <dc:format>image/svg+xml</dc:format>
        <dc:type
           rdf:resource="http://purl.org/dc/dcmitype/StillImage" />
        <dc:title></dc:title>
      </cc:Work>
    </rdf:RDF>
  </metadata>
  <g
     inkscape:groupmode="layer"
     id="layer4"
     inkscape:label="text"
     style="display:inline"
     transform="translate(1904.0431,774.12534)">
    <path
       style="display:inline;fill:#000000"
       d="m 1508.7626,1592.4556 c -3.4875,-1.6962 -6.5867,-2.5829 -11.4592,-3.2784 -3.4988,-0.4994 -7.3088,-2.8161 -11.2709,-6.8533 -2.3261,-2.37 -5.9086,-5.3343 -7.9612,-6.5873 -2.8625,-1.7474 -4.0615,-3.3688 -5.1451,-6.9578 -0.7772,-2.5737 -2.7007,-8.2794 -4.2746,-12.6794 -2.0694,-5.7855 -2.8234,-9.6608 -2.7237,-14 0.1876,-8.1659 0.8551,-10.358 6.8975,-22.6558 5.0208,-10.2185 10.6317,-17.2656 13.0673,-16.412 0.5992,0.2099 1.8452,-0.8977 2.7689,-2.4614 0.9238,-1.5636 2.9086,-3.464 4.4106,-4.223 1.5022,-0.7589 3.6312,-1.8602 4.7312,-2.4472 7.6609,-4.0882 13.3832,-5.3829 22.0866,-4.9973 14.757,0.6539 25.1606,4.8276 35.0438,14.0587 10.2422,9.5665 15.1153,20.1956 15.422,33.638 0.082,3.575 0.2558,8.075 0.3873,10 0.1315,1.925 -0.3823,4.5252 -1.1419,5.7783 -0.7594,1.253 -1.1422,2.6645 -0.8504,3.1366 0.2918,0.4723 -0.081,1.3659 -0.828,1.986 -0.7472,0.6202 -2.1305,3.1491 -3.0741,5.6197 -0.9436,2.4707 -2.1273,4.2378 -2.6304,3.9269 -0.5032,-0.3111 -0.9149,0.431 -0.9149,1.6492 0,2.8167 -14.0246,16.632 -17.8072,17.5413 -1.481,0.356 -4.4928,1.6364 -6.6928,2.8453 -2.2,1.2088 -4.342,2.2244 -4.76,2.2568 -7.2484,0.5619 -15.4611,1.6213 -16.24,2.0952 -1.8372,1.1179 -3.0871,0.9442 -7.0408,-0.979 z m 17.2257,-8.9682 c 2.947,-1.164 5.0212,-1.5479 9.5136,-1.7604 1.4842,-0.07 3.9124,-1.2525 5.396,-2.6276 1.4838,-1.3749 3.0819,-2.5 3.5515,-2.5 0.4697,0 0.854,-0.6749 0.854,-1.5 0,-0.8249 0.4888,-1.5 1.0861,-1.5 2.0556,0 7.8364,-6.3704 8.4928,-9.3591 0.3615,-1.6461 1.7856,-5.014 3.1647,-7.484 2.2197,-3.976 2.5513,-5.9217 2.8925,-16.9713 l 0.3854,-12.4805 -3.5142,-6.3931 c -4.7448,-8.6321 -11.4265,-14.8785 -20.5073,-19.1709 -4.1249,-1.9499 -8.0624,-3.6792 -8.75,-3.8431 -3.8849,-0.926 -4.8193,-0.91 -5.4847,0.094 -0.5037,0.76 -0.7394,0.6971 -0.75,-0.2007 -0.01,-0.72 -0.3961,-1.0736 -0.8617,-0.7858 -0.4656,0.2877 -3.6112,0.7737 -6.9904,1.0801 -3.3791,0.3063 -7.3024,0.9973 -8.7185,1.5359 -1.4162,0.5383 -3.49,0.9789 -4.6087,0.9789 -5.4792,0 -16.836,9.0916 -16.836,13.478 0,1.3221 -0.4777,2.6992 -1.0616,3.06 -2.1119,1.3052 -3.8273,7.5894 -4.0163,14.712 -0.025,0.9624 -0.5165,1.75 -1.0912,1.75 -0.5746,0 -0.7844,0.6788 -0.4658,1.5086 0.3184,0.8298 0.1232,2.7074 -0.4339,4.1724 -0.5571,1.4651 -0.7168,3.3738 -0.3552,4.2414 0.3616,0.8676 0.6549,4.3508 0.6517,7.7405 -0.01,6.5741 0.2523,7.149 7.4519,16.5837 5.3568,7.02 15.9804,14.7174 20.4996,14.853 1.8264,0.055 4.4459,0.46 5.8208,0.9004 3.7572,1.2032 11.5049,1.144 14.6849,-0.112 z m -22.9373,-23.374 c -7.5847,-1.5599 -13.6785,-4.5939 -15.7458,-7.8393 -2.123,-3.3332 -2.8642,-11.4831 -1.4658,-16.1143 2.3265,-7.704 5.1697,-11.3348 9.4412,-12.0565 5.6715,-0.9582 8.3444,0.7557 7.4599,4.7829 -0.8915,4.0587 -2.5701,6.7132 -4.245,6.7132 -0.7829,0 -1.1268,0.7175 -0.8388,1.75 0.2684,0.9625 0.7931,2.8069 1.1662,4.0988 1.713,5.934 7.0236,7.9711 21.4805,8.2393 8.4043,0.156 9.9615,-0.098 13.5,-2.2058 3.4112,-2.0315 3.9512,-2.8107 3.6681,-5.2923 -0.2853,-2.5023 -2.4381,-6.9619 -4.1465,-8.59 -1.4302,-1.3628 -3.2268,-6.0228 -2.7756,-7.1987 0.8804,-2.2938 5.391,-4.1092 8.3596,-3.3641 3.7736,0.9471 16.2937,14.5628 13.391,14.5628 -0.7464,0 -0.9369,0.9952 -0.5382,2.8108 0.4588,2.0885 0.095,3.2836 -1.417,4.6517 -1.648,1.4915 -1.8017,2.1215 -0.8094,3.3169 1.0096,1.2166 0.6201,1.9807 -2.2158,4.3483 -1.8924,1.5797 -3.9978,2.8723 -4.6786,2.8723 -0.6811,0 -1.598,0.5777 -2.0379,1.2839 -2.15,3.4514 -26.3533,5.5334 -37.5521,3.2301 z m 4.6271,-94.2976 c -8.4395,-0.2364 -10.411,-0.5991 -11.8401,-2.178 -2.003,-2.2136 -0.9135,-5.1793 2.103,-5.7248 1.0244,-0.1852 9.4449,-0.5405 18.7124,-0.7896 9.2674,-0.2488 17.7124,-0.7264 18.7668,-1.0609 3.3987,-1.0787 6.0365,-7.8679 5.6995,-14.6691 -0.2686,-5.4181 -0.5648,-6.1573 -2.8083,-7.0052 -1.3793,-0.5212 -4.758,-1.9999 -7.508,-3.2856 -6.2204,-2.9087 -8.3268,-3.52 -12.694,-3.6841 -4.5227,-0.17 -8.8213,-3.6818 -9.714,-7.9355 -0.9064,-4.3197 2.53,-13.2656 5.9764,-15.5585 5.758,-3.8306 6.3189,-6.7183 1.6816,-8.6567 -6.4128,-2.6807 -7.9536,-7.5863 -3.4558,-11.0025 2.2319,-1.6952 4.3446,-2.1527 10.5,-2.2735 7.6011,-0.1492 15.2058,-2.3525 15.2058,-4.4057 0,-0.5427 -0.45,-0.9867 -1,-0.9867 -0.55,0 -1,-0.9 -1,-2 0,-1.1 -0.3375,-2.0492 -0.75,-2.1096 -0.4124,-0.06 -2.1,-0.2332 -3.75,-0.3844 -11.5644,-1.0588 -21.4694,-4.5219 -21.4694,-7.506 0,-1.6096 2.1213,-3.308 4.6058,-3.6879 6.9861,-1.0681 9.3636,-2.0336 9.3636,-3.8025 0,-1.2027 -2.5072,-2.4048 -6.0948,-2.9224 -2.6407,-0.3809 -7.9004,-4.6059 -7.974,-6.4052 -0.038,-0.9251 -0.2395,-2.9872 -0.4479,-4.5824 -0.2989,-2.2888 1.3621,-7.4481 3.0259,-9.3983 0.7464,-0.8748 5.4973,1.2364 5.9593,2.6482 0.9883,3.0196 7.2848,6.1773 13.3064,6.6729 12.1834,1.0028 14.0913,1.4808 14.7979,3.7068 0.5194,1.6367 -0.098,2.7608 -2.6998,4.9192 -1.855,1.5388 -3.6982,2.81 -4.0957,2.8248 -0.3975,0.015 1.2903,2.1644 3.7507,4.7768 4.8732,5.1748 6.2669,8.9093 6.3712,17.072 0.097,7.6035 -2.7704,12.7912 -8.4624,15.3091 -2.4403,1.0793 -4.4368,2.3341 -4.4368,2.7884 0,0.4541 2.0476,2.7133 4.5502,5.0201 2.5026,2.3068 5.0426,5.4016 5.6443,6.8772 2.7039,6.6304 1.0443,22.0804 -2.7061,25.1929 -1.3623,1.1306 -1.3238,1.4174 0.348,2.5883 3.1618,2.2147 4.4872,9.2584 3.705,19.6912 -0.3856,5.1432 -1.1082,9.9947 -1.6058,10.7811 -0.4978,0.7864 -0.9119,1.0372 -0.9203,0.5573 -0.01,-0.4799 -0.5932,-0.3928 -1.2995,0.1933 -0.8374,0.6951 -2.6232,0.7639 -5.133,0.1979 -2.1168,-0.4776 -4.8407,-0.4909 -6.0531,-0.03 -2.1353,0.8119 -4.5489,0.8328 -26.1551,0.2276 z m 25.3994,-139.776 c -0.3108,-0.3108 -4.7062,-0.6558 -9.7678,-0.7666 l -9.2028,-0.2014 -2.2978,-7.2472 -2.2977,-7.2472 2.4664,-7.0924 c 1.8152,-5.2194 2.2928,-8.1215 1.8083,-10.9892 -0.3622,-2.1432 -1.0688,-3.8968 -1.5706,-3.8968 -1.2024,0 -1.1676,-3.654 0.057,-5.9413 0.5328,-0.9955 3.2134,-3.2503 5.9569,-5.0108 4.8548,-3.1154 6.8481,-5.9871 5.58,-8.039 -0.3429,-0.5549 -1.2393,-1.0089 -1.9919,-1.0089 -0.7527,0 -2.2067,-1.0124 -3.2312,-2.25 -1.0245,-1.2375 -2.7447,-2.7454 -3.8226,-3.3508 -2.0083,-1.128 -3.3571,-6.3992 -1.6375,-6.3992 2.0965,0 2.2094,-6.5587 0.185,-10.7488 -2.6566,-5.4984 -2.5326,-10.047 0.4338,-15.919 3.2994,-6.5314 5.916,-8.6322 9.7124,-7.7985 1.8908,0.4153 2.8034,1.1361 2.486,1.9635 -0.276,0.719 -0.2505,1.5584 0.056,1.8654 1.0045,1.0046 7.7525,-2.3988 10.061,-5.0742 2.143,-2.4835 2.1702,-2.7115 0.5394,-4.5135 -0.9447,-1.0439 -2.5229,-1.6873 -3.507,-1.4301 -0.9841,0.2574 -1.7893,0.016 -1.7893,-0.5372 0,-0.5528 -1.6875,-0.01 -3.75,1.2084 -3.985,2.3524 -8.25,3.2944 -8.25,1.8224 0,-0.4876 -1.575,-3.1763 -3.5,-5.9747 -5.5394,-8.0528 -4.197,-16.6825 3.5998,-23.1417 3.7268,-3.0874 4.9002,-3.38 4.9002,-1.222 0,0.825 0.6062,1.5 1.3472,1.5 0.7409,0 1.8355,1.0125 2.4323,2.25 0.8253,1.7112 1.1013,1.8445 1.1528,0.5568 0.037,-0.9314 0.925,-2.2939 1.9728,-3.0278 2.0134,-1.4102 3.2124,-4.6616 1.7067,-4.628 -0.4885,0.011 -1.2112,-0.5026 -1.6059,-1.1414 -0.3947,-0.6387 -2.6949,-1.4264 -5.1115,-1.7506 -3.4733,-0.4658 -5.2843,-1.5056 -8.6441,-4.9625 -3.9504,-4.0647 -4.2503,-4.7596 -4.2503,-9.8485 0,-4.84 0.4252,-6.4568 2.9054,-11.0488 0.327,-0.6054 2.0571,-3.0355 3.8446,-5.4 1.7875,-2.3646 3.25,-4.6818 3.25,-5.1492 0,-0.8715 -1.8056,-2.6559 -5.7186,-5.6516 -3.3281,-2.5479 -4.1951,-8.5132 -2.751,-18.93 0.6882,-4.9646 5.3304,-10.2684 8.9875,-10.2684 1.3002,0 2.6585,-0.4763 3.0183,-1.0584 0.3598,-0.5823 1.8489,-0.8052 3.309,-0.4955 1.4601,0.3099 5.6749,0.7643 9.3661,1.0103 7.2855,0.485 11.7887,2.6332 11.7887,5.6234 0,2.8078 -3.5222,4.1243 -11.9033,4.4492 -9.6133,0.3726 -11.096,0.7184 -12.2993,2.8686 -1.5645,2.7956 -0.112,6.118 3.5327,8.0808 2.679,1.4428 4.7665,1.7074 10.0951,1.2797 5.9427,-0.4771 7.0157,-0.2829 9.3009,1.6827 l 2.5831,2.222 -2.3426,3.1686 c -1.2885,1.7427 -3.2002,3.1686 -4.2483,3.1686 -1.0645,0 -2.1364,0.8828 -2.4286,2 -0.2876,1.1 -0.9205,2 -1.4063,2 -0.4859,0 -0.8834,0.45 -0.8834,1 0,0.55 0.705,1 1.5667,1 2.5085,0 8.1143,4.808 9.8359,8.4361 2.7288,5.7505 -0.1018,18.6989 -4.3849,20.0583 -0.8366,0.2656 -2.0562,2.1754 -2.7101,4.2442 -0.9761,3.0878 -0.9291,4.1196 0.2624,5.7614 6.472,8.9186 6.6459,9.4084 6.2713,17.6577 -0.3204,7.0547 -0.6338,8.1159 -2.9872,10.112 -3.7135,3.1499 -4.2067,6.4109 -1.6154,10.6795 1.1857,1.9529 2.4438,3.7758 2.7959,4.0508 1.0433,0.8149 2.7202,10.832 2.2367,13.3614 -1.1688,6.1138 -8.2918,10.1656 -12.7434,7.2488 -2.9955,-1.9626 -6.4041,-2.0192 -8.8751,-0.147 -1.016,0.7697 -2.4119,1.1828 -3.1021,0.918 -0.6902,-0.265 -2.0288,0.6996 -2.9748,2.1434 -1.66,2.5334 -1.6477,2.6439 0.3521,3.1668 1.1396,0.298 2.072,0.8686 2.072,1.268 0,1.252 8.2581,4.8446 14,6.0904 6.538,1.4187 14.809,5.345 19.6301,9.3184 2.6329,2.17 3.4057,3.5082 3.1749,5.4975 -0.3026,2.6085 -0.3642,2.6271 -7.805,2.3347 -12.2176,-0.48 -22.8211,2.2282 -25.0531,6.3989 -2.2265,4.1601 3.932,9.3695 11.1069,9.3951 0.8546,0 3.0558,1.5552 4.8914,3.4492 2.6357,2.7192 3.4386,4.4952 3.8182,8.4456 0.2643,2.7513 0.1942,6.1436 -0.1558,7.5382 -0.8676,3.4567 -6.3954,9.5726 -8.6522,9.5726 -1.0105,0 -2.0547,0.3517 -2.3204,0.7816 -0.5786,0.9361 -6.0575,1.4626 -6.8609,0.6592 z m -10.0336,-224.8696 c -5.2285,-1.8657 -6.5641,-3.202 -7.8041,-7.8075 -1.5751,-5.8488 0.356,-13.1233 4.2126,-15.8693 2.8063,-1.9983 3.1714,-2.0256 7.5987,-0.568 3.5177,1.158 5.1506,1.2636 6.7016,0.4336 1.1279,-0.6036 2.1679,-1.0124 2.3112,-0.9083 0.1432,0.1042 1.6191,-0.5133 3.2794,-1.3719 1.6604,-0.8586 3.4813,-1.2753 4.0466,-0.9258 0.5654,0.3492 2.1164,0.7546 3.4469,0.9006 4.771,0.5238 8.5105,8.1375 7.018,14.2892 -0.3678,1.5162 -1.575,4.6538 -2.6826,6.9723 -1.8893,3.9549 -2.2425,4.1963 -5.7112,3.9023 -2.0335,-0.1724 -4.654,-0.9111 -5.8232,-1.6412 -1.8236,-1.1388 -2.371,-1.0831 -3.8464,0.3924 -0.946,0.946 -2.2264,1.5513 -2.8451,1.3452 -0.6188,-0.2064 -1.7237,0.2236 -2.4553,0.9552 -1.6282,1.6283 -2.6449,1.6148 -7.4471,-0.099 z m -17.0356,-78.3569 c -3.666,-3.8264 -4.452,-8.2278 -1.8845,-10.5514 1.7676,-1.5996 4.202,-1.7933 22.7257,-1.8081 l 20.7463,-0.017 2.5674,2.5675 c 1.9946,1.9946 2.3002,2.8349 1.3694,3.7656 -1.5166,1.5166 -2.8231,1.6753 -19.182,2.3297 -7.3992,0.296 -13.6992,0.8908 -14,1.3216 -0.7899,1.1311 -7.6113,5.1779 -8.728,5.1779 -0.5198,0 -2.1462,-1.2538 -3.6143,-2.7862 z m 7.1312,-27.15953 c -4.6521,-0.90344 -8.6888,-3.53328 -9.7565,-6.35664 -1.442,-3.8132 -2.3447,-12.69768 -1.29,-12.69768 0.5374,0 1.2416,-0.78752 1.5648,-1.75 0.6349,-1.89096 2.7684,-5.44096 3.7561,-6.25 0.3357,-0.27496 1.3364,-1.9172 2.2236,-3.64936 1.4173,-2.76696 1.4343,-3.29808 0.1396,-4.37256 -0.8105,-0.67256 -1.4737,-1.77288 -1.4737,-2.44496 0,-0.67208 -1.0862,-2.48608 -2.4138,-4.0312 -3.4537,-4.01928 -3.8325,-11.29784 -0.8468,-16.27152 2.6318,-4.38408 4.2606,-7.96232 4.2606,-9.3596 0,-0.54936 -1.1131,-3.43248 -2.4736,-6.40688 -5.3594,-11.7168 -2.1948,-23.80512 6.2102,-23.72242 1.5199,0.015 5.1006,0.1554 7.957,0.3121 3.0031,0.1648 5.807,-0.2241 6.648,-0.9221 2.0936,-1.7375 5.2233,-2.4059 13.1584,-2.8102 6.681,-0.3403 7.214,-0.1976 11.6946,3.1306 4.8056,3.5696 6.7874,7.6054 6.7998,13.84778 0.01,3.172 -2.548,8.70032 -4.02,8.70032 -0.536,0 -0.9744,0.48208 -0.9744,1.07144 0,0.58928 -0.675,1.74648 -1.5,2.57144 -2.2828,2.2828 -1.8175,5.10392 1.6844,10.21216 2.4952,3.63968 3.2708,5.94344 3.5832,10.64496 0.3896,5.8616 0.3012,6.10968 -3.8324,10.75304 -3.9886,4.48056 -6.1631,10.74696 -3.7292,10.74696 2.7628,0 7.794,8.98624 7.794,13.9208 0,6.82888 -5.7572,14.1892 -10.1746,13.00784 -5.8401,-1.56192 -8.7773,-8.40064 -4.111,-9.57176 2.8092,-0.70504 3.04,-3.9264 0.3321,-4.63448 -1.0745,-0.28096 -2.5865,0 -3.3603,0.63344 -1.7929,1.45824 -2.9281,4.64416 -1.6548,4.64416 2.133,0 0.7994,2.82568 -1.6202,3.43288 -1.424,0.35744 -4.0528,2.24776 -5.8419,4.20064 -2.9296,3.19776 -3.8401,3.5796 -9.1611,3.84152 -3.2494,0.16 -7.557,-0.0288 -9.5721,-0.42072 z m 34.6639,-115.63272 c -2.75,-0.7316 -5.7813,-1.8008 -6.7364,-2.37591 -0.9551,-0.57509 -2.8507,-1.04569 -4.2124,-1.04569 -2.3761,0 -10.7457,-2.705 -17.0512,-5.5108 -1.65,-0.7342 -4.35,-1.6659 -6,-2.07031 -4.3033,-1.05469 -7.5,-3.3678 -7.5,-5.42689 0,-2.5147 1.4958,-2.81571 10,-2.0126 5.5188,0.5213 9.4912,1.6562 15.0376,4.2966 4.1456,1.97349 9.7705,4.13609 12.5,4.80569 5.5756,1.368 16.4624,6.5078 16.4624,7.7722 0,0.99011 -4.599,3.1972 -6.2971,3.022 -0.6616,-0.068 -3.4529,-0.72269 -6.2029,-1.45429 z m -39.9508,-34.6716 c -2.1524,-5.1866 -2.5565,-13.362 -0.9311,-18.8358 0.8027,-2.7028 1.8614,-4.9142 2.3525,-4.9142 0.4914,0 1.8655,-1.3654 3.0538,-3.03431 2.1163,-2.97189 2.1228,-3.08809 0.3181,-5.64899 -4.4581,-6.3265 -5.2005,-8.0841 -5.2693,-12.4744 -0.05,-3.1677 0.7533,-6.2508 2.5104,-9.6375 l 2.5836,-4.97971 4.954,1.30691 c 5.3337,1.407 7.2111,1.09629 15.3788,-2.5446 10.8236,-4.8248 22.0565,-1.88771 27.1629,7.1021 3.0834,5.4284 2.4891,10.4085 -1.7745,14.86999 -4.2707,4.4688 -5.11,7.289 -3.268,10.98151 0.8394,1.6824 1.8333,3.059 2.2088,3.059 2.3896,0 4.3236,12.9381 2.6904,18 -1.5589,4.8324 -8.6037,7.8408 -11.8746,5.07089 -1.0202,-0.864 -2.0326,-1.45839 -2.25,-1.32089 -1.6482,1.0432 -2.3679,-0.077 -0.8361,-1.3018 1.868,-1.49331 1.8469,-1.5291 -0.5589,-0.9497 -4.2896,1.033 -14,4.9344 -14,5.6248 0,0.3619 -2.8799,0.7011 -6.3996,0.7539 -3.52,0.053 -7.5992,0.5521 -9.0652,1.1094 -4.2744,1.6252 -5.5532,1.2157 -6.986,-2.2366 z m 41.3289,-8.6535 c 2.0572,-1.30301 0.5991,-2.7786 -2.8424,-2.8764 -4.7606,-0.1354 -4.0263,2.6436 0.9643,3.6486 0.2751,0.055 1.1202,-0.2921 1.8781,-0.7722 z m -27.618,-6.21 c -0.5774,-2.2084 -1.1444,-2.29041 -3.4945,-0.5058 -2.078,1.5779 -1.7415,2.0741 1.5298,2.2558 1.9454,0.1081 2.3551,-0.2569 1.9647,-1.75 z m 26.7399,-29.9102 c 0,-0.4453 -0.5624,-1.068 -1.25,-1.3837 -0.6875,-0.3158 -0.2375,-0.323 1,-0.016 2.6809,0.66509 2.8247,-0.30591 0.4778,-3.22771 -2.1497,-2.67629 -7.4969,-3.95939 -8.9322,-2.14339 -1.3387,1.6939 -1.2608,4.78839 0.1212,4.8167 0.5957,0.012 2.1804,0.8656 3.5216,1.8964 2.3134,1.7781 5.0616,1.8095 5.0616,0.058 z m -24,-6.9763 c 0,-0.9823 -0.5648,-2.0028 -1.2552,-2.26771 -1.4059,-0.53949 -3.9635,1.71571 -3.018,2.66111 0.3336,0.33369 -0.031,0.6382 -0.81,0.67689 -0.8072,0.04 -0.5564,0.41071 0.5832,0.8616 2.66,1.0524 4.5,0.2624 4.5,-1.93189 z m 28.2787,-70.1214 c -1.2472,-1.2472 -13.1658,-4.0664 -14.2801,-3.3778 -0.5492,0.3395 -0.9986,0.14069 -0.9986,-0.4418 0,-0.5824 -0.6862,-1.059 -1.5249,-1.059 -0.8387,0 -4.6526,-1.575 -8.4751,-3.5 -3.8224,-1.925 -7.6676,-3.5 -8.5448,-3.5 -1.9504,0 -10.1238,-5.50591 -10.6886,-7.2002 -1.415,-4.2453 2.5873,-8.43931 11.2334,-11.77151 1.9251,-0.74189 3.9276,-1.72669 4.45,-2.18859 0.5225,-0.46181 1.8194,-0.8397 2.882,-0.8397 2.1145,0 7.9138,-3.2036 11.344,-6.2665 1.2535,-1.1193 2.6968,-1.6211 3.4045,-1.18381 0.7876,0.4868 0.9724,0.34491 0.5151,-0.39519 -0.4228,-0.6841 -0.078,-1.1545 0.8454,-1.1545 0.8574,0 1.559,-0.675 1.559,-1.5 0,-1.71451 -2.5529,-2.0322 -3.5369,-0.4402 -0.4131,0.6684 -1.1435,0.39189 -1.9772,-0.7484 -0.7274,-0.9945 -1.6,-1.5306 -1.9395,-1.1912 -0.3393,0.3394 -3.4136,-0.029 -6.8316,-0.8188 -3.4181,-0.7898 -8.2978,-1.5432 -10.8436,-1.6742 -5.5216,-0.2843 -10.3119,-3.0358 -9.5092,-5.4621 2.934,-8.8681 3.0524,-10.073 1.3424,-13.6587 -3.3196,-6.9614 0.01,-8.4282 19.2956,-8.5062 5.2251,-0.021 12.4251,-0.07 16,-0.1087 9.1432,-0.099 9.992,0.011 13.6984,1.7696 3.624,1.7197 4.4616,5.1314 1.8016,7.3389 -1.9516,1.6197 -1.926,6.8717 0.044,9.0486 2.4997,2.7622 2.6941,6.426 0.4488,8.458 -2.5299,2.2895 -2.5276,4.5422 0.01,7.263 3.1224,3.3517 2.4481,5.2449 -4,11.2304 -5.9727,5.544 -6,5.5953 -6,11.2377 0,7.0452 1.1512,9.6433 5.5484,12.5215 2.8425,1.8605 3.4516,2.8739 3.4516,5.7428 0,3.4182 -0.074,3.4807 -3.9625,3.3283 -2.1794,-0.085 -4.3208,-0.5136 -4.759,-0.9517 z m -8.8215,-102.75486 c -0.2976,-0.2975 -2.6196,-0.6347 -5.16,-0.7494 -2.5403,-0.1147 -5.7098,-0.7924 -7.0432,-1.506 -5.3503,-2.8633 -6.8113,-11.1143 -3.0864,-17.4279 1.7568,-2.9774 1.9464,-4.0283 1,-5.5436 -0.6421,-1.0283 -1.1676,-3.3484 -1.1676,-5.1558 0,-2.7207 0.5936,-3.6058 3.449,-5.1436 1.897,-1.0215 4.379,-1.6142 5.5155,-1.3169 1.283,0.3355 2.9511,-0.2473 4.3987,-1.5367 2.1452,-1.91091 2.2062,-2.2239 0.7621,-3.9105 -0.8633,-1.0083 -2.2697,-1.8333 -3.1253,-1.8333 -0.8555,0 -2.2794,-0.7875 -3.1641,-1.75 -0.8847,-0.9625 -2.4627,-2.425 -3.5065,-3.25 -5.4681,-4.3219 -7.3088,-12.1299 -4.7232,-20.0348 0.9547,-2.919 2.559,-6.1303 3.565,-7.1363 1.0058,-1.0059 1.8288,-2.4709 1.8288,-3.2557 0,-1.9218 -5.0414,-4.3164 -10.794,-5.1269 -5.2856,-0.7448 -9.206,-2.812 -9.206,-4.8543 0,-1.6089 3.7513,-4.2405 7.3222,-5.1367 4.0914,-1.0269 5.8839,-3.955 7.7058,-12.5881 1.966,-9.315 1.7508,-11.0392 -1.9792,-15.8672 -2.9678,-3.8413 -5.3376,-9.7237 -4.4778,-11.1149 0.301,-0.4868 1.3404,-0.8851 2.3102,-0.8851 1.7296,0 8.5108,-7.125 8.1378,-8.5506 -0.1044,-0.3992 0.3624,-1.0671 1.0374,-1.4842 0.9156,-0.566 0.6836,-1.5216 -0.9147,-3.7662 -2.2869,-3.2116 -3.062,-12.5122 -1.1417,-13.699 0.55,-0.3399 1,-1.9527 1,-3.584 0,-2.4956 0.4758,-3.0612 3,-3.566 1.65,-0.33 3,-0.9492 3,-1.376 0,-0.4268 3.2625,-0.7357 7.25,-0.6865 3.9876,0.049 9.116,-0.2734 11.3964,-0.7168 4.8288,-0.9389 9.4609,1.1747 11.2684,5.1416 1.3529,2.9694 1.4028,9.3223 0.1,12.7487 -0.5418,1.4252 -1.212,3.592 -1.4895,4.8151 -0.2773,1.2232 -0.7895,3.4772 -1.1381,5.0089 -0.4436,1.9501 -0.099,3.3765 1.1513,4.7575 1.9427,2.1466 2.1999,7.7095 0.5031,10.8799 -0.8512,1.5905 -5.4912,3.8124 -11.8954,5.6962 -0.7445,0.2191 -1.1049,1.0465 -0.8009,1.8389 0.3684,0.9601 0.07,1.2552 -0.8961,0.8846 -0.7971,-0.3059 -1.4492,-0.9101 -1.4492,-1.3428 0,-0.4327 -1.7959,-0.3832 -3.991,0.11 -2.195,0.4932 -4.5013,0.7829 -5.125,0.6437 -0.6236,-0.1391 -1.3196,0.2479 -1.5467,0.8601 -1.0157,2.7398 12.0071,5.0657 13.6331,2.4348 0.5012,-0.8108 1.0792,-0.6932 1.9904,0.4048 0.7062,0.851 1.8713,1.5473 2.5892,1.5473 1.2352,0 5.45,4.5584 5.45,5.8943 0,1.6959 -5.1216,3.4216 -11.4284,3.8506 -8.645,0.5882 -11.3712,1.5676 -12.4994,4.4906 -0.6936,1.7969 -0.357,2.7572 1.63,4.6506 1.993,1.899 4.1159,2.5486 10.3991,3.1821 4.3423,0.4377 8.7948,1.0814 9.8945,1.4305 2.5994,0.825 3.4271,4.3149 1.9068,8.0403 -1.9934,4.8852 -2.1203,6.7585 -0.4133,6.1035 0.8309,-0.3189 1.5107,-0.2272 1.5107,0.2037 0,0.4308 1.4625,1.5602 3.25,2.5096 10.7188,5.6932 11.3917,6.7971 11.0948,18.1982 -0.1242,4.7631 -0.4754,8.91 -0.7807,9.2152 -0.3052,0.3052 -4.3385,0.8555 -8.9629,1.2228 -7.178,0.5701 -8.8878,1.0714 -11.6867,3.4265 -2.5665,2.1596 -3.9447,2.6347 -6.3465,2.1878 -2.9008,-0.5399 -2.9606,-0.489 -1.0967,0.9334 1.0843,0.8274 2.5187,1.2944 3.1877,1.0377 1.223,-0.4693 9.341,6.9223 9.341,8.5051 0,2.2135 -5.1428,3.3638 -15.6128,3.4922 -7.028,0.086 -12.2662,0.6467 -14.25,1.5249 -3.5698,1.5801 -3.6316,1.7334 -1.7864,4.4279 0.7429,1.0849 1.6386,3.1584 1.9904,4.6078 0.8453,3.4843 7.8552,6.7804 17.1406,8.0599 7.2779,1.0028 10.5182,2.8249 10.5182,5.9145 0,1.2604 -0.9739,1.9506 -3.25,2.3035 -5.5008,0.8526 -14.7224,1.2811 -15.2928,0.7105 z m 10.0876,-55.7792 c 0.8739,-0.3354 1.3211,-1.6994 1.1696,-3.5673 -0.2108,-2.6008 -0.9124,-3.2864 -5.0104,-4.8961 -4.0915,-1.6071 -5.316,-1.6999 -8.6601,-0.6562 -5.3427,1.6674 -6.3576,7.1127 -1.7637,9.462 2.0968,1.0724 11.1436,0.8552 14.2646,-0.3424 z m 2.4552,-24.8445 c 0,-0.825 -0.6749,-1.5 -1.5,-1.5 -0.8249,0 -1.5,0.675 -1.5,1.5 0,0.825 0.6751,1.5 1.5,1.5 0.8251,0 1.5,-0.675 1.5,-1.5 z m -5,-0.5 c 0,-0.55 -0.45,-1 -1,-1 -0.55,0 -1,0.45 -1,1 0,0.55 0.45,1 1,1 0.55,0 1,-0.45 1,-1 z m 8.5071,-56.1736 c 1.2415,-1.24171 2.3325,-6.8264 1.3334,-6.8264 -0.5609,0 -1.7669,-0.9062 -2.6801,-2.0138 -2.2636,-2.7455 -7.8249,-4.30251 -8.5568,-2.3957 -0.2973,0.7752 -1.1748,1.4095 -1.9497,1.4095 -0.775,0 -1.9691,0.675 -2.6539,1.5 -0.6847,0.825 -2.1039,1.5 -3.1537,1.5 -2.9964,0 -3.4451,2.8876 -0.748,4.8138 1.2985,0.9274 3.2702,1.9766 4.3814,2.33149 2.3431,0.74831 13.2071,0.50131 14.0274,-0.31889 z m -21.8522,-63.85131 c -3.9057,-1.171 -5.5401,-3.74709 -5.3772,-8.47509 0.2255,-6.53971 1.9471,-7.2692 7.1308,-3.0214 3.6903,3.02369 5.3704,3.68829 10.2526,4.05469 10.8513,0.81431 16.0149,2.755 14.378,5.40371 -1.3531,2.18909 -20.8555,3.69569 -26.3842,2.03809 z m 2.8144,-26.44193 c -5.4552,-2.3344 -8.1805,-5.7982 -8.9469,-11.3714 -0.8493,-6.1748 1.4156,-11.7318 7.2159,-17.7041 l 3.6785,-3.7877 7.5416,1.6841 c 4.148,0.9263 8.2167,1.86619 9.0416,2.0885 0.8251,0.2224 2.7376,0.4388 4.25,0.4809 1.5125,0.042 3.7036,1.0301 4.8692,2.1956 1.8993,1.8994 2.0744,2.9733 1.6868,10.3547 -0.4676,8.9117 -2.204,12.4636 -7.4139,15.1666 -3.643,1.89 -18.2062,2.4831 -21.9228,0.8928 z m 2.5307,-37.32551 c 0,-0.41219 -2.0279,-1.85729 -4.5064,-3.21119 -4.6556,-2.5433 -5.2291,-3.4151 -5.5883,-8.4965 -0.6976,-9.8698 3.0375,-14.02691 12.2835,-13.671 4.3525,0.1675 6.1141,-0.2048 7.5,-1.58511 4.3666,-4.34909 4.9101,-4.4892 9.1092,-2.347 4.782,2.4396 9.4409,7.72231 8.7902,9.96701 -0.8646,2.9829 -1.0088,8.6465 -0.2513,9.8723 0.4104,0.664 0.031,2.2995 -0.8441,3.6344 -1.9097,2.9148 -7.3548,5.4628 -8.3352,3.90049 -1.0744,-1.71229 -9.7759,-2.50069 -11.32,-1.02559 -1.7981,1.71779 -6.8376,3.901 -6.8376,2.96219 z m 3.5499,-35.5302 c -7.0791,-2.42699 -8.9087,-3.83049 -12.1699,-9.33669 -1.7979,-3.0352 -2.2784,-4.8969 -1.7787,-6.8886 0.3768,-1.5011 0.7331,-3.4874 0.7919,-4.414 0.1785,-2.816 4.0244,-10.01451 5.3568,-10.02671 0.6876,-0.01 1.25,-0.49359 1.25,-1.08289 0,-0.5893 0.6751,-1.7465 1.5,-2.5715 2.0579,-2.05781 1.9149,-2.5753 -1.3072,-4.7338 -4.5575,-3.0529 -6.1928,-6.95141 -6.1928,-14.76337 0,-3.83788 0.3376,-6.76938 0.75,-6.51444 0.4125,0.25494 0.75,-1.88814 0.75,-4.76241 0,-5.54797 0.3861,-6.18179 6.6432,-10.90647 2.0036,-1.51298 3.8741,-3.63479 4.1567,-4.71513 0.2825,-1.08033 0.1055,-1.71207 -0.3931,-1.40384 -0.4988,0.30821 -0.9068,-0.0673 -0.9068,-0.83459 0,-0.76722 -1.8,-3.01085 -4,-4.98584 -2.2,-1.97498 -4,-4.23205 -4,-5.01573 0,-0.78367 1.3814,-2.8704 3.07,-4.63717 l 3.0697,-3.21233 -2.5697,-3.36927 c -1.4136,-1.8531 -2.57,-3.79419 -2.57,-4.31354 0,-0.51936 -0.6749,-1.50448 -1.5,-2.18917 -1.7568,-1.45801 -2.0196,-9.58884 -0.4884,-15.10172 0.9309,-3.35107 9.2171,-12.33635 10.3404,-11.21292 0.256,0.25595 0.7796,-0.52473 1.1637,-1.73485 0.749,-2.3596 -0.7161,-3.90823 -3.723,-3.9352 -2.3388,-0.021 -6.7647,-5.80784 -8.5083,-11.12474 -1.4724,-4.4898 -5.9932,-9.42738 -10.06,-10.98755 -3.4476,-1.3226 -3.9339,-3.85928 -1.1432,-5.96418 4.2,-3.16817 7.2201,-3.39214 33.9188,-2.51538 8.3711,0.2749 13.1798,1.44045 14.4549,3.50357 0.3571,0.57771 0.8083,5.3217 1.0027,10.54219 0.3408,9.15628 0.2504,9.63389 -2.5584,13.51129 -1.6015,2.21072 -3.5584,4.01949 -4.3488,4.01949 -0.7903,0 -2.1414,1.00563 -3.0023,2.23474 -1.4861,2.12179 -1.3948,2.38716 1.8064,5.24999 1.8544,1.6584 4.2111,3.50822 5.2371,4.11071 2.2822,1.34017 3.552,6.897 2.3176,10.14333 -0.5,1.31528 -0.9092,3.53016 -0.9092,4.92196 0,3.09124 -3.3399,7.99499 -6.026,8.84752 -1.0856,0.34459 -1.974,1.2712 -1.974,2.05914 0,0.78793 -0.7875,1.44682 -1.75,1.46421 -2.8183,0.0509 -7.1914,4.47664 -6.612,6.69176 0.278,1.06323 3.2972,3.53881 6.7093,5.50129 3.4121,1.96248 6.8123,4.7051 7.556,6.0947 1.6308,3.04712 0.7368,7.50858 -1.6831,8.39985 -0.9461,0.34845 -3.1126,1.67919 -4.8146,2.95717 -1.7019,1.278 -3.7494,2.32363 -4.55,2.32363 -0.8006,0 -1.8831,0.41279 -2.4056,0.91731 -0.5224,0.50452 -2.5174,1.1568 -4.4332,1.4495 -1.9156,0.29272 -3.6407,1.00492 -3.8332,1.5827 -0.1927,0.57777 -1.143,1.05049 -2.1119,1.05049 -0.9689,0 -2.5283,0.84708 -3.4653,1.88241 -4.1364,4.57072 2.0969,11.43475 12.0244,13.24112 3.2281,0.58736 7.5568,1.54688 9.6192,2.13226 6.2824,1.7831 4.5152,5.8779 -4,9.2689 -5.3927,2.14751 -5.47,4.3798 -0.2384,6.8862 2.1936,1.051 3.9884,2.26391 3.9884,2.6954 0,0.43151 1.2376,1.38 2.75,2.1078 2.4272,1.168 2.7628,1.908 2.8589,6.3046 0.06,2.73971 0.4171,6.10631 0.7939,7.48131 0.7369,2.69009 -2.566,8.23189 -6.1906,10.3866 -1.0302,0.61229 -3.4118,2.1242 -5.2926,3.35969 -3.9955,2.62451 -4.5222,2.6216 -12.3698,-0.069 z m 16.0909,-154.24689 c 0.8168,-0.76549 0.8409,-1.61802 0.085,-3 -1.5909,-2.91023 -2.7685,-3.39858 -8.2358,-3.41529 -3.9699,-0.0121 -5.2739,0.40817 -6.2838,2.02537 -0.701,1.12237 -1.0121,2.46524 -0.6913,2.98416 1.5447,2.49946 12.839,3.54915 15.1255,1.40576 z m -4.848,-63.97127 c -0.3316,-0.33158 -7.4816,-0.77661 -15.8889,-0.98894 -15.5563,-0.39289 -20.4732,-1.391991 -21.2998,-4.327941 -0.5697,-2.02374 -0.2256,-5.05441 0.8458,-7.4501 0.9002,-2.01307 20.0297,-11.69235 23.1081,-11.69235 2.3444,0 4.6484,-3.29882 3.8171,-5.46518 -0.3259,-0.849331 -2.2311,-2.2685 -4.2339,-3.153711 -11.9564,-5.2849 -20.7008,-9.664309 -21.3568,-10.695869 -1.317,-2.07104 -0.8484,-8.38727 0.7188,-9.687891 0.8268,-0.68614 3.2354,-1.348649 5.3525,-1.47224 2.1171,-0.1236 4.2531,-0.45884 4.7468,-0.74498 0.4936,-0.286149 3.2619,-1.114309 6.1519,-1.84036 2.8898,-0.726049 6.2236,-2.351769 7.4081,-3.612709 l 2.1539,-2.29262 -3.6583,-3.450071 c -2.0118,-1.89754 -3.6581,-3.768169 -3.6581,-4.15698 0,-0.3888 -0.7004,-1.219069 -1.5564,-1.845049 -1.8996,-1.388991 -2.5971,-9.442372 -1.2427,-14.347708 0.53,-1.919544 2.1641,-4.658656 3.6315,-6.0869044 6.1077,-5.945456 7.8608,-10.892216 4.1992,-11.849736 -2.3648,-0.618384 -6.3908,-7.1986636 -7.9504,-12.9943756 -1.16,-4.31024 -3.96,-7.205696 -9.1851,-9.498448 -2.9327,-1.28684 -4.5905,-4.553128 -3.6091,-7.110712 0.2766,-0.720496 3.5651,-1.874264 7.308,-2.563928 11.5531,-2.128736 15.401,-5.873848 10.9592,-10.666576 -1.2534,-1.352376 -3.0364,-4.867512 -3.9624,-7.811424 -1.582,-5.029632 -1.5801,-5.738688 0.032,-11.752552 0.9434,-3.519984 2.4864,-7.074976 3.4288,-7.899976 2.8502,-2.495104 4.0966,-5.640152 2.6766,-6.754464 -1.7286,-1.356576 -9.5384,-4.005944 -13.8784,-4.708056 -4.317,-0.698368 -6.2606,-2.6702 -5.3768,-5.454752 0.9372,-2.952872 9.9618,-4.367712 18.71,-2.93328 2.924,0.479432 10.4912,0.882424 16.8162,0.895544 6.325,0.01312 12.095,0.392424 12.822,0.842928 0.7271,0.450488 1.4466,1.95344 1.5987,3.339888 0.23,2.095584 -0.4147,2.827152 -3.822,4.336792 -2.2543,0.998776 -5.8987,1.930768 -8.0987,2.071088 -2.2,0.14032 -4.1282,0.279688 -4.2852,0.309712 -1.0186,0.195 2.1422,4.0546 3.3205,4.0546 0.8055,0 1.4648,0.45 1.4648,1 0,0.55 0.6525,1 1.4502,1 0.7978,0 1.8103,0.62484 2.25,1.388528 0.4399,0.763688 1.6633,1.551192 2.7188,1.75 1.0555,0.198808 2.7095,1.711472 3.6753,3.361472 6.2174,10.620808 4.423,16.894512 -7.2914,25.492416 -2.7807,2.040904 -3.4128,2.9978 -2.55,3.860536 0.8628,0.862728 0.7876,1.149256 -0.3029,1.155976 -0.7975,0.0048 1.3269,1.37908 4.7209,3.05372 7.492,3.696632 9.0429,6.662472 6.8036,13.00972 -0.786,2.227792 -1.368,4.810384 -1.2935,5.73908 0.4014,4.991288 -0.4504,7.2225276 -4.181,10.9532636 -4.5055,4.505528 -4.8784,6.13041601 -2.0035,8.732088 1.3264,1.200376 1.6791,2.1892 1.0508,2.9462 -0.6327,0.762248 -0.3004,1.542328 1.0035,2.35668 1.0721,0.669496 1.9492,2.0868964 1.9492,3.1497764 0,1.06288 0.4682,2.221936 1.0406,2.57568 0.5723,0.353752 0.7791,1.467432 0.4594,2.474864 -0.3198,1.007432 -0.087,2.1374 0.5178,2.51104 1.1204,0.692456 0.626,5.202112 -0.9854,8.98896 -0.4682,1.1 -1.0895,2.752689 -1.3807,3.67264 -0.2912,0.919949 -2.6672,2.73864 -5.2799,4.04154 -3.3365,1.663969 -4.9657,3.1749 -5.4745,5.077369 -0.6027,2.25334 -0.4028,2.708451 1.1892,2.708451 1.0524,0 1.9135,0.45 1.9135,1 0,0.55 0.6093,1 1.354,1 1.4219,0 6.646,4.402769 6.646,5.601229 0,0.3832 -1.5411,2.193431 -3.4247,4.022731 -4.7951,4.65684 -5.2378,6.749009 -2.1359,10.094189 1.4083,1.51878 2.5606,3.280371 2.5606,3.91464 0,0.63428 0.6749,1.412251 1.5,1.72884 0.8249,0.31658 1.5,1.422211 1.5,2.456951 0,2.56348 -5.7343,10.29916 -8.0915,10.915569 -2.168,0.566951 -2.6465,4.68702 -0.6585,5.669871 5.2216,2.58156 7.2313,4.48324 6.985,6.609549 -0.3627,3.131951 -3.0295,4.916712 -7.4033,4.954632 -2.0175,0.0175 -4.291,0.27079 -5.0522,0.5629 -0.7613,0.2921 -1.6554,0.25981 -1.9869,-0.0718 z m 10.8893,-78.652331 c 3.5783,-1.755368 4.0233,-2.30588 3.0823,-3.812808 -1.9559,-3.131688 -6.3519,-4.941888 -13.6482,-5.620008 -6.0706,-0.564216 -7.4366,-0.394184 -9.1276,1.136144 -3.3837,3.062224 -2.0482,8.489672 2.089,8.489672 0.9227,0 2.252,0.692168 2.9541,1.53816 1.6504,1.9887 8.7866,1.14548 14.6504,-1.73116 z m -1.9141,-41.432176 c 1.1304,-1.130264 1.1405,-1.450832 0.056,-1.768104 -0.7284,-0.213136 -3.5743,-1.063408 -6.3243,-1.88948 -4.4813,-1.346144 -5.1814,-1.341432 -6.75,0.04536 -2.2465,1.986448 -2.2025,2.737888 0.2976,5.067032 1.7763,1.65488 2.6631,1.776304 6.6937,0.916656 2.5554,-0.545016 5.2674,-1.612192 6.0267,-2.371504 z m -34.6943,-106.180293 c -2.2405,-1.45278 -4.0737,-3.21586 -4.0737,-3.91797 0,-0.70211 -0.3953,-1.27656 -0.8787,-1.27656 -0.4833,0 -1.4301,-1.3312 -2.104,-2.95822 -1.3241,-3.19665 -0.9384,-8.71046 1.1408,-16.30863 1.1404,-4.1673 1.7387,-4.88675 4.7568,-5.72009 3.8742,-1.06969 5.3755,-0.28619 7.565,3.94793 1.1989,2.31864 1.0822,3.15537 -1.0568,7.57283 -1.3227,2.7314 -2.4088,5.13755 -2.4139,5.34702 -0.01,0.20947 1.5392,0.12958 3.4316,-0.17752 2.1897,-0.35534 3.5944,-0.1302 3.8632,0.61915 0.2323,0.64764 0.618,0.95253 0.8575,0.67753 0.2393,-0.275 2.3677,-2.8625 4.73,-5.75 2.3621,-2.8875 4.8753,-5.25 5.585,-5.25 0.7096,0 1.5256,-0.9 1.8132,-2 0.2908,-1.11175 1.3642,-2 2.4167,-2 1.0416,0 2.3212,-0.41109 2.8436,-0.91354 1.0597,-1.01901 3.4319,-1.37321 8.0473,-1.20161 2.2187,0.0825 4.3152,1.32547 7.3914,4.38233 4.0841,4.0585 4.302,4.572 4.4541,10.5 0.088,3.42805 -0.2007,6.23282 -0.6413,6.23282 -0.4408,0 -0.8263,1.4625 -0.8567,3.25 -0.074,4.33064 -4.5409,8.01133 -9.1807,7.56441 -2.7205,-0.26206 -3.2694,-0.73068 -3.2961,-2.81441 -0.041,-3.16875 2.1281,-7.63104 4.0716,-8.37681 0.8197,-0.31457 1.9433,-1.76321 2.4969,-3.2192 1.362,-3.58245 -0.3017,-5.40399 -4.9358,-5.40399 -4.4404,0 -14.0567,6.67142 -15.5947,10.81922 -1.2036,3.24527 -2.0708,4.13672 -6.3607,6.53833 -5.2101,2.91677 -9.3966,2.86827 -14.0716,-0.16302 z m -2.7765,-40.0109 c -2.0944,-1.29444 -0.8325,-3.86723 4.4973,-9.16918 2.8631,-2.84802 5.2055,-6.07477 5.2055,-7.17057 0,-1.09579 -2.518,-4.63227 -5.5956,-7.85882 -3.0776,-3.22656 -5.3011,-6.34315 -4.941,-6.92577 0.9459,-1.53061 7.293,-1.30352 8.237,0.29472 1.0444,1.76836 4.6733,3.64599 7.0468,3.64599 1.0332,0 4.2832,1.16006 7.2224,2.57791 4.7928,2.31214 7.6571,3.0297 20.0304,5.01797 3.9166,0.62937 7.3616,3.32449 5.25,4.10735 -0.6875,0.25489 -1.25,1.10094 -1.25,1.8801 0,0.988 -1.286,1.43982 -4.25,1.49318 -5.0119,0.0902 -5.4516,0.17152 -13.25,2.45 -6.4008,1.87016 -10.3047,3.42978 -17.5,6.9915 -5.5196,2.73224 -9.1372,3.63324 -10.7028,2.66562 z m 28.2737,-41.94603 c -0.3435,-0.34353 -6.4323,-0.51487 -13.5306,-0.38076 -9.1777,0.1734 -13.5034,-0.12908 -14.9733,-1.04704 -2.3662,-1.47776 -2.4343,-1.94674 -1.0222,-7.03148 0.7597,-2.73571 1.8843,-4.10064 4.2444,-5.15215 11.4691,-5.10969 14.7108,-6.79669 14.7108,-7.65547 0,-0.53388 0.6496,-0.9707 1.4433,-0.9707 1.5596,0 4.5567,-3.70192 4.5567,-5.62827 0,-1.64077 -8.4733,-7.09809 -12.327,-7.93923 -4.4497,-0.97126 -11.6018,-6.11505 -12.7682,-9.18289 -0.7259,-1.90926 -0.5696,-3.43625 0.6052,-5.91187 0.8712,-1.83576 1.9002,-3.37973 2.2869,-3.43104 0.3867,-0.0513 2.5129,-0.18625 4.7248,-0.29986 2.2119,-0.11363 4.5941,-0.56037 5.2939,-0.9928 0.7042,-0.43532 1.9408,-0.23113 2.7706,0.45749 1.0478,0.8695 1.8148,0.92743 2.5498,0.19253 0.7089,-0.70898 2.1884,-0.7372 4.5442,-0.0867 1.9213,0.53047 5.8166,0.84697 8.6566,0.70333 8.2981,-0.41972 19.7168,2.42606 19.641,4.89498 -0.043,1.38704 -3.4962,4.81705 -6.2278,6.18502 -3.7828,1.89451 -3.4528,3.867 1.361,8.1378 3.0107,2.67103 4.3086,4.72762 4.8492,7.68398 0.6696,3.66188 0.464,4.27738 -2.2138,6.62716 -1.6236,1.4247 -3.4696,2.59036 -4.1024,2.59036 -0.6328,0 -2.4442,1.3707 -4.0253,3.04602 -2.7635,2.92788 -2.8023,3.10048 -0.9968,4.45076 1.0329,0.77263 3.3406,2.20426 5.1281,3.1814 2.1921,1.19832 3.25,2.51636 3.25,4.04922 0,1.24993 -0.3375,2.28661 -0.75,2.30374 -4.0399,0.16775 -15.001,1.17683 -15.9021,1.46396 -0.6339,0.20191 -1.4334,0.086 -1.777,-0.25749 z m -10.0363,-65.00541 c -3.281,-0.18967 -6.4865,-0.77727 -7.1233,-1.30578 -0.6368,-0.5285 -1.8713,-0.68713 -2.7433,-0.3525 -2.3543,0.90342 -8.5284,-1.4448 -9.7372,-3.70332 -2.1491,-4.01559 0.5264,-25.87059 3.1671,-25.87059 0.4961,0 0.9021,-0.92656 0.9021,-2.05902 0,-1.13246 0.4536,-1.77877 1.0077,-1.43624 0.5543,0.34253 1.6256,0.005 2.3808,-0.75042 1.0222,-1.02202 4.1091,-1.3196 12.0705,-1.16362 7.5548,0.14801 11.4822,-0.19992 13.3693,-1.1844 1.4694,-0.76669 4.5292,-1.39675 6.7993,-1.40014 3.8005,-0.006 4.4936,0.43855 8.75,5.60872 2.5424,3.08819 4.6591,5.90069 4.7036,6.25 0.3721,2.90875 0.7001,7.79291 0.9467,14.09454 0.2697,6.89347 0.1089,7.594 -2.118,9.2333 -1.3255,0.97563 -4.6342,2.03347 -7.3527,2.35073 -2.7186,0.31728 -5.2402,0.7606 -5.6035,0.98516 -1.0532,0.65093 -12.9029,1.08026 -19.4191,0.70358 z m 24.4971,-14.7704 c 0.7348,-0.88532 0.8295,-2.75861 0.2802,-5.53671 -0.7485,-3.78479 -1.1498,-4.23365 -4.0711,-4.55346 -1.7824,-0.19513 -3.2408,0.0914 -3.2408,0.6368 0,0.54537 -0.686,0.99158 -1.5248,0.99158 -0.8386,0 -1.9781,1.19288 -2.5325,2.65085 -0.8246,2.16874 -0.6405,3.04197 1.0125,4.80146 2.3277,2.47775 8.3568,3.08174 10.0765,1.00948 z m -20.2996,-32.58926 c -10.7152,-1.49563 -14.0117,-2.82825 -18.2797,-7.3896 -3.7941,-4.05505 -4.9075,-7.39256 -3.3301,-9.98293 0.6566,-1.0784 0.407,-4.48503 -0.6246,-8.52467 -1.1448,-4.48289 7.3184,-11.95717 13.5523,-11.96874 1.9525,-0.004 4.0061,-0.46267 4.5636,-1.02011 1.8833,-1.88339 20.656,-1.11692 22.6997,0.9268 0.5978,0.59769 2.2343,1.11921 3.6367,1.15892 3.7679,0.10667 8.5288,6.23203 8.6283,11.10095 0.087,4.28145 -1.0947,4.98229 -2.6491,1.57065 -0.5655,-1.24091 -2.894,-3.33017 -5.1748,-4.6428 -3.5868,-2.06428 -5.3696,-2.3726 -13.2005,-2.28288 -4.9796,0.0571 -11.3039,0.39683 -14.0539,0.75507 -4.9225,0.64126 -10.5,3.10722 -10.5,4.64242 0,0.43141 -0.6749,0.78439 -1.5,0.78439 -2.7228,0 -1.7795,5.358 1.4959,8.49594 2.3481,2.24978 4.3474,3.03678 9.25,3.64115 8.8736,1.09397 23.4745,0.28787 28.6834,-1.58355 5.0035,-1.7976 6.7966,-0.71392 4.7864,2.89258 -1.1405,2.04631 -1.3533,2.65551 -1.5906,4.55388 -0.069,0.55 -0.8,1 -1.6251,1 -0.8249,0 -1.5,0.45 -1.5,1 0,0.55 -0.4681,1 -1.0404,1 -0.5724,0 -2.2599,0.85467 -3.75,1.89926 -3.2577,2.28354 -10.6209,3.06989 -18.4775,1.97327 z m 15.2459,-51.09009 c -4.148,-1.5575 -14.2908,-2.05269 -23.9919,-1.17132 -5.4429,0.49451 -6.8764,0.28741 -8.7189,-1.25967 -2.0137,-1.69089 -2.0737,-2.02489 -0.692,-3.85145 1.3304,-1.75869 2.5029,-1.96775 9.7188,-1.73275 4.5133,0.14699 8.3569,0.7123 8.5415,1.25623 0.1845,0.54394 0.7469,0.73462 1.25,0.42373 0.5029,-0.31088 1.4605,-0.22781 2.1278,0.18462 2.6745,1.65294 8.2199,1.49621 9.5105,-0.2688 0.6995,-0.95666 2.2007,-1.88112 3.3358,-2.05436 1.1352,-0.17324 4.0985,-1.2418 6.5852,-2.37459 3.2228,-1.46821 4.3534,-2.49628 3.9374,-3.5804 -0.3629,-0.94589 -0.1108,-1.36216 0.6671,-1.10115 0.6879,0.2308 1.2564,1.13664 1.2635,2.01298 0.01,0.87633 0.3445,1.92509 0.75,2.33058 0.9468,0.94677 0.9282,5.572 -0.028,7.00421 -1.9504,2.92093 -10.7448,5.50074 -14.2567,4.18214 z m -29.2118,-38.37113 c -3.5458,-1.89131 -8.9231,-12.37934 -7.5789,-14.78158 0.8448,-1.50956 1.3778,-4.24493 1.6987,-8.71921 0.089,-1.23815 3.8476,-3.91052 5.5001,-3.91052 0.5922,0 0.03,6.91745 -0.6146,7.56197 -0.3671,0.367 0.021,1.71696 0.861,2.99992 0.8407,1.28297 1.3798,2.67776 1.198,3.09954 -0.1817,0.42178 2.7071,0.9347 6.4195,1.13984 5.8238,0.32178 6.75,0.1405 6.75,-1.32114 0,-1.09504 0.5304,-1.49056 1.5,-1.1185 0.8643,0.33162 1.5,0.0188 1.5,-0.73803 0,-0.72249 0.8885,-2.11772 1.9745,-3.1005 1.0859,-0.98278 2.2459,-2.64198 2.5776,-3.68711 1.2679,-3.99474 5.5587,-7.06084 9.9639,-7.12 5.747,-0.0772 11.4816,3.47392 11.4906,7.11557 0,1.46764 0.8732,3.98299 1.9323,5.58967 1.9944,3.02536 2.0187,9.73588 0.038,10.4121 -0.5371,0.18334 -0.9765,1.18 -0.9765,2.21482 0,2.20202 -2.8228,3.95185 -6.3752,3.95185 -3.948,0 -4.0304,-1.67519 -0.3336,-6.76935 4.5104,-6.21496 5.1572,-9.70692 2.1612,-11.66992 -1.8174,-1.19074 -8.7863,-1.52773 -10.2024,-0.49336 -0.1375,0.10044 -0.5875,0.23959 -1,0.3092 -2.7838,0.46984 -8.25,4.83602 -8.25,6.5897 0,1.11854 -0.45,2.03373 -1,2.03373 -0.55,0 -1,0.56249 -1,1.25 0,1.08827 -4.0396,4.85641 -8.9524,8.3508 -2.7807,1.97788 -6.4862,2.30147 -9.2814,0.81051 z"
       id="path4147"
       inkscape:connector-curvature="0"
       sodipodi:nodetypes="cccccccsccccsscscccccscccscccccsssccscsscscsscssscsccccsccccsccsssccsccccssccccscsccccccscsssssssssccscscccccscccsccsssscsccccccccscccccscccsccscsccccscscscsssccccsccscssssscccssccccccscssscccscsccccscscscssscccccssccccsscccccccscccccccsccscscscccsscsccsccscscccscsssscssscsscscsccscsssscscscsscscccccsscscscccccsccsccccsscssccsccsssscccssccsssscscscccsscccccsscscccscssssccccscccsccccsscccscscsccsccscscscscccccccccscccsssscscccccscccsscsssccccsscccsscccsssssssssscsccssssscsccscscsscsccccccscssscccccsscccccsccscssccssscccsccccssscscscscsccsssscscssssccssssssscccccccccscccccscsscsccscscccssscscscssscsssssscscscssscscsccsscssccsccccccsssssssscssssscccccscsscccscssccsssssscscscccscscsssscscccscsscssccsscscssssccsccssssssccsccccscssscscccssccssccssccsccscscscsccssscccsscscscsccccssscssscssscscsscscccscscccccccsccsccssscsccsccssscscssscss" />
  </g>
  <g
     inkscape:groupmode="layer"
     id="layer3"
     inkscape:label="reshape"
     style="display:inline"
     transform="translate(1904.0431,774.12534)">
    <path
       style="color:#000000;font-style:normal;font-variant:normal;font-weight:normal;font-stretch:normal;font-size:medium;line-height:normal;font-family:sans-serif;text-indent:0;text-align:start;text-decoration:none;text-decoration-line:none;text-decoration-style:solid;text-decoration-color:#000000;letter-spacing:normal;word-spacing:normal;text-transform:none;direction:ltr;block-progression:tb;writing-mode:lr-tb;baseline-shift:baseline;text-anchor:start;white-space:normal;clip-rule:nonzero;display:inline;overflow:visible;visibility:visible;opacity:1;isolation:auto;mix-blend-mode:normal;color-interpolation:sRGB;color-interpolation-filters:linearRGB;solid-color:#000000;solid-opacity:1;fill:#000000;fill-opacity:1;fill-rule:nonzero;stroke:none;stroke-width:20.10871506;stroke-linecap:round;stroke-linejoin:round;stroke-miterlimit:4;stroke-dasharray:none;stroke-dashoffset:0;stroke-opacity:1;color-rendering:auto;image-rendering:auto;shape-rendering:auto;text-rendering:auto;enable-background:accumulate"
       d="m -1031.5953,-196.15094 c -2.8465,-0.16268 -5.5455,1.28256 -6.9959,3.74616 -78.1694,132.876029 -156.3386,265.752097 -234.5079,398.62816 -2.9824,5.07102 0.6221,11.4813 6.4889,11.54005 153.7414,1.51285 307.48284,3.02568 461.22424,4.53852 5.8669,0.0567 9.5953,-6.28141 6.71202,-11.41014 -75.57134,-134.389325 -151.14382,-268.777985 -226.71626,-403.16669 -1.2762,-2.26781 -3.6143,-3.72827 -6.2051,-3.87606 z"
       id="path4153"
       inkscape:connector-curvature="0"
       sodipodi:nodetypes="cccccccc" />
    <path
       style="color:#000000;font-style:normal;font-variant:normal;font-weight:normal;font-stretch:normal;font-size:medium;line-height:normal;font-family:sans-serif;text-indent:0;text-align:start;text-decoration:none;text-decoration-line:none;text-decoration-style:solid;text-decoration-color:#000000;letter-spacing:normal;word-spacing:normal;text-transform:none;direction:ltr;block-progression:tb;writing-mode:lr-tb;baseline-shift:baseline;text-anchor:start;white-space:normal;clip-rule:nonzero;display:inline;overflow:visible;visibility:visible;opacity:1;isolation:auto;mix-blend-mode:normal;color-interpolation:sRGB;color-interpolation-filters:linearRGB;solid-color:#000000;solid-opacity:1;fill:#000000;fill-opacity:1;fill-rule:nonzero;stroke:none;stroke-width:22.56511497;stroke-linecap:round;stroke-linejoin:round;stroke-miterlimit:4;stroke-dasharray:none;stroke-dashoffset:0;stroke-opacity:1;color-rendering:auto;image-rendering:auto;shape-rendering:auto;text-rendering:auto;enable-background:accumulate"
       d="m -1049.3454,744.66189 c -3.9658,-0.23231 -7.739,1.73121 -9.8243,5.11246 l -65.1763,105.70331 -107.0522,-1.11556 c -8.2755,-0.0856 -13.5684,8.7863 -9.5621,16.02796 l 51.2002,92.51947 -61.3006,99.53317 c -4.4002,7.1477 0.6778,16.3632 9.0708,16.4615 l 117.6255,1.3564 63.1837,109.3325 c 4.1137,7.1161 14.3527,7.2115 18.5983,0.1734 l 65.74344,-109.0081 105.23088,1.6528 c 8.3248,0.1292 13.65904,-8.8122 9.5908,-16.0763 l -53.44808,-95.37841 58.45048,-95.50723 c 4.3496,-7.10924 -0.6508,-16.25724 -8.9832,-16.4344 l -114.75328,-2.43924 -59.81104,-106.42407 c -1.8021,-3.20593 -5.1117,-5.27452 -8.783,-5.48966 z"
       id="path4193"
       inkscape:connector-curvature="0"
       sodipodi:nodetypes="ccccccccccccccccsccc" />
    <path
       style="color:#000000;font-style:normal;font-variant:normal;font-weight:normal;font-stretch:normal;font-size:medium;line-height:normal;font-family:sans-serif;text-indent:0;text-align:start;text-decoration:none;text-decoration-line:none;text-decoration-style:solid;text-decoration-color:#000000;letter-spacing:normal;word-spacing:normal;text-transform:none;direction:ltr;block-progression:tb;writing-mode:lr-tb;baseline-shift:baseline;text-anchor:start;white-space:normal;clip-rule:nonzero;display:inline;overflow:visible;visibility:visible;opacity:1;isolation:auto;mix-blend-mode:normal;color-interpolation:sRGB;color-interpolation-filters:linearRGB;solid-color:#000000;solid-opacity:1;fill:#000000;fill-opacity:1;fill-rule:nonzero;stroke:none;stroke-width:23.7091713;stroke-linecap:round;stroke-linejoin:round;stroke-miterlimit:4;stroke-dasharray:none;stroke-dashoffset:0;stroke-opacity:1;color-rendering:auto;image-rendering:auto;shape-rendering:auto;text-rendering:auto;enable-background:accumulate"
       d="m -243.76014,750.48759 c -5.23716,-0.0506 -9.52405,4.15336 -9.57576,9.39052 l -4.09004,415.24709 c -0.0506,5.2366 4.15244,9.5231 9.38896,9.5757 l 288.378197,2.8405 c 5.237165,0.051 9.524742,-4.1519 9.57731,-9.389 l 4.090034,-415.24705 c 0.05144,-5.23777 -4.15273,-9.52561 -9.390496,-9.57733 z"
       id="rect4189"
       inkscape:connector-curvature="0"
       sodipodi:nodetypes="ccccccccc" />
    <circle
       style="display:inline;opacity:1;fill:#000000;fill-opacity:1;stroke:none;stroke-width:22.56500053;stroke-linecap:round;stroke-linejoin:round;stroke-miterlimit:4;stroke-dasharray:none;stroke-dashoffset:0;stroke-opacity:0.7254902"
       id="path4187"
       cx="831.83002"
       cy="992.74231"
       r="225.46077" />
    <path
       style="color:#000000;font-style:normal;font-variant:normal;font-weight:normal;font-stretch:normal;font-size:medium;line-height:normal;font-family:sans-serif;text-indent:0;text-align:start;text-decoration:none;text-decoration-line:none;text-decoration-style:solid;text-decoration-color:#000000;letter-spacing:normal;word-spacing:normal;text-transform:none;direction:ltr;block-progression:tb;writing-mode:lr-tb;baseline-shift:baseline;text-anchor:start;white-space:normal;clip-rule:nonzero;display:inline;overflow:visible;visibility:visible;opacity:1;isolation:auto;mix-blend-mode:normal;color-interpolation:sRGB;color-interpolation-filters:linearRGB;solid-color:#000000;solid-opacity:1;fill:#000000;fill-opacity:1;fill-rule:nonzero;stroke:none;stroke-width:22.78199387;stroke-linecap:round;stroke-linejoin:round;stroke-miterlimit:4;stroke-dasharray:none;stroke-dashoffset:0;stroke-opacity:1;color-rendering:auto;image-rendering:auto;shape-rendering:auto;text-rendering:auto;enable-background:accumulate"
       d="m 669.7844,-162.33493 c -5.03197,-0.0675 -9.16631,3.95619 -9.23519,8.98815 l -5.4305,400.56788 c -0.0675,5.03196 3.95619,9.16629 8.98813,9.23518 l 400.56636,5.43048 c 5.0326,0.0684 9.1678,-3.95557 9.2367,-8.98811 l 5.4306,-400.56788 c 0.067,-5.0326 -3.9572,-9.16722 -8.9898,-9.23522 z"
       id="rect4181"
       inkscape:connector-curvature="0"
       sodipodi:nodetypes="ccccccccc" />
    <path
       style="color:#000000;font-style:normal;font-variant:normal;font-weight:normal;font-stretch:normal;font-size:medium;line-height:normal;font-family:sans-serif;text-indent:0;text-align:start;text-decoration:none;text-decoration-line:none;text-decoration-style:solid;text-decoration-color:#000000;letter-spacing:normal;word-spacing:normal;text-transform:none;direction:ltr;block-progression:tb;writing-mode:lr-tb;baseline-shift:baseline;text-anchor:start;white-space:normal;clip-rule:nonzero;display:inline;overflow:visible;visibility:visible;opacity:1;isolation:auto;mix-blend-mode:normal;color-interpolation:sRGB;color-interpolation-filters:linearRGB;solid-color:#000000;solid-opacity:1;fill:#000000;fill-opacity:1;fill-rule:nonzero;stroke:none;stroke-width:13.46682835;stroke-linecap:round;stroke-linejoin:miter;stroke-miterlimit:4;stroke-dasharray:none;stroke-dashoffset:0;stroke-opacity:1;color-rendering:auto;image-rendering:auto;shape-rendering:auto;text-rendering:auto;enable-background:accumulate"
       d="m -92.778001,-198.22923 c -1.60112,-0.0107 -1.772624,0.2846 -2.073688,0.40602 -0.301064,0.12143 -0.476288,0.21089 -0.64294,0.29772 -0.333302,0.17367 -0.601128,0.33334 -0.909533,0.52132 -0.616808,0.37597 -1.356071,0.85666 -2.282145,1.47345 -1.852153,1.23359 -4.413033,2.99593 -7.618553,5.2353 -6.41106,4.47878 -15.38022,10.85439 -26.065,18.51292 -21.36957,15.31708 -49.59169,35.75632 -77.75572,56.28217 -28.16404,20.525859 -56.26618,41.134515 -77.39657,56.791275 -10.56519,7.828376 -19.3848,14.416584 -25.6157,19.151216 -3.11544,2.367328 -5.58007,4.268408 -7.32404,5.655648 -0.87198,0.693624 -1.55648,1.252472 -2.10483,1.725664 -0.27418,0.236592 -0.50842,0.441416 -0.77727,0.706608 -0.13443,0.132592 -0.2753,0.272512 -0.48518,0.52344 -0.20987,0.250944 -0.53763,0.320624 -1.04281,1.866384 -0.50516,1.54576 -0.28366,1.802768 -0.26324,2.131544 0.0204,0.328768 0.0509,0.525984 0.0806,0.714032 0.0593,0.376088 0.12514,0.68364 0.20551,1.040064 0.16074,0.71284 0.38041,1.57776 0.67066,2.664184 0.5805,2.17284 1.43656,5.194632 2.53884,8.987424 2.20456,7.5855756 5.39224,18.2308076 9.2479,30.933024 7.7113,25.404424 18.09151,59.020275 28.57129,92.606633 10.47979,33.58636 21.05722,67.13886 29.16007,92.41677 4.05142,12.63895 7.48361,23.20617 9.9831,30.69645 1.24974,3.74513 2.26324,6.71506 3.02084,8.83067 0.37881,1.05781 0.68919,1.89414 0.962,2.57077 0.13641,0.33831 0.25734,0.62721 0.42212,0.96921 0.0824,0.171 0.16863,0.35063 0.33833,0.63116 0.1697,0.28054 0.13484,0.61997 1.42375,1.58601 1.28892,0.96603 1.59654,0.83069 1.91023,0.91246 0.31369,0.0818 0.50741,0.11278 0.69238,0.14216 0.36995,0.0588 0.67824,0.0912 1.03631,0.12348 0.71616,0.0646 1.59299,0.11727 2.69844,0.17191 2.21092,0.10931 5.29932,0.21625 9.18609,0.32094 7.77355,0.20938 18.71311,0.41292 31.78081,0.60478 26.13542,0.38373 60.77287,0.71835 95.41377,0.95 34.640896,0.23166 69.280926,0.35907 95.4191502,0.32491 13.0691118,-0.017 24.0088668,-0.0743 31.7845268,-0.1797 3.887831,-0.0527 6.978349,-0.11613 9.190536,-0.19585 1.106093,-0.0398 1.984147,-0.0825 2.701102,-0.13754 0.358478,-0.0275 0.666094,-0.0548 1.036792,-0.10862 0.185349,-0.0269 0.380008,-0.0557 0.69476,-0.13324 0.314754,-0.0775 0.620912,0.0633 1.922669,-0.88548 1.301757,-0.94871 1.269868,-1.28912 1.443317,-1.56736 0.173448,-0.27823 0.262967,-0.45688 0.347642,-0.62676 0.169352,-0.33976 0.29327,-0.62688 0.434201,-0.96335 0.281864,-0.67292 0.604092,-1.50579 0.99705,-2.55845 0.785924,-2.10528 1.839296,-5.06162 3.139177,-8.78971 2.599756,-7.45617 6.172996,-17.97505 10.393636,-30.55869 8.441272,-25.16727 19.467992,-58.57545 30.397448,-92.01864 10.929463,-33.443188 21.760573,-66.918118 29.812033,-92.217131 4.02573,-12.6495044 7.35647,-23.2510004 9.66261,-30.806416 1.15306,-3.777704 2.0488,-6.788376 2.6584,-8.953256 0.3048,-1.08244 0.53554,-1.94472 0.70584,-2.655352 0.0851,-0.35532 0.15603,-0.661112 0.22035,-1.036376 0.0322,-0.18764 0.065,-0.384096 0.0898,-0.71256 0.0248,-0.328472 0.25026,-0.58192 -0.23411,-2.134304 -0.48439,-1.552376 -0.81165,-1.6274 -1.01814,-1.881128 -0.20648,-0.25372 -0.3465,-0.39432 -0.47914,-0.528704 -0.26528,-0.26876 -0.49555,-0.478184 -0.76652,-0.718432 -0.54196,-0.48048 -1.21987,-1.048952 -2.08247,-1.754168 -1.72518,-1.410448 -4.16366,-3.343656 -7.24707,-5.752424 -6.1668,-4.817552 -14.89662,-11.521496 -25.35584,-19.490464 -20.918423,-15.93796 -48.742171,-36.922592 -76.628287,-57.823275 -27.886116,-20.90068 -55.830999,-41.71585 -76.993147,-57.31734 -10.581075,-7.80075 -19.462639,-14.2959 -25.813031,-18.86001 -3.175196,-2.28206 -5.713361,-4.07744 -7.548792,-5.3357 -0.917716,-0.62912 -1.650877,-1.11933 -2.262585,-1.50352 -0.305855,-0.19208 -0.571023,-0.3558 -0.901966,-0.53391 -0.16547,-0.089 -0.33984,-0.18182 -0.639248,-0.30727 -0.299409,-0.12545 -0.465345,-0.42188 -2.066465,-0.43259 z"
       id="path4159"
       inkscape:connector-curvature="0"
       sodipodi:nodetypes="scssssssssssccsccsssssssscccscccsssssscccccccsssssssscscssccsssssssssss" />
    <path
       style="color:#000000;font-style:normal;font-variant:normal;font-weight:normal;font-stretch:normal;font-size:medium;line-height:normal;font-family:sans-serif;text-indent:0;text-align:start;text-decoration:none;text-decoration-line:none;text-decoration-style:solid;text-decoration-color:#000000;letter-spacing:normal;word-spacing:normal;text-transform:none;direction:ltr;block-progression:tb;writing-mode:lr-tb;baseline-shift:baseline;text-anchor:start;white-space:normal;clip-rule:nonzero;display:inline;overflow:visible;visibility:visible;opacity:1;isolation:auto;mix-blend-mode:normal;color-interpolation:sRGB;color-interpolation-filters:linearRGB;solid-color:#000000;solid-opacity:1;fill:#000000;fill-opacity:1;fill-rule:nonzero;stroke:none;stroke-width:12.89799976;stroke-linecap:round;stroke-linejoin:round;stroke-miterlimit:4;stroke-dasharray:none;stroke-dashoffset:0;stroke-opacity:1;color-rendering:auto;image-rendering:auto;shape-rendering:auto;text-rendering:auto;enable-background:accumulate"
       d="m -1541.3787,-363.24031 c -1.3554,0.0534 -2.6352,0.63825 -3.5626,1.62813 l -205.0453,219.09531 c -1.9012,2.03193 -1.8488,5.20553 0.1188,7.17343 l 28.5719,28.57031 c 2.0639,2.06451 5.428,2.00714 7.4203,-0.12656 l 205.4484,-220.09844 c 1.9306,-2.06905 1.8344,-5.307 -0.2156,-7.25781 l -28.975,-27.56875 c -1.0108,-0.96072 -2.3675,-1.47137 -3.7609,-1.41562 z"
       id="rect4209"
       inkscape:connector-curvature="0"
       sodipodi:nodetypes="cccccccccc" />
    <circle
       style="opacity:1;fill:#000000;fill-opacity:1;stroke:none;stroke-width:12.89799976;stroke-linecap:round;stroke-linejoin:round;stroke-miterlimit:4;stroke-dasharray:none;stroke-dashoffset:0;stroke-opacity:0.7254902"
       id="path4214"
       cx="-1690.0729"
       cy="-302.56534"
       r="39.19392" />
  </g>
</svg>
