<?xml version="1.0" encoding="utf-8"?>
<!-- Generator: Adobe Illustrator 16.0.0, SVG Export Plug-In . SVG Version: 6.00 Build 0)  -->
<!DOCTYPE svg PUBLIC "-//W3C//DTD SVG 1.1//EN" "http://www.w3.org/Graphics/SVG/1.1/DTD/svg11.dtd">
<svg version="1.1" id="Layer_1" xmlns="http://www.w3.org/2000/svg" xmlns:xlink="http://www.w3.org/1999/xlink" x="0px" y="0px"
	 width="500px" height="500px" viewBox="0 0 500 500" enable-background="new 0 0 500 500" xml:space="preserve">
<g>
	<path fill="#0089BB" d="M252.818,198.919c-0.034-0.019-0.064-0.039-0.098-0.059l0.004,0.119c-5.36,3.408-9.36,9.488-10.869,16.774
		c-3.088,1.4-5.801,3.683-8.444,7.301c-4.912,6.722-3.665,11.404-3.665,11.404s-0.113-7.691,6.115-11.103
		c1.869-1.021,3.713-1.635,5.345-2.011c-0.015,0.609-0.019,1.224-0.001,1.843c0.235,8.037,3.374,15.146,8.135,19.877
		c0,0-1.977,0.867-2.72,1.73c-2.994,3.48-3.92,6.584-4.023,7.926c0.041-0.072,0.084-0.142,0.128-0.209
		c0.217-0.834,0.746-2.223,2.027-3.637c-1.272,1.707-1.782,3.176-1.782,3.176s0.045-0.034,0.13-0.096
		c2.164-2.96,6.26-5.028,11.016-5.181l0.001,0.029c0.016-0.009,0.03-0.021,0.045-0.033c0.037,0,0.071,0.004,0.105,0.003
		c0.015,0.009,0.027,0.018,0.039,0.025v-0.024c4.457-0.092,8.427,1.528,10.803,4.079c0.417,0.274,0.652,0.451,0.662,0.455
		c0.101,0.25,0.174,0.468,0.23,0.657c0.041,0.056,0.077,0.118,0.114,0.176c-0.151-1.25-0.894-4.721-4.491-7.782
		c-0.859-0.73-1.806-1.228-2.731-1.571h-0.035c4.36-4.867,7.042-11.904,6.963-19.691c5.394,3.333,5.694,10.146,5.694,10.146
		s0.974-4.747-4.321-11.171c-0.502-0.607-1.003-1.174-1.505-1.7c-0.895-9.569-5.919-17.577-12.775-21.396l-0.004-0.119
		C252.879,198.876,252.85,198.897,252.818,198.919 M253.012,208.867c0.043,1.458-1.336,2.681-3.081,2.731
		c-1.743,0.051-3.19-1.09-3.233-2.548c-0.042-1.458,1.337-2.68,3.079-2.731C251.521,206.268,252.971,207.409,253.012,208.867"/>
	<path fill-rule="evenodd" clip-rule="evenodd" fill="#0089BB" d="M337.453,295.684c-2.498,1.851-4.433,1.081-5.231,0.729
		c-0.746-0.324-2.024,0.943-4.22,4.763c-1.498-1.083-3.701-2.474-6.565-3.759c-6.75-3.136-9.847,0.242-8.248,2.596
		c1.64,2.354,6.539,5.596,12.515,6.199c0.146,0.014,0.28,0.023,0.42,0.038c-0.412,3.073,0.308,5.673,0.308,5.673l0.035,0.273
		c-1.696,0.175-3.74,0.542-6.022,1.285c-7.88,2.511-7.973,8.819-4.756,9.932c3.256,1.108,9.837,0.504,14.881-3.775
		c0.705-0.625,1.281-1.179,1.754-1.671c0.147,0.063,0.286,0.129,0.442,0.188c2.31,0.869,4.944,1.287,7.472,0.975
		c-0.719,1.254-1.509,2.779-1.871,4.789c-0.578,3.221-0.274,10.283,7.316,13.766c4.789,2.199,8.77,2.175,11.646,1.168
		c-0.271,0.377-0.492,0.777-0.563,1.154c-0.236,1.285,0.583,1.427,1.814,1c2.045-0.716,3.441-2.298,4.17-4.227
		c0.887-2.338,0.063-5.435-0.516-7.093c-0.162-0.521-0.349-0.966-0.517-1.312c1.121,0.421,1.555,0.053,1.555,0.053l-0.204-13.701
		c0,0-0.066-0.015-0.171-0.027l-0.069-4.68c0,0-0.688-0.162-1.36,0.705c-0.672,0.867-0.824,2.238-0.824,2.238
		s-0.187,0.191-0.972,0.51c-2.485-4.867-7.952-7.999-9.889-8.989c-0.604-3.181-2.103-5.913-3.593-7.48
		C343.478,294.071,339.895,293.835,337.453,295.684 M340.764,307.452c0.208,1.277-1.043,2.335-2.797,2.361
		c-1.753,0.025-3.311-0.99-3.477-2.267c-0.166-1.282,1.086-2.337,2.795-2.363C338.996,305.157,340.553,306.172,340.764,307.452
		 M342.225,296.412c0.605,0.452,1.005,1.197,0.518,1.972c-0.193,0.303-0.242,0.438-0.381,0.646
		c-0.134,0.195-0.355,0.449-0.606,0.508c-0.421,0.104-1.037-0.402-1.349-1.563c-0.148-0.563-0.252-1.009-0.328-1.375
		c-0.269-1.313,0.42-1.182,0.754-1.05C341.158,295.683,341.644,295.976,342.225,296.412"/>
	<path fill="#0089BB" d="M161.045,303.167c-0.84-2.138-2.193-4.3-4.047-6.262c-5.476-5.805-13.148-7.668-17.13-4.171
		c-3.984,3.497-2.772,11.036,2.702,16.835c2.232,2.36,4.826,4.057,7.387,5.019c-1.042,0.335-1.815,0.729-2.238,1.163
		c-0.3-1.292-1.481-2.268-2.914-2.283c-0.708-0.008-1.353,0.23-1.874,0.62l-7.185-3.941l-0.644,1.099l6.983,3.83
		c-0.2,0.385-0.325,0.813-0.331,1.275c-0.004,0.483,0.125,0.937,0.338,1.342l-7.098,3.699l0.622,1.112l7.33-3.82
		c0.499,0.372,1.119,0.604,1.797,0.613c1.369,0.015,2.52-0.858,2.906-2.054c0.368,0.424,1.059,0.82,2.004,1.174
		c-2.496,0.918-5.024,2.509-7.228,4.742c-5.596,5.688-6.968,13.195-3.059,16.779c3.907,3.582,11.616,1.878,17.216-3.805
		c1.895-1.925,3.294-4.059,4.179-6.178c0.792,1.173,1.804,2.303,3.021,3.319c4.796,4.015,10.917,4.783,13.67,1.722
		c2.758-3.063,1.104-8.799-3.69-12.809c-1.684-1.41-3.527-2.401-5.331-2.983c2.72-0.569,4.455-1.431,4.465-2.413
		c0.011-1.033-1.874-1.971-4.817-2.596c1.944-0.517,3.958-1.513,5.799-2.986c4.88-3.908,6.653-9.607,3.964-12.726
		c-2.69-3.124-8.825-2.48-13.704,1.427C162.897,300.903,161.863,302.013,161.045,303.167 M160.081,319.905
		c2.535,0.027,4.895-0.138,6.887-0.438c0.719,0.371,1.428,0.831,2.102,1.393c3.356,2.81,4.512,6.823,2.584,8.966
		c-1.928,2.145-6.213,1.607-9.569-1.2c-0.854-0.716-1.562-1.508-2.116-2.327c-0.619,1.482-1.6,2.977-2.926,4.324
		c-3.921,3.979-9.315,5.17-12.05,2.662c-2.736-2.505-1.779-7.764,2.143-11.74c1.15-1.168,2.429-2.077,3.729-2.74
		C153.184,319.446,156.449,319.868,160.081,319.905 M171.931,303.738c1.883,2.185,0.642,6.174-2.774,8.908
		c-0.685,0.552-1.405,0.989-2.135,1.347c-1.983-0.347-4.337-0.561-6.872-0.588c-3.638-0.037-6.918,0.314-9.254,0.908
		c-1.279-0.688-2.531-1.626-3.653-2.813c-3.836-4.062-4.683-9.337-1.893-11.786c2.788-2.446,8.156-1.143,11.99,2.92
		c1.299,1.374,2.248,2.887,2.833,4.387c0.573-0.811,1.297-1.584,2.166-2.282C165.754,302.004,170.05,301.555,171.931,303.738"/>
	<path fill="#0089BB" d="M163.55,193.19c-0.517,0.356-1.24,1.123-1.24,1.123s2.977,0.121,4.196,2.541
		c1.218,2.421,0.383,4.571-4.395,5.057c-0.096,0.01-0.191,0.018-0.289,0.026l-0.078-0.04c0,0-0.004,0.014-0.002,0.047
		c-0.452,0.04-0.911,0.066-1.372,0.082l-0.06-0.03c0,0-0.002,0.009-0.002,0.034c-0.338,0.01-0.678,0.018-1.016,0.021l-0.107-0.056
		c0,0-0.004,0.017-0.002,0.056c-0.309,0-0.615-0.005-0.922-0.009l-0.104-0.054c0,0-0.003,0.013-0.002,0.05
		c-3.56-0.083-6.82-0.607-7.645-0.763c-1.127-0.212-2.874,0.187-4.426,2.078c-0.035,0.043-0.073,0.088-0.112,0.134
		c-0.004-0.045-0.006-0.053-0.006-0.053l-4.288,4.439c0,0,0.029,0.022,0.08,0.07c-1.486,1.585-2.952,3.26-3.79,4.652
		c-1.815,3.02,0.537,4.572,4.827,8.449c0.121,0.111,0.244,0.219,0.363,0.325c0.038,0.034,0.076,0.067,0.113,0.1
		c0.083,0.069,0.165,0.142,0.247,0.212l0.131,0.111c0.076,0.065,0.151,0.128,0.227,0.19c0.045,0.037,0.09,0.071,0.132,0.104
		c0.087,0.074,0.176,0.146,0.264,0.217c0.073,0.058,0.147,0.115,0.221,0.174c0.053,0.042,0.103,0.083,0.156,0.121
		c0.068,0.053,0.136,0.107,0.203,0.158l0.105,0.075c0.076,0.059,0.149,0.112,0.223,0.17c0.016,0.011,0.031,0.021,0.046,0.032
		c0.622,0.456,1.203,0.847,1.732,1.172c-0.004,0.358-0.066,3.719-0.84,5.951c-0.819,2.363-1.272,4.105-1.219,4.217
		c-0.772,3.615,0.027,8.01,2.835,10.42c2.242,1.926,6.954,4.86,11.699,4.771v0.001l9.276,0.057l0.006-0.971l-5.222-0.032
		c0.976-0.471,1.923-1.124,2.813-2.018c3.223-3.239,4.778-4.812,5.534-5.585l4.736,0.028l0.034-5.609l-4.024-0.026l0.009-1.527
		l4.024,0.022l0.034-5.61l-4.023-0.024l0.008-1.53l4.024,0.026l0.034-5.612l-4.024-0.025l0.009-1.527l4.025,0.023l0.034-5.608
		l-6.84-0.042c0,0-1.698,0.094-2.665-0.063c-0.869-0.266-3.603-0.966-4.114-1.14l-0.414-0.139c-0.473-0.162-0.799-0.283-1.025-0.372
		c-0.017-0.077-0.037-0.149-0.056-0.224c-0.002-0.01-0.004-0.021-0.006-0.03c-0.031-0.125-0.066-0.25-0.102-0.371
		c-0.008-0.027-0.013-0.053-0.021-0.077c-0.036-0.118-0.072-0.238-0.112-0.355c-0.006-0.016-0.012-0.035-0.018-0.051
		c-0.036-0.115-0.075-0.223-0.113-0.33c-0.004-0.014-0.01-0.029-0.016-0.043c-0.042-0.113-0.086-0.225-0.129-0.338
		c-0.01-0.021-0.018-0.042-0.028-0.064c-0.043-0.109-0.091-0.217-0.137-0.323c-0.004-0.013-0.01-0.024-0.016-0.036
		c-0.044-0.103-0.09-0.201-0.135-0.297c-0.008-0.017-0.014-0.031-0.022-0.049c-0.048-0.102-0.097-0.201-0.146-0.297
		c-0.011-0.021-0.021-0.041-0.03-0.059c-0.05-0.1-0.101-0.196-0.151-0.292c-0.003-0.004-0.006-0.008-0.008-0.013
		c-0.051-0.094-0.099-0.183-0.152-0.271c-0.009-0.014-0.016-0.031-0.026-0.046c-0.05-0.089-0.102-0.174-0.152-0.258
		c-0.008-0.017-0.019-0.031-0.027-0.048c-0.105-0.169-0.21-0.334-0.312-0.489c-0.01-0.013-0.018-0.028-0.027-0.041
		c-0.051-0.075-0.099-0.147-0.147-0.216c-0.007-0.011-0.015-0.022-0.023-0.034c-0.047-0.067-0.096-0.135-0.141-0.2
		c-0.003-0.003-0.006-0.004-0.007-0.009c-0.049-0.066-0.095-0.128-0.142-0.19c-0.007-0.012-0.017-0.02-0.025-0.031
		c-0.045-0.061-0.086-0.116-0.129-0.171c-0.006-0.009-0.012-0.016-0.018-0.023c-0.04-0.05-0.079-0.098-0.116-0.149
		c-0.006-0.004-0.009-0.01-0.013-0.014c-0.041-0.05-0.078-0.096-0.115-0.138c-0.006-0.008-0.013-0.017-0.02-0.027
		c-0.035-0.04-0.069-0.081-0.102-0.118c-0.003-0.005-0.008-0.009-0.011-0.013c-0.03-0.036-0.059-0.066-0.085-0.097
		c-0.004-0.006-0.007-0.012-0.013-0.016c-0.027-0.03-0.053-0.059-0.076-0.084c-0.004-0.004-0.008-0.01-0.012-0.016
		c-0.023-0.023-0.043-0.045-0.061-0.064c-0.002-0.003-0.003-0.004-0.005-0.007c-0.016-0.017-0.032-0.03-0.043-0.045
		c-0.005-0.001-0.006-0.005-0.007-0.006c-0.012-0.012-0.021-0.022-0.029-0.028l-0.006-0.007l-0.006-0.006
		c0,0,1.435,0.417,4.417-0.541c2.985-0.954,5.974-2.683,5.842-6.433c-0.148-4.236-4.224-6.34-4.224-6.34
		S164.065,192.834,163.55,193.19 M151.279,208.13c-0.007,1.033-1.141,1.865-2.535,1.857c-1.396-0.008-2.519-0.854-2.513-1.888
		c0.006-1.036,1.14-1.866,2.534-1.858C150.16,206.249,151.285,207.096,151.279,208.13"/>
	<path fill="#0089BB" d="M319.736,235.422c-0.446-0.353-2.291-1.923-5.074-5.771c-0.025-0.037-0.047-0.066-0.071-0.099
		c-0.624,1.572-1.015,3.523-1.044,5.66c-0.031,2.21,0.328,4.233,0.943,5.852c0.005-0.004,0.007-0.009,0.011-0.013
		C317.393,237.284,319.279,235.765,319.736,235.422"/>
	<path fill="#0089BB" d="M359.322,202.114c0,0-9.291,2.103-22.235,11.344c-5.038,3.598-7.927,6.82-9.529,9.033
		c-4.589-2.547-8.802,0.546-9.8,1.593l-1.051,1.11l-3.604-1.519c0,0,0.104,0.272,0.454,0.912l0.007,0.009
		c0.176,0.32,0.414,0.73,0.731,1.241c0.003,0.009,0.009,0.017,0.013,0.022c0.155,0.25,0.331,0.525,0.526,0.827
		c0.007,0.009,0.013,0.017,0.019,0.028c0.203,0.31,0.426,0.647,0.676,1.01l-0.002,0.003c0.396,0.577,0.849,1.226,1.377,1.955
		c2.783,3.848,4.627,5.419,5.074,5.771c-0.457,0.343-2.347,1.862-5.236,5.626c-0.51,0.666-0.951,1.259-1.342,1.798
		c-2.168,2.988-2.625,4.103-2.625,4.103l3.646-1.418l1.019,1.139c1.02,1.135,5.543,4.652,10.506,1.443
		c2.818-1.824,4.076-5.637,4.639-8.598c2.986,0.188,6.768-0.409,10.956-3.014c6.858-4.266,9.321-8.826,10.76-13.075l5.452,0.079
		l5.956,3.082l0.53-1.028l-6.239-3.229l-0.058,0.112v-0.092l-5.271-0.075c0.406-1.334,0.744-2.63,1.113-3.87l4.041,0.057
		l5.955,3.084l0.531-1.028l-6.24-3.233l-0.059,0.113l0.001-0.093l-3.883-0.054c0.635-2.122,0.905-3.602,0.998-4.593
		c1.153-0.846,2.252-1.667,3.151-2.379c4.014-3.166,4.23-6.804,4.23-6.804l-7.525,3.459
		C358.552,204.043,359.322,202.114,359.322,202.114 M323.811,241.655c-0.021,1.407-1.177,2.531-2.582,2.51
		c-1.406-0.019-2.529-1.174-2.51-2.581c0.02-1.405,1.178-2.528,2.582-2.507C322.706,239.095,323.83,240.25,323.811,241.655
		 M326.773,233.446c0.166,0.348,1.019,1.137,2.219,1.67c0.367,0.163,0.652,0.277,0.873,0.355l0.674,0.021c0,0-0.1,0.003-0.375,0.077
		c0.273,0.084,0.373,0.084,0.373,0.084l-0.674,0.005c-0.224,0.075-0.512,0.179-0.883,0.332c-1.215,0.502-2.088,1.266-2.266,1.608
		c-0.18,0.343-1.298,0.153-2.923-0.731c-0.808-0.442-1.169-0.854-1.329-1.159l-0.122,0.004c0,0-0.019-0.095,0.026-0.254
		c-0.041-0.158-0.019-0.253-0.019-0.253l0.121,0.006c0.168-0.299,0.54-0.701,1.361-1.116
		C325.48,233.255,326.604,233.097,326.773,233.446 M323.984,229.309c-0.021,1.404-1.177,2.528-2.582,2.509
		c-1.404-0.021-2.529-1.175-2.51-2.582c0.021-1.406,1.176-2.527,2.582-2.507C322.88,226.746,324.005,227.901,323.984,229.309"/>
	<path fill="#0089BB" d="M235.543,317.43c0.001,0.175,1.187,0.446,2.646,0.434c1.459-0.015,2.609-0.342,2.607-0.487
		c-0.001-0.146-1.156-0.449-2.615-0.435C236.72,316.955,235.542,317.254,235.543,317.43"/>
	<path fill="#0089BB" d="M245.712,288.221c0,0.004-0.013,0.143-0.047,0.384c-0.092,0.342-0.37,1.082-1.233,2.342
		c-0.554,0.808-0.981,1.281-1.27,1.547c0.511-1.417,0.743-2.442,0.752-2.485l-0.785-0.282c-0.017,0.032-1.748,3.308-7.783,5.829
		c-5.983,2.499-10.902-2.544-10.952-2.595l-0.706,0.42c0.068,0.209,1.661,5.197,2.784,7.441l1.051,2.101
		c-0.135,0.534-0.589,2.346-0.804,3.331c-0.261,1.181-0.412,2.928-0.396,4.557c0.009,0.938,0.087,2.65,0.499,3.596
		c0.391,0.896,0.758,2.724,0.855,3.229l-1.016,2.138c-1.078,2.266-2.573,7.283-2.636,7.496l0.714,0.404
		c0.049-0.051,4.866-5.192,10.898-2.809c6.084,2.399,7.879,5.638,7.897,5.671l0.78-0.3c-0.01-0.042-0.262-1.06-0.799-2.467
		c0.291,0.258,0.729,0.726,1.298,1.521c0.888,1.241,1.181,1.977,1.279,2.316c0.04,0.242,0.055,0.38,0.055,0.384l0.836,0.013
		l0.007-0.113c-0.001-0.09-0.014-0.242-0.074-0.463c-0.096-0.583-0.32-1.758-0.755-3.234c-0.16-0.541-0.281-1.027-0.355-1.419
		c0.414,0.604,0.867,1.221,0.867,1.221l0.741-0.375c-0.003-0.011-0.272-0.883-0.287-2.354c-0.013-1.392,0.197-2.847,0.629-4.323
		c1.114-3.818,2.536-5.896,3.479-7.273c0.047-0.068,0.086-0.126,0.131-0.193c0.097,0.097,0.195,0.191,0.285,0.29
		c1.604,1.798,2.398,4.241,2.431,7.475c0.018,1.755-0.183,3.475-0.359,4.99c-0.204,1.753-0.346,3.188-0.149,4.04
		c-0.162,1.082-0.64,3.036-2.041,4.54c-3.101,3.329-6.126,4.717-11.561,5.305c-2.988,0.323-5.977,0.044-8.424-0.786
		c-0.157-0.094-0.391-0.151-0.717-0.21c-0.586-0.112-1.148,0.129-1.306,0.559l-0.043,0.249c0.004,0.379,0.304,0.703,0.763,0.828
		c0.595,0.439,4.774,3.364,10.225,2.817c6.324-0.632,9.085-3.063,12.036-6.179c1.397-1.471,2.19-3.4,2.631-4.945
		c2.047,1.521,5.592,1.967,8.767,1.043c1.049-0.305,1.811-0.609,2.482-0.879c1.218-0.485,2.1-0.839,3.928-0.927
		c2.891-0.137,6.618,0.044,6.657,0.045l0.446,0.024l-0.026-2.556l-0.427,0.009c-0.049,0.003-4.871,0.124-7.291-0.383
		c-2.12-0.105-3.189-0.719-3.193-1.031c-0.001-0.143,0.289-0.449,1.172-0.751c0.346-0.202,0.797-0.411,1.502-0.446
		c2.895-0.136,7.86,0.034,7.912,0.035l0.439-0.005l-0.026-2.53l-0.426,0.01c-0.033,0.002-3.37,0.082-6.071-0.112
		c-0.213,0.013-0.432,0.021-0.654,0.024c-2.41,0.025-3.892-0.666-3.896-1.049c-0.002-0.214,0.638-0.723,2.269-1.001
		c0.216-0.083,0.483-0.129,0.822-0.146c2.896-0.141,7.447,0.034,7.493,0.034l0.441-0.01l-0.021-2.094l-0.004-0.428l-0.427,0.012
		c-0.046,0-4.63,0.106-7.354-0.25c-2.16-0.074-3.199-0.594-3.268-0.776c0.021-0.063,0.299-0.351,1.379-0.629
		c0.286-0.142,0.505-0.213,0.673-0.22c3.462-0.145,8.478-0.125,8.53-0.122l0.427,0.001l-0.026-2.535l-0.426,0.01
		c-0.076,0-7.744,0.164-10.22-0.479c-0.843-0.218-1.577-0.504-2.18-0.854c-2.384-2.615-6.815-4.392-12.224-4.983
		c-0.017-0.054-0.033-0.11-0.045-0.157c-0.169-0.59-0.564-1.166-1.113-1.96c-0.939-1.365-2.359-3.424-3.622-7.157
		c-0.514-1.517-0.78-2.963-0.794-4.297c-0.014-1.496,0.306-2.312,0.309-2.32l-0.735-0.402c0,0-0.44,0.629-0.842,1.238
		c0.066-0.394,0.178-0.882,0.327-1.427c0.405-1.48,0.606-2.661,0.69-3.243c0.055-0.224,0.065-0.378,0.064-0.467l-0.008-0.113
		L245.712,288.221z M238.505,324.047c-2.075,0.021-3.791-2.815-3.826-6.317c-0.034-3.502,1.625-6.37,3.7-6.391
		c2.074-0.021,3.79,2.812,3.825,6.316C242.238,321.157,240.579,324.025,238.505,324.047 M245.983,304.269
		c0.861,0.35,1.569,1.27,1.822,1.995c0.205,0.579,0.29,0.85,0.324,0.97l-0.981,2.758c-0.761-0.762-3.602-1.693-3.602-1.693
		s-0.496,0.594-0.483,1.97c0.014,1.375,0.398,2.258,0.398,2.258s2.835-1.036,3.652-1.827l1.073,2.547
		c-0.032,0.125-0.112,0.394-0.301,0.969c-0.227,0.691-0.867,1.609-1.74,1.999c-0.487,0.214-0.966,0.221-1.423,0.017
		c-1.477-0.656-2.528-3.158-2.558-6.08c-0.022-2.217,0.609-4.916,2.45-5.846C245.044,304.089,245.504,304.077,245.983,304.269
		 M242.052,302.404c0.035,3.501-1.625,6.37-3.699,6.392c-2.074,0.02-3.79-2.814-3.825-6.316c-0.035-3.504,1.624-6.373,3.699-6.393
		C240.302,296.065,242.017,298.899,242.052,302.404"/>
	<path fill="#0089BB" d="M235.392,302.177c0.001,0.178,1.187,0.449,2.646,0.436c1.459-0.016,2.608-0.341,2.607-0.486
		c-0.001-0.145-1.157-0.45-2.616-0.435C236.569,301.704,235.39,302.001,235.392,302.177"/>
	<path fill="#0089BB" d="M406.98,342.037v-2.151h1.232c1.199,0,2.15,0.952,2.15,2.158c0,0.953-0.561,1.606-1.088,1.896
		c-0.356,0.195-0.535,0.264-1.988,0.264s-1.633-0.068-1.989-0.264c-0.526-0.29-1.089-0.943-1.089-1.896
		c0-1.147,0.809-1.938,1.795-2.123v0.968c-0.468,0.145-0.876,0.578-0.876,1.155c0,0.434,0.204,0.748,0.442,0.936
		c0.306,0.238,0.476,0.305,1.717,0.305c1.24,0,1.41-0.066,1.717-0.305c0.238-0.188,0.441-0.502,0.441-0.936
		c0-0.695-0.526-1.239-1.283-1.239h-0.314v1.232H406.98z"/>
	<path fill="#0089BB" d="M406.004,338.89v-0.864h0.459v-0.019c-0.34-0.271-0.51-0.664-0.51-1.123c0-0.347,0.127-0.638,0.33-0.899
		l0.748,0.629c-0.152,0.204-0.212,0.349-0.212,0.57c0,0.425,0.272,0.842,0.901,0.842h2.592v0.864H406.004z"/>
	<path fill="#0089BB" d="M409.93,333.476v0.017c0.298,0.177,0.434,0.476,0.434,1.062c0,0.961-0.569,1.521-1.317,1.521
		c-0.688,0-1.274-0.475-1.274-1.403v-1.196h-0.451c-0.407,0-0.552,0.263-0.552,0.884c0,0.45,0.085,0.662,0.331,0.815l-0.518,0.68
		c-0.459-0.332-0.629-0.808-0.629-1.453c0-1.063,0.356-1.792,1.418-1.792h2.941v0.866H409.93z M408.485,333.476v1.035
		c0,0.511,0.204,0.748,0.519,0.748c0.289,0,0.544-0.229,0.544-0.814c0-0.723-0.077-0.969-0.748-0.969H408.485z"/>
	<path fill="#0089BB" d="M406.004,331.484v-0.867h0.45c-0.298-0.271-0.501-0.671-0.501-1.112c0-0.527,0.237-0.908,0.562-1.156
		c0.305-0.238,0.585-0.305,1.647-0.305c1.055,0,1.334,0.066,1.641,0.305c0.322,0.248,0.561,0.629,0.561,1.156
		c0,0.441-0.203,0.792-0.51,1.112h2.201v0.867H406.004z M408.162,328.909c-0.672,0-1.343,0.043-1.343,0.858
		c0,0.808,0.714,0.85,1.343,0.85c0.621,0,1.334-0.042,1.334-0.85C409.496,328.952,408.825,328.909,408.162,328.909"/>
	<path fill="#0089BB" d="M404.262,327.073v-0.865h2.201v-0.018c-0.34-0.271-0.51-0.665-0.51-1.123c0-0.671,0.518-1.435,1.496-1.435
		h2.863v0.867h-2.566c-0.587,0-0.927,0.364-0.927,0.849c0,0.493,0.34,0.859,0.927,0.859h2.566v0.865H404.262z"/>
	<path fill="#0089BB" d="M404.262,322.484v-0.867h0.866v0.867H404.262z M406.004,322.484v-0.867h4.309v0.867H406.004z"/>
	<path fill="#0089BB" d="M409.615,317.301c0.434,0.372,0.748,0.892,0.748,1.546c0,0.995-0.629,1.954-2.201,1.954
		c-1.58,0-2.209-0.959-2.209-1.954c0-0.654,0.314-1.174,0.747-1.546l0.569,0.637c-0.264,0.213-0.45,0.518-0.45,0.875
		c0,0.705,0.4,1.122,1.343,1.122c0.936,0,1.334-0.417,1.334-1.122c0-0.357-0.187-0.662-0.45-0.875L409.615,317.301z"/>
	<path fill="#0089BB" d="M408.995,316.567c0.365-0.372,0.552-0.78,0.552-1.358c0-0.493-0.187-0.851-0.552-0.851
		c-0.306,0-0.399,0.229-0.425,0.527l-0.068,0.764c-0.059,0.715-0.484,1.242-1.224,1.242c-0.876,0-1.325-0.696-1.325-1.607
		c0-0.755,0.229-1.267,0.586-1.691l0.629,0.536c-0.237,0.339-0.399,0.688-0.399,1.155c0,0.554,0.221,0.74,0.519,0.74
		c0.188,0,0.373-0.137,0.408-0.569l0.051-0.713c0.06-0.894,0.604-1.25,1.291-1.25c0.842,0,1.326,0.779,1.326,1.783
		c0,0.698-0.255,1.345-0.773,1.896L408.995,316.567z"/>
	<path fill="#0089BB" d="M404.21,307.738c0-1.701,1.377-3.079,3.077-3.079c1.699,0,3.076,1.378,3.076,3.079
		c0,1.698-1.377,3.075-3.076,3.075C405.587,310.813,404.21,309.437,404.21,307.738 M409.752,307.738
		c0-1.388-1.029-2.415-2.465-2.415c-1.437,0-2.465,1.027-2.465,2.415c0,1.384,1.028,2.412,2.465,2.412
		C408.723,310.15,409.752,309.122,409.752,307.738 M407.822,306.071c0.9,0.152,1.428,0.756,1.428,1.555
		c0,1.157-0.842,1.87-1.963,1.87c-1.147,0-1.963-0.671-1.963-1.846c0-0.823,0.458-1.471,1.385-1.579v0.611
		c-0.451,0.093-0.773,0.477-0.773,0.96c0,0.757,0.604,1.191,1.334,1.191c0.705,0,1.369-0.478,1.369-1.208
		c0-0.484-0.34-0.867-0.816-0.943V306.071z"/>
	<polygon fill="#0089BB" points="407.67,298.346 407.67,300.741 410.313,300.741 410.313,301.659 404.262,301.659 404.262,300.741 
		406.854,300.741 406.854,298.346 404.262,298.346 404.262,297.426 410.313,297.426 410.313,298.346 	"/>
	<path fill="#0089BB" d="M409.93,293.968v0.017c0.298,0.178,0.434,0.475,0.434,1.062c0,0.962-0.569,1.521-1.317,1.521
		c-0.688,0-1.274-0.475-1.274-1.402v-1.197h-0.451c-0.407,0-0.552,0.264-0.552,0.883c0,0.451,0.085,0.663,0.331,0.816l-0.518,0.68
		c-0.459-0.332-0.629-0.809-0.629-1.453c0-1.063,0.356-1.793,1.418-1.793h2.941v0.867H409.93z M408.485,293.968v1.036
		c0,0.51,0.204,0.747,0.519,0.747c0.289,0,0.544-0.229,0.544-0.814c0-0.724-0.077-0.969-0.748-0.969H408.485z"/>
	<path fill="#0089BB" d="M406.004,291.978v-0.867h0.45c-0.298-0.271-0.501-0.672-0.501-1.113c0-0.527,0.237-0.909,0.562-1.156
		c0.305-0.237,0.585-0.304,1.647-0.304c1.055,0,1.334,0.066,1.641,0.304c0.322,0.247,0.561,0.629,0.561,1.156
		c0,0.441-0.203,0.791-0.51,1.113h2.201v0.867H406.004z M408.162,289.401c-0.672,0-1.343,0.044-1.343,0.859
		c0,0.807,0.714,0.85,1.343,0.85c0.621,0,1.334-0.043,1.334-0.85C409.496,289.445,408.825,289.401,408.162,289.401"/>
	<path fill="#0089BB" d="M406.004,287.565V286.7h0.45c-0.298-0.273-0.501-0.672-0.501-1.113c0-0.528,0.237-0.91,0.562-1.157
		c0.305-0.237,0.585-0.305,1.647-0.305c1.055,0,1.334,0.067,1.641,0.305c0.322,0.247,0.561,0.629,0.561,1.157
		c0,0.441-0.203,0.789-0.51,1.113h2.201v0.865H406.004z M408.162,284.992c-0.672,0-1.343,0.042-1.343,0.856
		c0,0.809,0.714,0.852,1.343,0.852c0.621,0,1.334-0.043,1.334-0.852C409.496,285.034,408.825,284.992,408.162,284.992"/>
	<path fill="#0089BB" d="M406.004,283.775v-0.919l3.017-1.02v-0.017l-3.017-1.021v-0.918l5.201,1.854
		c0.662,0.238,0.85,0.687,0.85,1.215v0.289h-0.816v-0.255c0-0.222-0.118-0.434-0.373-0.519l-0.723-0.238L406.004,283.775z"/>
	<path fill="#0089BB" d="M409.496,277.63l-2.957-2.362c-0.238-0.188-0.426-0.222-0.604-0.222c-0.425,0-0.857,0.313-0.857,0.832
		c0,0.469,0.331,0.843,0.876,0.885v0.867c-0.986-0.009-1.743-0.773-1.743-1.684c0-1.012,0.773-1.767,1.733-1.767
		c0.4,0,0.748,0.108,1.063,0.364l2.439,1.947v-2.312h0.867v3.45H409.496z"/>
	<path fill="#0089BB" d="M405.953,273.499c-1.114,0-1.743-0.826-1.743-1.716c0-0.894,0.629-1.718,1.743-1.718h2.668
		c1.113,0,1.742,0.824,1.742,1.718c0,0.89-0.629,1.716-1.742,1.716H405.953z M406.004,270.931c-0.587,0-0.927,0.341-0.927,0.853
		c0,0.509,0.34,0.849,0.927,0.849h2.566c0.586,0,0.926-0.34,0.926-0.849c0-0.512-0.34-0.853-0.926-0.853H406.004z"/>
	<polygon fill="#0089BB" points="405.18,268.093 405.809,268.95 404.891,268.95 404.262,268.093 404.262,267.226 410.313,267.226 
		410.313,268.093 	"/>
	<path fill="#0089BB" d="M409.496,265.39l-2.957-2.363c-0.238-0.188-0.426-0.221-0.604-0.221c-0.425,0-0.857,0.314-0.857,0.832
		c0,0.469,0.331,0.842,0.876,0.885v0.867c-0.986-0.01-1.743-0.772-1.743-1.685c0-1.01,0.773-1.767,1.733-1.767
		c0.4,0,0.748,0.109,1.063,0.365l2.439,1.947v-2.313h0.867v3.451H409.496z"/>
	<rect x="409.445" y="260.128" fill="#0089BB" width="0.867" height="0.867"/>
	<path fill="#0089BB" d="M408.961,253.761v2.294l1.352,0.47v0.969l-6.051-2.201v-0.766l6.051-2.201v0.969L408.961,253.761z
		 M408.145,254.025l-2.643,0.875v0.017l2.643,0.875V254.025z"/>
	<path fill="#0089BB" d="M404.262,251.755v-0.868h4.938c0.194,0,0.296-0.111,0.296-0.321v-0.299h0.816v0.383
		c0,0.628-0.271,1.105-1.045,1.105H404.262z"/>
	<path fill="#0089BB" d="M404.262,249.562v-0.866h4.938c0.194,0,0.296-0.112,0.296-0.324v-0.297h0.816v0.383
		c0,0.627-0.271,1.104-1.045,1.104H404.262z"/>
	<path fill="#0089BB" d="M406.004,245.33v-0.867h0.459v-0.018c-0.34-0.272-0.51-0.664-0.51-1.122c0-0.348,0.127-0.637,0.33-0.9
		l0.748,0.629c-0.152,0.203-0.212,0.348-0.212,0.569c0,0.426,0.272,0.842,0.901,0.842h2.592v0.867H406.004z"/>
	<path fill="#0089BB" d="M404.262,241.996v-0.866h0.866v0.866H404.262z M406.004,241.996v-0.866h4.309v0.866H406.004z"/>
	<path fill="#0089BB" d="M409.861,237.559c0.299,0.271,0.502,0.672,0.502,1.113c0,0.562-0.28,0.944-0.527,1.141
		c-0.322,0.246-0.483,0.322-1.674,0.322c-1.198,0-1.359-0.076-1.683-0.322c-0.247-0.196-0.526-0.579-0.526-1.141
		c0-0.441,0.17-0.789,0.51-1.113h-0.459v-0.865h4.207c1.3,0,1.895,0.883,1.895,1.869c0,0.553-0.289,1.112-0.723,1.496l-0.535-0.672
		c0.214-0.213,0.391-0.51,0.391-0.842c0-0.578-0.331-0.986-0.934-0.986H409.861z M409.165,239.099
		c0.153-0.12,0.331-0.341,0.331-0.688c0-0.34-0.178-0.562-0.331-0.68c-0.195-0.154-0.314-0.172-1.003-0.172
		c-0.697,0-0.816,0.018-1.012,0.172c-0.152,0.118-0.331,0.34-0.331,0.68c0,0.348,0.179,0.568,0.331,0.688
		c0.195,0.151,0.314,0.169,1.012,0.169C408.851,239.268,408.97,239.25,409.165,239.099"/>
	<path fill="#0089BB" d="M404.262,235.571v-0.866h2.201v-0.019c-0.34-0.271-0.51-0.662-0.51-1.121c0-0.673,0.518-1.436,1.496-1.436
		h2.863v0.866h-2.566c-0.587,0-0.927,0.364-0.927,0.85c0,0.493,0.34,0.859,0.927,0.859h2.566v0.866H404.262z"/>
	<path fill="#0089BB" d="M404.694,230.955v-0.866h1.31v-0.629h0.662v0.629h2.507c0.239,0,0.323-0.094,0.323-0.308v-0.321h0.816
		v0.449c0,0.605-0.383,1.046-1.063,1.046h-2.584v0.435h-0.662v-0.435H404.694z"/>
	<path fill="#0089BB" d="M408.995,228.517c0.365-0.375,0.552-0.783,0.552-1.361c0-0.493-0.187-0.852-0.552-0.852
		c-0.306,0-0.399,0.232-0.425,0.528l-0.068,0.767c-0.059,0.713-0.484,1.238-1.224,1.238c-0.876,0-1.325-0.695-1.325-1.604
		c0-0.757,0.229-1.269,0.586-1.692l0.629,0.535c-0.237,0.34-0.399,0.688-0.399,1.157c0,0.552,0.221,0.737,0.519,0.737
		c0.188,0,0.373-0.135,0.408-0.567l0.051-0.716c0.06-0.893,0.604-1.248,1.291-1.248c0.842,0,1.326,0.781,1.326,1.784
		c0,0.696-0.255,1.343-0.773,1.896L408.995,228.517z"/>
	<path fill="#0089BB" d="M406.004,222.522v-0.865h0.459v-0.018c-0.34-0.271-0.51-0.664-0.51-1.122c0-0.349,0.127-0.638,0.33-0.901
		l0.748,0.63c-0.152,0.204-0.212,0.349-0.212,0.57c0,0.425,0.272,0.841,0.901,0.841h2.592v0.865H406.004z"/>
	<path fill="#0089BB" d="M408.485,218.712c0.705,0,1.062-0.433,1.062-1.028c0-0.33-0.152-0.688-0.416-0.942l0.535-0.629
		c0.494,0.425,0.697,0.978,0.697,1.556c0,0.882-0.425,1.912-2.192,1.912c-1.675,0-2.218-0.943-2.218-1.777
		c0-0.95,0.705-1.774,1.818-1.774h0.714V218.712z M407.771,216.896c-0.654,0.024-1.003,0.397-1.003,0.907
		c0,0.512,0.349,0.893,1.003,0.909V216.896z"/>
	<path fill="#0089BB" d="M408.995,214.991c0.365-0.375,0.552-0.782,0.552-1.359c0-0.494-0.187-0.852-0.552-0.852
		c-0.306,0-0.399,0.231-0.425,0.527l-0.068,0.766c-0.059,0.714-0.484,1.24-1.224,1.24c-0.876,0-1.325-0.697-1.325-1.604
		c0-0.757,0.229-1.269,0.586-1.692l0.629,0.535c-0.237,0.34-0.399,0.688-0.399,1.157c0,0.552,0.221,0.737,0.519,0.737
		c0.188,0,0.373-0.135,0.408-0.567l0.051-0.716c0.06-0.893,0.604-1.248,1.291-1.248c0.842,0,1.326,0.781,1.326,1.783
		c0,0.697-0.255,1.344-0.773,1.897L408.995,214.991z"/>
	<path fill="#0089BB" d="M408.485,210.383c0.705,0,1.062-0.434,1.062-1.029c0-0.329-0.152-0.688-0.416-0.941l0.535-0.629
		c0.494,0.425,0.697,0.977,0.697,1.554c0,0.884-0.425,1.913-2.192,1.913c-1.675,0-2.218-0.943-2.218-1.777
		c0-0.952,0.705-1.775,1.818-1.775h0.714V210.383z M407.771,208.566c-0.654,0.024-1.003,0.396-1.003,0.907s0.349,0.893,1.003,0.91
		V208.566z"/>
	<path fill="#0089BB" d="M406.004,206.788v-0.866h0.459v-0.018c-0.34-0.271-0.51-0.663-0.51-1.123c0-0.348,0.127-0.636,0.33-0.898
		l0.748,0.629c-0.152,0.202-0.212,0.347-0.212,0.568c0,0.425,0.272,0.842,0.901,0.842h2.592v0.866H406.004z"/>
	<polygon fill="#0089BB" points="406.004,204.092 406.004,203.175 409.021,202.163 409.021,202.147 406.004,201.136 
		406.004,200.217 410.313,201.797 410.313,202.512 	"/>
	<path fill="#0089BB" d="M408.485,199.103c0.705,0,1.062-0.433,1.062-1.028c0-0.332-0.152-0.688-0.416-0.942l0.535-0.629
		c0.494,0.425,0.697,0.976,0.697,1.554c0,0.885-0.425,1.913-2.192,1.913c-1.675,0-2.218-0.945-2.218-1.776
		c0-0.953,0.705-1.775,1.818-1.775h0.714V199.103z M407.771,197.284c-0.654,0.024-1.003,0.399-1.003,0.91s0.349,0.894,1.003,0.909
		V197.284z"/>
	<path fill="#0089BB" d="M409.861,192.933c0.299,0.271,0.502,0.671,0.502,1.112c0,0.527-0.238,0.909-0.562,1.156
		c-0.306,0.239-0.585,0.306-1.647,0.306c-1.055,0-1.335-0.066-1.641-0.306c-0.323-0.247-0.561-0.629-0.561-1.156
		c0-0.441,0.203-0.791,0.51-1.112h-2.201v-0.867h6.051v0.867H409.861z M408.154,194.642c0.671,0,1.342-0.043,1.342-0.859
		c0-0.808-0.713-0.85-1.342-0.85c-0.621,0-1.335,0.042-1.335,0.85C406.819,194.599,407.49,194.642,408.154,194.642"/>
	<rect x="409.445" y="190.205" fill="#0089BB" width="0.867" height="0.866"/>
	<path fill="#0089BB" d="M105.242,164.643c-0.539-1.374-1.408-2.765-2.601-4.025c-3.521-3.731-8.453-4.929-11.013-2.68
		c-2.562,2.247-1.782,7.093,1.738,10.821c1.434,1.518,3.102,2.607,4.748,3.226c-0.669,0.216-1.166,0.47-1.439,0.75
		c-0.192-0.831-0.952-1.459-1.873-1.47c-0.455-0.003-0.869,0.148-1.205,0.398l-4.618-2.531l-0.415,0.703l4.489,2.462
		c-0.129,0.249-0.209,0.524-0.212,0.82c-0.003,0.313,0.081,0.604,0.217,0.864l-4.563,2.379l0.4,0.713l4.712-2.455
		c0.321,0.241,0.719,0.389,1.155,0.395c0.881,0.01,1.62-0.551,1.869-1.32c0.236,0.271,0.68,0.528,1.287,0.754
		c-1.604,0.591-3.23,1.615-4.646,3.05c-3.597,3.658-4.479,8.483-1.967,10.787c2.513,2.302,7.468,1.206,11.069-2.446
		c1.218-1.236,2.117-2.608,2.686-3.971c0.51,0.751,1.16,1.479,1.942,2.135c3.084,2.579,7.019,3.074,8.789,1.105
		c1.771-1.969,0.709-5.656-2.373-8.235c-1.082-0.905-2.267-1.544-3.427-1.917c1.75-0.367,2.864-0.92,2.871-1.553
		c0.006-0.662-1.205-1.265-3.097-1.667c1.25-0.333,2.545-0.973,3.728-1.921c3.138-2.512,4.277-6.176,2.548-8.181
		c-1.729-2.009-5.673-1.596-8.81,0.915C106.434,163.188,105.769,163.901,105.242,164.643 M104.623,175.405
		c1.63,0.017,3.147-0.089,4.428-0.284c0.462,0.238,0.918,0.535,1.35,0.897c2.158,1.805,2.903,4.386,1.662,5.763
		c-1.239,1.378-3.993,1.035-6.152-0.772c-0.548-0.459-1.003-0.969-1.359-1.494c-0.399,0.953-1.03,1.914-1.882,2.779
		c-2.52,2.56-5.989,3.322-7.747,1.711c-1.758-1.608-1.143-4.99,1.378-7.547c0.739-0.752,1.561-1.337,2.397-1.762
		C100.189,175.109,102.287,175.38,104.623,175.405 M112.241,165.012c1.21,1.403,0.413,3.968-1.784,5.727
		c-0.44,0.354-0.903,0.634-1.372,0.866c-1.274-0.225-2.788-0.362-4.418-0.379c-2.339-0.025-4.447,0.201-5.949,0.584
		c-0.822-0.443-1.627-1.045-2.349-1.81c-2.466-2.61-3.01-6.004-1.216-7.578c1.792-1.571,5.242-0.733,7.708,1.878
		c0.835,0.884,1.444,1.856,1.82,2.82c0.37-0.52,0.834-1.017,1.393-1.466C108.27,163.896,111.032,163.608,112.241,165.012"/>
</g>
</svg>
